<svg width="93" height="92" viewBox="0 0 93 92" fill="none"
    xmlns="http://www.w3.org/2000/svg">
    <g filter="url(#filter0_dii_2074_3767)">
        <circle cx="44.25" cy="44" r="38" fill="#5B94EA"/>
    </g>
    <path d="M48.868 28.6083C54.634 28.6083 60.3997 28.6083 66.1648 28.6083C66.1648 38.2012 66.1648 47.7936 66.1648 57.3861C60.3997 57.3861 54.634 57.3861 48.868 57.3861C48.868 47.7936 48.868 38.2012 48.868 28.6083ZM47.4078 62.0221C46.6511 61.3972 45.8948 60.7727 45.1377 60.1482C44.9514 59.9938 44.5868 59.9955 44.401 60.1482C43.6361 60.7748 42.8713 61.401 42.1069 62.0285C42.1069 50.8881 42.1069 39.7482 42.1069 28.6083C42.115 28.6083 42.1235 28.6083 42.1312 28.6083C43.7939 28.6083 45.4561 28.6083 47.1188 28.6083C47.2151 28.6083 47.3119 28.6083 47.4078 28.6083C47.4078 39.7465 47.4078 50.8843 47.4078 62.0221ZM40.6467 57.3861C34.7929 57.3861 28.939 57.3861 23.0852 57.3861C23.0852 47.7936 23.0852 38.2012 23.0852 28.6083C28.939 28.6083 34.7929 28.6083 40.6467 28.6083C40.6467 38.2012 40.6467 47.7936 40.6467 57.3861ZM47.1188 26.9999C45.4561 26.9999 43.7939 26.9999 42.1312 26.9999C41.8801 26.9999 41.6286 26.9999 41.3766 26.9999C35.0363 26.9999 28.696 26.9999 22.3553 26.9999C21.9605 26.9999 21.625 27.3688 21.625 27.8041C21.625 37.9331 21.625 48.0617 21.625 58.1903C21.625 58.6252 21.9597 58.9945 22.3553 58.9945C28.4522 58.9945 34.5494 58.9945 40.6467 58.9945C40.6467 60.5376 40.6467 62.08 40.6467 63.6227C40.6467 64.1816 41.2858 64.6941 41.7454 64.3171C42.2608 63.8951 42.7762 63.4726 43.2917 63.0497C43.6715 62.7392 44.0501 62.4287 44.43 62.1164C44.5267 62.038 44.6691 61.9492 44.7902 61.8651C44.8631 61.9148 44.9347 61.9676 44.988 62.0216C45.3184 62.3566 45.7256 62.6307 46.0854 62.9279C46.6464 63.3907 47.2083 63.8539 47.7698 64.3171C48.0827 64.5762 48.3909 64.4823 48.5913 64.2434C48.7537 64.116 48.868 63.9114 48.868 63.6227C48.868 62.08 48.868 60.5376 48.868 58.9945C54.877 58.9945 60.8861 58.9945 66.8951 58.9945C67.1092 58.9945 67.272 58.9082 67.3888 58.7796C67.3973 58.7718 67.4055 58.7616 67.414 58.7534C67.4182 58.7483 67.4229 58.7431 67.4268 58.738C67.5457 58.6093 67.625 58.4287 67.625 58.1903C67.625 48.0617 67.625 37.9331 67.625 27.8041C67.625 27.3696 67.2908 26.9999 66.8951 26.9999C60.6427 26.9999 54.3902 26.9999 48.1377 26.9999C47.7979 26.9999 47.4586 26.9999 47.1188 26.9999Z" fill="white"/>
    <path d="M26.4331 32.1377C29.8927 32.1377 33.3526 32.1377 36.8122 32.1377C37.4422 32.1377 37.4435 31.0654 36.8122 31.0654C33.3526 31.0654 29.8927 31.0654 26.4331 31.0654C25.8031 31.0654 25.8018 32.1377 26.4331 32.1377Z" fill="white"/>
    <path d="M26.4331 36.646C29.8927 36.646 33.3526 36.646 36.8122 36.646C37.4422 36.646 37.4435 35.5737 36.8122 35.5737C33.3526 35.5737 29.8927 35.5737 26.4331 35.5737C25.8031 35.5737 25.8018 36.646 26.4331 36.646Z" fill="white"/>
    <path d="M26.4331 41.1548C29.8927 41.1548 33.3526 41.1548 36.8122 41.1548C37.4422 41.1548 37.4435 40.0825 36.8122 40.0825C33.3526 40.0825 29.8927 40.0825 26.4331 40.0825C25.8031 40.0825 25.8018 41.1548 26.4331 41.1548Z" fill="white"/>
    <path d="M26.4331 45.6636C29.8927 45.6636 33.3526 45.6636 36.8122 45.6636C37.4422 45.6636 37.4435 44.5913 36.8122 44.5913C33.3526 44.5913 29.8927 44.5913 26.4331 44.5913C25.8031 44.5913 25.8018 45.6636 26.4331 45.6636Z" fill="white"/>
    <path d="M63.1524 31.0654C59.6924 31.0654 56.2325 31.0654 52.7729 31.0654C52.1429 31.0654 52.142 32.1377 52.7729 32.1377C56.2325 32.1377 59.6924 32.1377 63.1524 32.1377C63.7825 32.1377 63.7837 31.0654 63.1524 31.0654Z" fill="white"/>
    <path d="M63.1524 35.5737C59.6924 35.5737 56.2325 35.5737 52.7729 35.5737C52.1429 35.5737 52.142 36.646 52.7729 36.646C56.2325 36.646 59.6924 36.646 63.1524 36.646C63.7825 36.646 63.7837 35.5737 63.1524 35.5737Z" fill="white"/>
    <path d="M63.1524 40.0825C59.6924 40.0825 56.2325 40.0825 52.7729 40.0825C52.1429 40.0825 52.142 41.1548 52.7729 41.1548C56.2325 41.1548 59.6924 41.1548 63.1524 41.1548C63.7825 41.1548 63.7837 40.0825 63.1524 40.0825Z" fill="white"/>
    <path d="M63.1524 44.5913C59.6924 44.5913 56.2325 44.5913 52.7729 44.5913C52.1429 44.5913 52.142 45.6636 52.7729 45.6636C56.2325 45.6636 59.6924 45.6636 63.1524 45.6636C63.7825 45.6636 63.7837 44.5913 63.1524 44.5913Z" fill="white"/>
    <defs>
        <filter id="filter0_dii_2074_3767" x="0.25" y="0" width="92" height="92" filterUnits="userSpaceOnUse" color-interpolation-filters="sRGB">
            <feFlood flood-opacity="0" result="BackgroundImageFix"/>
            <feColorMatrix in="SourceAlpha" type="matrix" values="0 0 0 0 0 0 0 0 0 0 0 0 0 0 0 0 0 0 127 0" result="hardAlpha"/>
            <feOffset dx="2" dy="2"/>
            <feGaussianBlur stdDeviation="4"/>
            <feComposite in2="hardAlpha" operator="out"/>
            <feColorMatrix type="matrix" values="0 0 0 0 0 0 0 0 0 0 0 0 0 0 0 0 0 0 0.4 0"/>
            <feBlend mode="normal" in2="BackgroundImageFix" result="effect1_dropShadow_2074_3767"/>
            <feBlend mode="normal" in="SourceGraphic" in2="effect1_dropShadow_2074_3767" result="shape"/>
            <feColorMatrix in="SourceAlpha" type="matrix" values="0 0 0 0 0 0 0 0 0 0 0 0 0 0 0 0 0 0 127 0" result="hardAlpha"/>
            <feOffset dx="2" dy="2"/>
            <feGaussianBlur stdDeviation="4.1"/>
            <feComposite in2="hardAlpha" operator="arithmetic" k2="-1" k3="1"/>
            <feColorMatrix type="matrix" values="0 0 0 0 1 0 0 0 0 1 0 0 0 0 1 0 0 0 1 0"/>
            <feBlend mode="normal" in2="shape" result="effect2_innerShadow_2074_3767"/>
            <feColorMatrix in="SourceAlpha" type="matrix" values="0 0 0 0 0 0 0 0 0 0 0 0 0 0 0 0 0 0 127 0" result="hardAlpha"/>
            <feOffset dx="-2" dy="-2"/>
            <feGaussianBlur stdDeviation="4.1"/>
            <feComposite in2="hardAlpha" operator="arithmetic" k2="-1" k3="1"/>
            <feColorMatrix type="matrix" values="0 0 0 0 0.262745 0 0 0 0 0.376471 0 0 0 0 0.972549 0 0 0 1 0"/>
            <feBlend mode="normal" in2="effect2_innerShadow_2074_3767" result="effect3_innerShadow_2074_3767"/>
        </filter>
    </defs>
</svg>
