<svg width="870" height="278" viewBox="0 0 870 278" fill="none"
    xmlns="http://www.w3.org/2000/svg">
    <path fill-rule="evenodd" clip-rule="evenodd" d="M217.41 277.136C203.912 277.136 183.566 272.224 160.689 264.893C137.795 257.555 112.308 247.773 88.5059 237.995C64.7022 228.216 42.5764 218.438 26.4019 211.104C18.3144 207.437 11.7145 204.381 7.13615 202.242C4.84698 201.172 3.06319 200.332 1.85155 199.759C1.24573 199.472 0.782943 199.253 0.471538 199.104L0.11901 198.937L0.0298523 198.894L0.00739264 198.883L0.00173536 198.881C0.000461441 198.88 -0.000190619 198.88 0.215511 198.429C0.431213 197.977 0.431809 197.978 0.433026 197.978L0.438571 197.981L0.460803 197.992L0.549501 198.034L0.901092 198.201C1.21186 198.349 1.67399 198.569 2.27914 198.855C3.48944 199.427 5.2718 200.267 7.55946 201.336C12.1348 203.474 18.7313 206.528 26.8148 210.193C42.9822 217.524 65.0965 227.297 88.8859 237.07C112.676 246.844 138.136 256.614 160.994 263.94C183.871 271.272 204.085 276.136 217.41 276.136C248.058 276.136 270.336 271.258 288.432 263.953C306.534 256.645 320.472 246.901 334.456 237.123L334.472 237.112L334.472 237.112C348.445 227.342 362.465 217.538 380.679 210.185C398.907 202.826 421.315 197.929 452.076 197.929C495.689 197.929 562.178 205.158 628.626 212.384L628.656 212.387C695.139 219.616 761.577 226.84 805.129 226.84C842.696 226.84 858.156 219.607 864.27 212.556C867.315 209.046 868.067 205.553 868.068 202.946C868.068 201.638 867.88 200.55 867.692 199.791C867.599 199.412 867.506 199.116 867.437 198.917C867.402 198.817 867.374 198.742 867.355 198.694L867.344 198.666L867.333 198.64L867.329 198.628L867.328 198.627C867.328 198.627 867.328 198.627 867.391 198.6C867.45 198.574 867.564 198.525 867.787 198.429C868.246 198.23 868.246 198.231 868.246 198.231L868.247 198.233L868.25 198.239L868.258 198.259C868.265 198.276 868.274 198.299 868.286 198.329C868.31 198.39 868.343 198.477 868.382 198.59C868.459 198.814 868.562 199.139 868.663 199.551C868.867 200.373 869.069 201.543 869.068 202.946C869.067 205.76 868.249 209.495 865.026 213.212C858.604 220.617 842.735 227.84 805.129 227.84C761.516 227.84 695.027 220.61 628.579 213.384L628.548 213.381C562.065 206.152 495.628 198.929 452.076 198.929C421.428 198.929 399.149 203.807 381.054 211.112C362.951 218.42 349.013 228.164 335.029 237.942L335.014 237.953L335.013 237.953C321.041 247.723 307.02 257.527 288.806 264.88C270.578 272.239 248.171 277.136 217.41 277.136ZM160.691 250.437C183.568 257.769 203.914 262.681 217.412 262.681C248.173 262.681 270.58 257.784 288.808 250.425C307.022 243.072 321.043 233.268 335.015 223.498L335.016 223.498L335.031 223.487C349.015 213.709 362.953 203.965 381.056 196.657C399.151 189.352 421.43 184.473 452.078 184.473C495.63 184.473 562.067 191.697 628.55 198.926L628.581 198.929C695.029 206.155 761.518 213.384 805.131 213.384C842.737 213.384 858.606 206.162 865.028 198.756C868.251 195.04 869.069 191.305 869.07 188.491C869.071 187.088 868.869 185.918 868.665 185.096C868.564 184.684 868.461 184.359 868.384 184.134C868.345 184.022 868.312 183.935 868.288 183.874L868.271 183.83L868.26 183.804L868.252 183.784L868.249 183.778L868.248 183.776C868.248 183.775 868.248 183.775 867.789 183.973C867.33 184.172 867.33 184.172 867.33 184.171L867.331 184.173L867.335 184.185C867.34 184.196 867.347 184.214 867.357 184.238C867.367 184.264 867.38 184.298 867.395 184.338C867.408 184.374 867.423 184.415 867.439 184.462C867.508 184.66 867.601 184.956 867.695 185.336C867.882 186.094 868.07 187.183 868.07 188.49C868.069 191.098 867.317 194.59 864.272 198.101C858.158 205.151 842.698 212.384 805.131 212.384C761.579 212.384 695.141 205.161 628.658 197.932L628.628 197.928C562.18 190.703 495.691 183.473 452.078 183.473C421.317 183.473 398.909 188.371 380.681 195.73C362.467 203.083 348.447 212.886 334.474 222.656L334.474 222.657L334.458 222.667C320.474 232.446 306.536 242.19 288.434 249.498C270.338 256.803 248.06 261.681 217.412 261.681C204.087 261.681 183.873 256.817 160.996 249.485C138.138 242.159 112.678 232.388 88.8879 222.615C65.0986 212.842 42.9842 203.068 26.8168 195.738C18.7333 192.073 12.1368 189.019 7.56149 186.881C5.27383 185.812 3.49148 184.972 2.28118 184.4C1.67603 184.113 1.21389 183.894 0.903124 183.746L0.551533 183.579L0.462835 183.536L0.440603 183.526L0.435058 183.523C0.433841 183.523 0.433245 183.522 0.217543 183.973C0.00184145 184.424 0.00249351 184.425 0.00376743 184.425L0.00942471 184.428L0.0318844 184.439L0.121042 184.481L0.473571 184.649C0.784975 184.797 1.24776 185.017 1.85358 185.304C3.06522 185.877 4.84901 186.717 7.13818 187.787C11.7165 189.926 18.3165 192.982 26.4039 196.649C42.5784 203.982 64.7042 213.761 88.5079 223.54C112.31 233.318 137.797 243.1 160.691 250.437ZM217.41 248.225C203.913 248.225 183.566 243.313 160.689 235.982C137.795 228.644 112.308 218.862 88.5061 209.084C64.7024 199.305 42.5766 189.527 26.4021 182.193C18.3146 178.526 11.7147 175.47 7.13637 173.331C4.8472 172.261 3.06341 171.421 1.85177 170.848C1.24595 170.561 0.783169 170.342 0.471765 170.193L0.119236 170.026L0.0300786 169.983L0.0076189 169.972L0.00196162 169.97C0.0006877 169.969 3.56404e-05 169.969 0.215737 169.518C0.431439 169.067 0.432035 169.067 0.433253 169.067L0.438797 169.07L0.461029 169.081L0.549727 169.123L0.901318 169.29C1.21209 169.438 1.67422 169.658 2.27937 169.944C3.48967 170.516 5.27203 171.356 7.55969 172.425C12.135 174.563 18.7315 177.617 26.815 181.282C42.9824 188.613 65.0968 198.386 88.8861 208.159C112.677 217.933 138.136 227.703 160.995 235.029C183.871 242.361 204.085 247.225 217.41 247.225C248.058 247.225 270.336 242.347 288.432 235.042C306.534 227.734 320.472 217.99 334.456 208.212L334.472 208.201L334.472 208.201C348.445 198.431 362.465 188.627 380.68 181.274C398.908 173.915 421.315 169.018 452.076 169.018C495.689 169.018 562.178 176.247 628.626 183.473L628.657 183.476C695.139 190.705 761.577 197.929 805.129 197.929C842.696 197.929 858.157 190.696 864.27 183.645C867.315 180.135 868.067 176.642 868.068 174.035C868.069 172.727 867.88 171.639 867.693 170.88C867.599 170.501 867.506 170.205 867.437 170.006C867.403 169.906 867.374 169.831 867.355 169.783L867.343 169.752L867.334 169.729L867.329 169.718L867.328 169.716C867.328 169.716 867.328 169.716 867.787 169.518C868.246 169.319 868.246 169.32 868.247 169.32L868.247 169.322L868.25 169.328L868.258 169.348L868.27 169.377L868.286 169.418C868.299 169.449 868.313 169.487 868.329 169.532C868.337 169.553 868.346 169.576 868.354 169.6C868.363 169.625 868.372 169.651 868.382 169.679C868.46 169.903 868.562 170.229 868.664 170.64C868.867 171.462 869.069 172.632 869.068 174.035C869.067 176.849 868.249 180.584 865.026 184.301C858.604 191.706 842.736 198.929 805.129 198.929C761.516 198.929 695.027 191.699 628.579 184.473L628.549 184.47C562.066 177.241 495.628 170.018 452.076 170.018C421.428 170.018 399.15 174.896 381.054 182.201C362.952 189.509 349.014 199.253 335.029 209.031L335.014 209.042L335.014 209.042C321.041 218.812 307.021 228.616 288.806 235.969C270.578 243.328 248.171 248.225 217.41 248.225ZM160.688 221.526C183.564 228.858 203.911 233.77 217.408 233.77C248.169 233.77 270.576 228.872 288.804 221.513C307.019 214.16 321.039 204.356 335.012 194.586L335.028 194.575C349.012 184.797 362.95 175.053 381.052 167.745C399.148 160.44 421.426 155.562 452.074 155.562C495.626 155.562 562.064 162.785 628.547 170.014L628.578 170.018C695.025 177.243 761.514 184.473 805.127 184.473C842.734 184.473 858.602 177.25 865.024 169.845C868.247 166.128 869.065 162.393 869.066 159.579C869.067 158.176 868.865 157.006 868.662 156.184C868.56 155.773 868.458 155.448 868.38 155.223C868.341 155.11 868.308 155.023 868.285 154.963L868.275 154.937L868.263 154.907L868.257 154.892L868.248 154.872L868.246 154.866L868.245 154.864C868.245 154.864 868.244 154.863 867.785 155.062C867.514 155.179 867.403 155.227 867.357 155.247C867.326 155.26 867.326 155.26 867.326 155.26L867.327 155.262L867.332 155.273L867.344 155.304L867.353 155.327C867.372 155.376 867.401 155.451 867.435 155.55C867.504 155.749 867.597 156.045 867.691 156.424C867.879 157.183 868.067 158.271 868.066 159.579C868.065 162.186 867.313 165.679 864.269 169.19C858.155 176.24 842.694 183.473 805.127 183.473C761.575 183.473 695.138 176.249 628.655 169.02L628.624 169.017C562.177 161.792 495.687 154.562 452.074 154.562C421.313 154.562 398.906 159.459 380.678 166.818C362.463 174.171 348.443 183.975 334.47 193.745L334.47 193.745L334.455 193.756C320.47 203.534 306.532 213.278 288.43 220.586C270.334 227.891 248.056 232.77 217.408 232.77C204.083 232.77 183.869 227.905 160.993 220.573C138.134 213.247 112.675 203.477 88.8843 193.703C65.095 183.93 42.9806 174.157 26.8132 166.826C18.7297 163.161 12.1333 160.107 7.55791 157.969C5.27025 156.9 3.48789 156.061 2.27759 155.488C1.67244 155.202 1.21031 154.982 0.899541 154.835L0.547951 154.667L0.459253 154.625L0.43702 154.614L0.431476 154.612C0.430259 154.611 0.429663 154.611 0.213961 155.062C-0.0017408 155.513 -0.00108874 155.513 0.000185174 155.514L0.00584246 155.516L0.0283021 155.527L0.117459 155.57L0.469988 155.738C0.781393 155.886 1.24418 156.105 1.85 156.392C3.06164 156.965 4.84543 157.806 7.1346 158.875C11.7129 161.014 18.3129 164.07 26.4003 167.737C42.5748 175.071 64.7007 184.849 88.5043 194.628C112.307 204.407 137.793 214.188 160.688 221.526ZM217.41 219.315C203.913 219.315 183.566 214.403 160.69 207.071C137.795 199.733 112.309 189.952 88.5063 180.173C64.7027 170.394 42.5769 160.616 26.4023 153.282C18.3149 149.615 11.7149 146.559 7.13661 144.42C4.84744 143.351 3.06365 142.51 1.85201 141.937C1.24619 141.651 0.783408 141.431 0.472003 141.283L0.119474 141.115L0.030317 141.072L0.00785736 141.061L0.00220008 141.059C0.000926164 141.058 0.000274104 141.058 0.215976 140.607C0.431678 140.156 0.432273 140.156 0.433491 140.157L0.439035 140.159L0.461268 140.17L0.549966 140.212L0.901556 140.38C1.21233 140.527 1.67446 140.747 2.27961 141.033C3.48991 141.606 5.27227 142.445 7.55993 143.514C12.1353 145.652 18.7317 148.706 26.8153 152.371C42.9827 159.702 65.097 169.475 88.8863 179.248C112.677 189.022 138.136 198.792 160.995 206.118C183.872 213.45 204.085 218.315 217.41 218.315C248.058 218.315 270.336 213.436 288.432 206.131C306.534 198.823 320.472 189.079 334.457 179.301L334.472 179.29L334.472 179.29C348.445 169.52 362.465 159.716 380.68 152.363C398.908 145.004 421.315 140.107 452.076 140.107C495.689 140.107 562.179 147.337 628.626 154.562L628.657 154.565C695.14 161.794 761.577 169.018 805.13 169.018C842.696 169.018 858.157 161.785 864.271 154.735C867.315 151.224 868.067 147.731 868.068 145.124C868.069 143.816 867.881 142.728 867.693 141.969C867.599 141.59 867.506 141.294 867.437 141.095C867.403 140.996 867.374 140.921 867.355 140.872C867.346 140.847 867.339 140.829 867.334 140.818L867.329 140.807L867.328 140.805C867.328 140.805 867.328 140.805 867.35 140.796L867.421 140.765L867.787 140.607C868.246 140.408 868.247 140.409 868.247 140.409L868.248 140.411L868.25 140.417L868.259 140.437C868.265 140.454 868.275 140.477 868.287 140.508C868.298 140.536 868.311 140.571 868.326 140.611C868.336 140.639 868.347 140.669 868.359 140.703C868.367 140.724 868.374 140.745 868.382 140.768C868.46 140.993 868.562 141.318 868.664 141.729C868.867 142.551 869.069 143.721 869.068 145.124C869.067 147.938 868.249 151.673 865.026 155.39C858.604 162.795 842.736 170.018 805.13 170.018C761.516 170.018 695.027 162.788 628.58 155.563L628.549 155.559C562.066 148.33 495.628 141.107 452.076 141.107C421.428 141.107 399.15 145.985 381.054 153.29C362.952 160.598 349.014 170.342 335.03 180.12L335.014 180.131L335.014 180.132C321.041 189.902 307.021 199.705 288.806 207.058C270.578 214.417 248.171 219.315 217.41 219.315ZM160.688 191.503C183.564 198.835 203.911 203.747 217.408 203.747C248.169 203.747 270.577 198.849 288.805 191.49C307.019 184.137 321.04 174.334 335.012 164.564L335.012 164.563L335.028 164.553C349.012 154.774 362.95 145.03 381.053 137.723C399.148 130.417 421.427 125.539 452.075 125.539C495.627 125.539 562.064 132.762 628.547 139.991L628.578 139.995C695.025 147.22 761.515 154.45 805.128 154.45C842.734 154.45 858.603 147.227 865.025 139.822C868.248 136.105 869.065 132.37 869.067 129.556C869.067 128.154 868.865 126.983 868.662 126.161C868.561 125.75 868.458 125.425 868.381 125.2C868.342 125.088 868.309 125 868.285 124.94C868.273 124.91 868.264 124.886 868.257 124.869L868.249 124.85L868.246 124.844L868.245 124.842C868.245 124.841 868.245 124.84 867.786 125.039C867.327 125.238 867.327 125.237 867.327 125.237L867.328 125.239L867.332 125.25C867.337 125.262 867.344 125.279 867.354 125.304C867.362 125.325 867.372 125.352 867.384 125.383C867.399 125.423 867.416 125.471 867.436 125.527C867.504 125.726 867.598 126.022 867.691 126.401C867.879 127.16 868.067 128.248 868.067 129.556C868.066 132.163 867.314 135.656 864.269 139.167C858.155 146.217 842.695 153.45 805.128 153.45C761.576 153.45 695.138 146.226 628.655 138.997L628.624 138.994C562.177 131.769 495.688 124.539 452.075 124.539C421.314 124.539 398.906 129.437 380.678 136.795C362.464 144.148 348.443 153.952 334.471 163.722L334.471 163.722L334.455 163.733C320.471 173.511 306.533 183.255 288.43 190.563C270.335 197.868 248.056 202.747 217.408 202.747C204.083 202.747 183.87 197.883 160.993 190.551C138.135 183.224 112.675 173.454 88.8847 163.68C65.0954 153.907 42.9811 144.134 26.8137 136.803C18.7301 133.138 12.1337 130.084 7.55833 127.946C5.27067 126.878 3.48831 126.038 2.27801 125.465C1.67286 125.179 1.21073 124.96 0.89996 124.812L0.548369 124.644L0.459671 124.602L0.437439 124.591L0.431894 124.589C0.430677 124.588 0.430081 124.588 0.214379 125.039C-0.00132247 125.49 -0.000670406 125.49 0.000603509 125.491L0.00626079 125.494L0.0287205 125.504L0.117878 125.547L0.470407 125.715C0.781811 125.863 1.2446 126.083 1.85042 126.369C3.06206 126.942 4.84584 127.783 7.13502 128.852C11.7133 130.992 18.3133 134.047 26.4007 137.714C42.5753 145.048 64.7011 154.826 88.5047 164.605C112.307 174.384 137.794 184.165 160.688 191.503ZM217.41 188.179C203.912 188.179 183.566 183.268 160.689 175.936C137.795 168.598 112.308 158.816 88.506 149.038C64.7023 139.259 42.5765 129.481 26.402 122.147C18.3145 118.48 11.7146 115.424 7.13626 113.285C4.84709 112.216 3.0633 111.375 1.85166 110.802C1.24584 110.515 0.783058 110.296 0.471654 110.148L0.119125 109.98L0.0299674 109.937L0.00750772 109.926L0.00185044 109.924C0.000576523 109.923 -7.55372e-05 109.923 0.215626 109.472C0.431328 109.021 0.431924 109.021 0.433141 109.021L0.438686 109.024L0.460918 109.035L0.549616 109.077L0.901207 109.245C1.21198 109.392 1.67411 109.612 2.27926 109.898C3.48956 110.471 5.27192 111.31 7.55958 112.379C12.1349 114.517 18.7314 117.571 26.8149 121.236C42.9823 128.567 65.0967 138.34 88.886 148.113C112.677 157.887 138.136 167.657 160.994 174.983C183.871 182.315 204.085 187.179 217.41 187.179C248.058 187.179 270.336 182.301 288.432 174.996C306.534 167.688 320.472 157.944 334.456 148.166L334.472 148.155C348.445 138.385 362.465 128.581 380.68 121.228C398.908 113.869 421.315 108.972 452.076 108.972C495.689 108.972 562.178 116.202 628.626 123.427L628.656 123.43C695.139 130.659 761.577 137.883 805.129 137.883C842.696 137.883 858.156 130.65 864.27 123.6C867.315 120.089 868.067 116.596 868.068 113.989C868.069 112.681 867.88 111.593 867.693 110.834C867.599 110.455 867.506 110.159 867.437 109.96C867.402 109.861 867.374 109.786 867.355 109.737C867.345 109.712 867.338 109.694 867.334 109.683L867.329 109.672L867.328 109.67C867.328 109.67 867.328 109.67 867.787 109.472C868.246 109.273 868.246 109.274 868.247 109.274L868.247 109.276L868.25 109.282L868.258 109.302C868.265 109.319 868.275 109.342 868.286 109.373L868.297 109.4L868.318 109.457C868.337 109.506 868.358 109.565 868.382 109.633C868.46 109.857 868.562 110.183 868.663 110.594C868.867 111.416 869.069 112.586 869.068 113.989C869.067 116.803 868.249 120.538 865.026 124.255C858.604 131.66 842.736 138.883 805.129 138.883C761.516 138.883 695.027 131.653 628.579 124.428L628.548 124.424C562.066 117.195 495.628 109.972 452.076 109.972C421.428 109.972 399.15 114.85 381.054 122.155C362.952 129.463 349.013 139.207 335.029 148.985L335.014 148.996L335.013 148.996C321.041 158.767 307.021 168.57 288.806 175.923C270.578 183.282 248.171 188.179 217.41 188.179ZM160.688 160.368C183.564 167.7 203.911 172.612 217.408 172.612C248.169 172.612 270.576 167.714 288.804 160.355C307.019 153.002 321.039 143.199 335.012 133.429L335.012 133.428L335.028 133.418C349.012 123.639 362.95 113.895 381.052 106.588C399.148 99.2823 421.426 94.4039 452.074 94.4039C495.627 94.4039 562.064 101.627 628.547 108.856L628.578 108.86C695.025 116.085 761.514 123.315 805.127 123.315C842.734 123.315 858.602 116.092 865.024 108.687C868.247 104.97 869.065 101.235 869.066 98.4215C869.067 97.0186 868.865 95.8485 868.662 95.0262C868.56 94.6149 868.458 94.2897 868.38 94.065C868.365 94.0219 868.351 93.9824 868.338 93.9467L868.316 93.8876L868.306 93.859L868.296 93.8335L868.285 93.8048C868.273 93.7745 868.263 93.751 868.257 93.7343L868.248 93.7145L868.246 93.7086L868.245 93.7066C868.245 93.7064 868.245 93.7061 868.224 93.7149C868.209 93.7212 868.183 93.7322 868.139 93.7513C868.072 93.78 867.963 93.827 867.785 93.9039C867.327 94.1026 867.326 94.1022 867.326 94.1019L867.327 94.1039L867.332 94.1154C867.337 94.1266 867.344 94.1445 867.353 94.1689C867.36 94.1859 867.368 94.2061 867.377 94.2294C867.393 94.273 867.413 94.3274 867.435 94.3922C867.504 94.591 867.597 94.887 867.691 95.2662C867.879 96.025 868.067 97.1135 868.066 98.421C868.065 101.028 867.313 104.521 864.269 108.032C858.155 115.082 842.694 122.315 805.127 122.315C761.575 122.315 695.138 115.091 628.655 107.862L628.624 107.859C562.177 100.634 495.687 93.4039 452.074 93.4039C421.313 93.4039 398.906 98.3015 380.678 105.66C362.463 113.014 348.443 122.817 334.47 132.587L334.455 132.598C320.47 142.376 306.532 152.12 288.43 159.428C270.334 166.733 248.056 171.612 217.408 171.612C204.083 171.612 183.87 166.748 160.993 159.416C138.134 152.089 112.675 142.319 88.8843 132.545C65.095 122.772 42.9807 112.999 26.8133 105.669C18.7298 102.003 12.1333 98.9492 7.55795 96.8114C5.27029 95.7425 3.48793 94.9027 2.27763 94.3302C1.67248 94.044 1.21035 93.8246 0.899581 93.6768L0.54799 93.5093L0.459292 93.467L0.43706 93.4564L0.431515 93.4537C0.430298 93.4531 0.429702 93.4529 0.214 93.9039C-0.00170149 94.355 -0.00104943 94.3553 0.000224483 94.3559L0.00588177 94.3586L0.0283414 94.3694L0.117499 94.4119L0.470028 94.5798C0.781432 94.7279 1.24422 94.9477 1.85004 95.2342C3.06168 95.8073 4.84547 96.6478 7.13464 97.7174C11.713 99.8566 18.3129 102.912 26.4003 106.579C42.5749 113.913 64.7007 123.691 88.5043 133.47C112.307 143.249 137.793 153.03 160.688 160.368ZM217.408 157.045C203.911 157.045 183.564 152.133 160.688 144.801C137.793 137.463 112.307 127.682 88.5046 117.903C64.7009 108.124 42.5751 98.3457 26.4006 91.0121C18.3131 87.3452 11.7132 84.2894 7.13488 82.1502C4.84571 81.0806 3.06192 80.2401 1.85028 79.667C1.24446 79.3805 0.781672 79.1607 0.470268 79.0126L0.117739 78.8447L0.0285817 78.8022L0.00612208 78.7914L0.000464794 78.7887C-0.000809121 78.7881 -0.00146118 78.7878 0.214241 78.3367C0.429942 77.8857 0.430538 77.8859 0.431756 77.8865L0.4373 77.8892L0.459532 77.8998L0.54823 77.9421L0.899821 78.1096C1.21059 78.2574 1.67272 78.4768 2.27787 78.7631C3.48817 79.3355 5.27053 80.1753 7.55819 81.2442C12.1335 83.382 18.73 86.4362 26.8135 90.1013C42.9809 97.4317 65.0953 107.205 88.8846 116.978C112.675 126.752 138.134 136.522 160.993 143.848C183.87 151.18 204.083 156.045 217.408 156.045C248.056 156.045 270.335 151.166 288.43 143.861C306.533 136.553 320.471 126.809 334.455 117.031L334.47 117.02L334.471 117.02C348.443 107.25 362.464 97.4463 380.678 90.093C398.906 82.7343 421.313 77.8367 452.074 77.8367C495.688 77.8367 562.177 85.0665 628.624 92.2918L628.655 92.2951C695.138 99.5242 761.575 106.748 805.128 106.748C842.694 106.748 858.155 99.5147 864.269 92.4646C867.313 88.9537 868.065 85.461 868.067 82.8538C868.067 81.5463 867.879 80.4578 867.691 79.699C867.598 79.3198 867.504 79.0238 867.435 78.825C867.416 78.7696 867.399 78.7218 867.384 78.6818C867.372 78.6501 867.362 78.6234 867.354 78.6017C867.344 78.5773 867.337 78.5594 867.332 78.5482L867.327 78.5367L867.327 78.5347C867.327 78.5349 867.327 78.535 867.41 78.499L867.786 78.3367L868.068 78.2147L868.198 78.1588L868.237 78.1423C868.245 78.1391 868.245 78.1392 868.245 78.1394L868.246 78.1414L868.248 78.1473L868.257 78.1671C868.264 78.1838 868.273 78.2073 868.285 78.2376C868.309 78.2981 868.341 78.3855 868.38 78.4978C868.416 78.6018 868.458 78.7272 868.502 78.8727C868.553 79.0418 868.607 79.238 868.662 79.459C868.865 80.2813 869.067 81.4514 869.067 82.8543C869.065 85.6679 868.248 89.4029 865.024 93.1198C858.602 100.525 842.734 107.748 805.128 107.748C761.514 107.748 695.025 100.518 628.578 93.2926L628.547 93.2893C562.064 86.0602 495.627 78.8367 452.074 78.8367C421.426 78.8367 399.148 83.7151 381.052 91.0203C362.95 98.3283 349.012 108.072 335.028 117.85L335.012 117.861L335.012 117.862C321.039 127.632 307.019 137.435 288.805 144.788C270.577 152.147 248.169 157.045 217.408 157.045ZM160.688 129.233C183.565 136.565 203.911 141.477 217.409 141.477C248.17 141.477 270.577 136.579 288.805 129.221C307.019 121.867 321.04 112.064 335.012 102.294L335.013 102.294L335.028 102.283C349.012 92.5047 362.95 82.7607 381.053 75.4528C399.149 68.1476 421.427 63.2692 452.075 63.2692C495.627 63.2692 562.064 70.4926 628.547 77.7217L628.578 77.7251C695.026 84.9503 761.515 92.1801 805.128 92.1801C842.734 92.1801 858.603 84.9576 865.025 77.5522C868.248 73.8354 869.066 70.1003 869.067 67.2868C869.068 65.8839 868.866 64.7137 868.662 63.8915C868.561 63.4801 868.459 63.155 868.381 62.9303C868.342 62.8179 868.309 62.7306 868.285 62.6701C868.273 62.6398 868.264 62.6162 868.257 62.5996L868.249 62.5798L868.246 62.5739L868.245 62.5719C868.245 62.5712 868.245 62.5706 867.786 62.7692C867.327 62.9678 867.327 62.9674 867.327 62.9672L867.328 62.9691L867.333 62.9807L867.343 63.006L867.354 63.0342C867.373 63.0831 867.401 63.1581 867.436 63.2574C867.505 63.4563 867.598 63.7523 867.692 64.1314C867.879 64.8903 868.068 65.9788 868.067 67.2863C868.066 69.8935 867.314 73.3862 864.269 76.8971C858.155 83.9471 842.695 91.1801 805.128 91.1801C761.576 91.1801 695.138 83.9567 628.655 76.7276L628.625 76.7242C562.177 69.499 495.688 62.2692 452.075 62.2692C421.314 62.2692 398.907 67.1668 380.678 74.5255C362.464 81.8788 348.443 91.6823 334.471 101.452L334.455 101.463C320.471 111.241 306.533 120.985 288.431 128.293C270.335 135.599 248.057 140.477 217.409 140.477C204.084 140.477 183.87 135.613 160.993 128.281C138.135 120.955 112.675 111.184 88.8849 101.411C65.0956 91.6376 42.9812 81.8641 26.8139 74.5338C18.7303 70.8687 12.1339 67.8145 7.55852 65.6767C5.27086 64.6078 3.4885 63.768 2.2782 63.1955C1.67305 62.9093 1.21092 62.6898 0.90015 62.542L0.548559 62.3746L0.459861 62.3322L0.437628 62.3216L0.432084 62.319C0.430867 62.3184 0.430271 62.3181 0.214569 62.7692C-0.0011327 63.2203 -0.00048064 63.2206 0.000793275 63.2212L0.00645056 63.2239L0.0289102 63.2346L0.118068 63.2772L0.470596 63.4451C0.782001 63.5932 1.24479 63.8129 1.85061 64.0995C3.06225 64.6726 4.84603 65.5131 7.13521 66.5827C11.7135 68.7219 18.3135 71.7776 26.4009 75.4445C42.5754 82.7781 64.7013 92.5567 88.5049 102.336C112.307 112.114 137.794 121.895 160.688 129.233ZM217.409 125.91C203.912 125.91 183.565 120.998 160.688 113.666C137.794 106.328 112.308 96.5468 88.5052 86.7684C64.7015 76.9895 42.5757 67.2109 26.4012 59.8773C18.3137 56.2105 11.7138 53.1547 7.13545 51.0155C4.84627 49.9459 3.06249 49.1054 1.85085 48.5323C1.24503 48.2457 0.782241 48.026 0.470837 47.8779L0.118308 47.71L0.0291505 47.6674L0.00669087 47.6567L0.00103359 47.654C-0.000240329 47.6534 -0.000892389 47.6531 0.214809 47.202C0.430511 46.7509 0.431107 46.7512 0.432325 46.7518L0.437869 46.7544L0.460101 46.7651L0.548799 46.8074L0.90039 46.9748C1.21116 47.1227 1.67329 47.3421 2.27844 47.6283C3.48874 48.2008 5.2711 49.0406 7.55876 50.1095C12.1341 52.2473 18.7306 55.3015 26.8141 58.9666C42.9815 66.297 65.0958 76.0704 88.8852 85.8434C112.676 95.617 138.135 105.387 160.994 112.714C183.87 120.046 204.084 124.91 217.409 124.91C248.057 124.91 270.335 120.031 288.431 112.726C306.533 105.418 320.471 95.6743 334.455 85.8961L334.471 85.8853L334.471 85.885C348.444 76.1149 362.464 66.3116 380.679 58.9583C398.907 51.5996 421.314 46.702 452.075 46.702C495.688 46.702 562.178 53.9318 628.625 61.1571L628.656 61.1604C695.139 68.3895 761.576 75.6129 805.128 75.6129C842.695 75.6129 858.156 68.3799 864.269 61.3299C867.314 57.819 868.066 54.3263 868.067 51.7191C868.068 50.4116 867.879 49.3231 867.692 48.5642C867.598 48.1851 867.505 47.8891 867.436 47.6903C867.402 47.5909 867.373 47.5159 867.354 47.467C867.345 47.4426 867.337 47.4247 867.333 47.4135L867.328 47.4019L867.327 47.4C867.327 47.4003 867.327 47.4006 867.786 47.202C868.245 47.0034 868.245 47.004 868.246 47.0047L868.247 47.0067L868.249 47.0126L868.257 47.0324C868.264 47.049 868.274 47.0726 868.286 47.1029C868.309 47.1634 868.342 47.2507 868.381 47.3631C868.459 47.5878 868.561 47.9129 868.663 48.3243C868.866 49.1465 869.068 50.3167 869.067 51.7196C869.066 54.5332 868.248 58.2682 865.025 61.985C858.603 69.3905 842.735 76.6129 805.128 76.6129C761.515 76.6129 695.026 69.3831 628.579 62.1579L628.548 62.1545C562.065 54.9254 495.627 47.702 452.075 47.702C421.427 47.702 399.149 52.5804 381.053 59.8856C362.951 67.1935 349.013 76.9375 335.028 86.7157L335.013 86.7265L335.013 86.7267C321.04 96.4968 307.02 106.3 288.805 113.653C270.577 121.012 248.17 125.91 217.409 125.91ZM160.69 98.0989C183.566 105.431 203.913 110.343 217.41 110.343C248.171 110.343 270.578 105.445 288.806 98.0864C307.021 90.7331 321.041 80.9298 335.014 71.1597L335.014 71.1595L335.03 71.1486C349.014 61.3704 362.952 51.6265 381.054 44.3185C399.15 37.0133 421.428 32.1349 452.076 32.1349C495.629 32.1349 562.066 39.3584 628.549 46.5875L628.58 46.5908C695.027 53.8161 761.516 61.0459 805.13 61.0459C842.736 61.0459 858.604 53.8234 865.026 46.418C868.249 42.7011 869.067 38.9661 869.068 36.1525C869.069 34.7496 868.867 33.5795 868.664 32.7572C868.562 32.3459 868.46 32.0207 868.382 31.796C868.343 31.6837 868.31 31.5963 868.287 31.5358C868.275 31.5055 868.265 31.482 868.259 31.4653L868.25 31.4455L868.248 31.4396L868.247 31.4376C868.247 31.4372 868.247 31.4368 868.158 31.475C868.093 31.5028 867.981 31.5511 867.788 31.6349C867.329 31.8336 867.328 31.8332 867.328 31.8329L867.329 31.8348L867.334 31.8464C867.339 31.8576 867.346 31.8755 867.355 31.8999C867.375 31.9488 867.403 32.0238 867.437 32.1232C867.506 32.322 867.599 32.618 867.693 32.9972C867.881 33.756 868.069 34.8445 868.068 36.152C868.067 38.7592 867.315 42.2519 864.271 45.7628C858.157 52.8129 842.696 60.0459 805.13 60.0459C761.577 60.0459 695.14 52.8224 628.657 45.5933L628.626 45.59C562.179 38.3647 495.689 31.1349 452.076 31.1349C421.315 31.1349 398.908 36.0325 380.68 43.3913C362.465 50.7445 348.445 60.5478 334.473 70.3179L334.472 70.3182L334.457 70.3291C320.472 80.1072 306.534 89.8512 288.432 97.1591C270.336 104.464 248.058 109.343 217.41 109.343C204.085 109.343 183.872 104.479 160.995 97.1466C138.136 89.8203 112.677 80.0499 88.8864 70.2763C65.0971 60.5033 42.9827 50.7299 26.8153 43.3995C18.7318 39.7344 12.1353 36.6802 7.55998 34.5424C5.27232 33.4735 3.48996 32.6337 2.27966 32.0612C1.67451 31.775 1.21238 31.5556 0.901607 31.4077L0.550017 31.2403L0.461319 31.198L0.439086 31.1874L0.433542 31.1847C0.432324 31.1841 0.431729 31.1838 0.216027 31.6349C0.00032514 32.086 0.0009772 32.0863 0.00225112 32.0869L0.0079084 32.0896L0.0303681 32.1004L0.119525 32.1429L0.472054 32.3108C0.783459 32.4589 1.24624 32.6786 1.85206 32.9652C3.0637 33.5383 4.84749 34.3788 7.13666 35.4484C11.715 37.5876 18.3149 40.6434 26.4024 44.3103C42.5769 51.6439 64.7027 61.4224 88.5064 71.2013C112.309 80.9797 137.795 90.7612 160.69 98.0989ZM217.41 94.7753C203.913 94.7753 183.566 89.8634 160.69 82.5315C137.795 75.1938 112.309 65.4123 88.5065 55.6339C64.7028 45.855 42.577 36.0765 26.4024 28.7429C18.315 25.076 11.7151 22.0202 7.13674 19.881C4.84757 18.8114 3.06379 17.9709 1.85215 17.3978C1.24633 17.1113 0.78354 16.8915 0.472136 16.7434L0.119607 16.5755L0.0304494 16.533L0.0079897 16.5222L0.00233242 16.5195C0.0010585 16.5189 0.000406441 16.5186 0.216108 16.0675C0.43181 15.6165 0.432406 15.6167 0.433623 15.6173L0.439168 15.62L0.4614 15.6306L0.550098 15.6729L0.901689 15.8404C1.21246 15.9882 1.67459 16.2076 2.27974 16.4938C3.49004 17.0663 5.2724 17.9061 7.56006 18.975C12.1354 21.1128 18.7319 24.167 26.8154 27.8321C42.9828 35.1625 65.0971 44.9359 88.8865 54.7089C112.677 64.4825 138.136 74.2529 160.995 81.5792C183.872 88.9112 204.085 93.7753 217.41 93.7753C248.058 93.7753 270.336 88.897 288.432 81.5917C306.534 74.2838 320.473 64.5398 334.457 54.7617L334.472 54.7508C348.445 44.9806 362.465 35.1771 380.68 27.8239C398.908 20.4651 421.315 15.5675 452.076 15.5675C495.69 15.5675 562.179 22.7973 628.626 30.0226L628.657 30.0259C695.14 37.255 761.577 44.4785 805.13 44.4785C842.696 44.4785 858.157 37.2455 864.271 30.1954C867.315 26.6845 868.067 23.1918 868.068 20.5846C868.069 19.2771 867.881 18.1886 867.693 17.4297C867.599 17.0506 867.506 16.7546 867.437 16.5558C867.403 16.4564 867.375 16.3814 867.356 16.3325C867.346 16.3081 867.339 16.2902 867.334 16.2791L867.329 16.2675L867.328 16.2655C867.328 16.2656 867.328 16.2656 867.333 16.2636C867.341 16.2606 867.359 16.2527 867.406 16.2326L867.574 16.1597L867.788 16.0675C868.005 15.9733 868.12 15.9239 868.18 15.898C868.247 15.8695 868.247 15.8698 868.247 15.8702L868.248 15.8722L868.25 15.8781L868.259 15.8979C868.265 15.9146 868.275 15.9381 868.287 15.9684C868.311 16.0289 868.343 16.1163 868.382 16.2286C868.46 16.4533 868.562 16.7784 868.664 17.1898C868.867 18.0121 869.069 19.1822 869.068 20.5851C869.067 23.3987 868.249 27.1337 865.026 30.8506C858.604 38.256 842.736 45.4785 805.13 45.4785C761.516 45.4785 695.027 38.2487 628.58 31.0234L628.549 31.0201C562.066 23.791 495.629 16.5675 452.076 16.5675C421.428 16.5675 399.15 21.4459 381.054 28.7511C362.952 36.0591 349.014 45.803 335.03 55.5812L335.014 55.5921L335.014 55.5923C321.041 65.3624 307.021 75.1657 288.806 82.519C270.578 89.8777 248.171 94.7753 217.41 94.7753ZM217.411 79.2079C203.913 79.2079 183.567 74.296 160.69 66.964C137.796 59.6263 112.309 49.8448 88.507 40.0665C64.7033 30.2875 42.5775 20.509 26.403 13.1754C18.3155 9.50854 11.7156 6.45276 7.13726 4.31354C4.84809 3.24396 3.0643 2.4035 1.85266 1.83035C1.24684 1.54379 0.784057 1.32407 0.472652 1.17593L0.120124 1.00806L0.0309662 0.965515L0.00850659 0.954773L0.00284931 0.952087C0.00157539 0.951477 0.000923332 0.951141 0.216625 0.500061C0.432327 0.0489807 0.432923 0.0492554 0.43414 0.0498657L0.439684 0.0524902L0.461917 0.0631104L0.550615 0.105469L0.902206 0.272888C1.21298 0.420715 1.67511 0.640137 2.28026 0.926392C3.49056 1.4989 5.27292 2.33868 7.56058 3.40756C12.1359 5.54535 18.7324 8.59955 26.8159 12.2646C42.9833 19.595 65.0977 29.3684 88.887 39.1415C112.678 48.915 138.137 58.6855 160.995 66.0117C183.872 73.3438 204.086 78.2079 217.411 78.2079C248.059 78.2079 270.337 73.3295 288.433 66.0242C306.535 58.7163 320.473 48.9724 334.457 39.1942L334.473 39.1833L334.473 39.183C348.446 29.413 362.466 19.6096 380.681 12.2564C398.909 4.89771 421.316 6.10352e-05 452.077 6.10352e-05C495.69 6.10352e-05 562.179 7.22986 628.627 14.4551L628.657 14.4585C695.14 21.6876 761.578 28.911 805.13 28.911C842.697 28.911 858.157 21.678 864.271 14.628C867.316 11.1171 868.068 7.62439 868.069 5.01715C868.07 3.70966 867.881 2.62112 867.694 1.8623C867.6 1.48315 867.507 1.18716 867.438 0.988342C867.403 0.888947 867.375 0.813934 867.356 0.765076C867.346 0.740631 867.339 0.722717 867.335 0.711578L867.33 0.699982L867.329 0.698059C867.329 0.698303 867.329 0.6987 867.788 0.500061C868.247 0.301453 868.247 0.302032 868.247 0.302765L868.248 0.304749L868.251 0.310669L868.259 0.330444C868.266 0.347107 868.275 0.370667 868.287 0.40094C868.311 0.461487 868.344 0.548798 868.383 0.661163C868.461 0.885864 868.563 1.211 868.664 1.62238C868.868 2.44461 869.07 3.61475 869.069 5.01764C869.068 7.83124 868.25 11.5663 865.027 15.2831C858.605 22.6885 842.736 29.911 805.13 29.911C761.517 29.911 695.028 22.6812 628.58 15.456L628.549 15.4526C562.067 8.22351 495.629 1.00006 452.077 1.00006C421.429 1.00006 399.151 5.87842 381.055 13.1837C362.953 20.4916 349.014 30.2356 335.03 40.0137L335.015 40.0246L335.014 40.0248C321.042 49.7949 307.022 59.5983 288.807 66.9515C270.579 74.3102 248.172 79.2079 217.411 79.2079Z" fill="url(#paint0_radial_3001_5605)"/>
    <defs>
        <radialGradient id="paint0_radial_3001_5605" cx="0" cy="0" r="1" gradientUnits="userSpaceOnUse" gradientTransform="translate(212.764 100.749) rotate(22.8257) scale(468.36 1774.27)">
            <stop stop-color="#1F3891"/>
            <stop offset="1" stop-color="#1F3891" stop-opacity="0"/>
        </radialGradient>
    </defs>
</svg>
