<svg width="870" height="278" viewBox="0 0 870 278" fill="none"
    xmlns="http://www.w3.org/2000/svg">
    <path fill-rule="evenodd" clip-rule="evenodd" d="M217.41 0C203.912 0 183.566 4.91189 160.689 12.2438C137.795 19.5815 112.308 29.363 88.5059 39.1414C64.7022 48.9203 42.5764 58.6988 26.4019 66.0324C18.3144 69.6993 11.7145 72.7551 7.13615 74.8943C4.84698 75.9639 3.06319 76.8044 1.85155 77.3775C1.24573 77.6641 0.782943 77.8838 0.471538 78.0319L0.11901 78.1998L0.0298523 78.2424L0.00739264 78.2531L0.00173536 78.2558C0.000461441 78.2564 -0.000190619 78.2567 0.215511 78.7078C0.431213 79.1589 0.431809 79.1586 0.433026 79.158L0.438571 79.1553L0.460803 79.1447L0.549501 79.1024L0.901092 78.935C1.21186 78.7871 1.67399 78.5677 2.27914 78.2815C3.48944 77.709 5.2718 76.8692 7.55946 75.8003C12.1348 73.6625 18.7313 70.6083 26.8148 66.9432C42.9822 59.6128 65.0965 49.8394 88.8859 40.0664C112.676 30.2928 138.136 20.5224 160.994 13.1961C183.871 5.86408 204.085 1 217.41 1C248.058 1 270.336 5.87835 288.431 13.1836C306.534 20.4915 320.472 30.2355 334.456 40.0137L334.472 40.0245L334.472 40.0247C348.445 49.7948 362.465 59.5982 380.679 66.9515C398.907 74.3102 421.315 79.2078 452.076 79.2078C495.689 79.2078 562.178 71.978 628.626 64.7527L628.656 64.7494C695.139 57.5203 761.577 50.2968 805.129 50.2968C842.696 50.2968 858.156 57.5298 864.27 64.5799C867.315 68.0908 868.067 71.5835 868.068 74.1907C868.068 75.4982 867.88 76.5867 867.693 77.3456C867.599 77.7247 867.506 78.0207 867.437 78.2195C867.402 78.3189 867.374 78.3939 867.355 78.4428L867.344 78.4706L867.333 78.4963L867.329 78.5079L867.328 78.5098C867.328 78.5097 867.328 78.5095 867.391 78.5365C867.45 78.5619 867.564 78.6114 867.787 78.7078C868.246 78.9064 868.246 78.9058 868.246 78.9051L868.247 78.9031L868.25 78.8972L868.258 78.8774C868.265 78.8607 868.274 78.8372 868.286 78.8069C868.31 78.7464 868.343 78.659 868.382 78.5467C868.459 78.322 868.562 77.9969 868.663 77.5855C868.867 76.7632 869.069 75.5931 869.068 74.1902C869.067 71.3766 868.249 67.6416 865.026 63.9247C858.604 56.5193 842.735 49.2968 805.129 49.2968C761.516 49.2968 695.027 56.5266 628.579 63.7519L628.548 63.7552C562.065 70.9844 495.628 78.2078 452.076 78.2078C421.428 78.2078 399.149 73.3294 381.054 66.0242C362.951 58.7162 349.013 48.9723 335.029 39.1941L335.014 39.1832L335.013 39.1831C321.041 29.413 307.02 19.6096 288.806 12.2563C270.578 4.89762 248.171 0 217.41 0ZM160.691 26.699C183.568 19.3671 203.914 14.4552 217.412 14.4552C248.173 14.4552 270.58 19.3528 288.808 26.7115C307.022 34.0648 321.043 43.8682 335.015 53.6383L335.016 53.6385L335.031 53.6493C349.015 63.4275 362.953 73.1714 381.056 80.4794C399.151 87.7846 421.43 92.663 452.078 92.663C495.63 92.663 562.067 85.4396 628.55 78.2104L628.581 78.2071C695.029 70.9818 761.518 63.7521 805.131 63.7521C842.737 63.7521 858.606 70.9745 865.028 78.3799C868.251 82.0968 869.069 85.8318 869.07 88.6454C869.071 90.0483 868.869 91.2184 868.665 92.0407C868.564 92.4521 868.461 92.7772 868.384 93.0019C868.345 93.1143 868.312 93.2016 868.288 93.2621L868.271 93.3063L868.26 93.3326L868.252 93.3524L868.249 93.3583L868.248 93.3603C868.248 93.361 868.248 93.3616 867.789 93.163C867.33 92.9644 867.33 92.9647 867.33 92.965L867.331 92.9631L867.336 92.9515C867.34 92.9403 867.347 92.9224 867.357 92.898C867.367 92.872 867.38 92.8386 867.395 92.798C867.408 92.7624 867.423 92.7212 867.439 92.6747C867.508 92.4759 867.601 92.1799 867.695 91.8008C867.882 91.0419 868.07 89.9534 868.07 88.6459C868.069 86.0387 867.317 82.546 864.272 79.0351C858.158 71.985 842.698 64.7521 805.131 64.7521C761.579 64.7521 695.141 71.9755 628.658 79.2046L628.628 79.2079C562.18 86.4332 495.691 93.663 452.078 93.663C421.317 93.663 398.909 88.7654 380.681 81.4067C362.467 74.0534 348.447 64.2501 334.474 54.48L334.474 54.4797L334.458 54.4689C320.474 44.6907 306.536 34.9468 288.434 27.6388C270.338 20.3336 248.06 15.4552 217.412 15.4552C204.087 15.4552 183.873 20.3193 160.996 27.6513C138.138 34.9776 112.678 44.748 88.8879 54.5216C65.0986 64.2946 42.9842 74.068 26.8168 81.3984C18.7333 85.0635 12.1368 88.1177 7.56149 90.2555C5.27383 91.3244 3.49148 92.1642 2.28118 92.7367C1.67603 93.0229 1.21389 93.2423 0.903124 93.3902L0.551533 93.5576L0.462835 93.5999L0.440603 93.6105L0.435058 93.6132C0.433841 93.6138 0.433245 93.6141 0.217543 93.163C0.00184145 92.7119 0.00249351 92.7116 0.00376743 92.711L0.00942471 92.7083L0.0318844 92.6976L0.121042 92.655L0.473571 92.4871C0.784975 92.339 1.24776 92.1193 1.85358 91.8327C3.06522 91.2596 4.84901 90.4191 7.13818 89.3495C11.7165 87.2103 18.3165 84.1545 26.4039 80.4876C42.5784 73.154 64.7042 63.3755 88.5079 53.5966C112.31 43.8182 137.797 34.0367 160.691 26.699ZM217.41 28.911C203.913 28.911 183.566 33.8229 160.689 41.1548C137.795 48.4925 112.308 58.274 88.5061 68.0524C64.7024 77.8313 42.5766 87.6098 26.4021 94.9434C18.3146 98.6103 11.7147 101.666 7.13637 103.805C4.8472 104.875 3.06341 105.715 1.85177 106.288C1.24595 106.575 0.783169 106.795 0.471765 106.943L0.119236 107.111L0.0300786 107.153L0.0076189 107.164L0.00196162 107.167C0.0006877 107.167 3.56404e-05 107.168 0.215737 107.619C0.431439 108.07 0.432035 108.07 0.433253 108.069L0.438797 108.066L0.461029 108.056L0.549727 108.013L0.901318 107.846C1.21209 107.698 1.67422 107.479 2.27937 107.192C3.48967 106.62 5.27203 105.78 7.55969 104.711C12.135 102.573 18.7315 99.5193 26.815 95.8542C42.9824 88.5238 65.0968 78.7504 88.8861 68.9773C112.677 59.2038 138.136 49.4333 160.995 42.1071C183.871 34.775 204.085 29.911 217.41 29.911C248.058 29.911 270.336 34.7893 288.432 42.0946C306.534 49.4025 320.472 59.1465 334.456 68.9246L334.472 68.9355L334.472 68.9356C348.445 78.7058 362.465 88.5092 380.68 95.8624C398.908 103.221 421.315 108.119 452.076 108.119C495.689 108.119 562.178 100.889 628.626 93.6637L628.657 93.6604C695.139 86.4312 761.577 79.2078 805.129 79.2078C842.696 79.2078 858.157 86.4408 864.27 93.4909C867.315 97.0017 868.067 100.494 868.068 103.102C868.069 104.409 867.88 105.498 867.693 106.257C867.599 106.636 867.506 106.932 867.437 107.13C867.403 107.23 867.374 107.305 867.355 107.354L867.343 107.384L867.334 107.407L867.329 107.419L867.328 107.421C867.328 107.421 867.328 107.42 867.787 107.619C868.246 107.817 868.246 107.817 868.247 107.816L868.247 107.814L868.25 107.808L868.258 107.788L868.27 107.76L868.286 107.718C868.299 107.687 868.313 107.649 868.329 107.605C868.337 107.583 868.346 107.561 868.354 107.536C868.363 107.512 868.372 107.485 868.382 107.458C868.46 107.233 868.562 106.908 868.664 106.496C868.867 105.674 869.069 104.504 869.068 103.101C869.067 100.288 868.249 96.5526 865.026 92.8357C858.604 85.4303 842.736 78.2078 805.129 78.2078C761.516 78.2078 695.027 85.4376 628.579 92.6629L628.549 92.6662C562.066 99.8953 495.628 107.119 452.076 107.119C421.428 107.119 399.15 102.24 381.054 94.9351C362.952 87.6272 349.014 77.8833 335.029 68.1051L335.014 68.0942L335.014 68.094C321.041 58.3239 307.021 48.5205 288.806 41.1673C270.578 33.8086 248.171 28.911 217.41 28.911ZM160.688 55.6107C183.564 48.2787 203.911 43.3668 217.408 43.3668C248.169 43.3668 270.576 48.2645 288.804 55.6232C307.019 62.9765 321.039 72.7799 335.012 82.5501L335.028 82.561C349.012 92.3391 362.95 102.083 381.052 109.391C399.148 116.696 421.426 121.575 452.074 121.575C495.626 121.575 562.064 114.351 628.547 107.122L628.578 107.119C695.025 99.8935 761.514 92.6637 805.128 92.6637C842.734 92.6637 858.602 99.8862 865.024 107.292C868.247 111.008 869.065 114.743 869.066 117.557C869.067 118.96 868.865 120.13 868.662 120.952C868.56 121.364 868.458 121.689 868.38 121.914C868.341 122.026 868.308 122.113 868.285 122.174L868.275 122.199L868.263 122.229L868.257 122.244L868.248 122.264L868.246 122.27L868.245 122.272C868.245 122.273 868.244 122.273 867.785 122.075C867.514 121.957 867.403 121.909 867.357 121.89C867.326 121.876 867.326 121.877 867.326 121.877L867.327 121.875L867.332 121.863L867.344 121.832L867.353 121.81C867.372 121.761 867.401 121.686 867.435 121.586C867.504 121.388 867.597 121.092 867.691 120.712C867.879 119.954 868.067 118.865 868.066 117.558C868.065 114.95 867.313 111.458 864.269 107.947C858.155 100.897 842.694 93.6637 805.128 93.6637C761.575 93.6637 695.138 100.887 628.655 108.116L628.624 108.12C562.177 115.345 495.687 122.575 452.074 122.575C421.313 122.575 398.906 117.677 380.678 110.318C362.463 102.965 348.443 93.1617 334.47 83.3915L334.47 83.3914L334.455 83.3805C320.47 73.6023 306.532 63.8584 288.43 56.5505C270.334 49.2452 248.056 44.3668 217.408 44.3668C204.083 44.3668 183.869 49.2309 160.993 56.563C138.134 63.8892 112.675 73.6597 88.8843 83.4332C65.095 93.2063 42.9806 102.98 26.8132 110.31C18.7297 113.975 12.1333 117.029 7.55791 119.167C5.27025 120.236 3.48789 121.076 2.27759 121.648C1.67244 121.935 1.21031 122.154 0.899541 122.302L0.547951 122.469L0.459253 122.512L0.43702 122.522L0.431476 122.525C0.430259 122.525 0.429663 122.526 0.213961 122.075C-0.0017408 121.624 -0.00108874 121.623 0.000185174 121.623L0.00584246 121.62L0.0283021 121.609L0.117459 121.567L0.469988 121.399C0.781393 121.251 1.24418 121.031 1.85 120.744C3.06164 120.171 4.84543 119.331 7.1346 118.261C11.7129 116.122 18.3129 113.066 26.4003 109.399C42.5748 102.066 64.7007 92.2872 88.5043 82.5082C112.307 72.7298 137.793 62.9484 160.688 55.6107ZM217.41 57.8218C203.913 57.8218 183.566 62.7337 160.69 70.0656C137.795 77.4033 112.309 87.1848 88.5063 96.9632C64.7027 106.742 42.5769 116.521 26.4023 123.854C18.3149 127.521 11.7149 130.577 7.13661 132.716C4.84744 133.786 3.06365 134.626 1.85201 135.199C1.24619 135.486 0.783408 135.706 0.472003 135.854L0.119474 136.022L0.030317 136.064L0.00785736 136.075L0.00220008 136.078C0.000926164 136.078 0.000274104 136.078 0.215976 136.53C0.431678 136.981 0.432273 136.98 0.433491 136.98L0.439035 136.977L0.461268 136.967L0.549966 136.924L0.901556 136.757C1.21233 136.609 1.67446 136.389 2.27961 136.103C3.48991 135.531 5.27227 134.691 7.55993 133.622C12.1353 131.484 18.7317 128.43 26.8153 124.765C42.9827 117.435 65.097 107.661 88.8863 97.8882C112.677 88.1146 138.136 78.3441 160.995 71.0179C183.872 63.6859 204.085 58.8218 217.41 58.8218C248.058 58.8218 270.336 63.7001 288.432 71.0054C306.534 78.3133 320.472 88.0573 334.457 97.8354L334.472 97.8463L334.472 97.8465C348.445 107.617 362.465 117.42 380.68 124.773C398.908 132.132 421.315 137.03 452.076 137.03C495.689 137.03 562.179 129.8 628.626 122.575L628.657 122.571C695.14 115.342 761.577 108.119 805.13 108.119C842.696 108.119 858.157 115.352 864.271 122.402C867.315 125.913 868.067 129.405 868.068 132.012C868.069 133.32 867.881 134.409 867.693 135.167C867.599 135.546 867.506 135.842 867.437 136.041C867.403 136.141 867.375 136.216 867.355 136.265C867.346 136.289 867.339 136.307 867.334 136.318L867.329 136.33L867.328 136.332C867.328 136.331 867.328 136.331 867.35 136.341L867.421 136.371L867.787 136.53C868.246 136.728 868.247 136.728 868.247 136.727L868.248 136.725L868.25 136.719L868.259 136.699C868.265 136.683 868.275 136.659 868.287 136.629C868.298 136.6 868.311 136.566 868.326 136.526C868.336 136.498 868.347 136.467 868.359 136.433C868.367 136.413 868.374 136.391 868.382 136.368C868.46 136.144 868.562 135.819 868.664 135.407C868.867 134.585 869.069 133.415 869.068 132.012C869.067 129.198 868.249 125.463 865.026 121.747C858.604 114.341 842.736 107.119 805.13 107.119C761.516 107.119 695.027 114.348 628.58 121.574L628.549 121.577C562.066 128.806 495.628 136.03 452.076 136.03C421.428 136.03 399.15 131.151 381.054 123.846C362.952 116.538 349.014 106.794 335.03 97.0159L335.014 97.005L335.014 97.0048C321.041 87.2347 307.021 77.4314 288.806 70.0781C270.578 62.7194 248.171 57.8218 217.41 57.8218ZM160.688 85.6335C183.564 78.3016 203.911 73.3897 217.408 73.3897C248.169 73.3897 270.577 78.2873 288.805 85.646C307.019 92.9993 321.039 102.803 335.012 112.573L335.012 112.573L335.028 112.584C349.012 122.362 362.95 132.106 381.053 139.414C399.148 146.719 421.427 151.597 452.074 151.597C495.627 151.597 562.064 144.374 628.547 137.145L628.578 137.142C695.025 129.916 761.515 122.687 805.128 122.687C842.734 122.687 858.603 129.909 865.025 137.314C868.248 141.031 869.065 144.766 869.067 147.58C869.067 148.983 868.865 150.153 868.662 150.975C868.561 151.387 868.458 151.712 868.381 151.936C868.342 152.049 868.309 152.136 868.285 152.197C868.273 152.227 868.264 152.25 868.257 152.267L868.249 152.287L868.246 152.293L868.245 152.295C868.245 152.296 868.245 152.296 867.786 152.097C867.327 151.899 867.327 151.899 867.327 151.899L867.328 151.898L867.332 151.886C867.337 151.875 867.344 151.857 867.354 151.832C867.362 151.811 867.372 151.785 867.384 151.753C867.399 151.713 867.416 151.665 867.436 151.609C867.504 151.41 867.598 151.114 867.691 150.735C867.879 149.976 868.067 148.888 868.067 147.58C868.066 144.973 867.314 141.48 864.269 137.97C858.155 130.92 842.695 123.687 805.128 123.687C761.576 123.687 695.138 130.91 628.655 138.139L628.625 138.142C562.177 145.368 495.688 152.597 452.074 152.597C421.314 152.597 398.906 147.7 380.678 140.341C362.464 132.988 348.443 123.185 334.471 113.414L334.471 113.414L334.455 113.403C320.471 103.625 306.533 93.8812 288.43 86.5733C270.335 79.268 248.056 74.3897 217.408 74.3897C204.083 74.3897 183.87 79.2538 160.993 86.5858C138.135 93.912 112.675 103.683 88.8847 113.456C65.0954 123.229 42.9811 133.003 26.8137 140.333C18.7301 143.998 12.1337 147.052 7.55833 149.19C5.27067 150.259 3.48831 151.099 2.27801 151.671C1.67286 151.957 1.21073 152.177 0.89996 152.325L0.548369 152.492L0.459671 152.534L0.437439 152.545L0.431894 152.548C0.430677 152.548 0.430081 152.549 0.214379 152.097C-0.00132247 151.646 -0.000670406 151.646 0.000603509 151.645L0.00626079 151.643L0.0287204 151.632L0.117878 151.589L0.470407 151.422C0.781811 151.273 1.2446 151.054 1.85042 150.767C3.06206 150.194 4.84584 149.354 7.13502 148.284C11.7133 146.145 18.3133 143.089 26.4007 139.422C42.5753 132.089 64.7011 122.31 88.5047 112.531C112.307 102.753 137.794 92.9712 160.688 85.6335ZM217.41 88.9569C203.912 88.9569 183.566 93.8688 160.689 101.201C137.795 108.538 112.308 118.32 88.506 128.098C64.7023 137.877 42.5765 147.656 26.402 154.989C18.3145 158.656 11.7146 161.712 7.13626 163.851C4.84709 164.921 3.0633 165.761 1.85166 166.334C1.24584 166.621 0.783058 166.841 0.471654 166.989L0.119125 167.157L0.0299674 167.199L0.00750772 167.21L0.00185044 167.213C0.000576523 167.213 -7.55372e-05 167.214 0.215626 167.665C0.431328 168.116 0.431924 168.115 0.433141 168.115L0.438686 168.112L0.460918 168.102L0.549616 168.059L0.901207 167.892C1.21198 167.744 1.67411 167.525 2.27926 167.238C3.48956 166.666 5.27192 165.826 7.55958 164.757C12.1349 162.619 18.7314 159.565 26.8149 155.9C42.9823 148.57 65.0967 138.796 88.886 129.023C112.677 119.25 138.136 109.479 160.994 102.153C183.871 94.8209 204.085 89.9569 217.41 89.9569C248.058 89.9569 270.336 94.8352 288.432 102.14C306.534 109.448 320.472 119.192 334.456 128.971L334.472 128.981C348.445 138.752 362.465 148.555 380.68 155.908C398.908 163.267 421.315 168.165 452.076 168.165C495.689 168.165 562.178 160.935 628.626 153.71L628.656 153.706C695.139 146.477 761.577 139.254 805.129 139.254C842.696 139.254 858.156 146.487 864.27 153.537C867.315 157.048 868.067 160.54 868.068 163.148C868.069 164.455 867.88 165.544 867.693 166.302C867.599 166.682 867.506 166.978 867.437 167.176C867.402 167.276 867.374 167.351 867.355 167.4C867.345 167.424 867.338 167.442 867.334 167.453L867.329 167.465L867.328 167.467C867.328 167.466 867.328 167.466 867.787 167.665C868.246 167.863 868.246 167.863 868.247 167.862L868.247 167.86L868.25 167.854L868.258 167.834C868.265 167.818 868.275 167.794 868.286 167.764L868.297 167.736L868.318 167.68C868.337 167.63 868.358 167.572 868.382 167.504C868.46 167.279 868.562 166.954 868.663 166.542C868.867 165.72 869.069 164.55 869.068 163.147C869.067 160.333 868.249 156.598 865.026 152.882C858.604 145.476 842.736 138.254 805.129 138.254C761.516 138.254 695.027 145.484 628.579 152.709L628.548 152.712C562.066 159.941 495.628 167.165 452.076 167.165C421.428 167.165 399.15 162.286 381.054 154.981C362.952 147.673 349.013 137.929 335.029 128.151L335.014 128.14L335.013 128.14C321.041 118.37 307.021 108.566 288.806 101.213C270.578 93.8545 248.171 88.9569 217.41 88.9569ZM160.688 116.768C183.564 109.437 203.911 104.525 217.408 104.525C248.169 104.525 270.576 109.422 288.804 116.781C307.019 124.134 321.039 133.938 335.012 143.708L335.012 143.708L335.028 143.719C349.012 153.497 362.95 163.241 381.052 170.549C399.148 177.854 421.426 182.732 452.074 182.732C495.626 182.732 562.064 175.509 628.547 168.28L628.578 168.277C695.025 161.051 761.514 153.821 805.128 153.821C842.734 153.821 858.602 161.044 865.024 168.449C868.247 172.166 869.065 175.901 869.066 178.715C869.067 180.118 868.865 181.288 868.662 182.11C868.56 182.521 868.458 182.847 868.38 183.071C868.365 183.114 868.351 183.154 868.338 183.19L868.316 183.249L868.306 183.277L868.296 183.303L868.285 183.332C868.273 183.362 868.263 183.385 868.257 183.402L868.248 183.422L868.246 183.428L868.245 183.43C868.245 183.43 868.245 183.43 868.224 183.421C868.209 183.415 868.183 183.404 868.139 183.385C868.072 183.356 867.963 183.309 867.785 183.232C867.327 183.034 867.326 183.034 867.326 183.034L867.327 183.033L867.332 183.021C867.337 183.01 867.344 182.992 867.353 182.967C867.36 182.95 867.368 182.93 867.377 182.907C867.393 182.863 867.413 182.809 867.435 182.744C867.504 182.545 867.597 182.249 867.691 181.87C867.879 181.111 868.067 180.023 868.066 178.715C868.065 176.108 867.313 172.615 864.269 169.105C858.155 162.054 842.694 154.821 805.128 154.821C761.575 154.821 695.138 162.045 628.655 169.274L628.624 169.277C562.177 176.503 495.687 183.732 452.074 183.732C421.313 183.732 398.906 178.835 380.678 171.476C362.463 164.123 348.443 154.319 334.47 144.549L334.455 144.538C320.47 134.76 306.532 125.016 288.43 117.708C270.334 110.403 248.056 105.525 217.408 105.525C204.083 105.525 183.87 110.389 160.993 117.721C138.134 125.047 112.675 134.817 88.8843 144.591C65.095 154.364 42.9807 164.137 26.8133 171.468C18.7298 175.133 12.1333 178.187 7.55795 180.325C5.27029 181.394 3.48793 182.234 2.27763 182.806C1.67248 183.092 1.21035 183.312 0.899581 183.46L0.54799 183.627L0.459292 183.669L0.43706 183.68L0.431515 183.683C0.430298 183.683 0.429702 183.684 0.214 183.232C-0.00170149 182.781 -0.00104943 182.781 0.000224483 182.78L0.00588177 182.778L0.0283414 182.767L0.117499 182.724L0.470028 182.557C0.781432 182.408 1.24422 182.189 1.85004 181.902C3.06168 181.329 4.84547 180.489 7.13464 179.419C11.713 177.28 18.3129 174.224 26.4003 170.557C42.5749 163.223 64.7007 153.445 88.5043 143.666C112.307 133.888 137.793 124.106 160.688 116.768ZM217.408 120.092C203.911 120.092 183.564 125.004 160.688 132.336C137.793 139.673 112.307 149.455 88.5046 159.233C64.7009 169.012 42.5751 178.791 26.4006 186.124C18.3132 189.791 11.7132 192.847 7.13488 194.986C4.84571 196.056 3.06192 196.896 1.85028 197.469C1.24446 197.756 0.781672 197.976 0.470268 198.124L0.117739 198.292L0.0285817 198.334L0.00612208 198.345L0.000464794 198.348C-0.000809121 198.348 -0.00146118 198.349 0.214241 198.8C0.429942 199.251 0.430538 199.25 0.431756 199.25L0.4373 199.247L0.459532 199.237L0.54823 199.194L0.899821 199.027C1.21059 198.879 1.67272 198.66 2.27787 198.373C3.48817 197.801 5.27053 196.961 7.55819 195.892C12.1335 193.754 18.73 190.7 26.8135 187.035C42.9809 179.705 65.0953 169.931 88.8846 160.158C112.675 150.385 138.134 140.614 160.993 133.288C183.87 125.956 204.083 121.092 217.408 121.092C248.056 121.092 270.335 125.97 288.43 133.275C306.533 140.583 320.471 150.327 334.455 160.105L334.47 160.116L334.471 160.117C348.443 169.887 362.464 179.69 380.678 187.043C398.906 194.402 421.313 199.3 452.074 199.3C495.688 199.3 562.177 192.07 628.624 184.845L628.655 184.841C695.138 177.612 761.575 170.389 805.128 170.389C842.694 170.389 858.155 177.622 864.269 184.672C867.313 188.183 868.065 191.675 868.067 194.283C868.067 195.59 867.879 196.679 867.691 197.437C867.598 197.817 867.504 198.113 867.435 198.311C867.416 198.367 867.399 198.415 867.384 198.455C867.372 198.486 867.362 198.513 867.354 198.535C867.344 198.559 867.337 198.577 867.332 198.588L867.327 198.6L867.327 198.602C867.327 198.602 867.327 198.601 867.41 198.637L867.786 198.8L868.068 198.922L868.198 198.978L868.237 198.994C868.245 198.997 868.245 198.997 868.245 198.997L868.246 198.995L868.248 198.989L868.257 198.969C868.264 198.953 868.273 198.929 868.285 198.899C868.309 198.838 868.341 198.751 868.38 198.639C868.416 198.535 868.458 198.409 868.502 198.264C868.553 198.095 868.607 197.898 868.662 197.677C868.865 196.855 869.067 195.685 869.067 194.282C869.065 191.468 868.248 187.733 865.024 184.017C858.602 176.611 842.734 169.389 805.128 169.389C761.514 169.389 695.025 176.618 628.578 183.844L628.547 183.847C562.064 191.076 495.627 198.3 452.074 198.3C421.426 198.3 399.148 193.421 381.052 186.116C362.95 178.808 349.012 169.064 335.028 159.286L335.012 159.275L335.012 159.275C321.039 149.505 307.019 139.701 288.805 132.348C270.577 124.989 248.169 120.092 217.408 120.092ZM160.688 147.903C183.565 140.571 203.911 135.659 217.409 135.659C248.17 135.659 270.577 140.557 288.805 147.916C307.019 155.269 321.04 165.072 335.012 174.842L335.013 174.843L335.028 174.854C349.012 184.632 362.95 194.376 381.053 201.684C399.148 208.989 421.427 213.867 452.075 213.867C495.627 213.867 562.065 206.644 628.547 199.415L628.578 199.411C695.026 192.186 761.515 184.956 805.128 184.956C842.734 184.956 858.603 192.179 865.025 199.584C868.248 203.301 869.066 207.036 869.067 209.85C869.068 211.252 868.866 212.423 868.662 213.245C868.561 213.656 868.459 213.981 868.381 214.206C868.342 214.318 868.309 214.406 868.285 214.466C868.273 214.497 868.264 214.52 868.257 214.537L868.249 214.557L868.246 214.563L868.245 214.564C868.245 214.565 868.245 214.566 867.786 214.367C867.327 214.169 867.327 214.169 867.327 214.169L867.328 214.167L867.333 214.156L867.343 214.13L867.354 214.102C867.373 214.053 867.401 213.978 867.436 213.879C867.505 213.68 867.598 213.384 867.692 213.005C867.879 212.246 868.068 211.158 868.067 209.85C868.066 207.243 867.314 203.75 864.269 200.239C858.155 193.189 842.695 185.956 805.128 185.956C761.576 185.956 695.138 193.18 628.655 200.409L628.625 200.412C562.177 207.637 495.688 214.867 452.075 214.867C421.314 214.867 398.907 209.97 380.678 202.611C362.464 195.258 348.443 185.454 334.471 175.684L334.455 175.673C320.471 165.895 306.533 156.151 288.431 148.843C270.335 141.538 248.057 136.659 217.409 136.659C204.084 136.659 183.87 141.523 160.993 148.855C138.135 156.182 112.675 165.952 88.8849 175.726C65.0956 185.499 42.9813 195.272 26.8139 202.603C18.7303 206.268 12.1339 209.322 7.55852 211.46C5.27086 212.529 3.4885 213.368 2.2782 213.941C1.67305 214.227 1.21092 214.447 0.90015 214.594L0.548559 214.762L0.459861 214.804L0.437628 214.815L0.432084 214.817C0.430867 214.818 0.430271 214.818 0.214569 214.367C-0.0011327 213.916 -0.00048064 213.916 0.000793275 213.915L0.00645056 213.912L0.0289102 213.902L0.118068 213.859L0.470596 213.691C0.782001 213.543 1.24479 213.323 1.85061 213.037C3.06225 212.464 4.84603 211.623 7.13521 210.554C11.7135 208.414 18.3135 205.359 26.4009 201.692C42.5754 194.358 64.7013 184.58 88.5049 174.801C112.307 165.022 137.794 155.241 160.688 147.903ZM217.409 151.227C203.912 151.227 183.565 156.138 160.688 163.47C137.794 170.808 112.308 180.59 88.5052 190.368C64.7015 200.147 42.5757 209.925 26.4012 217.259C18.3137 220.926 11.7138 223.982 7.13545 226.121C4.84627 227.19 3.06249 228.031 1.85085 228.604C1.24503 228.891 0.782241 229.11 0.470837 229.258L0.118308 229.426L0.0291505 229.469L0.00669087 229.48L0.00103359 229.482C-0.000240329 229.483 -0.000892389 229.483 0.214809 229.934C0.430511 230.385 0.431107 230.385 0.432325 230.385L0.437869 230.382L0.460101 230.371L0.548799 230.329L0.90039 230.162C1.21116 230.014 1.67329 229.794 2.27844 229.508C3.48874 228.936 5.2711 228.096 7.55876 227.027C12.1341 224.889 18.7306 221.835 26.8141 218.17C42.9815 210.839 65.0958 201.066 88.8852 191.293C112.676 181.519 138.135 171.749 160.994 164.423C183.87 157.091 204.084 152.227 217.409 152.227C248.057 152.227 270.335 157.105 288.431 164.41C306.533 171.718 320.471 181.462 334.455 191.24L334.471 191.251L334.471 191.251C348.444 201.021 362.464 210.825 380.679 218.178C398.907 225.537 421.314 230.434 452.075 230.434C495.688 230.434 562.178 223.205 628.625 215.979L628.656 215.976C695.139 208.747 761.576 201.523 805.128 201.523C842.695 201.523 858.156 208.756 864.269 215.806C867.314 219.317 868.066 222.81 868.067 225.417C868.068 226.725 867.879 227.813 867.692 228.572C867.598 228.951 867.505 229.247 867.436 229.446C867.402 229.545 867.373 229.62 867.354 229.669C867.345 229.694 867.337 229.712 867.333 229.723L867.328 229.734L867.327 229.736C867.327 229.736 867.327 229.736 867.786 229.934C868.245 230.133 868.245 230.132 868.246 230.132L868.247 230.13L868.249 230.124L868.257 230.104C868.264 230.087 868.274 230.064 868.286 230.033C868.309 229.973 868.342 229.886 868.381 229.773C868.459 229.549 868.561 229.223 868.663 228.812C868.866 227.99 869.068 226.82 869.067 225.417C869.066 222.603 868.248 218.868 865.025 215.151C858.603 207.746 842.735 200.523 805.128 200.523C761.515 200.523 695.026 207.753 628.579 214.978L628.548 214.982C562.065 222.211 495.627 229.434 452.075 229.434C421.427 229.434 399.149 224.556 381.053 217.251C362.951 209.943 349.013 200.199 335.028 190.421L335.013 190.41L335.013 190.41C321.04 180.64 307.02 170.836 288.805 163.483C270.577 156.124 248.17 151.227 217.409 151.227ZM160.69 179.037C183.566 171.706 203.913 166.794 217.41 166.794C248.171 166.794 270.578 171.691 288.806 179.05C307.021 186.403 321.041 196.207 335.014 205.977L335.014 205.977L335.03 205.988C349.014 215.766 362.952 225.51 381.054 232.818C399.15 240.123 421.428 245.001 452.076 245.001C495.629 245.001 562.066 237.778 628.549 230.549L628.58 230.546C695.027 223.32 761.516 216.09 805.13 216.09C842.736 216.09 858.604 223.313 865.026 230.718C868.249 234.435 869.067 238.17 869.068 240.984C869.069 242.387 868.867 243.557 868.664 244.379C868.562 244.79 868.46 245.116 868.382 245.34C868.343 245.453 868.31 245.54 868.287 245.601C868.275 245.631 868.265 245.654 868.259 245.671L868.25 245.691L868.248 245.697L868.247 245.699C868.247 245.699 868.247 245.7 868.158 245.661C868.093 245.634 867.981 245.585 867.788 245.501C867.329 245.303 867.328 245.303 867.328 245.303L867.329 245.302L867.334 245.29C867.339 245.279 867.346 245.261 867.355 245.236C867.375 245.188 867.403 245.113 867.437 245.013C867.506 244.814 867.599 244.518 867.693 244.139C867.881 243.38 868.069 242.292 868.068 240.984C868.067 238.377 867.315 234.884 864.271 231.374C858.157 224.323 842.696 217.09 805.13 217.09C761.577 217.09 695.14 224.314 628.657 231.543L628.626 231.546C562.179 238.772 495.689 246.001 452.076 246.001C421.315 246.001 398.908 241.104 380.68 233.745C362.465 226.392 348.445 216.589 334.473 206.818L334.472 206.818L334.457 206.807C320.472 197.029 306.534 187.285 288.432 179.977C270.336 172.672 248.058 167.794 217.41 167.794C204.085 167.794 183.872 172.658 160.995 179.99C138.136 187.316 112.677 197.086 88.8864 206.86C65.0971 216.633 42.9827 226.406 26.8153 233.737C18.7318 237.402 12.1353 240.456 7.55998 242.594C5.27232 243.663 3.48996 244.503 2.27966 245.075C1.67451 245.361 1.21238 245.581 0.901607 245.729L0.550017 245.896L0.461319 245.938L0.439086 245.949L0.433542 245.952C0.432324 245.952 0.431729 245.953 0.216027 245.501C0.00032514 245.05 0.0009772 245.05 0.00225112 245.049L0.0079084 245.047L0.0303681 245.036L0.119525 244.993L0.472054 244.826C0.783459 244.677 1.24624 244.458 1.85206 244.171C3.0637 243.598 4.84749 242.758 7.13666 241.688C11.715 239.549 18.3149 236.493 26.4024 232.826C42.5769 225.492 64.7027 215.714 88.5064 205.935C112.309 196.157 137.795 186.375 160.69 179.037ZM217.41 182.361C203.913 182.361 183.566 187.273 160.69 194.605C137.795 201.943 112.309 211.724 88.5065 221.502C64.7028 231.281 42.577 241.06 26.4025 248.393C18.315 252.06 11.7151 255.116 7.13674 257.255C4.84757 258.325 3.06379 259.165 1.85215 259.739C1.24633 260.025 0.78354 260.245 0.472136 260.393L0.119607 260.561L0.0304494 260.603L0.0079897 260.614L0.00233242 260.617C0.0010585 260.617 0.000406441 260.618 0.216108 261.069C0.43181 261.52 0.432406 261.52 0.433623 261.519L0.439168 261.516L0.4614 261.506L0.550098 261.463L0.901689 261.296C1.21246 261.148 1.67459 260.929 2.27974 260.643C3.49004 260.07 5.2724 259.23 7.56006 258.161C12.1354 256.024 18.7319 252.969 26.8154 249.304C42.9828 241.974 65.0971 232.2 88.8865 222.427C112.677 212.654 138.136 202.883 160.995 195.557C183.872 188.225 204.085 183.361 217.41 183.361C248.058 183.361 270.336 188.239 288.432 195.545C306.534 202.853 320.473 212.597 334.457 222.375L334.472 222.386C348.445 232.156 362.465 241.959 380.68 249.312C398.908 256.671 421.315 261.569 452.076 261.569C495.69 261.569 562.179 254.339 628.626 247.114L628.657 247.11C695.14 239.881 761.577 232.658 805.13 232.658C842.696 232.658 858.157 239.891 864.271 246.941C867.315 250.452 868.067 253.945 868.068 256.552C868.069 257.859 867.881 258.948 867.693 259.707C867.599 260.086 867.506 260.382 867.437 260.581C867.403 260.68 867.375 260.755 867.356 260.804C867.346 260.828 867.339 260.846 867.334 260.857L867.329 260.869L867.328 260.871C867.328 260.871 867.328 260.871 867.333 260.873C867.341 260.876 867.359 260.884 867.406 260.904L867.574 260.977L867.788 261.069C868.005 261.163 868.12 261.212 868.18 261.238C868.247 261.267 868.247 261.267 868.247 261.266L868.248 261.264L868.25 261.258L868.259 261.238C868.266 261.222 868.275 261.198 868.287 261.168C868.311 261.107 868.343 261.02 868.382 260.908C868.46 260.683 868.562 260.358 868.664 259.947C868.867 259.124 869.069 257.954 869.068 256.551C869.067 253.738 868.249 250.003 865.026 246.286C858.604 238.88 842.736 231.658 805.13 231.658C761.516 231.658 695.027 238.888 628.58 246.113L628.549 246.116C562.066 253.345 495.629 260.569 452.076 260.569C421.428 260.569 399.15 255.69 381.054 248.385C362.952 241.077 349.014 231.333 335.03 221.555L335.014 221.544L335.014 221.544C321.041 211.774 307.021 201.971 288.806 194.617C270.578 187.259 248.171 182.361 217.41 182.361ZM217.411 197.928C203.913 197.928 183.567 202.84 160.69 210.172C137.796 217.51 112.309 227.292 88.507 237.07C64.7033 246.849 42.5775 256.627 26.403 263.961C18.3155 267.628 11.7156 270.684 7.13726 272.823C4.84809 273.892 3.0643 274.733 1.85266 275.306C1.24684 275.593 0.784057 275.812 0.472652 275.96L0.120124 276.128L0.0309662 276.171L0.00850659 276.182L0.00284931 276.184C0.00157539 276.185 0.000923332 276.185 0.216625 276.636C0.432327 277.087 0.432923 277.087 0.43414 277.086L0.439684 277.084L0.461917 277.073L0.550615 277.031L0.902206 276.863C1.21298 276.716 1.67511 276.496 2.28026 276.21C3.49056 275.637 5.27292 274.798 7.56058 273.729C12.1359 271.591 18.7324 268.537 26.8159 264.872C42.9833 257.541 65.0977 247.768 88.887 237.995C112.678 228.221 138.137 218.451 160.995 211.125C183.872 203.793 204.086 198.928 217.411 198.928C248.059 198.928 270.337 203.807 288.433 211.112C306.535 218.42 320.473 228.164 334.457 237.942L334.473 237.953L334.473 237.953C348.446 247.723 362.466 257.527 380.681 264.88C398.909 272.239 421.316 277.136 452.077 277.136C495.69 277.136 562.179 269.906 628.627 262.681L628.657 262.678C695.14 255.449 761.578 248.225 805.13 248.225C842.697 248.225 858.157 255.458 864.271 262.508C867.316 266.019 868.068 269.512 868.069 272.119C868.07 273.427 867.881 274.515 867.694 275.274C867.6 275.653 867.507 275.949 867.438 276.148C867.403 276.247 867.375 276.322 867.356 276.371C867.346 276.396 867.339 276.414 867.335 276.425L867.33 276.436L867.329 276.438C867.329 276.438 867.329 276.438 867.788 276.636C868.247 276.835 868.247 276.834 868.247 276.834L868.248 276.832L868.251 276.826L868.259 276.806C868.266 276.789 868.276 276.766 868.287 276.735C868.311 276.675 868.344 276.588 868.383 276.475C868.461 276.25 868.563 275.925 868.664 275.514C868.868 274.692 869.07 273.522 869.069 272.119C869.068 269.305 868.25 265.57 865.027 261.853C858.605 254.448 842.737 247.225 805.13 247.225C761.517 247.225 695.028 254.455 628.58 261.68L628.549 261.684C562.067 268.913 495.629 276.136 452.077 276.136C421.429 276.136 399.151 271.258 381.055 263.953C362.953 256.645 349.014 246.901 335.03 237.123L335.015 237.112L335.014 237.112C321.042 227.341 307.022 217.538 288.807 210.185C270.579 202.826 248.172 197.928 217.411 197.928Z" fill="url(#paint0_radial_580_15078)"/>
    <defs>
        <radialGradient id="paint0_radial_580_15078" cx="0" cy="0" r="1" gradientUnits="userSpaceOnUse" gradientTransform="translate(259.69 181.821) rotate(-47.1496) scale(167.941 636.206)">
            <stop stop-color="#1F3891"/>
            <stop offset="1" stop-color="#1F3891" stop-opacity="0"/>
        </radialGradient>
    </defs>
</svg>
