<svg width="870" height="278" viewBox="0 0 870 278" fill="none"
    xmlns="http://www.w3.org/2000/svg">
    <path fill-rule="evenodd" clip-rule="evenodd" d="M217.41 0C203.913 0 183.566 4.91189 160.689 12.2438C137.795 19.5815 112.308 29.363 88.5061 39.1414C64.7024 48.9203 42.5766 58.6988 26.4021 66.0324C18.3147 69.6993 11.7147 72.7551 7.13638 74.8943C4.84721 75.9639 3.06342 76.8044 1.85178 77.3775C1.24596 77.6641 0.783175 77.8838 0.47177 78.0319L0.119242 78.1998L0.0300842 78.2424L0.00762456 78.2531L0.00196728 78.2558C0.000693363 78.2564 4.13028e-05 78.2567 0.215743 78.7078C0.431445 79.1589 0.432041 79.1586 0.433258 79.158L0.438802 79.1553L0.461035 79.1447L0.549733 79.1024L0.901324 78.935C1.21209 78.7871 1.67423 78.5677 2.27938 78.2815C3.48967 77.709 5.27203 76.8692 7.55969 75.8003C12.135 73.6625 18.7315 70.6083 26.815 66.9432C42.9824 59.6128 65.0968 49.8394 88.8861 40.0664C112.677 30.2928 138.136 20.5224 160.995 13.1961C183.871 5.86408 204.085 1 217.41 1C248.058 1 270.336 5.87835 288.432 13.1836C306.534 20.4915 320.472 30.2355 334.456 40.0137L334.472 40.0245L334.472 40.0247C348.445 49.7948 362.465 59.5982 380.68 66.9515C398.908 74.3102 421.315 79.2078 452.076 79.2078C495.689 79.2078 562.178 71.978 628.626 64.7527L628.657 64.7494C695.139 57.5203 761.577 50.2968 805.129 50.2968C842.696 50.2968 858.157 57.5298 864.27 64.5799C867.315 68.0908 868.067 71.5835 868.068 74.1907C868.069 75.4982 867.88 76.5867 867.693 77.3456C867.599 77.7247 867.506 78.0207 867.437 78.2195C867.402 78.3189 867.374 78.3939 867.355 78.4428L867.344 78.4706L867.334 78.4963L867.329 78.5079L867.328 78.5098C867.328 78.5097 867.328 78.5095 867.391 78.5365C867.45 78.5619 867.565 78.6114 867.787 78.7078C868.246 78.9064 868.246 78.9058 868.247 78.9051L868.247 78.9031L868.25 78.8972L868.258 78.8774C868.265 78.8607 868.275 78.8372 868.286 78.8069C868.31 78.7464 868.343 78.659 868.382 78.5467C868.46 78.322 868.562 77.9969 868.664 77.5855C868.867 76.7632 869.069 75.5931 869.068 74.1902C869.067 71.3766 868.249 67.6416 865.026 63.9247C858.604 56.5193 842.736 49.2968 805.129 49.2968C761.516 49.2968 695.027 56.5266 628.579 63.7519L628.548 63.7552C562.066 70.9844 495.628 78.2078 452.076 78.2078C421.428 78.2078 399.15 73.3294 381.054 66.0242C362.952 58.7162 349.014 48.9723 335.029 39.1941L335.014 39.1832L335.014 39.1831C321.041 29.413 307.021 19.6096 288.806 12.2563C270.578 4.89762 248.171 0 217.41 0ZM160.692 26.6997C183.568 19.3678 203.915 14.4559 217.412 14.4559C248.173 14.4559 270.58 19.3535 288.808 26.7122C307.023 34.0655 321.043 43.8689 335.016 53.639L335.016 53.6392L335.032 53.65C349.016 63.4282 362.954 73.1722 381.056 80.4801C399.152 87.7853 421.43 92.6637 452.078 92.6637C495.63 92.6637 562.068 85.4403 628.551 78.2112L628.582 78.2078C695.029 70.9826 761.518 63.7528 805.131 63.7528C842.738 63.7528 858.606 70.9752 865.028 78.3807C868.251 82.0975 869.069 85.8326 869.07 88.6461C869.071 90.049 868.869 91.2192 868.666 92.0414C868.564 92.4528 868.462 92.7779 868.384 93.0026C868.345 93.115 868.312 93.2023 868.289 93.2628C868.277 93.2931 868.267 93.3167 868.26 93.3333L868.252 93.3531L868.25 93.359L868.249 93.361C868.249 93.3614 868.249 93.3617 868.2 93.3409C868.146 93.3177 868.031 93.2684 867.789 93.1637C867.331 92.9651 867.33 92.9655 867.33 92.9657L867.331 92.9638L867.336 92.9522C867.34 92.941 867.348 92.9231 867.357 92.8987C867.367 92.8729 867.38 92.8399 867.395 92.7999C867.408 92.764 867.423 92.7225 867.439 92.6754C867.508 92.4766 867.601 92.1806 867.695 91.8015C867.882 91.0426 868.071 89.9541 868.07 88.6466C868.069 86.0394 867.317 82.5467 864.273 79.0358C858.159 71.9858 842.698 64.7528 805.131 64.7528C761.579 64.7528 695.142 71.9762 628.659 79.2053L628.628 79.2086C562.181 86.4339 495.691 93.6637 452.078 93.6637C421.317 93.6637 398.91 88.7661 380.682 81.4074C362.467 74.0541 348.447 64.2506 334.474 54.4805L334.459 54.4696C320.474 44.6914 306.536 34.9475 288.434 27.6395C270.338 20.3343 248.06 15.4559 217.412 15.4559C204.087 15.4559 183.873 20.32 160.997 27.652C138.138 34.9783 112.679 44.7487 88.8883 54.5223C65.099 64.2953 42.9846 74.0687 26.8172 81.3991C18.7337 85.0642 12.1372 88.1184 7.5619 90.2562C5.27424 91.3251 3.49188 92.1649 2.28158 92.7374C1.67643 93.0236 1.2143 93.243 0.903532 93.3909L0.551941 93.5583L0.463243 93.6006L0.441011 93.6113L0.435467 93.6139C0.434249 93.6145 0.433653 93.6148 0.217952 93.1637C0.00224974 92.7126 0.0029018 92.7123 0.00417572 92.7117L0.009833 92.709L0.0322927 92.6983L0.12145 92.6557L0.473979 92.4878C0.785383 92.3397 1.24817 92.12 1.85399 91.8334C3.06563 91.2603 4.84942 90.4198 7.13859 89.3502C11.7169 87.211 18.3169 84.1552 26.4043 80.4884C42.5788 73.1548 64.7047 63.3762 88.5083 53.5973C112.311 43.8189 137.797 34.0374 160.692 26.6997ZM217.41 28.911C203.913 28.911 183.566 33.8229 160.69 41.1548C137.795 48.4925 112.309 58.274 88.5063 68.0524C64.7027 77.8313 42.5768 87.6098 26.4023 94.9434C18.3149 98.6103 11.7149 101.666 7.13661 103.805C4.84743 104.875 3.06365 105.715 1.85201 106.288C1.24619 106.575 0.783401 106.795 0.471997 106.943L0.119468 107.111L0.0303105 107.153L0.00785082 107.164L0.00219354 107.167C0.000919622 107.167 0.000267562 107.168 0.215969 107.619C0.431671 108.07 0.432267 108.07 0.433484 108.069L0.439029 108.066L0.461261 108.056L0.549959 108.013L0.90155 107.846C1.21232 107.698 1.67445 107.479 2.2796 107.192C3.4899 106.62 5.27226 105.78 7.55992 104.711C12.1353 102.573 18.7317 99.5193 26.8153 95.8542C42.9826 88.5238 65.097 78.7504 88.8863 68.9773C112.677 59.2038 138.136 49.4333 160.995 42.1071C183.872 34.775 204.085 29.911 217.41 29.911C248.058 29.911 270.336 34.7893 288.432 42.0946C306.534 49.4025 320.472 59.1465 334.457 68.9246L334.472 68.9355L334.472 68.9356C348.445 78.7058 362.465 88.5092 380.68 95.8624C398.908 103.221 421.315 108.119 452.076 108.119C495.689 108.119 562.179 100.889 628.626 93.6637L628.657 93.6604C695.14 86.4312 761.577 79.2078 805.129 79.2078C842.696 79.2078 858.157 86.4408 864.271 93.4909C867.315 97.0017 868.067 100.494 868.068 103.102C868.069 104.409 867.881 105.498 867.693 106.257C867.599 106.636 867.506 106.932 867.437 107.13C867.403 107.23 867.374 107.305 867.355 107.354L867.343 107.384L867.334 107.407L867.329 107.419L867.328 107.421C867.328 107.421 867.329 107.42 867.787 107.619C868.246 107.817 868.247 107.817 868.247 107.816L868.248 107.814L868.25 107.808L868.259 107.788L868.27 107.76L868.287 107.718C868.299 107.687 868.313 107.649 868.33 107.605C868.337 107.583 868.346 107.561 868.354 107.536C868.363 107.512 868.372 107.485 868.382 107.458C868.46 107.233 868.562 106.908 868.664 106.496C868.867 105.674 869.069 104.504 869.068 103.101C869.067 100.288 868.249 96.5526 865.026 92.8357C858.604 85.4303 842.736 78.2078 805.129 78.2078C761.516 78.2078 695.027 85.4376 628.58 92.6629L628.549 92.6662C562.066 99.8953 495.628 107.119 452.076 107.119C421.428 107.119 399.15 102.24 381.054 94.9351C362.952 87.6272 349.014 77.8833 335.03 68.1051L335.014 68.0942L335.014 68.094C321.041 58.3239 307.021 48.5205 288.806 41.1673C270.578 33.8086 248.171 28.911 217.41 28.911ZM160.688 55.6098C183.564 48.2779 203.911 43.366 217.408 43.366C248.169 43.366 270.576 48.2636 288.804 55.6223C307.019 62.9756 321.039 72.7789 335.012 82.549L335.012 82.5493L335.028 82.5601C349.012 92.3383 362.95 102.082 381.052 109.39C399.148 116.695 421.426 121.574 452.074 121.574C495.626 121.574 562.064 114.35 628.547 107.121L628.578 107.118C695.025 99.8927 761.514 92.6629 805.127 92.6629C842.734 92.6629 858.602 99.8853 865.024 107.291C868.247 111.008 869.065 114.743 869.066 117.556C869.067 118.959 868.865 120.129 868.662 120.951C868.56 121.363 868.458 121.688 868.38 121.913C868.341 122.025 868.308 122.112 868.285 122.173C868.273 122.203 868.263 122.227 868.257 122.243L868.248 122.263L868.246 122.269L868.245 122.271C868.245 122.272 868.244 122.272 867.785 122.074C867.327 121.875 867.326 121.876 867.326 121.876L867.327 121.874L867.332 121.862C867.337 121.851 867.344 121.833 867.353 121.809C867.372 121.76 867.401 121.685 867.435 121.586C867.504 121.387 867.597 121.091 867.691 120.712C867.879 119.953 868.067 118.864 868.066 117.557C868.065 114.949 867.313 111.457 864.269 107.946C858.155 100.896 842.694 93.6629 805.127 93.6629C761.575 93.6629 695.138 100.886 628.655 108.115L628.624 108.119C562.177 115.344 495.687 122.574 452.074 122.574C421.313 122.574 398.906 117.676 380.678 110.317C362.463 102.964 348.443 93.1607 334.47 83.3905L334.455 83.3797C320.47 73.6015 306.532 63.8576 288.43 56.5496C270.334 49.2444 248.056 44.366 217.408 44.366C204.083 44.366 183.87 49.2301 160.993 56.5621C138.134 63.8884 112.675 73.6588 88.8843 83.4324C65.095 93.2054 42.9807 102.979 26.8133 110.309C18.7297 113.974 12.1333 117.029 7.55794 119.166C5.27028 120.235 3.48792 121.075 2.27762 121.647C1.67247 121.934 1.21034 122.153 0.899568 122.301L0.547977 122.468L0.459279 122.511L0.437047 122.521L0.431502 122.524C0.430285 122.525 0.429689 122.525 0.213987 122.074C-0.00171462 121.623 -0.00106256 121.622 0.000211355 121.622L0.00586864 121.619L0.0283283 121.608L0.117486 121.566L0.470015 121.398C0.781419 121.25 1.2442 121.03 1.85002 120.744C3.06166 120.17 4.84545 119.33 7.13462 118.26C11.713 116.121 18.3129 113.065 26.4003 109.398C42.5749 102.065 64.7007 92.2863 88.5043 82.5074C112.307 72.729 137.793 62.9475 160.688 55.6098ZM217.41 57.8218C203.913 57.8218 183.566 62.7337 160.69 70.0656C137.795 77.4033 112.309 87.1848 88.5063 96.9632C64.7026 106.742 42.5768 116.521 26.4023 123.854C18.3148 127.521 11.7149 130.577 7.13655 132.716C4.84738 133.786 3.06359 134.626 1.85195 135.199C1.24613 135.486 0.783346 135.706 0.471941 135.854L0.119413 136.022L0.0302552 136.064L0.00779558 136.075L0.0021383 136.078C0.000864383 136.078 0.000212323 136.078 0.215914 136.53C0.431616 136.981 0.432212 136.98 0.433429 136.98L0.438973 136.977L0.461206 136.967L0.549904 136.924L0.901495 136.757C1.21227 136.609 1.6744 136.389 2.27955 136.103C3.48985 135.531 5.2722 134.691 7.55987 133.622C12.1352 131.484 18.7317 128.43 26.8152 124.765C42.9826 117.435 65.0969 107.661 88.8863 97.8882C112.677 88.1146 138.136 78.3441 160.995 71.0179C183.871 63.6859 204.085 58.8218 217.41 58.8218C248.058 58.8218 270.336 63.7001 288.432 71.0054C306.534 78.3133 320.472 88.0573 334.457 97.8354L334.472 97.8463L334.472 97.8465C348.445 107.617 362.465 117.42 380.68 124.773C398.908 132.132 421.315 137.03 452.076 137.03C495.689 137.03 562.179 129.8 628.626 122.575L628.657 122.571C695.14 115.342 761.577 108.119 805.129 108.119C842.696 108.119 858.157 115.352 864.271 122.402C867.315 125.913 868.067 129.405 868.068 132.012C868.069 133.32 867.88 134.409 867.693 135.167C867.599 135.546 867.506 135.842 867.437 136.041C867.412 136.113 867.391 136.172 867.373 136.218C867.367 136.235 867.361 136.251 867.355 136.265L867.341 136.3L867.334 136.318L867.329 136.33L867.328 136.332C867.328 136.331 867.329 136.331 867.787 136.53C868.246 136.728 868.246 136.728 868.247 136.727L868.248 136.725L868.25 136.719L868.258 136.699C868.265 136.683 868.275 136.659 868.287 136.629C868.31 136.568 868.343 136.481 868.382 136.368C868.46 136.144 868.562 135.819 868.664 135.407C868.867 134.585 869.069 133.415 869.068 132.012C869.067 129.198 868.249 125.463 865.026 121.747C858.604 114.341 842.736 107.119 805.129 107.119C761.516 107.119 695.027 114.348 628.58 121.574L628.549 121.577C562.066 128.806 495.628 136.03 452.076 136.03C421.428 136.03 399.15 131.151 381.054 123.846C362.952 116.538 349.014 106.794 335.03 97.0159L335.014 97.005L335.014 97.0048C321.041 87.2347 307.021 77.4314 288.806 70.0781C270.578 62.7194 248.171 57.8218 217.41 57.8218ZM160.689 85.6335C183.565 78.3015 203.912 73.3896 217.409 73.3896C248.17 73.3896 270.577 78.2873 288.805 85.646C307.02 92.9992 321.04 102.803 335.013 112.573L335.013 112.573L335.029 112.584C349.013 122.362 362.951 132.106 381.053 139.414C399.149 146.719 421.427 151.597 452.075 151.597C495.627 151.597 562.065 144.374 628.548 137.145L628.579 137.142C695.026 129.916 761.515 122.686 805.128 122.686C842.735 122.686 858.603 129.909 865.025 137.314C868.248 141.031 869.066 144.766 869.067 147.58C869.068 148.983 868.866 150.153 868.663 150.975C868.561 151.387 868.459 151.712 868.381 151.936C868.342 152.049 868.309 152.136 868.286 152.197C868.274 152.227 868.264 152.25 868.257 152.267L868.249 152.287L868.247 152.293L868.246 152.295C868.246 152.295 868.245 152.296 867.786 152.097C867.328 151.899 867.327 151.899 867.327 151.899L867.328 151.898L867.333 151.886C867.337 151.875 867.345 151.857 867.354 151.832C867.361 151.815 867.369 151.794 867.378 151.77C867.395 151.727 867.414 151.673 867.436 151.609C867.505 151.41 867.598 151.114 867.692 150.735C867.879 149.976 868.068 148.888 868.067 147.58C868.066 144.973 867.314 141.48 864.27 137.97C858.156 130.919 842.695 123.686 805.128 123.686C761.576 123.686 695.139 130.91 628.656 138.139L628.625 138.142C562.178 145.368 495.688 152.597 452.075 152.597C421.314 152.597 398.907 147.7 380.679 140.341C362.464 132.988 348.444 123.184 334.471 113.414L334.471 113.414L334.456 113.403C320.471 103.625 306.533 93.8812 288.431 86.5733C270.335 79.268 248.057 74.3896 217.409 74.3896C204.084 74.3896 183.87 79.2537 160.994 86.5858C138.135 93.912 112.676 103.682 88.8853 113.456C65.096 123.229 42.9816 133.002 26.8142 140.333C18.7307 143.998 12.1342 147.052 7.55889 149.19C5.27123 150.259 3.48887 151.099 2.27857 151.671C1.67342 151.957 1.21129 152.177 0.900518 152.325L0.548927 152.492L0.460229 152.534L0.437997 152.545L0.432453 152.548C0.431235 152.548 0.430639 152.549 0.214938 152.097C-0.000764239 151.646 -0.000112179 151.646 0.00116174 151.645L0.00681902 151.643L0.0292787 151.632L0.118436 151.589L0.470965 151.422C0.782369 151.273 1.24515 151.054 1.85098 150.767C3.06261 150.194 4.8464 149.354 7.13557 148.284C11.7139 146.145 18.3138 143.089 26.4013 139.422C42.5758 132.089 64.7016 122.31 88.5053 112.531C112.308 102.753 137.794 92.9712 160.689 85.6335ZM217.41 88.9569C203.913 88.9569 183.566 93.8688 160.689 101.201C137.795 108.538 112.309 118.32 88.5062 128.098C64.7026 137.877 42.5767 147.656 26.4022 154.989C18.3148 158.656 11.7148 161.712 7.13649 163.851C4.84732 164.921 3.06354 165.761 1.8519 166.334C1.24608 166.621 0.78329 166.841 0.471885 166.989L0.119357 167.157L0.0301993 167.199L0.00773965 167.21L0.00208236 167.213C0.000808444 167.213 0.000156385 167.214 0.215858 167.665C0.43156 168.116 0.432156 168.115 0.433373 168.115L0.438918 168.112L0.46115 168.102L0.549848 168.059L0.901439 167.892C1.21221 167.744 1.67434 167.525 2.27949 167.238C3.48979 166.666 5.27215 165.826 7.55981 164.757C12.1351 162.619 18.7316 159.565 26.8151 155.9C42.9825 148.57 65.0969 138.796 88.8862 129.023C112.677 119.25 138.136 109.479 160.995 102.153C183.871 94.8209 204.085 89.9569 217.41 89.9569C248.058 89.9569 270.336 94.8352 288.432 102.14C306.534 109.448 320.472 119.192 334.456 128.971L334.472 128.981C348.445 138.752 362.465 148.555 380.68 155.908C398.908 163.267 421.315 168.165 452.076 168.165C495.689 168.165 562.179 160.935 628.626 153.71L628.657 153.706C695.14 146.477 761.577 139.254 805.129 139.254C842.696 139.254 858.157 146.487 864.27 153.537C867.315 157.048 868.067 160.54 868.068 163.148C868.069 164.455 867.88 165.544 867.693 166.302C867.599 166.682 867.506 166.978 867.437 167.176C867.403 167.276 867.374 167.351 867.355 167.4C867.346 167.424 867.338 167.442 867.334 167.453L867.329 167.465L867.328 167.467C867.328 167.466 867.328 167.466 867.787 167.665C868.246 167.863 868.246 167.863 868.247 167.862L868.248 167.86L868.25 167.854L868.258 167.834C868.265 167.818 868.275 167.794 868.287 167.764L868.297 167.736L868.319 167.68C868.337 167.63 868.358 167.572 868.382 167.504C868.46 167.279 868.562 166.954 868.664 166.542C868.867 165.72 869.069 164.55 869.068 163.147C869.067 160.333 868.249 156.598 865.026 152.882C858.604 145.476 842.736 138.254 805.129 138.254C761.516 138.254 695.027 145.484 628.58 152.709L628.549 152.712C562.066 159.941 495.628 167.165 452.076 167.165C421.428 167.165 399.15 162.286 381.054 154.981C362.952 147.673 349.014 137.929 335.029 128.151L335.014 128.14L335.014 128.14C321.041 118.37 307.021 108.566 288.806 101.213C270.578 93.8545 248.171 88.9569 217.41 88.9569ZM160.688 116.768C183.564 109.436 203.911 104.524 217.408 104.524C248.169 104.524 270.576 109.422 288.804 116.781C307.019 124.134 321.039 133.937 335.012 143.707L335.012 143.708L335.028 143.719C349.012 153.497 362.95 163.241 381.052 170.549C399.148 177.854 421.426 182.732 452.074 182.732C495.626 182.732 562.064 175.509 628.547 168.28L628.578 168.276C695.025 161.051 761.514 153.821 805.127 153.821C842.734 153.821 858.602 161.044 865.024 168.449C868.247 172.166 869.065 175.901 869.066 178.715C869.067 180.118 868.865 181.288 868.662 182.11C868.56 182.521 868.458 182.846 868.38 183.071C868.341 183.183 868.308 183.271 868.285 183.331C868.273 183.362 868.263 183.385 868.257 183.402L868.248 183.422L868.246 183.428L868.245 183.43C868.245 183.43 868.244 183.431 867.785 183.232C867.327 183.034 867.326 183.034 867.326 183.034L867.327 183.032L867.332 183.021C867.337 183.01 867.344 182.992 867.353 182.967L867.37 182.925L867.388 182.876C867.402 182.839 867.418 182.794 867.435 182.744C867.504 182.545 867.597 182.249 867.691 181.87C867.879 181.111 868.067 180.023 868.066 178.715C868.065 176.108 867.313 172.615 864.269 169.104C858.155 162.054 842.694 154.821 805.127 154.821C761.575 154.821 695.138 162.045 628.655 169.274L628.624 169.277C562.177 176.502 495.687 183.732 452.074 183.732C421.313 183.732 398.906 178.835 380.678 171.476C362.463 164.123 348.443 154.319 334.47 144.549L334.47 144.549L334.455 144.538C320.47 134.76 306.532 125.016 288.43 117.708C270.334 110.403 248.056 105.524 217.408 105.524C204.083 105.524 183.869 110.388 160.993 117.721C138.134 125.047 112.675 134.817 88.8843 144.591C65.095 154.364 42.9806 164.137 26.8132 171.468C18.7297 175.133 12.1333 178.187 7.55791 180.325C5.27025 181.394 3.48789 182.233 2.27759 182.806C1.67244 183.092 1.21031 183.312 0.899541 183.459L0.547951 183.627L0.459253 183.669L0.43702 183.68L0.431476 183.682C0.430259 183.683 0.429663 183.683 0.213961 183.232C-0.0017408 182.781 -0.00108874 182.781 0.000185174 182.78L0.00584246 182.777L0.0283021 182.767L0.117459 182.724L0.469988 182.556C0.781393 182.408 1.24418 182.188 1.85 181.902C3.06164 181.329 4.84543 180.488 7.1346 179.419C11.7129 177.28 18.3129 174.224 26.4003 170.557C42.5748 163.223 64.7007 153.445 88.5043 143.666C112.307 133.887 137.793 124.106 160.688 116.768ZM217.409 120.092C203.912 120.092 183.565 125.004 160.689 132.336C137.794 139.673 112.308 149.455 88.5053 159.233C64.7016 169.012 42.5758 178.791 26.4013 186.124C18.3138 189.791 11.7139 192.847 7.13557 194.986C4.8464 196.056 3.06261 196.896 1.85098 197.469C1.24515 197.756 0.782369 197.976 0.470965 198.124L0.118436 198.292L0.0292787 198.334L0.00681902 198.345L0.00116174 198.348C-0.000112179 198.348 -0.000764239 198.349 0.214938 198.8C0.430639 199.251 0.431235 199.25 0.432453 199.25L0.437997 199.247L0.460229 199.237L0.548927 199.194L0.900518 199.027C1.21129 198.879 1.67342 198.66 2.27857 198.373C3.48887 197.801 5.27123 196.961 7.55889 195.892C12.1342 193.754 18.7307 190.7 26.8142 187.035C42.9816 179.705 65.096 169.931 88.8853 160.158C112.676 150.385 138.135 140.614 160.994 133.288C183.87 125.956 204.084 121.092 217.409 121.092C248.057 121.092 270.335 125.97 288.431 133.275C306.533 140.583 320.471 150.327 334.456 160.105L334.471 160.116L334.471 160.117C348.444 169.887 362.464 179.69 380.679 187.043C398.907 194.402 421.314 199.3 452.075 199.3C495.688 199.3 562.178 192.07 628.625 184.845L628.656 184.841C695.139 177.612 761.576 170.389 805.128 170.389C842.695 170.389 858.156 177.622 864.27 184.672C867.314 188.183 868.066 191.675 868.067 194.282C868.068 195.59 867.879 196.679 867.692 197.437C867.598 197.817 867.505 198.112 867.436 198.311C867.402 198.411 867.373 198.486 867.354 198.535L867.343 198.564L867.333 198.588L867.328 198.6L867.327 198.602C867.327 198.601 867.328 198.601 867.786 198.8C868.062 198.919 868.172 198.966 868.216 198.985C868.246 198.997 868.246 198.997 868.246 198.997L868.247 198.995L868.249 198.989L868.257 198.969C868.262 198.958 868.268 198.943 868.275 198.925L868.286 198.899C868.309 198.838 868.342 198.751 868.381 198.638C868.459 198.414 868.561 198.089 868.663 197.677C868.866 196.855 869.068 195.685 869.067 194.282C869.066 191.468 868.248 187.733 865.025 184.017C858.603 176.611 842.735 169.389 805.128 169.389C761.515 169.389 695.026 176.618 628.579 183.844L628.548 183.847C562.065 191.076 495.627 198.3 452.075 198.3C421.427 198.3 399.149 193.421 381.053 186.116C362.951 178.808 349.013 169.064 335.029 159.286L335.013 159.275L335.013 159.275C321.04 149.505 307.02 139.701 288.805 132.348C270.577 124.989 248.17 120.092 217.409 120.092ZM160.688 147.903C183.565 140.571 203.912 135.659 217.409 135.659C248.17 135.659 270.577 140.557 288.805 147.916C307.02 155.269 321.04 165.072 335.013 174.842L335.013 174.843L335.028 174.854C349.013 184.632 362.951 194.376 381.053 201.684C399.149 208.989 421.427 213.867 452.075 213.867C495.627 213.867 562.065 206.644 628.548 199.415L628.579 199.411C695.026 192.186 761.515 184.956 805.128 184.956C842.735 184.956 858.603 192.179 865.025 199.584C868.248 203.301 869.066 207.036 869.067 209.85C869.068 211.252 868.866 212.423 868.663 213.245C868.561 213.656 868.459 213.981 868.381 214.206C868.342 214.318 868.309 214.406 868.286 214.466C868.274 214.497 868.264 214.52 868.257 214.537L868.249 214.557L868.247 214.563L868.246 214.564C868.245 214.565 868.245 214.566 867.786 214.367C867.327 214.169 867.327 214.169 867.327 214.169L867.328 214.167L867.333 214.156L867.343 214.13L867.354 214.102C867.373 214.053 867.402 213.978 867.436 213.879C867.505 213.68 867.598 213.384 867.692 213.005C867.879 212.246 868.068 211.158 868.067 209.85C868.066 207.243 867.314 203.75 864.269 200.239C858.156 193.189 842.695 185.956 805.128 185.956C761.576 185.956 695.139 193.18 628.656 200.409L628.625 200.412C562.178 207.637 495.688 214.867 452.075 214.867C421.314 214.867 398.907 209.97 380.679 202.611C362.464 195.258 348.444 185.454 334.471 175.684L334.455 175.673C320.471 165.895 306.533 156.151 288.431 148.843C270.335 141.538 248.057 136.659 217.409 136.659C204.084 136.659 183.87 141.523 160.994 148.855C138.135 156.182 112.676 165.952 88.8851 175.726C65.0958 185.499 42.9815 195.272 26.8141 202.603C18.7306 206.268 12.1341 209.322 7.55875 211.46C5.27109 212.529 3.48873 213.368 2.27843 213.941C1.67328 214.227 1.21115 214.447 0.900381 214.594L0.548791 214.762L0.460093 214.804L0.43786 214.815L0.432316 214.817C0.431099 214.818 0.430503 214.818 0.214801 214.367C-0.000900778 213.916 -0.000248718 213.916 0.0010252 213.915L0.00668248 213.912L0.0291421 213.902L0.1183 213.859L0.470828 213.691C0.782233 213.543 1.24502 213.323 1.85084 213.037C3.06248 212.464 4.84627 211.623 7.13544 210.554C11.7138 208.414 18.3137 205.359 26.4011 201.692C42.5757 194.358 64.7015 184.58 88.5051 174.801C112.308 165.022 137.794 155.241 160.688 147.903ZM217.409 151.227C203.912 151.227 183.565 156.138 160.689 163.47C137.794 170.808 112.308 180.59 88.5054 190.368C64.7017 200.147 42.5759 209.925 26.4014 217.259C18.3139 220.926 11.714 223.982 7.13568 226.121C4.84651 227.19 3.06272 228.031 1.85108 228.604C1.24526 228.891 0.782473 229.11 0.471069 229.258L0.11854 229.426L0.0293824 229.469L0.00692279 229.48L0.00126551 229.482C-8.40743e-06 229.483 -0.000660467 229.483 0.215041 229.934C0.430743 230.385 0.431339 230.385 0.432556 230.385L0.438101 230.382L0.460333 230.371L0.549031 230.329L0.900622 230.162C1.21139 230.014 1.67352 229.794 2.27867 229.508C3.48897 228.936 5.27133 228.096 7.55899 227.027C12.1343 224.889 18.7308 221.835 26.8143 218.17C42.9817 210.839 65.0961 201.066 88.8854 191.293C112.676 181.519 138.135 171.749 160.994 164.423C183.871 157.091 204.084 152.227 217.409 152.227C248.057 152.227 270.335 157.105 288.431 164.41C306.533 171.718 320.471 181.462 334.456 191.24L334.471 191.251L334.472 191.251C348.444 201.021 362.464 210.825 380.679 218.178C398.907 225.537 421.314 230.434 452.075 230.434C495.688 230.434 562.178 223.205 628.625 215.979L628.656 215.976C695.139 208.747 761.576 201.523 805.129 201.523C842.695 201.523 858.156 208.756 864.27 215.806C867.314 219.317 868.066 222.81 868.067 225.417C868.068 226.725 867.88 227.813 867.692 228.572C867.598 228.951 867.505 229.247 867.436 229.446C867.402 229.545 867.374 229.62 867.354 229.669C867.345 229.694 867.338 229.712 867.333 229.723L867.328 229.734L867.327 229.736C867.327 229.736 867.328 229.736 867.787 229.934C868.245 230.133 868.246 230.132 868.246 230.132L868.247 230.13L868.249 230.124L868.258 230.104C868.264 230.087 868.274 230.064 868.286 230.033C868.309 229.973 868.342 229.886 868.381 229.773C868.459 229.549 868.561 229.223 868.663 228.812C868.866 227.99 869.068 226.82 869.067 225.417C869.066 222.603 868.248 218.868 865.025 215.151C858.603 207.746 842.735 200.523 805.129 200.523C761.515 200.523 695.026 207.753 628.579 214.978L628.548 214.982C562.065 222.211 495.628 229.434 452.075 229.434C421.427 229.434 399.149 224.556 381.053 217.251C362.951 209.943 349.013 200.199 335.029 190.421L335.013 190.41L335.013 190.41C321.04 180.64 307.02 170.836 288.805 163.483C270.577 156.124 248.17 151.227 217.409 151.227ZM160.69 179.037C183.566 171.705 203.913 166.793 217.41 166.793C248.171 166.793 270.578 171.691 288.806 179.05C307.021 186.403 321.041 196.206 335.014 205.977L335.014 205.977L335.03 205.988C349.014 215.766 362.952 225.51 381.054 232.818C399.15 240.123 421.428 245.001 452.076 245.001C495.628 245.001 562.066 237.778 628.549 230.549L628.58 230.545C695.027 223.32 761.516 216.09 805.129 216.09C842.736 216.09 858.604 223.313 865.026 230.718C868.249 234.435 869.067 238.17 869.068 240.984C869.069 242.387 868.867 243.557 868.664 244.379C868.562 244.79 868.46 245.115 868.382 245.34C868.343 245.453 868.31 245.54 868.287 245.6C868.275 245.631 868.265 245.654 868.258 245.671L868.25 245.691L868.248 245.697L868.247 245.699C868.247 245.699 868.247 245.699 868.244 245.698L868.228 245.691L868.158 245.661C868.093 245.633 867.981 245.585 867.787 245.501C867.329 245.303 867.328 245.303 867.328 245.303L867.329 245.301L867.334 245.29C867.338 245.279 867.346 245.261 867.355 245.236C867.365 245.211 867.377 245.179 867.392 245.141C867.402 245.114 867.412 245.083 867.424 245.05L867.437 245.013C867.506 244.814 867.599 244.518 867.693 244.139C867.88 243.38 868.069 242.292 868.068 240.984C868.067 238.377 867.315 234.884 864.271 231.373C858.157 224.323 842.696 217.09 805.129 217.09C761.577 217.09 695.14 224.314 628.657 231.543L628.626 231.546C562.179 238.771 495.689 246.001 452.076 246.001C421.315 246.001 398.908 241.104 380.68 233.745C362.465 226.392 348.445 216.588 334.472 206.818L334.472 206.818L334.457 206.807C320.472 197.029 306.534 187.285 288.432 179.977C270.336 172.672 248.058 167.793 217.41 167.793C204.085 167.793 183.871 172.658 160.995 179.99C138.136 187.316 112.677 197.086 88.8863 206.86C65.0969 216.633 42.9826 226.406 26.8152 233.737C18.7317 237.402 12.1352 240.456 7.55987 242.594C5.2722 243.663 3.48985 244.502 2.27955 245.075C1.6744 245.361 1.21227 245.581 0.901495 245.728L0.549904 245.896L0.461206 245.938L0.438973 245.949L0.433429 245.951C0.432212 245.952 0.431616 245.952 0.215914 245.501C0.000212323 245.05 0.000864383 245.05 0.0021383 245.049L0.00779558 245.047L0.0302552 245.036L0.119413 244.993L0.471941 244.825C0.783346 244.677 1.24613 244.458 1.85195 244.171C3.06359 243.598 4.84738 242.757 7.13655 241.688C11.7149 239.549 18.3148 236.493 26.4023 232.826C42.5768 225.492 64.7026 215.714 88.5063 205.935C112.309 196.156 137.795 186.375 160.69 179.037ZM217.41 182.361C203.913 182.361 183.566 187.273 160.69 194.605C137.795 201.942 112.309 211.724 88.5063 221.502C64.7026 231.281 42.5768 241.06 26.4023 248.393C18.3148 252.06 11.7149 255.116 7.13655 257.255C4.84738 258.325 3.06359 259.165 1.85195 259.738C1.24613 260.025 0.783346 260.245 0.471941 260.393L0.119413 260.561L0.0302552 260.603L0.00779558 260.614L0.0021383 260.617C0.000864383 260.617 0.000212323 260.618 0.215914 261.069C0.431616 261.52 0.432212 261.519 0.433429 261.519L0.438973 261.516L0.461206 261.506L0.549904 261.463L0.901495 261.296C1.21227 261.148 1.6744 260.929 2.27955 260.642C3.48985 260.07 5.2722 259.23 7.55987 258.161C12.1352 256.023 18.7317 252.969 26.8152 249.304C42.9826 241.974 65.0969 232.2 88.8863 222.427C112.677 212.654 138.136 202.883 160.995 195.557C183.871 188.225 204.085 183.361 217.41 183.361C248.058 183.361 270.336 188.239 288.432 195.544C306.534 202.852 320.472 212.596 334.457 222.374L334.472 222.385L334.472 222.386C348.445 232.156 362.465 241.959 380.68 249.312C398.908 256.671 421.315 261.569 452.076 261.569C495.689 261.569 562.179 254.339 628.626 247.114L628.657 247.11C695.14 239.881 761.577 232.658 805.129 232.658C842.696 232.658 858.157 239.891 864.271 246.941C867.315 250.452 868.067 253.944 868.068 256.552C868.069 257.859 867.88 258.948 867.693 259.706C867.599 260.086 867.506 260.382 867.437 260.58C867.403 260.68 867.374 260.755 867.355 260.804C867.346 260.828 867.338 260.846 867.334 260.857L867.329 260.869L867.328 260.871C867.328 260.87 867.329 260.87 867.787 261.069C868.111 261.209 868.207 261.25 868.235 261.261C868.247 261.266 868.247 261.266 868.247 261.266L868.248 261.264L868.25 261.258L868.258 261.238C868.265 261.222 868.275 261.198 868.287 261.168C868.31 261.107 868.343 261.02 868.382 260.908C868.46 260.683 868.562 260.358 868.664 259.946C868.867 259.124 869.069 257.954 869.068 256.551C869.067 253.737 868.249 250.002 865.026 246.286C858.604 238.88 842.736 231.658 805.129 231.658C761.516 231.658 695.027 238.887 628.58 246.113L628.549 246.116C562.066 253.345 495.628 260.569 452.076 260.569C421.428 260.569 399.15 255.69 381.054 248.385C362.952 241.077 349.014 231.333 335.03 221.555L335.014 221.544L335.014 221.544C321.041 211.774 307.021 201.97 288.806 194.617C270.578 187.258 248.171 182.361 217.41 182.361ZM217.411 197.929C203.914 197.929 183.567 202.841 160.691 210.173C137.796 217.51 112.31 227.292 88.5073 237.07C64.7036 246.849 42.5778 256.628 26.4033 263.961C18.3158 267.628 11.7159 270.684 7.13755 272.823C4.84838 273.893 3.06459 274.733 1.85295 275.306C1.24713 275.593 0.784348 275.813 0.472943 275.961L0.120414 276.129L0.031257 276.171L0.0087973 276.182L0.00314001 276.185C0.0018661 276.185 0.00121404 276.185 0.216916 276.637C0.432618 277.088 0.433213 277.087 0.434431 277.087L0.439975 277.084L0.462208 277.073L0.550906 277.031L0.902496 276.864C1.21327 276.716 1.6754 276.496 2.28055 276.21C3.49085 275.638 5.27321 274.798 7.56087 273.729C12.1362 271.591 18.7327 268.537 26.8162 264.872C42.9836 257.542 65.0979 247.768 88.8873 237.995C112.678 228.222 138.137 218.451 160.996 211.125C183.872 203.793 204.086 198.929 217.411 198.929C248.059 198.929 270.337 203.807 288.433 211.112C306.535 218.42 320.473 228.164 334.458 237.942L334.473 237.953L334.473 237.954C348.446 247.724 362.466 257.527 380.681 264.88C398.909 272.239 421.316 277.137 452.077 277.137C495.69 277.137 562.18 269.907 628.627 262.681L628.658 262.678C695.141 255.449 761.578 248.226 805.13 248.226C842.697 248.226 858.158 255.459 864.272 262.509C867.316 266.02 868.068 269.512 868.069 272.119C868.07 273.427 867.881 274.515 867.694 275.274C867.6 275.653 867.507 275.949 867.438 276.148C867.411 276.226 867.388 276.288 867.37 276.335L867.356 276.372C867.347 276.396 867.339 276.414 867.335 276.425L867.33 276.437L867.329 276.439C867.329 276.438 867.33 276.438 867.788 276.637C868.247 276.835 868.247 276.835 868.248 276.834L868.249 276.832L868.251 276.826L868.259 276.806C868.266 276.789 868.276 276.766 868.288 276.736C868.311 276.675 868.344 276.588 868.383 276.475C868.461 276.251 868.563 275.926 868.665 275.514C868.868 274.692 869.07 273.522 869.069 272.119C869.068 269.305 868.25 265.57 865.027 261.853C858.605 254.448 842.737 247.226 805.13 247.226C761.517 247.226 695.028 254.455 628.581 261.681L628.55 261.684C562.067 268.913 495.629 276.137 452.077 276.137C421.429 276.137 399.151 271.258 381.055 263.953C362.953 256.645 349.015 246.901 335.031 237.123L335.015 237.112L335.015 237.112C321.042 227.342 307.022 217.538 288.807 210.185C270.579 202.826 248.172 197.929 217.411 197.929Z" fill="url(#paint0_radial_717_7764)"/>
    <defs>
        <radialGradient id="paint0_radial_717_7764" cx="0" cy="0" r="1" gradientUnits="userSpaceOnUse" gradientTransform="translate(212.764 176.387) rotate(-75.6522) scale(172.519 653.548)">
            <stop stop-color="#1F3891"/>
            <stop offset="1" stop-color="#1F3891" stop-opacity="0"/>
        </radialGradient>
    </defs>
</svg>
