<svg width="161" height="38" viewBox="0 0 161 38" fill="none" xmlns="http://www.w3.org/2000/svg">
<path fill-rule="evenodd" clip-rule="evenodd" d="M0 4.17472C0 6.2042 1.64523 7.84943 3.67472 7.84943C5.7042 7.84943 7.34943 6.20421 7.34943 4.17472C7.34943 2.14523 5.70421 0.5 3.67472 0.5C1.64523 0.5 0 2.14523 0 4.17472ZM1.26714 4.17472C1.26714 5.50438 2.34505 6.58229 3.67472 6.58229C5.00438 6.58229 6.08229 5.50438 6.08229 4.17472C6.08229 2.84505 5.00438 1.76714 3.67472 1.76714C2.34505 1.76714 1.26714 2.84505 1.26714 4.17472Z" fill="url(#paint0_linear_2013_4826)"/>
<path d="M29.2537 29.5798L29.2537 6.45528L30.5209 6.45528V30.3558C30.1481 30.0306 29.7205 29.7667 29.2537 29.5798Z" fill="url(#paint1_linear_2013_4826)"/>
<path d="M25.9591 29.5798C25.4924 29.7667 25.0647 30.0306 24.692 30.3558V6.45528H10.5V5.18814L42.5372 5.18814V6.45528L25.9591 6.45528V29.5798Z" fill="url(#paint2_linear_2013_4826)"/>
<path d="M27.6064 29.2638C27.8215 29.2638 28.0331 29.2791 28.24 29.3087V6.45528H26.9729V29.3087C27.1798 29.2791 27.3913 29.2638 27.6064 29.2638Z" fill="url(#paint3_linear_2013_4826)"/>
<path fill-rule="evenodd" clip-rule="evenodd" d="M27.6064 30.1506C25.5769 30.1506 23.9317 31.7958 23.9317 33.8253C23.9317 35.8548 25.5769 37.5 27.6064 37.5C29.6359 37.5 31.2812 35.8548 31.2812 33.8253C31.2812 31.7958 29.6359 30.1506 27.6064 30.1506ZM27.6064 31.4177C26.2768 31.4177 25.1989 32.4956 25.1989 33.8253C25.1989 35.1549 26.2768 36.2329 27.6064 36.2329C28.9361 36.2329 30.014 35.1549 30.014 33.8253C30.014 32.4956 28.9361 31.4177 27.6064 31.4177Z" fill="url(#paint4_linear_2013_4826)"/>
<path d="M5.322 8.42016C5.78879 8.23332 6.21641 7.96942 6.58915 7.6442L6.58914 35.4513H5.322L5.322 8.42016Z" fill="url(#paint5_linear_2013_4826)"/>
<path d="M0.760287 7.64421C1.13302 7.96943 1.56064 8.23332 2.02743 8.42017L2.02743 37.3736H0.760284L0.760287 7.64421Z" fill="url(#paint6_linear_2013_4826)"/>
<path d="M4.30829 8.69126C4.10136 8.72085 3.88982 8.73617 3.67471 8.73617C3.4596 8.73617 3.24807 8.72086 3.04115 8.69126L3.04114 33.5291H4.30829L4.30829 8.69126Z" fill="url(#paint7_linear_2013_4826)"/>
<path d="M12.4222 0.626422L12.4222 1.89357L44.4594 1.89356V0.626421L12.4222 0.626422Z" fill="url(#paint8_linear_2013_4826)"/>
<path d="M14.3445 2.90728V4.17442L40.615 4.17442V2.90728L14.3445 2.90728Z" fill="url(#paint9_linear_2013_4826)"/>
<path fill-rule="evenodd" clip-rule="evenodd" d="M63.245 24.286C64.2084 24.8359 65.3878 25.1109 66.7832 25.1109C68.1785 25.1109 69.3523 24.8359 70.3047 24.286C71.2571 23.736 71.9769 22.9973 72.4641 22.0698C72.9625 21.1424 73.2116 20.1072 73.2116 18.964C73.2116 18.1229 73.0677 17.3357 72.7797 16.6023C72.4918 15.8583 72.071 15.2058 71.5173 14.6451C70.9636 14.0843 70.2881 13.6421 69.4908 13.3186C68.7045 12.9951 67.802 12.8333 66.7832 12.8333C65.7754 12.8333 64.8729 12.9951 64.0756 13.3186C63.2782 13.6421 62.6027 14.0843 62.049 14.6451C61.4953 15.2058 61.0745 15.8583 60.7866 16.6023C60.4986 17.3357 60.3547 18.1229 60.3547 18.964C60.3547 20.1072 60.5983 21.1424 61.0856 22.0698C61.5728 22.9973 62.2926 23.736 63.245 24.286ZM65.039 15.8906C65.5706 15.621 66.1519 15.4862 66.7832 15.4862C67.4144 15.4862 67.9902 15.621 68.5107 15.8906C69.0423 16.1602 69.4631 16.5538 69.7731 17.0715C70.0832 17.5891 70.2383 18.2253 70.2383 18.9802C70.2383 20.091 69.9171 20.9483 69.2748 21.5522C68.6325 22.1561 67.802 22.4581 66.7832 22.4581C65.7754 22.4581 64.9449 22.1561 64.2915 21.5522C63.6492 20.9483 63.3281 20.091 63.3281 18.9802C63.3281 18.2253 63.4831 17.5891 63.7932 17.0715C64.1032 16.5538 64.5185 16.1602 65.039 15.8906Z" fill="url(#paint10_linear_2013_4826)"/>
<path fill-rule="evenodd" clip-rule="evenodd" d="M93.3201 24.286C94.2835 24.8359 95.4629 25.1109 96.8582 25.1109C98.2536 25.1109 99.4274 24.8359 100.38 24.286C101.332 23.736 102.052 22.9973 102.539 22.0698C103.038 21.1424 103.287 20.1072 103.287 18.964C103.287 18.1229 103.143 17.3357 102.855 16.6023C102.567 15.8583 102.146 15.2058 101.592 14.6451C101.039 14.0843 100.363 13.6421 99.5658 13.3186C98.7796 12.9951 97.877 12.8333 96.8582 12.8333C95.8505 12.8333 94.948 12.9951 94.1506 13.3186C93.3533 13.6421 92.6778 14.0843 92.1241 14.6451C91.5704 15.2058 91.1496 15.8583 90.8616 16.6023C90.5737 17.3357 90.4298 18.1229 90.4298 18.964C90.4298 20.1072 90.6734 21.1424 91.1606 22.0698C91.6479 22.9973 92.3677 23.736 93.3201 24.286ZM95.1141 15.8906C95.6456 15.621 96.227 15.4862 96.8582 15.4862C97.4894 15.4862 98.0653 15.621 98.5858 15.8906C99.1173 16.1602 99.5381 16.5538 99.8482 17.0715C100.158 17.5891 100.313 18.2253 100.313 18.9802C100.313 20.091 99.9922 20.9483 99.3499 21.5522C98.7076 22.1561 97.877 22.4581 96.8582 22.4581C95.8505 22.4581 95.02 22.1561 94.3666 21.5522C93.7243 20.9483 93.4031 20.091 93.4031 18.9802C93.4031 18.2253 93.5582 17.5891 93.8682 17.0715C94.1783 16.5538 94.5936 16.1602 95.1141 15.8906Z" fill="url(#paint11_linear_2013_4826)"/>
<path fill-rule="evenodd" clip-rule="evenodd" d="M143.041 25.1109C141.646 25.1109 140.467 24.8359 139.503 24.286C138.551 23.736 137.831 22.9973 137.344 22.0698C136.857 21.1424 136.613 20.1072 136.613 18.964C136.613 18.1229 136.757 17.3357 137.045 16.6023C137.333 15.8583 137.754 15.2058 138.307 14.6451C138.861 14.0843 139.537 13.6421 140.334 13.3186C141.131 12.9951 142.034 12.8333 143.041 12.8333C144.06 12.8333 144.963 12.9951 145.749 13.3186C146.546 13.6421 147.222 14.0843 147.776 14.6451C148.329 15.2058 148.75 15.8583 149.038 16.6023C149.326 17.3357 149.47 18.1229 149.47 18.964C149.47 20.1072 149.221 21.1424 148.722 22.0698C148.235 22.9973 147.515 23.736 146.563 24.286C145.611 24.8359 144.437 25.1109 143.041 25.1109ZM143.041 15.4862C142.41 15.4862 141.829 15.621 141.297 15.8906C140.777 16.1602 140.362 16.5538 140.051 17.0715C139.741 17.5891 139.586 18.2253 139.586 18.9802C139.586 20.091 139.908 20.9483 140.55 21.5522C141.203 22.1561 142.034 22.4581 143.041 22.4581C144.06 22.4581 144.891 22.1561 145.533 21.5522C146.175 20.9483 146.497 20.091 146.497 18.9802C146.497 18.2253 146.342 17.5891 146.031 17.0715C145.721 16.5538 145.301 16.1602 144.769 15.8906C144.249 15.621 143.673 15.4862 143.041 15.4862Z" fill="url(#paint12_linear_2013_4826)"/>
<path d="M151.382 24.9007H154.123V15.3407H155.086C155.452 15.3407 155.773 15.3461 156.05 15.3569C157.312 15.3784 157.944 15.8691 157.944 16.8289C157.944 17.3249 157.8 17.7132 157.512 17.9935C157.235 18.2739 156.82 18.4249 156.266 18.4465C155.989 18.4573 155.762 18.4627 155.585 18.4627C155.408 18.4519 155.192 18.4411 154.937 18.4303L155.518 20.8891C155.64 20.8998 155.751 20.9052 155.851 20.9052H156.216C157.423 20.9052 158.37 20.7219 159.057 20.3552C159.754 19.9886 160.253 19.4979 160.551 18.8832C160.85 18.2685 161 17.5838 161 16.8289C161 16.0632 160.79 15.4 160.369 14.8392C159.959 14.2784 159.394 13.8417 158.674 13.529C157.955 13.2162 157.141 13.0545 156.233 13.0437C154.594 13.0221 152.977 13.0221 151.382 13.0437V24.9007Z" fill="url(#paint13_linear_2013_4826)"/>
<path d="M135.298 15.5347V13.0436H125.365V15.5347H128.803V24.9007H131.86V15.5347H135.298Z" fill="url(#paint14_linear_2013_4826)"/>
<path fill-rule="evenodd" clip-rule="evenodd" d="M118.128 13.0436L114.025 24.9007H116.981L117.596 23.0566H121.981L122.596 24.9007H125.553L121.45 13.0436H118.128ZM119.988 17.1038L121.317 20.9537H118.26L119.589 17.1038L119.789 16.3274L119.988 17.1038Z" fill="url(#paint15_linear_2013_4826)"/>
<path d="M105.166 24.9007H108.123V15.47H112.94V13.0436H105.166V24.9007Z" fill="url(#paint16_linear_2013_4826)"/>
<path d="M75.1739 13.0436H78.546L81.2203 20.0479L81.8183 22.1184L82.4163 20.0479L85.0907 13.0436H88.4627V24.9007H85.6056L85.589 21.1802L85.7718 18.1067L83.4462 24.9007H80.1904L77.8649 18.1067L78.0476 21.1802V24.9007H75.1905L75.1739 13.0436Z" fill="url(#paint17_linear_2013_4826)"/>
<path d="M48.3411 24.9007H51.1318V15.3892H55.6832V24.9007H58.4739V13.0436H48.3411V24.9007Z" fill="url(#paint18_linear_2013_4826)"/>
<defs>
<linearGradient id="paint0_linear_2013_4826" x1="52.0404" y1="0.5" x2="53.5879" y2="38.5933" gradientUnits="userSpaceOnUse">
<stop stop-color="#F12424"/>
<stop offset="1" stop-color="#1E4DF1"/>
</linearGradient>
<linearGradient id="paint1_linear_2013_4826" x1="52.0404" y1="0.5" x2="53.5879" y2="38.5933" gradientUnits="userSpaceOnUse">
<stop stop-color="#F12424"/>
<stop offset="1" stop-color="#1E4DF1"/>
</linearGradient>
<linearGradient id="paint2_linear_2013_4826" x1="52.0404" y1="0.5" x2="53.5879" y2="38.5933" gradientUnits="userSpaceOnUse">
<stop stop-color="#F12424"/>
<stop offset="1" stop-color="#1E4DF1"/>
</linearGradient>
<linearGradient id="paint3_linear_2013_4826" x1="52.0404" y1="0.5" x2="53.5879" y2="38.5933" gradientUnits="userSpaceOnUse">
<stop stop-color="#F12424"/>
<stop offset="1" stop-color="#1E4DF1"/>
</linearGradient>
<linearGradient id="paint4_linear_2013_4826" x1="52.0404" y1="0.5" x2="53.5879" y2="38.5933" gradientUnits="userSpaceOnUse">
<stop stop-color="#F12424"/>
<stop offset="1" stop-color="#1E4DF1"/>
</linearGradient>
<linearGradient id="paint5_linear_2013_4826" x1="52.0404" y1="0.5" x2="53.5879" y2="38.5933" gradientUnits="userSpaceOnUse">
<stop stop-color="#F12424"/>
<stop offset="1" stop-color="#1E4DF1"/>
</linearGradient>
<linearGradient id="paint6_linear_2013_4826" x1="52.0404" y1="0.5" x2="53.5879" y2="38.5933" gradientUnits="userSpaceOnUse">
<stop stop-color="#F12424"/>
<stop offset="1" stop-color="#1E4DF1"/>
</linearGradient>
<linearGradient id="paint7_linear_2013_4826" x1="52.0404" y1="0.5" x2="53.5879" y2="38.5933" gradientUnits="userSpaceOnUse">
<stop stop-color="#F12424"/>
<stop offset="1" stop-color="#1E4DF1"/>
</linearGradient>
<linearGradient id="paint8_linear_2013_4826" x1="52.0404" y1="0.5" x2="53.5879" y2="38.5933" gradientUnits="userSpaceOnUse">
<stop stop-color="#F12424"/>
<stop offset="1" stop-color="#1E4DF1"/>
</linearGradient>
<linearGradient id="paint9_linear_2013_4826" x1="52.0404" y1="0.5" x2="53.5879" y2="38.5933" gradientUnits="userSpaceOnUse">
<stop stop-color="#F12424"/>
<stop offset="1" stop-color="#1E4DF1"/>
</linearGradient>
<linearGradient id="paint10_linear_2013_4826" x1="52.0404" y1="0.5" x2="53.5879" y2="38.5933" gradientUnits="userSpaceOnUse">
<stop stop-color="#F12424"/>
<stop offset="1" stop-color="#1E4DF1"/>
</linearGradient>
<linearGradient id="paint11_linear_2013_4826" x1="52.0404" y1="0.5" x2="53.5879" y2="38.5933" gradientUnits="userSpaceOnUse">
<stop stop-color="#F12424"/>
<stop offset="1" stop-color="#1E4DF1"/>
</linearGradient>
<linearGradient id="paint12_linear_2013_4826" x1="52.0404" y1="0.5" x2="53.5879" y2="38.5933" gradientUnits="userSpaceOnUse">
<stop stop-color="#F12424"/>
<stop offset="1" stop-color="#1E4DF1"/>
</linearGradient>
<linearGradient id="paint13_linear_2013_4826" x1="52.0404" y1="0.5" x2="53.5879" y2="38.5933" gradientUnits="userSpaceOnUse">
<stop stop-color="#F12424"/>
<stop offset="1" stop-color="#1E4DF1"/>
</linearGradient>
<linearGradient id="paint14_linear_2013_4826" x1="52.0404" y1="0.5" x2="53.5879" y2="38.5933" gradientUnits="userSpaceOnUse">
<stop stop-color="#F12424"/>
<stop offset="1" stop-color="#1E4DF1"/>
</linearGradient>
<linearGradient id="paint15_linear_2013_4826" x1="52.0404" y1="0.5" x2="53.5879" y2="38.5933" gradientUnits="userSpaceOnUse">
<stop stop-color="#F12424"/>
<stop offset="1" stop-color="#1E4DF1"/>
</linearGradient>
<linearGradient id="paint16_linear_2013_4826" x1="52.0404" y1="0.5" x2="53.5879" y2="38.5933" gradientUnits="userSpaceOnUse">
<stop stop-color="#F12424"/>
<stop offset="1" stop-color="#1E4DF1"/>
</linearGradient>
<linearGradient id="paint17_linear_2013_4826" x1="52.0404" y1="0.5" x2="53.5879" y2="38.5933" gradientUnits="userSpaceOnUse">
<stop stop-color="#F12424"/>
<stop offset="1" stop-color="#1E4DF1"/>
</linearGradient>
<linearGradient id="paint18_linear_2013_4826" x1="52.0404" y1="0.5" x2="53.5879" y2="38.5933" gradientUnits="userSpaceOnUse">
<stop stop-color="#F12424"/>
<stop offset="1" stop-color="#1E4DF1"/>
</linearGradient>
</defs>
</svg>
