<svg width="1561" height="374" viewBox="0 0 1561 374" fill="none"
    xmlns="http://www.w3.org/2000/svg">
    <path fill-rule="evenodd" clip-rule="evenodd" d="M390.889 373.899C366.743 373.899 330.277 367.292 289.198 357.401C248.107 347.507 202.356 334.316 159.622 321.127C116.887 307.938 77.1633 294.749 48.1235 284.857C33.6035 279.911 21.7543 275.79 13.5348 272.904C9.42508 271.462 6.22277 270.328 4.04777 269.555C2.96027 269.169 2.1296 268.873 1.57074 268.673C1.29131 268.573 1.07983 268.497 0.93818 268.447L0.778305 268.389L0.738084 268.375L0.727979 268.371C0.725718 268.37 0.724573 268.37 0.893619 267.899C1.06266 267.429 1.06376 267.429 1.06597 267.43L1.07598 267.434L1.11601 267.448L1.27549 267.505C1.41688 267.556 1.62809 267.631 1.90725 267.731C2.46558 267.931 3.29569 268.227 4.38262 268.613C6.55648 269.386 9.75757 270.519 13.866 271.961C22.0829 274.845 33.9293 278.966 48.446 283.91C77.4796 293.8 117.194 306.986 159.917 320.172C202.641 333.358 248.369 346.542 289.432 356.429C330.509 366.319 366.873 372.899 390.889 372.899C445.98 372.899 486.049 366.311 518.607 356.437C551.168 346.561 576.235 333.395 601.34 320.207L601.353 320.2L601.354 320.2C626.453 307.015 651.592 293.81 684.248 283.905C716.914 273.998 757.082 267.399 812.257 267.399C890.541 267.399 1009.91 277.151 1129.25 286.899L1129.27 286.901C1248.63 296.652 1367.96 306.399 1446.2 306.399C1479.93 306.399 1503.79 303.963 1520.62 300.317C1537.45 296.67 1547.21 291.82 1552.75 287.021C1558.27 282.239 1559.61 277.501 1559.61 273.993C1559.61 272.228 1559.28 270.758 1558.94 269.731C1558.77 269.218 1558.6 268.817 1558.48 268.547C1558.41 268.412 1558.36 268.309 1558.33 268.242L1558.31 268.209L1558.29 268.168L1558.28 268.152L1558.28 268.149C1558.28 268.149 1558.28 268.149 1558.71 267.899C1559.14 267.65 1559.15 267.65 1559.15 267.651L1559.15 267.654L1559.15 267.661L1559.17 267.687C1559.18 267.709 1559.19 267.74 1559.22 267.78C1559.26 267.861 1559.32 267.978 1559.38 268.128C1559.52 268.429 1559.71 268.866 1559.89 269.419C1560.25 270.525 1560.61 272.102 1560.61 273.993C1560.61 277.798 1559.14 282.809 1553.4 287.777C1547.69 292.729 1537.75 297.629 1520.83 301.294C1503.91 304.961 1479.97 307.399 1446.2 307.399C1367.92 307.399 1248.55 297.648 1129.21 287.9L1129.19 287.898C1009.83 278.147 890.495 268.399 812.257 268.399C757.166 268.399 717.096 274.988 684.539 284.862C651.978 294.738 626.911 307.904 601.806 321.092L601.793 321.099L601.792 321.099C576.693 334.284 551.554 347.489 518.898 357.394C486.232 367.3 446.064 373.899 390.889 373.899ZM289.198 337.901C330.276 347.792 366.742 354.399 390.888 354.399C446.063 354.399 486.232 347.8 518.897 337.893C551.554 327.989 576.693 314.783 601.792 301.599L601.793 301.598L601.805 301.592C626.911 288.404 651.977 275.237 684.538 265.362C717.096 255.488 757.165 248.899 812.257 248.899C890.495 248.899 1009.82 258.647 1129.19 268.398L1129.21 268.399C1248.55 278.148 1367.92 287.899 1446.2 287.899C1479.97 287.899 1503.91 285.461 1520.83 281.794C1537.75 278.129 1547.69 273.229 1553.4 268.277C1559.14 263.309 1560.61 258.297 1560.61 254.493C1560.61 252.601 1560.25 251.025 1559.89 249.919C1559.71 249.365 1559.52 248.929 1559.38 248.628C1559.31 248.477 1559.26 248.361 1559.21 248.28C1559.19 248.24 1559.18 248.209 1559.16 248.187L1559.15 248.161L1559.15 248.154L1559.14 248.151C1559.14 248.15 1559.14 248.15 1558.71 248.399L1558.4 248.576C1558.28 248.649 1558.28 248.648 1558.28 248.648L1558.28 248.651L1558.29 248.668L1558.31 248.709L1558.33 248.742C1558.34 248.772 1558.36 248.81 1558.38 248.855C1558.41 248.909 1558.44 248.973 1558.48 249.046C1558.6 249.317 1558.77 249.718 1558.94 250.231C1559.28 251.258 1559.61 252.728 1559.61 254.493C1559.61 258.001 1558.27 262.739 1552.75 267.521C1547.21 272.319 1537.45 277.169 1520.62 280.817C1503.79 284.463 1479.93 286.899 1446.2 286.899C1367.96 286.899 1248.63 277.152 1129.27 267.401L1129.25 267.399C1009.91 257.65 890.541 247.899 812.257 247.899C757.082 247.899 716.913 254.498 684.248 264.405C651.591 274.309 626.452 287.515 601.353 300.7L601.352 300.7L601.34 300.707C576.234 313.895 551.168 327.061 518.607 336.936C486.049 346.811 445.98 353.399 390.888 353.399C366.872 353.399 330.508 346.819 289.432 336.929C248.369 327.042 202.641 313.857 159.917 300.671C117.193 287.486 77.4792 274.3 48.4455 264.41C33.9288 259.466 22.0825 255.345 13.8655 252.461C9.75708 251.018 6.55598 249.885 4.38213 249.113C3.2952 248.727 2.46508 248.431 1.90676 248.231C1.6276 248.131 1.41639 248.056 1.275 248.005L1.11552 247.948L1.07549 247.933L1.06548 247.93C1.06327 247.929 1.06217 247.929 0.893127 248.399C0.724082 248.87 0.725226 248.87 0.727487 248.871L0.737592 248.875L0.777813 248.889L0.937688 248.946C1.07934 248.997 1.29082 249.073 1.57025 249.173C2.12911 249.372 2.95978 249.669 4.04728 250.055C6.22228 250.828 9.42458 251.962 13.5343 253.404C21.7538 256.289 33.603 260.411 48.123 265.357C77.1628 275.249 116.887 288.438 159.622 301.627C202.356 314.816 248.106 328.007 289.198 337.901ZM390.888 334.899C366.742 334.899 330.276 328.292 289.197 318.401C248.106 308.507 202.355 295.316 159.621 282.127C116.886 268.938 77.1622 255.749 48.1225 245.857C33.6025 240.911 21.7533 236.789 13.5338 233.904C9.42406 232.462 6.22175 231.328 4.04676 230.555C2.95926 230.169 2.12859 229.872 1.56973 229.673C1.29029 229.573 1.07882 229.497 0.937164 229.446L0.777289 229.389L0.737068 229.375L0.726963 229.371C0.724702 229.37 0.723558 229.37 0.892603 228.899C1.06165 228.429 1.06274 228.429 1.06496 228.43L1.07497 228.434L1.11499 228.448L1.27448 228.505C1.41587 228.556 1.62708 228.631 1.90624 228.731C2.46456 228.931 3.29468 229.227 4.3816 229.613C6.55546 230.385 9.75655 231.519 13.865 232.961C22.0819 235.845 33.9282 239.966 48.445 244.91C77.4786 254.8 117.193 267.986 159.916 281.172C202.64 294.357 248.368 307.542 289.431 317.429C330.508 327.319 366.872 333.899 390.888 333.899C445.979 333.899 486.048 327.311 518.606 317.436C551.167 307.561 576.234 294.395 601.339 281.207L601.352 281.2L601.353 281.2C626.452 268.015 651.591 254.809 684.247 244.905C716.913 234.998 757.081 228.399 812.256 228.399C890.54 228.399 1009.91 238.15 1129.25 247.899L1129.27 247.901C1248.63 257.652 1367.96 267.399 1446.2 267.399C1479.93 267.399 1503.79 264.963 1520.62 261.317C1537.45 257.67 1547.21 252.819 1552.75 248.021C1558.27 243.239 1559.61 238.501 1559.61 234.993C1559.61 233.228 1559.28 231.758 1558.94 230.731C1558.77 230.218 1558.6 229.817 1558.48 229.547L1558.45 229.493C1558.43 229.444 1558.41 229.401 1558.39 229.362C1558.36 229.314 1558.34 229.274 1558.33 229.242L1558.31 229.209L1558.29 229.168L1558.28 229.152L1558.28 229.148C1558.28 229.148 1558.28 229.149 1558.71 228.899L1559.05 228.705C1559.14 228.65 1559.14 228.651 1559.14 228.651L1559.15 228.654L1559.15 228.661L1559.16 228.687C1559.18 228.709 1559.19 228.74 1559.21 228.78C1559.24 228.835 1559.28 228.907 1559.32 228.995L1559.35 229.065L1559.38 229.128C1559.52 229.429 1559.71 229.866 1559.89 230.419C1560.25 231.525 1560.61 233.101 1560.61 234.993C1560.61 238.798 1559.14 243.809 1553.4 248.777C1547.68 253.729 1537.75 258.629 1520.83 262.294C1503.91 265.961 1479.97 268.399 1446.2 268.399C1367.92 268.399 1248.55 258.648 1129.21 248.9L1129.19 248.898C1009.82 239.147 890.494 229.399 812.256 229.399C757.165 229.399 717.095 235.988 684.538 245.862C651.977 255.737 626.91 268.904 601.805 282.092L601.792 282.098L601.791 282.099C576.692 295.283 551.553 308.489 518.897 318.393C486.231 328.3 446.063 334.899 390.888 334.899ZM289.198 298.901C330.276 308.792 366.742 315.399 390.888 315.399C446.063 315.399 486.232 308.8 518.897 298.893C551.553 288.989 576.693 275.783 601.792 262.599L601.793 262.598L601.805 262.592C626.911 249.404 651.977 236.237 684.538 226.362C717.096 216.488 757.165 209.899 812.256 209.899C890.495 209.899 1009.82 219.647 1129.19 229.398L1129.21 229.399C1248.55 239.148 1367.92 248.899 1446.2 248.899C1479.97 248.899 1503.91 246.461 1520.83 242.794C1537.75 239.129 1547.69 234.229 1553.4 229.277C1559.14 224.309 1560.61 219.297 1560.61 215.493C1560.61 213.601 1560.25 212.025 1559.89 210.919C1559.71 210.365 1559.52 209.929 1559.38 209.628C1559.31 209.477 1559.26 209.361 1559.21 209.28L1559.18 209.221L1559.16 209.187L1559.15 209.161L1559.15 209.154L1559.14 209.151C1559.14 209.15 1559.14 209.15 1558.71 209.399C1558.28 209.649 1558.28 209.648 1558.28 209.648L1558.28 209.651L1558.29 209.668L1558.31 209.709L1558.33 209.742C1558.36 209.809 1558.41 209.911 1558.48 210.046C1558.6 210.317 1558.77 210.718 1558.94 211.231C1559.28 212.258 1559.61 213.728 1559.61 215.493C1559.61 219.001 1558.27 223.739 1552.75 228.521C1547.21 233.319 1537.45 238.169 1520.62 241.817C1503.79 245.463 1479.93 247.899 1446.2 247.899C1367.96 247.899 1248.63 238.152 1129.27 228.401L1129.25 228.399C1009.91 218.65 890.541 208.899 812.256 208.899C757.082 208.899 716.913 215.498 684.248 225.405C651.591 235.309 626.452 248.515 601.353 261.7L601.352 261.7L601.34 261.707C576.234 274.895 551.168 288.061 518.607 297.936C486.049 307.811 445.98 314.399 390.888 314.399C366.872 314.399 330.508 307.819 289.432 297.929C248.369 288.042 202.641 274.857 159.916 261.671C117.193 248.486 77.4791 235.3 48.4454 225.41C33.9287 220.466 22.0824 216.345 13.8655 213.461C9.75703 212.018 6.55594 210.885 4.38208 210.113C3.29515 209.727 2.46504 209.431 1.90672 209.231C1.62755 209.131 1.41634 209.056 1.27495 209.005L1.11547 208.948L1.07544 208.933L1.06543 208.93C1.06322 208.929 1.06212 208.929 0.893079 209.399C0.724034 209.87 0.725178 209.87 0.727439 209.871L0.737544 209.875L0.777766 209.889L0.937641 209.946C1.07929 209.997 1.29077 210.073 1.5702 210.173C2.12906 210.372 2.95973 210.669 4.04723 211.055C6.22223 211.828 9.42454 212.962 13.5343 214.404C21.7537 217.289 33.603 221.411 48.123 226.357C77.1627 236.249 116.887 249.438 159.622 262.627C202.356 275.816 248.106 289.007 289.198 298.901ZM390.887 295.899C366.741 295.899 330.275 289.291 289.196 279.4C248.105 269.506 202.354 256.316 159.62 243.127C116.885 229.937 77.1613 216.748 48.1215 206.856C33.6016 201.911 21.7523 197.789 13.5328 194.904C9.42309 193.461 6.22079 192.328 4.04579 191.555C2.95829 191.168 2.12762 190.872 1.56876 190.672C1.28933 190.572 1.07785 190.497 0.936196 190.446L0.776321 190.389L0.7361 190.374L0.725995 190.371C0.723734 190.37 0.72259 190.369 0.891635 189.899C1.06068 189.428 1.06178 189.429 1.06399 189.429L1.074 189.433L1.11403 189.447L1.27351 189.505C1.4149 189.555 1.62611 189.631 1.90527 189.731C2.46359 189.93 3.29371 190.226 4.38064 190.612C6.55449 191.385 9.75558 192.518 13.864 193.96C22.081 196.845 33.9273 200.965 48.444 205.91C77.4777 215.799 117.192 228.985 159.915 242.171C202.639 255.357 248.367 268.541 289.43 278.428C330.507 288.319 366.871 294.899 390.887 294.899C445.978 294.899 486.047 288.31 518.605 278.436C551.166 268.561 576.233 255.394 601.339 242.206L601.351 242.2L601.352 242.199C626.451 229.015 651.59 215.809 684.246 205.905C716.912 195.998 757.08 189.399 812.255 189.399C890.539 189.399 1009.91 199.15 1129.25 208.899L1129.27 208.9C1248.63 218.651 1367.96 228.399 1446.2 228.399C1479.92 228.399 1503.79 225.962 1520.62 222.316C1537.45 218.669 1547.21 213.819 1552.75 209.021C1558.27 204.239 1559.61 199.501 1559.61 195.992C1559.61 194.228 1559.27 192.758 1558.94 191.731C1558.77 191.218 1558.6 190.816 1558.47 190.546C1558.44 190.48 1558.42 190.422 1558.39 190.372C1558.37 190.319 1558.34 190.276 1558.33 190.241L1558.31 190.209L1558.29 190.168L1558.28 190.151L1558.28 190.148C1558.28 190.148 1558.28 190.148 1558.71 189.899C1559.14 189.649 1559.14 189.65 1559.14 189.651L1559.14 189.653L1559.15 189.661L1559.16 189.686C1559.18 189.708 1559.19 189.74 1559.21 189.78C1559.26 189.86 1559.31 189.977 1559.38 190.127C1559.52 190.428 1559.7 190.865 1559.89 191.418C1560.25 192.524 1560.61 194.101 1560.61 195.993C1560.61 199.797 1559.13 204.809 1553.4 209.777C1547.68 214.729 1537.75 219.629 1520.83 223.294C1503.91 226.96 1479.97 229.399 1446.2 229.399C1367.92 229.399 1248.55 219.648 1129.21 209.899L1129.19 209.897C1009.82 200.146 890.493 190.399 812.255 190.399C757.164 190.399 717.095 196.987 684.537 206.862C651.976 216.737 626.909 229.903 601.804 243.091L601.791 243.098L601.79 243.098C576.691 256.283 551.552 269.489 518.896 279.393C486.23 289.3 446.062 295.899 390.887 295.899ZM289.196 258.401C330.274 268.292 366.74 274.899 390.886 274.899C446.061 274.899 486.23 268.3 518.895 258.393C551.551 248.489 576.691 235.283 601.789 222.099L601.791 222.098L601.803 222.092C626.909 208.903 651.975 195.737 684.536 185.862C717.094 175.987 757.163 169.399 812.254 169.399C890.493 169.399 1009.82 179.147 1129.19 188.897L1129.21 188.899C1248.55 198.648 1367.92 208.399 1446.2 208.399C1479.97 208.399 1503.91 205.96 1520.83 202.294C1537.75 198.629 1547.68 193.729 1553.4 188.777C1559.13 183.809 1560.61 178.797 1560.61 174.993C1560.61 173.101 1560.25 171.524 1559.89 170.419C1559.7 169.865 1559.52 169.429 1559.38 169.128C1559.35 169.056 1559.32 168.993 1559.29 168.937C1559.28 168.905 1559.26 168.875 1559.25 168.848L1559.21 168.78C1559.19 168.74 1559.17 168.709 1559.16 168.687L1559.15 168.661L1559.14 168.653L1559.14 168.651C1559.14 168.65 1559.14 168.649 1558.71 168.899L1558.32 169.121L1558.28 169.148L1558.28 169.151L1558.29 169.168L1558.31 169.209L1558.33 169.242C1558.36 169.309 1558.41 169.411 1558.47 169.546C1558.6 169.817 1558.77 170.218 1558.94 170.731C1559.27 171.758 1559.61 173.228 1559.61 174.992C1559.61 178.501 1558.26 183.239 1552.74 188.021C1547.21 192.819 1537.45 197.669 1520.62 201.317C1503.79 204.963 1479.92 207.399 1446.2 207.399C1367.96 207.399 1248.63 197.651 1129.27 187.901L1129.24 187.899C1009.91 178.15 890.539 168.399 812.254 168.399C757.08 168.399 716.911 174.998 684.246 184.905C651.589 194.809 626.45 208.015 601.351 221.199L601.35 221.2L601.338 221.206C576.232 234.395 551.166 247.561 518.605 257.436C486.047 267.31 445.978 273.899 390.886 273.899C366.87 273.899 330.506 267.319 289.43 257.428C248.367 247.541 202.639 234.357 159.914 221.171C117.191 207.986 77.477 194.8 48.4433 184.91C33.9266 179.965 22.0803 175.845 13.8634 172.96C9.75492 171.518 6.55383 170.385 4.37998 169.613C3.29305 169.226 2.46293 168.93 1.90461 168.731C1.62545 168.631 1.41424 168.555 1.27285 168.505L1.11337 168.448L1.07334 168.433L1.06333 168.43C1.06112 168.429 1.06002 168.428 0.890974 168.899C0.721929 169.37 0.723073 169.37 0.725334 169.371L0.735439 169.374L0.775661 169.389L0.935536 169.446C1.07719 169.497 1.28867 169.573 1.5681 169.672C2.12696 169.872 2.95763 170.168 4.04513 170.555C6.22012 171.328 9.42243 172.461 13.5322 173.904C21.7516 176.789 33.6009 180.911 48.1209 185.857C77.1606 195.748 116.884 208.937 159.619 222.127C202.354 235.316 248.104 248.507 289.196 258.401ZM390.889 253.899C366.743 253.899 330.276 247.292 289.198 237.401C248.106 227.507 202.356 214.316 159.622 201.127C116.887 187.938 77.1629 174.749 48.1232 164.857C33.6032 159.911 21.7539 155.789 13.5345 152.904C9.42472 151.462 6.22242 150.328 4.04742 149.555C2.95992 149.169 2.12925 148.872 1.57039 148.673C1.29096 148.573 1.07948 148.497 0.937827 148.446L0.777952 148.389L0.737731 148.375L0.727626 148.371C0.725365 148.37 0.724221 148.37 0.893266 147.899C1.06231 147.429 1.06341 147.429 1.06562 147.43L1.07563 147.433L1.11566 147.448L1.27514 147.505C1.41653 147.556 1.62774 147.631 1.9069 147.731C2.46522 147.931 3.29534 148.227 4.38227 148.613C6.55612 149.385 9.75721 150.518 13.8657 151.961C22.0826 154.845 33.9289 158.966 48.4456 163.91C77.4793 173.8 117.193 186.986 159.917 200.171C202.641 213.357 248.369 226.542 289.432 236.429C330.508 246.319 366.872 252.899 390.889 252.899C445.98 252.899 486.049 246.311 518.607 236.436C551.168 226.561 576.234 213.395 601.34 200.207L601.352 200.2L601.353 200.2C626.452 187.015 651.592 173.809 684.248 163.905C716.913 153.998 757.082 147.399 812.257 147.399C890.541 147.399 1009.91 157.15 1129.25 166.899L1129.27 166.901C1248.63 176.652 1367.96 186.399 1446.2 186.399C1479.93 186.399 1503.79 183.963 1520.62 180.317C1537.45 176.669 1547.21 171.819 1552.75 167.021C1558.27 162.239 1559.61 157.501 1559.61 153.993C1559.61 152.228 1559.28 150.758 1558.94 149.731C1558.77 149.218 1558.6 148.817 1558.48 148.546C1558.41 148.411 1558.36 148.309 1558.33 148.242L1558.31 148.209L1558.29 148.168L1558.28 148.151L1558.28 148.148C1558.28 148.148 1558.28 148.149 1558.71 147.899C1559.14 147.65 1559.14 147.65 1559.15 147.651L1559.15 147.654L1559.15 147.661L1559.17 147.687C1559.18 147.709 1559.19 147.74 1559.21 147.78C1559.26 147.861 1559.32 147.977 1559.38 148.128C1559.52 148.429 1559.71 148.865 1559.89 149.419C1560.25 150.525 1560.61 152.101 1560.61 153.993C1560.61 157.797 1559.14 162.809 1553.4 167.777C1547.69 172.729 1537.75 177.629 1520.83 181.294C1503.91 184.961 1479.97 187.399 1446.2 187.399C1367.92 187.399 1248.55 177.648 1129.21 167.899L1129.19 167.898C1009.82 158.147 890.495 148.399 812.257 148.399C757.165 148.399 717.096 154.988 684.538 164.862C651.977 174.737 626.911 187.904 601.805 201.092L601.793 201.098L601.792 201.099C576.693 214.283 551.554 227.489 518.897 237.393C486.232 247.3 446.063 253.899 390.889 253.899ZM289.197 216.401C330.276 226.292 366.742 232.899 390.888 232.899C446.063 232.899 486.231 226.3 518.897 216.393C551.553 206.489 576.692 193.283 601.791 180.099L601.792 180.098L601.805 180.092C626.91 166.903 651.977 153.737 684.538 143.862C717.096 133.987 757.165 127.399 812.256 127.399C890.494 127.399 1009.82 137.147 1129.19 146.897L1129.21 146.899C1248.55 156.648 1367.92 166.399 1446.2 166.399C1479.97 166.399 1503.91 163.96 1520.83 160.294C1537.75 156.629 1547.69 151.729 1553.4 146.777C1559.14 141.809 1560.61 136.797 1560.61 132.993C1560.61 131.101 1560.25 129.524 1559.89 128.418C1559.71 127.865 1559.52 127.429 1559.38 127.128C1559.31 126.977 1559.26 126.86 1559.21 126.78C1559.19 126.74 1559.18 126.709 1559.16 126.687L1559.15 126.661L1559.15 126.653L1559.14 126.651C1559.14 126.65 1559.14 126.649 1558.71 126.899C1558.28 127.149 1558.28 127.148 1558.28 127.148L1558.28 127.151L1558.29 127.168L1558.31 127.209L1558.33 127.242C1558.36 127.309 1558.41 127.411 1558.48 127.546C1558.6 127.817 1558.77 128.218 1558.94 128.731C1559.28 129.758 1559.61 131.228 1559.61 132.992C1559.61 136.501 1558.27 141.239 1552.75 146.021C1547.21 150.819 1537.45 155.669 1520.62 159.317C1503.79 162.963 1479.93 165.399 1446.2 165.399C1367.96 165.399 1248.63 155.651 1129.27 145.901L1129.25 145.899L1129.25 145.899C1009.91 136.15 890.54 126.399 812.256 126.399C757.081 126.399 716.913 132.998 684.247 142.905C651.591 152.809 626.452 166.015 601.353 179.199L601.352 179.2L601.339 179.206C576.234 192.394 551.167 205.561 518.606 215.436C486.049 225.31 445.979 231.899 390.888 231.899C366.872 231.899 330.508 225.319 289.431 215.428C248.368 205.541 202.64 192.357 159.916 179.171C117.193 165.986 77.4787 152.8 48.445 142.91C33.9283 137.965 22.082 133.845 13.8651 130.96C9.75662 129.518 6.55553 128.385 4.38167 127.613C3.29474 127.226 2.46463 126.93 1.90631 126.731C1.62714 126.631 1.41593 126.555 1.27454 126.505L1.11506 126.448L1.07503 126.433L1.06502 126.43C1.06281 126.429 1.06171 126.428 0.892669 126.899C0.723624 127.37 0.724768 127.37 0.727029 127.371L0.737134 127.374L0.777355 127.389L0.93723 127.446C1.07888 127.497 1.29036 127.573 1.56979 127.672C2.12865 127.872 2.95932 128.168 4.04682 128.555C6.22182 129.328 9.42413 130.461 13.5339 131.904C21.7533 134.789 33.6026 138.911 48.1226 143.857C77.1623 153.748 116.886 166.937 159.621 180.127C202.355 193.316 248.106 206.507 289.197 216.401ZM390.888 211.899C366.742 211.899 330.276 205.292 289.198 195.401C248.106 185.507 202.356 172.316 159.621 159.127C116.886 145.938 77.1626 132.749 48.1229 122.857C33.6029 117.911 21.7536 113.789 13.5342 110.904C9.42443 109.462 6.22213 108.328 4.04713 107.555C2.95963 107.169 2.12896 106.872 1.5701 106.673C1.29067 106.573 1.07919 106.497 0.937538 106.446L0.777663 106.389L0.737441 106.375L0.727336 106.371C0.725075 106.37 0.723931 106.37 0.892977 105.899C1.06202 105.429 1.06312 105.429 1.06533 105.43L1.07534 105.434L1.11537 105.448L1.27485 105.505C1.41624 105.556 1.62745 105.631 1.90661 105.731C2.46493 105.931 3.29505 106.227 4.38198 106.613C6.55583 107.385 9.75693 108.519 13.8654 109.961C22.0823 112.845 33.9286 116.966 48.4453 121.91C77.479 131.8 117.193 144.986 159.916 158.172C202.641 171.357 248.369 184.542 289.432 194.429C330.508 204.319 366.872 210.899 390.888 210.899C445.98 210.899 486.049 204.311 518.607 194.436C551.168 184.561 576.234 171.395 601.34 158.207L601.352 158.2L601.353 158.2C626.452 145.015 651.591 131.809 684.248 121.905C716.913 111.998 757.082 105.399 812.256 105.399C890.541 105.399 1009.91 115.15 1129.25 124.899L1129.27 124.901C1248.63 134.652 1367.96 144.399 1446.2 144.399C1479.93 144.399 1503.79 141.963 1520.62 138.317C1537.45 134.67 1547.21 129.819 1552.75 125.021C1558.27 120.239 1559.61 115.501 1559.61 111.993C1559.61 110.228 1559.28 108.758 1558.94 107.731C1558.77 107.218 1558.6 106.817 1558.48 106.547C1558.41 106.411 1558.36 106.309 1558.33 106.242L1558.31 106.209L1558.29 106.168L1558.28 106.152L1558.28 106.148C1558.28 106.148 1558.28 106.149 1558.71 105.899C1559.14 105.65 1559.14 105.65 1559.14 105.651L1559.15 105.654L1559.15 105.661L1559.16 105.687C1559.18 105.709 1559.19 105.74 1559.21 105.78L1559.24 105.832L1559.27 105.895C1559.31 105.96 1559.34 106.038 1559.38 106.128C1559.52 106.429 1559.71 106.866 1559.89 107.419C1560.25 108.525 1560.61 110.102 1560.61 111.993C1560.61 115.798 1559.14 120.809 1553.4 125.777C1547.69 130.729 1537.75 135.629 1520.83 139.294C1503.91 142.961 1479.97 145.399 1446.2 145.399C1367.92 145.399 1248.55 135.648 1129.21 125.9L1129.19 125.898C1009.82 116.147 890.495 106.399 812.256 106.399C757.165 106.399 717.096 112.988 684.538 122.862C651.977 132.737 626.911 145.904 601.805 159.092L601.793 159.098L601.792 159.099C576.693 172.283 551.553 185.489 518.897 195.393C486.232 205.3 446.063 211.899 390.888 211.899ZM289.196 174.401C330.274 184.292 366.741 190.899 390.887 190.899C446.062 190.899 486.23 184.3 518.895 174.393C551.552 164.489 576.691 151.283 601.79 138.099L601.791 138.098L601.803 138.092C626.909 124.903 651.975 111.737 684.536 101.862C717.094 91.9875 757.163 85.399 812.255 85.399C890.493 85.399 1009.82 95.1465 1129.19 104.897L1129.21 104.899C1248.55 114.648 1367.92 124.399 1446.2 124.399C1479.97 124.399 1503.91 121.96 1520.83 118.294C1537.75 114.629 1547.68 109.729 1553.4 104.777C1559.13 99.809 1560.61 94.7972 1560.61 90.993C1560.61 89.1012 1560.25 87.5244 1559.89 86.4185C1559.7 85.8653 1559.52 85.4286 1559.38 85.1277C1559.31 84.9772 1559.25 84.8605 1559.21 84.7801C1559.19 84.7398 1559.18 84.7086 1559.16 84.6867L1559.15 84.6609L1559.14 84.6534L1559.14 84.6509C1559.14 84.6501 1559.14 84.6494 1558.71 84.899C1558.28 85.1486 1558.28 85.1482 1558.28 85.1482L1558.28 85.1512L1558.29 85.1678L1558.31 85.2089L1558.33 85.2417C1558.36 85.3088 1558.41 85.4111 1558.47 85.5462C1558.6 85.8167 1558.77 86.2179 1558.94 86.731C1559.27 87.758 1559.61 89.228 1559.61 90.9924C1559.61 94.5007 1558.27 99.239 1552.75 104.021C1547.21 108.819 1537.45 113.669 1520.62 117.317C1503.79 120.963 1479.92 123.399 1446.2 123.399C1367.96 123.399 1248.63 113.651 1129.27 103.901L1129.25 103.899C1009.91 94.1502 890.539 84.399 812.255 84.399C757.08 84.399 716.911 90.998 684.246 100.905C651.59 110.809 626.451 124.015 601.352 137.199L601.351 137.199L601.351 137.2L601.338 137.206C576.233 150.395 551.166 163.561 518.605 173.436C486.047 183.31 445.978 189.899 390.887 189.899C366.871 189.899 330.506 183.319 289.43 173.428C248.367 163.541 202.639 150.357 159.915 137.171C117.192 123.986 77.4774 110.8 48.4437 100.91C33.927 95.9653 22.0807 91.8447 13.8638 88.9604C9.75534 87.5182 6.55425 86.3852 4.3804 85.6127C3.29347 85.2264 2.46335 84.9303 1.90503 84.7308C1.62587 84.631 1.41466 84.5554 1.27327 84.5048L1.11379 84.4476L1.07376 84.4332L1.06375 84.4296C1.06154 84.4288 1.06044 84.4284 0.891396 84.899C0.72235 85.3695 0.723494 85.37 0.725755 85.3708L0.73586 85.3744L0.776082 85.3888L0.935957 85.4462L0.975027 85.4601L1.56852 85.6725C2.12738 85.8722 2.95805 86.1685 4.04555 86.5549C6.22055 87.3279 9.42285 88.4614 13.5326 89.904C21.7521 92.7892 33.6013 96.9108 48.1213 101.857C77.161 111.748 116.885 124.937 159.62 138.127C202.354 151.316 248.104 164.507 289.196 174.401ZM390.887 169.899C366.741 169.899 330.275 163.292 289.196 153.401C248.105 143.507 202.354 130.316 159.62 117.127C116.885 103.938 77.1614 90.7484 48.1216 80.8568C33.6017 75.9109 21.7524 71.7893 13.5329 68.9041C9.42319 67.4615 6.22088 66.3279 4.04589 65.5551C2.95839 65.1686 2.12772 64.8723 1.56886 64.6726C1.28943 64.5727 1.07795 64.497 0.936296 64.4463L0.776421 64.3889L0.736199 64.3745L0.726094 64.3709C0.723834 64.3701 0.722689 64.3697 0.891735 63.8991C1.06078 63.4285 1.06188 63.4289 1.06409 63.4297L1.0741 63.4333L1.11413 63.4477L1.27361 63.5049C1.415 63.5555 1.62621 63.6311 1.90537 63.7309C2.46369 63.9304 3.29381 64.2265 4.38074 64.6128C6.55459 65.3853 9.75568 66.5184 13.8641 67.9605C22.0811 70.8448 33.9274 74.9654 48.4441 79.9102C77.4778 89.7998 117.192 102.986 159.915 116.171C202.639 129.357 248.367 142.541 289.43 152.429C330.507 162.319 366.871 168.899 390.887 168.899C445.979 168.899 486.048 162.311 518.605 152.436C551.166 142.561 576.233 129.395 601.339 116.206L601.351 116.2L601.352 116.199C626.451 103.015 651.59 89.8092 684.246 79.905C716.912 69.9981 757.08 63.3991 812.255 63.3991C890.539 63.3991 1009.91 73.1503 1129.25 82.8989L1129.27 82.9008C1248.63 92.6515 1367.96 102.399 1446.2 102.399C1479.92 102.399 1503.79 99.9628 1520.62 96.3167C1537.45 92.6694 1547.21 87.8192 1552.75 83.0212C1558.27 78.2391 1559.61 73.5009 1559.61 69.9925C1559.61 68.2281 1559.27 66.7581 1558.94 65.7311C1558.77 65.218 1558.6 64.8168 1558.47 64.5464C1558.41 64.4112 1558.36 64.3089 1558.33 64.2418L1558.31 64.209L1558.29 64.1679L1558.28 64.1514L1558.28 64.1483C1558.28 64.1483 1558.28 64.1484 1558.36 64.1022L1558.71 63.8991C1559.14 63.6495 1559.14 63.6502 1559.14 63.651L1559.15 63.6535L1559.15 63.661L1559.16 63.6868L1559.19 63.7372L1559.21 63.7802C1559.26 63.8607 1559.31 63.9773 1559.38 64.1278C1559.52 64.4287 1559.7 64.8654 1559.89 65.4186C1560.25 66.5245 1560.61 68.1013 1560.61 69.9932C1560.61 73.7973 1559.13 78.8091 1553.4 83.777C1547.68 88.7289 1537.75 93.6288 1520.83 97.294C1503.91 100.96 1479.97 103.399 1446.2 103.399C1367.92 103.399 1248.55 93.6479 1129.21 83.8994L1129.19 83.8974C1009.82 74.1467 890.493 64.3991 812.255 64.3991C757.164 64.3991 717.095 70.9876 684.537 80.8619C651.976 90.7372 626.909 103.904 601.804 117.092L601.791 117.098L601.79 117.099L601.79 117.099L601.789 117.1C576.691 130.284 551.552 143.489 518.896 153.393C486.23 163.3 446.062 169.899 390.887 169.899ZM289.197 132.401C330.275 142.292 366.741 148.899 390.887 148.899C446.062 148.899 486.231 142.3 518.896 132.393C551.552 122.489 576.692 109.283 601.791 96.0988L601.792 96.0982L601.804 96.0917C626.91 82.9035 651.976 69.7372 684.537 59.8619C717.095 49.9876 757.164 43.399 812.255 43.399C890.494 43.399 1009.82 53.1466 1129.19 62.8974L1129.21 62.8993C1248.55 72.6479 1367.92 82.399 1446.2 82.399C1479.97 82.399 1503.91 79.9604 1520.83 76.294C1537.75 72.6288 1547.68 67.7289 1553.4 62.777C1559.14 57.8091 1560.61 52.7973 1560.61 48.9931C1560.61 47.1013 1560.25 45.5244 1559.89 44.4186C1559.7 43.8653 1559.52 43.4286 1559.38 43.1278C1559.35 43.0586 1559.32 42.9966 1559.3 42.942L1559.26 42.8716L1559.23 42.8034L1559.21 42.7801L1559.19 42.7398L1559.16 42.6868L1559.15 42.661L1559.15 42.6534L1559.14 42.651C1559.14 42.6501 1559.14 42.6494 1558.71 42.899C1558.28 43.1487 1558.28 43.1483 1558.28 43.1483L1558.28 43.1513L1558.29 43.1678L1558.31 43.209L1558.33 43.2418C1558.36 43.3088 1558.41 43.4112 1558.48 43.5463C1558.6 43.8167 1558.77 44.218 1558.94 44.7311C1559.27 45.7581 1559.61 47.2281 1559.61 48.9925C1559.61 52.5008 1558.27 57.2391 1552.75 62.0211C1547.21 66.8192 1537.45 71.6693 1520.62 75.3167C1503.79 78.9628 1479.93 81.399 1446.2 81.399C1367.96 81.399 1248.63 71.6515 1129.27 61.9007L1129.25 61.8989L1129.24 61.8987C1009.91 52.1501 890.539 42.399 812.255 42.399C757.081 42.399 716.912 48.998 684.247 58.905C651.59 68.8092 626.451 82.0148 601.352 95.1993L601.351 95.1999L601.339 95.2064C576.233 108.395 551.167 121.561 518.606 131.436C486.048 141.311 445.979 147.899 390.887 147.899C366.871 147.899 330.507 141.319 289.431 131.429C248.368 121.541 202.64 108.357 159.915 95.1713C117.192 81.9856 77.4781 68.7997 48.4444 58.9102C33.9277 53.9654 22.0814 49.8448 13.8645 46.9605C9.75604 45.5183 6.55495 44.3853 4.38109 43.6127C3.29416 43.2265 2.46405 42.9304 1.90573 42.7309C1.62657 42.6311 1.41535 42.5555 1.27396 42.5048L1.11448 42.4477L1.07445 42.4333L1.06444 42.4297C1.06223 42.4289 1.06114 42.4285 0.89209 42.899C0.723045 43.3696 0.724189 43.37 0.72645 43.3708L0.736555 43.3745L0.776776 43.3889L0.936651 43.4462C1.0783 43.497 1.28978 43.5727 1.56921 43.6725C2.12807 43.8723 2.95875 44.1685 4.04624 44.555C6.22124 45.3279 9.42355 46.4614 13.5333 47.9041C21.7527 50.7892 33.602 54.9109 48.122 59.8568C77.1617 69.7484 116.886 82.9375 159.621 96.1268C202.355 109.316 248.105 122.507 289.197 132.401ZM390.887 127.899C366.741 127.899 330.274 121.292 289.196 111.401C248.104 101.507 202.354 88.3158 159.62 75.1268C116.885 61.9375 77.1611 48.7484 48.1214 38.8567C33.6014 33.9108 21.7521 29.7892 13.5327 26.904C9.42292 25.4614 6.22061 24.3279 4.04562 23.555C2.95812 23.1685 2.12744 22.8722 1.56858 22.6725C1.28915 22.5727 1.07767 22.4969 0.936023 22.4462L0.776148 22.3889L0.735926 22.3745L0.725821 22.3708C0.72356 22.37 0.722416 22.3696 0.891461 21.899C1.06051 21.4285 1.0616 21.4289 1.06382 21.4297L1.07382 21.4333L1.11385 21.4476L1.27334 21.5048C1.41473 21.5555 1.62594 21.6311 1.9051 21.7308C2.46342 21.9304 3.29353 22.2265 4.38046 22.6127C6.55432 23.3852 9.75541 24.5183 13.8639 25.9604C22.0808 28.8448 33.9271 32.9654 48.4438 37.9101C77.4775 47.7997 117.192 60.9856 159.915 74.1713C202.639 87.3572 248.367 100.541 289.43 110.429C330.506 120.319 366.871 126.899 390.887 126.899C445.978 126.899 486.047 120.311 518.605 110.436C551.166 100.561 576.233 87.3946 601.338 74.2064L601.351 74.1999L601.352 74.1992C626.451 61.0148 651.59 47.8091 684.246 37.9049C716.912 27.998 757.08 21.399 812.255 21.399C890.539 21.399 1009.91 31.1502 1129.25 40.8988L1129.27 40.9007C1248.63 50.6515 1367.96 60.399 1446.2 60.399C1479.92 60.399 1503.79 57.9627 1520.62 54.3166C1537.45 50.6693 1547.21 45.8192 1552.75 41.0211C1558.27 36.239 1559.61 31.5008 1559.61 27.9925C1559.61 26.2281 1559.27 24.758 1558.94 23.7311C1558.77 23.2179 1558.6 22.8167 1558.47 22.5463C1558.41 22.4111 1558.36 22.3088 1558.33 22.2417L1558.31 22.209L1558.29 22.1678L1558.28 22.1513L1558.28 22.1482C1558.28 22.1483 1558.28 22.1487 1558.71 21.899C1559.14 21.6494 1559.14 21.6501 1559.14 21.6509L1559.14 21.6534L1559.15 21.661L1559.16 21.6868C1559.18 21.7086 1559.19 21.7399 1559.21 21.7801C1559.26 21.8606 1559.31 21.9773 1559.38 22.1277C1559.52 22.4286 1559.7 22.8653 1559.89 23.4185C1560.25 24.5244 1560.61 26.1013 1560.61 27.9931C1560.61 31.7973 1559.13 36.809 1553.4 41.7769C1547.68 46.7289 1537.75 51.6288 1520.83 55.2939C1503.91 58.9603 1479.97 61.399 1446.2 61.399C1367.92 61.399 1248.55 51.6479 1129.21 41.8993L1129.19 41.8974C1009.82 32.1466 890.493 22.399 812.255 22.399C757.163 22.399 717.094 28.9875 684.536 38.8619C651.976 48.7372 626.909 61.9035 601.803 75.0917L601.791 75.0982L601.79 75.0988C576.691 88.2833 551.552 101.489 518.895 111.393C486.23 121.3 446.062 127.899 390.887 127.899ZM390.887 106.899C366.741 106.899 330.275 100.292 289.196 90.401C248.105 80.5069 202.354 67.316 159.62 54.127C116.885 40.9377 77.1614 27.7486 48.1217 17.8569C33.6017 12.9111 21.7524 8.78946 13.533 5.90424C9.42324 4.46164 6.22093 3.32812 4.04594 2.55521C2.95844 2.16876 2.12777 1.87244 1.56891 1.67273C1.28948 1.57288 1.078 1.49719 0.936346 1.44641L0.776471 1.3891L0.736249 1.37466L0.726144 1.37103C0.723883 1.37024 0.722739 1.36981 0.891785 0.899261C1.06083 0.428711 1.06193 0.429108 1.06414 0.429901L1.07415 0.433472L1.11418 0.447845L1.27366 0.505035L1.90542 0.731079C2.46374 0.930603 3.29386 1.22668 4.38079 1.61295C6.55464 2.38544 9.75573 3.51852 13.8642 4.96069C22.0811 7.845 33.9274 11.9656 48.4441 16.9103C77.4778 26.7999 117.192 39.9858 159.915 53.1715C202.639 66.3575 248.368 79.5416 289.43 89.4288C330.507 99.3192 366.871 105.899 390.887 105.899C445.979 105.899 486.048 99.3107 518.606 89.4364C551.167 79.5612 576.233 66.3948 601.339 53.2066L601.351 53.2001L601.352 53.1997L601.353 53.1992C626.451 40.0148 651.59 26.8093 684.247 16.9052C716.912 6.99823 757.08 0.399261 812.255 0.399261C890.539 0.399261 1009.91 10.1505 1129.25 19.8991L1129.27 19.9009C1248.63 29.6517 1367.96 39.3993 1446.2 39.3993C1479.93 39.3993 1503.79 36.963 1520.62 33.3168C1537.45 29.6695 1547.21 24.8194 1552.75 20.0214C1558.27 15.2393 1559.61 10.501 1559.61 6.99268C1559.61 5.2283 1559.27 3.75827 1558.94 2.73129C1558.77 2.21814 1558.6 1.81693 1558.47 1.54651C1558.43 1.45929 1558.4 1.38574 1558.37 1.32654C1558.35 1.29398 1558.34 1.26575 1558.33 1.24194L1558.31 1.20923L1558.29 1.16806L1558.28 1.15152L1558.28 1.14844L1558.31 1.12653L1558.71 0.899261C1559.14 0.649628 1559.14 0.65033 1559.14 0.651184L1559.15 0.653625L1559.15 0.661194L1559.16 0.687012L1559.18 0.719604L1559.21 0.780334C1559.26 0.860809 1559.31 0.977478 1559.38 1.12799C1559.52 1.42886 1559.7 1.86554 1559.89 2.41879C1560.25 3.52463 1560.61 5.10147 1560.61 6.99335C1560.61 10.7975 1559.13 15.8093 1553.4 20.7772C1547.68 25.7291 1537.75 30.629 1520.83 34.2942C1503.91 37.9606 1479.97 40.3993 1446.2 40.3993C1367.92 40.3993 1248.55 30.6482 1129.21 20.8996L1129.21 20.8995L1129.19 20.8976C1009.82 11.1468 890.493 1.39926 812.255 1.39926C757.164 1.39926 717.095 7.98779 684.537 17.8621C651.976 27.7374 626.909 40.9037 601.804 54.0919L601.791 54.0984L601.791 54.0988L601.79 54.0993C576.691 67.2837 551.552 80.4893 518.896 90.3934C486.23 100.3 446.062 106.899 390.887 106.899Z" fill="url(#paint0_linear_2119_6523)"/>
    <defs>
        <linearGradient id="paint0_linear_2119_6523" x1="862.351" y1="226.822" x2="846.507" y2="-4.11763" gradientUnits="userSpaceOnUse">
            <stop stop-color="#1F3891" stop-opacity="0"/>
            <stop offset="1" stop-color="#1F3891"/>
        </linearGradient>
    </defs>
</svg>
