<svg width="24" height="24" viewBox="0 0 24 24" fill="none" xmlns="http://www.w3.org/2000/svg">
<g clip-path="url(#clip0_2013_4839)">
<path fill-rule="evenodd" clip-rule="evenodd" d="M24.0008 9.6C24.0008 14.9019 19.7027 19.2 14.4008 19.2C9.09885 19.2 4.80078 14.9019 4.80078 9.6C4.80078 4.29807 9.09885 0 14.4008 0C19.7027 0 24.0008 4.29807 24.0008 9.6ZM15.1178 3.5366C14.548 3.47987 13.9727 3.55039 13.4335 3.74306C12.8943 3.93573 12.4046 4.24574 11.9998 4.65071C11.6093 5.04131 11.6095 5.67448 12.0001 6.06493C12.3907 6.45537 13.0238 6.45525 13.4143 6.06465C13.6097 5.86913 13.8461 5.71946 14.1065 5.62644C14.3668 5.53342 14.6446 5.49937 14.9196 5.52676C15.1947 5.55415 15.4603 5.6423 15.6972 5.78482C15.9341 5.92735 16.1363 6.1207 16.2894 6.35092C16.5952 6.81084 17.2159 6.93581 17.6758 6.63004C18.1357 6.32428 18.2607 5.70357 17.9549 5.24365C17.6379 4.76681 17.2189 4.36632 16.7283 4.07111C16.2377 3.7759 15.6876 3.59334 15.1178 3.5366Z" fill="#5B94EA"/>
<path d="M3 22.0338L9 16.0332" stroke="#5B94EA" stroke-width="3" stroke-linecap="round" stroke-linejoin="round"/>
</g>
<defs>
<clipPath id="clip0_2013_4839">
<rect width="24" height="24" fill="white"/>
</clipPath>
</defs>
</svg>
