<svg width="23" height="24" viewBox="0 0 23 24" fill="none" xmlns="http://www.w3.org/2000/svg">
<path fill-rule="evenodd" clip-rule="evenodd" d="M23.0008 9.6C23.0008 14.9019 18.7027 19.2 13.4008 19.2C8.09885 19.2 3.80078 14.9019 3.80078 9.6C3.80078 4.29807 8.09885 0 13.4008 0C18.7027 0 23.0008 4.29807 23.0008 9.6ZM14.1178 3.5366C13.548 3.47987 12.9727 3.55039 12.4335 3.74306C11.8943 3.93573 11.4046 4.24574 10.9998 4.65071C10.6093 5.04131 10.6095 5.67448 11.0001 6.06493C11.3907 6.45537 12.0238 6.45525 12.4143 6.06465C12.6097 5.86913 12.8461 5.71946 13.1065 5.62644C13.3668 5.53342 13.6446 5.49937 13.9196 5.52676C14.1947 5.55415 14.4603 5.6423 14.6972 5.78482C14.9341 5.92735 15.1363 6.1207 15.2894 6.35092C15.5952 6.81084 16.2159 6.93581 16.6758 6.63004C17.1357 6.32428 17.2607 5.70357 16.9549 5.24365C16.6379 4.76681 16.2189 4.36632 15.7283 4.07111C15.2377 3.7759 14.6876 3.59334 14.1178 3.5366Z" fill="#4360F8"/>
<path d="M2 22.0338L8 16.0332" stroke="#4360F8" stroke-width="3" stroke-linecap="round" stroke-linejoin="round"/>
</svg>
