<svg width="1442" height="374" viewBox="0 0 1442 374" fill="none"
    xmlns="http://www.w3.org/2000/svg">
    <path fill-rule="evenodd" clip-rule="evenodd" d="M360.678 0C338.348 0 304.632 6.60967 266.661 16.5005C228.675 26.3951 186.383 39.5865 146.88 52.7757C107.376 65.9653 70.6563 79.1547 43.8124 89.0465C30.3904 93.9924 19.4371 98.1141 11.8391 100.999C8.0401 102.442 5.07991 103.576 3.06933 104.348C2.06405 104.735 1.29616 105.031 0.779534 105.231C0.52122 105.331 0.325719 105.407 0.194763 105.457L0.0469547 105.515L0.00976283 105.529L0.000415987 105.533C-0.00167696 105.534 -0.00273774 105.534 0.178384 106C0.359506 106.466 0.360516 106.466 0.362559 106.465L0.371804 106.461L0.408792 106.447L0.556189 106.39C0.686869 106.339 0.882089 106.263 1.14012 106.164C1.65618 105.964 2.42348 105.668 3.42817 105.282C5.43754 104.509 8.39646 103.376 12.1941 101.934C19.7894 99.05 30.7396 94.9295 44.1582 89.9848C70.9957 80.0953 107.706 66.9097 147.197 53.7243C186.689 40.5385 228.957 27.3549 266.913 17.4682C304.882 7.57783 338.489 1 360.678 1C411.596 1 448.628 7.58757 478.716 17.4595C508.808 27.3326 531.974 40.4962 555.181 53.6847L555.194 53.6919L555.195 53.6926C578.395 66.8765 601.637 80.0846 631.829 89.9907C662.032 99.9001 699.17 106.5 750.178 106.5C822.545 106.5 932.888 96.7486 1043.2 87.0003L1043.22 86.9981C1153.56 77.2472 1263.86 67.5 1336.18 67.5C1367.35 67.5 1389.4 69.9361 1404.95 73.5806C1420.51 77.226 1429.51 82.0724 1434.63 86.8648C1439.72 91.6427 1440.97 96.3844 1440.97 99.9065C1440.98 101.676 1440.66 103.15 1440.35 104.179C1440.19 104.693 1440.04 105.095 1439.92 105.366C1439.9 105.423 1439.87 105.474 1439.85 105.519C1439.83 105.581 1439.8 105.632 1439.78 105.671L1439.76 105.721L1439.75 105.746L1439.74 105.762L1439.74 105.765C1439.74 105.765 1439.74 105.765 1440.18 106C1440.62 106.235 1440.62 106.234 1440.62 106.234L1440.62 106.231L1440.63 106.224L1440.64 106.198C1440.65 106.176 1440.67 106.145 1440.68 106.105C1440.7 106.07 1440.72 106.027 1440.74 105.978C1440.77 105.915 1440.81 105.842 1440.84 105.758C1440.97 105.458 1441.14 105.022 1441.31 104.47C1441.64 103.366 1441.98 101.793 1441.97 99.906C1441.97 96.1156 1440.62 91.1073 1435.31 86.1352C1430.02 81.1776 1420.83 76.274 1405.18 72.6069C1389.53 68.9389 1367.39 66.5 1336.18 66.5C1263.81 66.5 1153.47 76.2514 1043.16 85.9998L1043.13 86.0019C932.797 95.7528 822.496 105.5 750.178 105.5C699.26 105.5 662.229 98.9124 632.141 89.0405C602.049 79.1674 578.883 66.0038 555.675 52.8153L555.663 52.8081C532.463 39.624 509.22 26.4156 479.027 16.5093C448.825 6.59993 411.687 0 360.678 0ZM266.661 36.0005C304.632 26.1097 338.348 19.5 360.678 19.5C411.687 19.5 448.825 26.0999 479.027 36.0093C509.22 45.9156 532.463 59.124 555.663 72.3081L555.675 72.3153C578.883 85.5038 602.049 98.6674 632.141 108.541C662.229 118.412 699.26 125 750.178 125C822.496 125 932.797 115.253 1043.13 105.502L1043.16 105.5C1153.47 95.7514 1263.81 86 1336.18 86C1367.39 86 1389.53 88.4389 1405.18 92.1069C1420.83 95.774 1430.02 100.678 1435.31 105.635C1440.62 110.607 1441.97 115.616 1441.97 119.406C1441.98 121.293 1441.64 122.866 1441.31 123.97C1441.14 124.522 1440.97 124.958 1440.84 125.258C1440.81 125.342 1440.77 125.415 1440.74 125.478L1440.72 125.523L1440.68 125.605C1440.67 125.628 1440.66 125.649 1440.65 125.666L1440.64 125.698L1440.63 125.724L1440.62 125.731L1440.62 125.734C1440.62 125.734 1440.62 125.735 1440.18 125.5C1439.74 125.265 1439.74 125.265 1439.74 125.265L1439.74 125.262L1439.75 125.246C1439.76 125.23 1439.77 125.205 1439.78 125.171C1439.8 125.147 1439.81 125.118 1439.82 125.085L1439.85 125.019C1439.87 124.974 1439.9 124.923 1439.92 124.866C1440.04 124.595 1440.19 124.193 1440.35 123.679C1440.66 122.65 1440.98 121.176 1440.97 119.407C1440.97 115.884 1439.72 111.143 1434.63 106.365C1429.51 101.572 1420.51 96.726 1404.95 93.0806C1389.4 89.4361 1367.35 87 1336.18 87C1263.86 87 1153.56 96.7472 1043.22 106.498L1043.2 106.5C932.888 116.249 822.545 126 750.178 126C699.17 126 662.032 119.4 631.829 109.491C601.637 99.5846 578.395 86.3765 555.195 73.1926L555.194 73.1919L555.181 73.1847C531.974 59.9962 508.808 46.8326 478.716 36.9595C448.628 27.0876 411.596 20.5 360.678 20.5C338.489 20.5 304.882 27.0778 266.913 36.9682C228.957 46.8549 186.689 60.0385 147.197 73.2243C107.706 86.4097 70.9957 99.5953 44.1582 109.485C30.7396 114.429 19.7894 118.55 12.1941 121.434C8.39646 122.876 5.43754 124.009 3.42817 124.782C2.42348 125.168 1.65618 125.464 1.14012 125.664C0.882089 125.763 0.686869 125.839 0.556189 125.89L0.408792 125.947L0.371804 125.961L0.362559 125.965C0.360516 125.966 0.359506 125.966 0.178384 125.5C-0.00273774 125.034 -0.00167696 125.034 0.000415987 125.033L0.00976283 125.029L0.0469547 125.015L0.194763 124.957C0.325719 124.907 0.52122 124.831 0.779534 124.731C1.29616 124.531 2.06405 124.235 3.06933 123.848C5.07991 123.076 8.0401 121.942 11.8391 120.499C19.4371 117.614 30.3904 113.492 43.8124 108.546C70.6563 98.6547 107.376 85.4653 146.88 72.2757C186.383 59.0865 228.675 45.8951 266.661 36.0005ZM360.678 39C338.348 39 304.632 45.6097 266.661 55.5005C228.675 65.3951 186.383 78.5865 146.88 91.7757C107.376 104.965 70.6563 118.155 43.8124 128.046C30.3904 132.992 19.4371 137.114 11.8391 139.999C8.0401 141.442 5.07991 142.576 3.06933 143.348C2.06405 143.735 1.29616 144.031 0.779534 144.231C0.52122 144.331 0.325719 144.407 0.194763 144.457L0.0469547 144.515L0.00976283 144.529L0.000415987 144.533C-0.00167696 144.534 -0.00273774 144.534 0.178384 145C0.359506 145.466 0.360516 145.466 0.362559 145.465L0.371804 145.461L0.408792 145.447L0.556189 145.39C0.686869 145.339 0.882089 145.263 1.14012 145.164C1.65618 144.964 2.42348 144.668 3.42817 144.282C5.43754 143.509 8.39646 142.376 12.1941 140.934C19.7894 138.05 30.7396 133.929 44.1582 128.985C70.9957 119.095 107.706 105.91 147.197 92.7243C186.689 79.5385 228.957 66.3549 266.913 56.4682C304.882 46.5778 338.489 40 360.678 40C411.596 40 448.628 46.5876 478.716 56.4595C508.808 66.3326 531.974 79.4962 555.181 92.6847L555.194 92.6919L555.195 92.6926C578.395 105.876 601.637 119.085 631.829 128.991C662.032 138.9 699.17 145.5 750.178 145.5C822.545 145.5 932.888 135.749 1043.2 126L1043.22 125.998C1153.56 116.247 1263.86 106.5 1336.18 106.5C1367.35 106.5 1389.4 108.936 1404.95 112.581C1420.51 116.226 1429.51 121.072 1434.63 125.865C1439.72 130.643 1440.97 135.384 1440.97 138.907C1440.98 140.676 1440.66 142.15 1440.35 143.179C1440.19 143.693 1440.04 144.095 1439.92 144.366C1439.9 144.409 1439.89 144.448 1439.87 144.484L1439.85 144.519C1439.83 144.581 1439.8 144.632 1439.78 144.671L1439.77 144.709L1439.75 144.746L1439.74 144.762L1439.74 144.765C1439.74 144.765 1439.74 144.765 1440.18 145C1440.62 145.235 1440.62 145.234 1440.62 145.234L1440.62 145.231L1440.63 145.224L1440.64 145.198L1440.66 145.154L1440.68 145.105C1440.7 145.07 1440.72 145.027 1440.74 144.978C1440.77 144.915 1440.81 144.842 1440.84 144.758C1440.97 144.458 1441.14 144.022 1441.31 143.47C1441.64 142.366 1441.98 140.793 1441.97 138.906C1441.97 135.116 1440.62 130.107 1435.31 125.135C1430.02 120.178 1420.83 115.274 1405.18 111.607C1389.53 107.939 1367.39 105.5 1336.18 105.5C1263.81 105.5 1153.47 115.251 1043.16 125L1043.13 125.002C932.797 134.753 822.496 144.5 750.178 144.5C699.26 144.5 662.229 137.912 632.141 128.041C602.049 118.167 578.883 105.004 555.675 91.8153L555.663 91.8081C532.463 78.624 509.22 65.4156 479.027 55.5093C448.825 45.5999 411.687 39 360.678 39ZM266.661 75.0005C304.632 65.1097 338.348 58.5 360.678 58.5C411.687 58.5 448.825 65.0999 479.027 75.0093C509.22 84.9156 532.463 98.124 555.663 111.308L555.675 111.315C578.883 124.504 602.049 137.667 632.141 147.541C662.229 157.412 699.26 164 750.178 164C822.496 164 932.797 154.253 1043.13 144.502L1043.16 144.5L1043.16 144.5C1153.47 134.751 1263.81 125 1336.18 125C1367.39 125 1389.53 127.439 1405.18 131.107C1420.83 134.774 1430.02 139.678 1435.31 144.635C1440.62 149.607 1441.97 154.616 1441.97 158.406C1441.98 160.293 1441.64 161.866 1441.31 162.97C1441.14 163.522 1440.97 163.958 1440.84 164.258C1440.81 164.342 1440.77 164.415 1440.74 164.478C1440.72 164.527 1440.7 164.57 1440.68 164.605C1440.67 164.645 1440.65 164.676 1440.64 164.698L1440.63 164.724L1440.62 164.731L1440.62 164.734C1440.62 164.734 1440.62 164.735 1440.18 164.5C1439.74 164.265 1439.74 164.265 1439.74 164.265L1439.74 164.262L1439.75 164.246C1439.76 164.23 1439.77 164.205 1439.78 164.171L1439.8 164.14L1439.82 164.094L1439.84 164.052L1439.85 164.019L1439.88 163.959C1439.89 163.93 1439.91 163.899 1439.92 163.866C1440.04 163.595 1440.19 163.193 1440.35 162.679C1440.66 161.65 1440.98 160.176 1440.97 158.407C1440.97 154.884 1439.72 150.143 1434.63 145.365C1429.51 140.572 1420.51 135.726 1404.95 132.081C1389.4 128.436 1367.35 126 1336.18 126C1263.86 126 1153.56 135.747 1043.22 145.498L1043.2 145.5C932.888 155.249 822.545 165 750.178 165C699.17 165 662.032 158.4 631.829 148.491C601.637 138.585 578.395 125.376 555.195 112.193L555.194 112.192L555.181 112.185C531.974 98.9962 508.808 85.8326 478.716 75.9595C448.628 66.0876 411.596 59.5 360.678 59.5C338.489 59.5 304.882 66.0778 266.913 75.9682C228.957 85.8549 186.689 99.0385 147.197 112.224C107.706 125.41 70.9957 138.595 44.1582 148.485C30.7396 153.429 19.7894 157.55 12.1941 160.434C8.39646 161.876 5.43754 163.009 3.42817 163.782C2.42348 164.168 1.65618 164.464 1.14012 164.664C0.882089 164.763 0.686869 164.839 0.556189 164.89L0.408792 164.947L0.371804 164.961L0.362559 164.965C0.360516 164.966 0.359506 164.966 0.178384 164.5C-0.00273774 164.034 -0.00167696 164.034 0.000415987 164.033L0.00976283 164.029L0.0469547 164.015L0.194763 163.957C0.325719 163.907 0.52122 163.831 0.779534 163.731C1.29616 163.531 2.06405 163.235 3.06933 162.848C5.07991 162.076 8.0401 160.942 11.8391 159.499C19.4371 156.614 30.3904 152.492 43.8124 147.546C70.6563 137.655 107.376 124.465 146.88 111.276C186.383 98.0865 228.675 84.8951 266.661 75.0005ZM360.678 78C338.348 78 304.632 84.6097 266.661 94.5005C228.675 104.395 186.383 117.586 146.88 130.776C107.376 143.965 70.6563 157.155 43.8124 167.046C30.3904 171.992 19.4371 176.114 11.8391 178.999C8.0401 180.442 5.07991 181.576 3.06933 182.348C2.06405 182.735 1.29616 183.031 0.779534 183.231C0.52122 183.331 0.325719 183.407 0.194763 183.457L0.0469547 183.515L0.00976283 183.529L0.000415987 183.533C-0.00167696 183.534 -0.00273774 183.534 0.178384 184C0.359506 184.466 0.360516 184.466 0.362559 184.465L0.371804 184.461L0.408792 184.447L0.556189 184.39C0.686869 184.339 0.882089 184.263 1.14012 184.164C1.65618 183.964 2.42348 183.668 3.42817 183.282C5.43754 182.509 8.39646 181.376 12.1941 179.934C19.7894 177.05 30.7396 172.929 44.1582 167.985C70.9957 158.095 107.706 144.91 147.197 131.724C186.689 118.539 228.957 105.355 266.913 95.4682C304.882 85.5778 338.489 79 360.678 79C411.596 79 448.628 85.5876 478.716 95.4595C508.808 105.333 531.974 118.496 555.181 131.685L555.194 131.692L555.195 131.692C578.395 144.876 601.637 158.085 631.829 167.991C662.032 177.9 699.17 184.5 750.178 184.5C822.545 184.5 932.888 174.749 1043.2 165L1043.22 164.998C1153.56 155.247 1263.86 145.5 1336.18 145.5C1367.35 145.5 1389.4 147.936 1404.95 151.581C1420.51 155.226 1429.51 160.072 1434.63 164.865C1439.72 169.643 1440.97 174.384 1440.97 177.907C1440.98 179.676 1440.66 181.15 1440.35 182.179C1440.19 182.693 1440.04 183.095 1439.92 183.366C1439.9 183.423 1439.87 183.474 1439.85 183.519C1439.83 183.581 1439.8 183.632 1439.78 183.671L1439.76 183.714L1439.75 183.746L1439.74 183.762L1439.74 183.765L1439.76 183.777L1439.84 183.82L1440.18 184C1440.45 184.144 1440.55 184.2 1440.59 184.221C1440.62 184.234 1440.62 184.234 1440.62 184.234L1440.62 184.231L1440.63 184.224L1440.64 184.198L1440.66 184.156L1440.68 184.105C1440.7 184.07 1440.72 184.027 1440.74 183.978C1440.76 183.948 1440.77 183.915 1440.79 183.88C1440.8 183.854 1440.81 183.828 1440.82 183.8L1440.84 183.758C1440.97 183.458 1441.14 183.022 1441.31 182.47C1441.64 181.366 1441.98 179.793 1441.97 177.906C1441.97 174.116 1440.62 169.107 1435.31 164.135C1430.02 159.178 1420.83 154.274 1405.18 150.607C1389.53 146.939 1367.39 144.5 1336.18 144.5C1263.81 144.5 1153.47 154.251 1043.16 164L1043.16 164L1043.13 164.002C932.797 173.753 822.496 183.5 750.178 183.5C699.26 183.5 662.229 176.912 632.141 167.041C602.049 157.167 578.883 144.004 555.675 130.815L555.663 130.808C532.463 117.624 509.22 104.416 479.027 94.5093C448.825 84.5999 411.687 78 360.678 78ZM266.661 115.501C304.632 105.61 338.348 99 360.678 99C411.687 99 448.825 105.6 479.027 115.509C509.22 125.416 532.463 138.624 555.663 151.808L555.675 151.815C578.883 165.004 602.049 178.167 632.141 188.041C662.229 197.912 699.26 204.5 750.178 204.5C822.496 204.5 932.797 194.753 1043.13 185.002L1043.16 185L1043.16 185C1153.47 175.251 1263.81 165.5 1336.18 165.5C1367.39 165.5 1389.53 167.939 1405.18 171.607C1420.83 175.274 1430.02 180.178 1435.31 185.135C1440.62 190.107 1441.97 195.116 1441.97 198.906C1441.98 200.793 1441.64 202.366 1441.31 203.47C1441.14 204.022 1440.97 204.458 1440.84 204.758C1440.81 204.842 1440.77 204.915 1440.74 204.978C1440.72 205.027 1440.7 205.07 1440.68 205.105C1440.67 205.145 1440.65 205.176 1440.64 205.198L1440.63 205.224L1440.62 205.231L1440.62 205.234C1440.62 205.234 1440.62 205.235 1440.18 205C1439.74 204.765 1439.74 204.765 1439.74 204.765L1439.74 204.762L1439.75 204.746L1439.76 204.715L1439.78 204.671C1439.8 204.632 1439.83 204.581 1439.85 204.519C1439.87 204.474 1439.9 204.423 1439.92 204.366C1440.04 204.095 1440.19 203.693 1440.35 203.179C1440.66 202.15 1440.98 200.676 1440.97 198.907C1440.97 195.384 1439.72 190.643 1434.63 185.865C1429.51 181.072 1420.51 176.226 1404.95 172.581C1389.4 168.936 1367.35 166.5 1336.18 166.5C1263.86 166.5 1153.56 176.247 1043.22 185.998L1043.2 186C932.888 195.749 822.545 205.5 750.178 205.5C699.17 205.5 662.032 198.9 631.829 188.991C601.637 179.085 578.395 165.876 555.195 152.692L555.194 152.692L555.181 152.685C531.974 139.496 508.808 126.333 478.716 116.459C448.628 106.588 411.596 100 360.678 100C338.489 100 304.882 106.578 266.913 116.468C228.957 126.355 186.689 139.539 147.197 152.724C107.706 165.91 70.9957 179.095 44.1582 188.985C30.7396 193.929 19.7894 198.05 12.1941 200.934C8.39646 202.376 5.43754 203.509 3.42817 204.282C2.42348 204.668 1.65618 204.964 1.14012 205.164C0.882089 205.263 0.686869 205.339 0.556189 205.39L0.408792 205.447L0.371804 205.461L0.362559 205.465C0.360516 205.466 0.359506 205.466 0.178384 205C-0.00273774 204.534 -0.00167696 204.534 0.000415987 204.533L0.00976283 204.529L0.0469547 204.515L0.194763 204.457C0.325719 204.407 0.52122 204.331 0.779534 204.231C1.29616 204.031 2.06405 203.735 3.06933 203.348C5.07991 202.576 8.0401 201.442 11.8391 199.999C19.4371 197.114 30.3904 192.992 43.8124 188.046C70.6563 178.155 107.376 164.965 146.88 151.776C186.383 138.586 228.675 125.395 266.661 115.501ZM360.678 120C338.348 120 304.632 126.61 266.661 136.501C228.675 146.395 186.383 159.586 146.88 172.776C107.376 185.965 70.6563 199.155 43.8124 209.046C30.3904 213.992 19.4371 218.114 11.8391 220.999C8.0401 222.442 5.07991 223.576 3.06933 224.348C2.06405 224.735 1.29616 225.031 0.779534 225.231C0.52122 225.331 0.325719 225.407 0.194763 225.457L0.0469547 225.515L0.00976283 225.529L0.000415987 225.533C-0.00167696 225.534 -0.00273774 225.534 0.178384 226C0.359506 226.466 0.360516 226.466 0.362559 226.465L0.371804 226.461L0.408792 226.447L0.556189 226.39C0.686869 226.339 0.882089 226.263 1.14012 226.164C1.65618 225.964 2.42348 225.668 3.42817 225.282C5.43754 224.509 8.39646 223.376 12.1941 221.934C19.7894 219.05 30.7396 214.929 44.1582 209.985C70.9957 200.095 107.706 186.91 147.197 173.724C186.689 160.539 228.957 147.355 266.913 137.468C304.882 127.578 338.489 121 360.678 121C411.596 121 448.628 127.588 478.716 137.459C508.808 147.333 531.974 160.496 555.181 173.685L555.194 173.692L555.195 173.692C578.395 186.876 601.637 200.085 631.829 209.991C662.032 219.9 699.17 226.5 750.178 226.5C822.545 226.5 932.888 216.749 1043.2 207L1043.22 206.998C1153.56 197.247 1263.86 187.5 1336.18 187.5C1367.35 187.5 1389.4 189.936 1404.95 193.581C1420.51 197.226 1429.51 202.072 1434.63 206.865C1439.72 211.643 1440.97 216.384 1440.97 219.907C1440.98 221.676 1440.66 223.15 1440.35 224.179C1440.19 224.693 1440.04 225.095 1439.92 225.366L1439.89 225.433C1439.88 225.464 1439.87 225.492 1439.85 225.519C1439.83 225.581 1439.8 225.632 1439.78 225.671C1439.77 225.705 1439.76 225.73 1439.75 225.746L1439.74 225.762L1439.74 225.765C1439.74 225.765 1439.74 225.765 1440.18 226C1440.62 226.235 1440.62 226.234 1440.62 226.234L1440.62 226.231L1440.63 226.224L1440.64 226.198C1440.65 226.176 1440.67 226.145 1440.68 226.105C1440.7 226.07 1440.72 226.027 1440.74 225.978C1440.77 225.915 1440.81 225.842 1440.84 225.758C1440.97 225.458 1441.14 225.022 1441.31 224.47C1441.64 223.366 1441.98 221.793 1441.97 219.906C1441.97 216.116 1440.62 211.107 1435.31 206.135C1430.02 201.178 1420.83 196.274 1405.18 192.607C1389.53 188.939 1367.39 186.5 1336.18 186.5C1263.81 186.5 1153.47 196.251 1043.16 206L1043.16 206L1043.13 206.002C932.797 215.753 822.496 225.5 750.178 225.5C699.26 225.5 662.229 218.912 632.141 209.041C602.049 199.167 578.883 186.004 555.675 172.815L555.663 172.808C532.463 159.624 509.22 146.416 479.027 136.509C448.825 126.6 411.687 120 360.678 120ZM266.661 157.501C304.632 147.61 338.348 141 360.678 141C411.687 141 448.825 147.6 479.027 157.509C509.22 167.416 532.463 180.624 555.663 193.808L555.675 193.815C578.883 207.004 602.049 220.167 632.141 230.041C662.229 239.912 699.26 246.5 750.178 246.5C822.496 246.5 932.797 236.753 1043.13 227.002L1043.16 227L1043.16 227C1153.47 217.251 1263.81 207.5 1336.18 207.5C1367.39 207.5 1389.53 209.939 1405.18 213.607C1420.83 217.274 1430.02 222.178 1435.31 227.135C1440.62 232.107 1441.97 237.116 1441.97 240.906C1441.98 242.793 1441.64 244.366 1441.31 245.47C1441.14 246.022 1440.97 246.458 1440.84 246.758C1440.81 246.842 1440.77 246.915 1440.74 246.978L1440.72 247.036L1440.68 247.105L1440.66 247.158L1440.64 247.198L1440.63 247.224L1440.62 247.231L1440.62 247.234C1440.62 247.234 1440.62 247.235 1440.18 247L1439.8 246.8L1439.74 246.765L1439.74 246.762L1439.75 246.746C1439.76 246.73 1439.77 246.705 1439.78 246.671L1439.81 246.62L1439.83 246.578L1439.85 246.519C1439.87 246.474 1439.9 246.423 1439.92 246.366C1440.04 246.095 1440.19 245.693 1440.35 245.179C1440.66 244.15 1440.98 242.676 1440.97 240.907C1440.97 237.384 1439.72 232.643 1434.63 227.865C1429.51 223.072 1420.51 218.226 1404.95 214.581C1389.4 210.936 1367.35 208.5 1336.18 208.5C1263.86 208.5 1153.56 218.247 1043.22 227.998L1043.2 228C932.888 237.749 822.545 247.5 750.178 247.5C699.17 247.5 662.032 240.9 631.829 230.991C601.637 221.085 578.395 207.876 555.195 194.692L555.194 194.692L555.181 194.685C531.974 181.496 508.808 168.333 478.716 158.459C448.628 148.588 411.596 142 360.678 142C338.489 142 304.882 148.578 266.913 158.468C228.957 168.355 186.689 181.539 147.197 194.724C107.706 207.91 70.9957 221.095 44.1582 230.985C30.7396 235.929 19.7894 240.05 12.1941 242.934C8.39646 244.376 5.43754 245.509 3.42817 246.282C2.42348 246.668 1.65618 246.964 1.14012 247.164C0.882089 247.263 0.686869 247.339 0.556189 247.39L0.408792 247.447L0.371804 247.461L0.362559 247.465C0.360516 247.466 0.359506 247.466 0.178384 247C-0.00273774 246.534 -0.00167696 246.534 0.000415987 246.533L0.00976283 246.529L0.0469547 246.515L0.194763 246.457C0.325719 246.407 0.52122 246.331 0.779534 246.231C1.29616 246.031 2.06405 245.735 3.06933 245.348C5.07991 244.576 8.0401 243.442 11.8391 241.999C19.4371 239.114 30.3904 234.992 43.8124 230.046C70.6563 220.155 107.376 206.965 146.88 193.776C186.383 180.586 228.675 167.395 266.661 157.501ZM360.678 162C338.348 162 304.632 168.61 266.661 178.501C228.675 188.395 186.383 201.586 146.88 214.776C107.376 227.965 70.6563 241.155 43.8124 251.046C30.3904 255.992 19.4371 260.114 11.8391 262.999C8.0401 264.442 5.07991 265.576 3.06933 266.348C2.06405 266.735 1.29616 267.031 0.779534 267.231L0.194763 267.457L0.0469547 267.515L0.00976283 267.529L0.000415987 267.533C-0.00167696 267.534 -0.00273774 267.534 0.178384 268C0.359506 268.466 0.360516 268.466 0.362559 268.465L0.371804 268.461L0.408792 268.447L0.556189 268.39C0.686869 268.339 0.882089 268.263 1.14012 268.164C1.65618 267.964 2.42348 267.668 3.42817 267.282C5.43754 266.509 8.39646 265.376 12.1941 263.934C19.7894 261.05 30.7396 256.929 44.1582 251.985C70.9957 242.095 107.706 228.91 147.197 215.724C186.689 202.539 228.957 189.355 266.913 179.468C304.882 169.578 338.489 163 360.678 163C411.596 163 448.628 169.588 478.716 179.459C508.808 189.333 531.974 202.496 555.181 215.685L555.194 215.692L555.195 215.692C578.395 228.876 601.637 242.085 631.829 251.991C662.032 261.9 699.17 268.5 750.178 268.5C822.545 268.5 932.888 258.749 1043.2 249L1043.22 248.998C1153.56 239.247 1263.86 229.5 1336.18 229.5C1367.35 229.5 1389.4 231.936 1404.95 235.581C1420.51 239.226 1429.51 244.072 1434.63 248.865C1439.72 253.643 1440.97 258.384 1440.97 261.907C1440.98 263.676 1440.66 265.15 1440.35 266.179C1440.19 266.693 1440.04 267.095 1439.92 267.366C1439.9 267.423 1439.87 267.474 1439.85 267.519C1439.83 267.581 1439.8 267.632 1439.78 267.671L1439.76 267.714L1439.75 267.746L1439.74 267.762L1439.74 267.765L1439.82 267.812L1440.18 268L1440.47 268.155L1440.57 268.206L1440.6 268.226C1440.62 268.234 1440.62 268.234 1440.62 268.234L1440.62 268.231L1440.63 268.224L1440.64 268.198C1440.65 268.176 1440.67 268.145 1440.68 268.105C1440.7 268.07 1440.72 268.027 1440.74 267.978C1440.77 267.915 1440.81 267.842 1440.84 267.758C1440.97 267.458 1441.14 267.022 1441.31 266.47C1441.64 265.366 1441.98 263.793 1441.97 261.906C1441.97 258.116 1440.62 253.107 1435.31 248.135C1430.02 243.178 1420.83 238.274 1405.18 234.607C1389.53 230.939 1367.39 228.5 1336.18 228.5C1263.81 228.5 1153.47 238.251 1043.16 248L1043.16 248L1043.13 248.002C932.797 257.753 822.496 267.5 750.178 267.5C699.26 267.5 662.229 260.912 632.141 251.041C602.049 241.167 578.883 228.004 555.675 214.815L555.663 214.808C532.463 201.624 509.22 188.416 479.027 178.509C448.825 168.6 411.687 162 360.678 162ZM266.661 199.501C304.632 189.61 338.348 183 360.678 183C411.687 183 448.825 189.6 479.027 199.509C509.22 209.416 532.463 222.624 555.663 235.808L555.675 235.815C578.883 249.004 602.049 262.167 632.141 272.041C662.229 281.912 699.26 288.5 750.178 288.5C822.496 288.5 932.797 278.753 1043.13 269.002L1043.16 269L1043.16 269C1153.47 259.251 1263.81 249.5 1336.18 249.5C1367.39 249.5 1389.53 251.939 1405.18 255.607C1420.83 259.274 1430.02 264.178 1435.31 269.135C1440.62 274.107 1441.97 279.116 1441.97 282.906C1441.98 284.793 1441.64 286.366 1441.31 287.47C1441.14 288.022 1440.97 288.458 1440.84 288.758C1440.81 288.842 1440.77 288.915 1440.74 288.978L1440.71 289.041L1440.68 289.105C1440.67 289.128 1440.66 289.149 1440.65 289.166L1440.64 289.198L1440.63 289.224L1440.62 289.231L1440.62 289.234C1440.62 289.234 1440.62 289.235 1440.18 289L1439.82 288.808L1439.74 288.765L1439.74 288.762L1439.75 288.746L1439.76 288.717L1439.78 288.671C1439.8 288.632 1439.83 288.581 1439.85 288.519C1439.87 288.483 1439.89 288.443 1439.91 288.4L1439.92 288.366C1440.04 288.095 1440.19 287.693 1440.35 287.179C1440.66 286.15 1440.98 284.676 1440.97 282.907C1440.97 279.384 1439.72 274.643 1434.63 269.865C1429.51 265.072 1420.51 260.226 1404.95 256.581C1389.4 252.936 1367.35 250.5 1336.18 250.5C1263.86 250.5 1153.56 260.247 1043.22 269.998L1043.2 270C932.888 279.749 822.545 289.5 750.178 289.5C699.17 289.5 662.032 282.9 631.829 272.991C601.637 263.085 578.395 249.876 555.195 236.692L555.194 236.692L555.181 236.685C531.974 223.496 508.808 210.333 478.716 200.459C448.628 190.588 411.596 184 360.678 184C338.489 184 304.882 190.578 266.913 200.468C228.957 210.355 186.689 223.539 147.197 236.724C107.706 249.91 70.9957 263.095 44.1582 272.985C30.7396 277.929 19.7894 282.05 12.1941 284.934C8.39646 286.376 5.43754 287.509 3.42817 288.282C2.42348 288.668 1.65618 288.964 1.14012 289.164C0.882089 289.263 0.686869 289.339 0.556189 289.39L0.408792 289.447L0.371804 289.461L0.362559 289.465C0.360516 289.466 0.359506 289.466 0.178384 289C-0.00273774 288.534 -0.00167696 288.534 0.000415987 288.533L0.00976283 288.529L0.0469547 288.515L0.194763 288.457L0.779534 288.231C1.29616 288.031 2.06405 287.735 3.06933 287.348C5.07991 286.576 8.0401 285.442 11.8391 283.999C19.4371 281.114 30.3904 276.992 43.8124 272.046C70.6563 262.155 107.376 248.965 146.88 235.776C186.383 222.586 228.675 209.395 266.661 199.501ZM360.678 204C338.348 204 304.632 210.61 266.661 220.501C228.675 230.395 186.383 243.586 146.88 256.776C107.376 269.965 70.6563 283.155 43.8124 293.046C30.3904 297.992 19.4371 302.114 11.8391 304.999C8.0401 306.442 5.07991 307.576 3.06933 308.348C2.06405 308.735 1.29616 309.031 0.779534 309.231L0.194763 309.457L0.0469547 309.515L0.00976283 309.529L0.000415987 309.533C-0.00167696 309.534 -0.00273774 309.534 0.178384 310C0.359506 310.466 0.360516 310.466 0.362559 310.465L0.371804 310.461L0.408792 310.447L0.556189 310.39C0.686869 310.339 0.882089 310.263 1.14012 310.164C1.65618 309.964 2.42348 309.668 3.42817 309.282C5.43754 308.509 8.39646 307.376 12.1941 305.934C19.7894 303.05 30.7396 298.929 44.1582 293.985C70.9957 284.095 107.706 270.91 147.197 257.724C186.689 244.539 228.957 231.355 266.913 221.468C304.882 211.578 338.489 205 360.678 205C411.596 205 448.628 211.588 478.716 221.459C508.808 231.333 531.974 244.496 555.181 257.685L555.194 257.692L555.195 257.692C578.395 270.876 601.637 284.085 631.829 293.991C662.032 303.9 699.17 310.5 750.178 310.5C822.545 310.5 932.888 300.749 1043.2 291L1043.22 290.998C1153.56 281.247 1263.86 271.5 1336.18 271.5C1367.35 271.5 1389.4 273.936 1404.95 277.581C1420.51 281.226 1429.51 286.072 1434.63 290.865C1439.72 295.643 1440.97 300.384 1440.97 303.907C1440.98 305.676 1440.66 307.15 1440.35 308.179C1440.19 308.693 1440.04 309.095 1439.92 309.366L1439.89 309.437C1439.88 309.466 1439.87 309.494 1439.85 309.519L1439.83 309.58L1439.8 309.641L1439.78 309.671C1439.77 309.705 1439.76 309.73 1439.75 309.746L1439.74 309.762L1439.74 309.765C1439.74 309.765 1439.74 309.765 1440.18 310C1440.62 310.235 1440.62 310.234 1440.62 310.234L1440.62 310.231L1440.63 310.224L1440.64 310.198C1440.65 310.176 1440.67 310.145 1440.68 310.105C1440.7 310.07 1440.72 310.027 1440.74 309.978C1440.77 309.915 1440.81 309.842 1440.84 309.758C1440.97 309.458 1441.14 309.022 1441.31 308.47C1441.64 307.366 1441.98 305.793 1441.97 303.906C1441.97 300.116 1440.62 295.107 1435.31 290.135C1430.02 285.178 1420.83 280.274 1405.18 276.607C1389.53 272.939 1367.39 270.5 1336.18 270.5C1263.81 270.5 1153.47 280.251 1043.16 290L1043.16 290L1043.13 290.002C932.797 299.753 822.496 309.5 750.178 309.5C699.26 309.5 662.229 302.912 632.141 293.041C602.049 283.167 578.883 270.004 555.675 256.815L555.663 256.808C532.463 243.624 509.22 230.416 479.027 220.509C448.825 210.6 411.687 204 360.678 204ZM266.661 241.501C304.632 231.61 338.348 225 360.678 225C411.687 225 448.825 231.6 479.027 241.509C509.22 251.416 532.463 264.624 555.663 277.808L555.675 277.815C578.883 291.004 602.049 304.167 632.141 314.041C662.229 323.912 699.26 330.5 750.178 330.5C822.496 330.5 932.797 320.753 1043.13 311.002L1043.16 311L1043.16 311C1153.47 301.251 1263.81 291.5 1336.18 291.5C1367.39 291.5 1389.53 293.939 1405.18 297.607C1420.83 301.274 1430.02 306.178 1435.31 311.135C1440.62 316.107 1441.97 321.116 1441.97 324.906C1441.98 326.793 1441.64 328.366 1441.31 329.47C1441.14 330.022 1440.97 330.458 1440.84 330.758C1440.81 330.842 1440.77 330.915 1440.74 330.978C1440.72 331.027 1440.7 331.07 1440.68 331.105L1440.66 331.147L1440.65 331.174L1440.64 331.198L1440.63 331.224L1440.62 331.231L1440.62 331.234C1440.62 331.234 1440.62 331.235 1440.18 331C1439.74 330.765 1439.74 330.765 1439.74 330.765L1439.74 330.762L1439.75 330.746L1439.76 330.71L1439.78 330.671C1439.8 330.632 1439.83 330.581 1439.85 330.519L1439.89 330.447L1439.92 330.366C1440.04 330.095 1440.19 329.693 1440.35 329.179C1440.66 328.15 1440.98 326.676 1440.97 324.907C1440.97 321.384 1439.72 316.643 1434.63 311.865C1429.51 307.072 1420.51 302.226 1404.95 298.581C1389.4 294.936 1367.35 292.5 1336.18 292.5C1263.86 292.5 1153.56 302.247 1043.22 311.998L1043.2 312C932.888 321.749 822.545 331.5 750.178 331.5C699.17 331.5 662.032 324.9 631.829 314.991C601.637 305.085 578.395 291.876 555.195 278.692L555.194 278.692L555.181 278.685C531.974 265.496 508.808 252.333 478.716 242.459C448.628 232.588 411.596 226 360.678 226C338.489 226 304.882 232.578 266.913 242.468C228.957 252.355 186.689 265.539 147.197 278.724C107.706 291.91 70.9957 305.095 44.1582 314.985C30.7396 319.929 19.7894 324.05 12.1941 326.934C8.39646 328.376 5.43754 329.509 3.42817 330.282C2.42348 330.668 1.65618 330.964 1.14012 331.164C0.882089 331.263 0.686869 331.339 0.556189 331.39L0.408792 331.447L0.371804 331.461L0.362559 331.465C0.360516 331.466 0.359506 331.466 0.178384 331C-0.00273774 330.534 -0.00167696 330.534 0.000415987 330.533L0.00976283 330.529L0.0469547 330.515L0.194763 330.457L0.779534 330.231C1.29616 330.031 2.06405 329.735 3.06933 329.348C5.07991 328.576 8.0401 327.442 11.8391 325.999C19.4371 323.114 30.3904 318.992 43.8124 314.046C70.6563 304.155 107.376 290.965 146.88 277.776C186.383 264.586 228.675 251.395 266.661 241.501ZM360.678 246C338.348 246 304.632 252.61 266.661 262.501C228.675 272.395 186.383 285.586 146.88 298.776C107.376 311.965 70.6563 325.155 43.8124 335.046C30.3904 339.992 19.4371 344.114 11.8391 346.999C8.0401 348.442 5.07991 349.576 3.06933 350.348C2.06405 350.735 1.29616 351.031 0.779534 351.231L0.194763 351.457L0.0469547 351.515L0.00976283 351.529L0.000415987 351.533C-0.00167696 351.534 -0.00273774 351.534 0.178384 352C0.359506 352.466 0.360516 352.466 0.362559 352.465L0.371804 352.461L0.408792 352.447L0.556189 352.39C0.686869 352.339 0.882089 352.263 1.14012 352.164C1.65618 351.964 2.42348 351.668 3.42817 351.282C5.43754 350.509 8.39646 349.376 12.1941 347.934C19.7894 345.05 30.7396 340.929 44.1582 335.985C70.9957 326.095 107.706 312.91 147.197 299.724C186.689 286.539 228.957 273.355 266.913 263.468C304.882 253.578 338.489 247 360.678 247C411.596 247 448.628 253.588 478.716 263.459C508.808 273.333 531.974 286.496 555.181 299.685L555.194 299.692L555.195 299.692C578.395 312.876 601.637 326.085 631.829 335.991C662.032 345.9 699.17 352.5 750.178 352.5C822.545 352.5 932.888 342.749 1043.2 333L1043.22 332.998C1153.56 323.247 1263.86 313.5 1336.18 313.5C1367.35 313.5 1389.4 315.936 1404.95 319.581C1420.51 323.226 1429.51 328.072 1434.63 332.865C1439.72 337.643 1440.97 342.384 1440.97 345.907C1440.98 347.676 1440.66 349.15 1440.35 350.179C1440.19 350.693 1440.04 351.095 1439.92 351.366C1439.9 351.407 1439.89 351.444 1439.87 351.479L1439.85 351.519C1439.83 351.581 1439.8 351.632 1439.78 351.671C1439.77 351.705 1439.76 351.73 1439.75 351.746L1439.74 351.762L1439.74 351.765C1439.74 351.765 1439.74 351.765 1440.18 352C1440.62 352.235 1440.62 352.234 1440.62 352.234L1440.62 352.231L1440.63 352.224L1440.64 352.198C1440.65 352.176 1440.67 352.145 1440.68 352.105C1440.7 352.07 1440.72 352.027 1440.74 351.978C1440.77 351.915 1440.81 351.842 1440.84 351.758C1440.97 351.458 1441.14 351.022 1441.31 350.47C1441.64 349.366 1441.98 347.793 1441.97 345.906C1441.97 342.116 1440.62 337.107 1435.31 332.135C1430.02 327.178 1420.83 322.274 1405.18 318.607C1389.53 314.939 1367.39 312.5 1336.18 312.5C1263.81 312.5 1153.47 322.251 1043.16 332L1043.16 332L1043.13 332.002C932.797 341.753 822.496 351.5 750.178 351.5C699.26 351.5 662.229 344.912 632.141 335.041C602.049 325.167 578.883 312.004 555.675 298.815L555.663 298.808C532.463 285.624 509.22 272.416 479.027 262.509C448.825 252.6 411.687 246 360.678 246ZM360.678 267C338.348 267 304.632 273.61 266.661 283.501C228.675 293.395 186.383 306.586 146.88 319.776C107.376 332.965 70.6563 346.155 43.8124 356.046C30.3904 360.992 19.4371 365.114 11.8391 367.999C8.0401 369.442 5.07991 370.576 3.06933 371.348C2.06405 371.735 1.29616 372.031 0.779534 372.231L0.194763 372.457L0.0469547 372.515L0.00976283 372.529L0.000415987 372.533C-0.00167696 372.534 -0.00273774 372.534 0.178384 373C0.359506 373.466 0.360516 373.466 0.362559 373.465L0.371804 373.461L0.408792 373.447L0.556189 373.39C0.686869 373.339 0.882089 373.263 1.14012 373.164C1.65618 372.964 2.42348 372.668 3.42817 372.282C5.43754 371.509 8.39646 370.376 12.1941 368.934C19.7894 366.05 30.7396 361.929 44.1582 356.985C70.9957 347.095 107.706 333.91 147.197 320.724C186.689 307.539 228.957 294.355 266.913 284.468C304.882 274.578 338.489 268 360.678 268C411.596 268 448.628 274.588 478.716 284.459C508.808 294.333 531.974 307.496 555.181 320.685L555.194 320.692L555.195 320.692C578.395 333.876 601.637 347.085 631.829 356.991C662.032 366.9 699.17 373.5 750.178 373.5C822.545 373.5 932.888 363.749 1043.2 354L1043.22 353.998C1153.56 344.247 1263.86 334.5 1336.18 334.5C1367.35 334.5 1389.4 336.936 1404.95 340.581C1420.51 344.226 1429.51 349.072 1434.63 353.865C1439.72 358.643 1440.97 363.384 1440.97 366.907C1440.98 368.676 1440.66 370.15 1440.35 371.179C1440.19 371.693 1440.04 372.095 1439.92 372.366L1439.89 372.432L1439.87 372.483L1439.85 372.519C1439.83 372.581 1439.8 372.632 1439.78 372.671L1439.76 372.717L1439.75 372.746L1439.74 372.762L1439.74 372.765C1439.74 372.765 1439.74 372.765 1440.18 373C1440.62 373.235 1440.62 373.234 1440.62 373.234L1440.62 373.231L1440.63 373.224L1440.64 373.198C1440.65 373.176 1440.67 373.145 1440.68 373.105L1440.71 373.054L1440.72 373.025L1440.74 372.978C1440.77 372.915 1440.81 372.842 1440.84 372.758C1440.97 372.458 1441.14 372.022 1441.31 371.47C1441.64 370.366 1441.98 368.793 1441.97 366.906C1441.97 363.116 1440.62 358.107 1435.31 353.135C1430.02 348.178 1420.83 343.274 1405.18 339.607C1389.53 335.939 1367.39 333.5 1336.18 333.5C1263.81 333.5 1153.47 343.251 1043.16 353L1043.16 353L1043.13 353.002C932.797 362.753 822.496 372.5 750.178 372.5C699.26 372.5 662.229 365.912 632.141 356.041C602.049 346.167 578.883 333.004 555.675 319.815L555.663 319.808C532.463 306.624 509.22 293.416 479.027 283.509C448.825 273.6 411.687 267 360.678 267Z" fill="url(#paint0_linear_3029_7120)"/>
    <defs>
        <linearGradient id="paint0_linear_3029_7120" x1="369.5" y1="46.5" x2="554.247" y2="284.447" gradientUnits="userSpaceOnUse">
            <stop stop-color="#1F3891" stop-opacity="0"/>
            <stop offset="1" stop-color="#1F3891"/>
        </linearGradient>
    </defs>
</svg>
