<svg width="24" height="24" viewBox="0 0 24 24" fill="none"
    xmlns="http://www.w3.org/2000/svg">
    <path d="M7.19922 4.66565L10.6196 1.89375C11.0609 1.43177 12.0539 1.20078 12.7159 1.20078H16.9086C18.2326 1.20078 19.667 2.24024 19.998 3.62619L22.646 12.0574C23.1977 13.6743 22.2047 15.0602 20.5496 15.0602H16.1363C15.4743 15.0602 14.9226 15.6377 15.0329 16.4462L15.5846 20.1421C15.8053 21.1815 15.1433 22.3365 14.1503 22.683C13.2676 23.0294 12.1643 22.5675 11.7229 21.8745L7.19922 14.8293" fill="#5B94EA"/>
    <path d="M1.19922 4.41255V14.789C1.19922 16.2714 1.77522 16.8008 3.11922 16.8008H4.07922C5.42322 16.8008 5.99922 16.2714 5.99922 14.789V4.41255C5.99922 2.93019 5.42322 2.40078 4.07922 2.40078H3.11922C1.77522 2.40078 1.19922 2.93019 1.19922 4.41255Z" fill="#5B94EA"/>
</svg>
