<svg width="24" height="24" viewBox="0 0 24 24" fill="none"
    xmlns="http://www.w3.org/2000/svg">
    <path d="M7.19922 19.3344L10.6196 22.1062C11.0609 22.5682 12.0539 22.7992 12.7159 22.7992H16.9086C18.2326 22.7992 19.667 21.7598 19.998 20.3738L22.646 11.9426C23.1977 10.3257 22.2047 8.93975 20.5496 8.93975H16.1363C15.4743 8.93975 14.9226 8.36227 15.0329 7.55381L15.5846 3.85795C15.8053 2.81849 15.1433 1.66353 14.1503 1.31705C13.2676 0.970559 12.1643 1.43254 11.7229 2.12551L7.19922 9.17074" fill="#F84343"/>
    <path d="M1.19922 19.5875V9.21098C1.19922 7.72863 1.77522 7.19922 3.11922 7.19922H4.07922C5.42322 7.19922 5.99922 7.72863 5.99922 9.21098V19.5875C5.99922 21.0698 5.42322 21.5992 4.07922 21.5992H3.11922C1.77522 21.5992 1.19922 21.0698 1.19922 19.5875Z" fill="#F84343"/>
</svg>
