<svg width="24" height="24" viewBox="0 0 24 24" fill="none" xmlns="http://www.w3.org/2000/svg">
<path d="M1 5H23" stroke="#F84343" stroke-width="1.5" stroke-linecap="round" stroke-linejoin="round"/>
<path d="M14.25 1H9.75C9.35218 1 8.97064 1.15804 8.68934 1.43934C8.40804 1.72064 8.25 2.10218 8.25 2.5V5H15.75V2.5C15.75 2.10218 15.592 1.72064 15.3107 1.43934C15.0294 1.15804 14.6478 1 14.25 1Z" stroke="#F84343" stroke-width="1.5" stroke-linecap="round" stroke-linejoin="round"/>
<path fill-rule="evenodd" clip-rule="evenodd" d="M18.86 21.62C18.8322 21.9958 18.663 22.3471 18.3865 22.6032C18.1101 22.8592 17.7468 23.001 17.37 23H6.63C6.25317 23.001 5.88994 22.8592 5.61347 22.6032C5.337 22.3471 5.16782 21.9958 5.14 21.62L3.75 5H20.25L18.86 21.62ZM9.75 9.5C10.1642 9.5 10.5 9.83579 10.5 10.25V17.75C10.5 18.1642 10.1642 18.5 9.75 18.5C9.33579 18.5 9 18.1642 9 17.75V10.25C9 9.83579 9.33579 9.5 9.75 9.5ZM15 10.25C15 9.83579 14.6642 9.5 14.25 9.5C13.8358 9.5 13.5 9.83579 13.5 10.25V17.75C13.5 18.1642 13.8358 18.5 14.25 18.5C14.6642 18.5 15 18.1642 15 17.75V10.25Z" fill="#F84343"/>
</svg>
