<svg width="25" height="24" viewBox="0 0 25 24" fill="none" xmlns="http://www.w3.org/2000/svg">
<path d="M7.29688 6.3049C7.29688 5.00829 7.92902 3.76478 9.05423 2.84794C10.1795 1.93109 11.7056 1.41602 13.2969 1.41602C14.8882 1.41602 16.4143 1.93109 17.5395 2.84794C18.6647 3.76478 19.2969 5.00829 19.2969 6.3049V9.41602H7.29688V6.3049Z" stroke="#5B94EA" stroke-width="2" stroke-linecap="round" stroke-linejoin="round"/>
<path fill-rule="evenodd" clip-rule="evenodd" d="M21.6766 8.08549C22.0738 8.51414 22.2969 9.09552 22.2969 9.70173V21.1303C22.2969 21.7365 22.0738 22.3179 21.6766 22.7465C21.2795 23.1752 20.7409 23.416 20.1792 23.416H6.41452C5.85289 23.416 5.31426 23.1752 4.91712 22.7465C4.51998 22.3179 4.29688 21.7365 4.29688 21.1303V9.70173C4.29688 9.09552 4.51998 8.51414 4.91712 8.08549C5.31426 7.65683 5.85289 7.41602 6.41452 7.41602H20.1792C20.7409 7.41602 21.2795 7.65683 21.6766 8.08549ZM11.1756 17.5373C10.6129 16.9747 10.2969 16.2117 10.2969 15.416C10.2969 14.6204 10.6129 13.8573 11.1756 13.2947C11.7382 12.7321 12.5012 12.416 13.2969 12.416C14.0925 12.416 14.8556 12.7321 15.4182 13.2947C15.9808 13.8573 16.2969 14.6204 16.2969 15.416C16.2969 16.2117 15.9808 16.9747 15.4182 17.5373C14.8556 18.0999 14.0925 18.416 13.2969 18.416C12.5012 18.416 11.7382 18.0999 11.1756 17.5373Z" fill="#5B94EA"/>
</svg>
