<svg width="22" height="14" viewBox="0 0 22 14" fill="none" xmlns="http://www.w3.org/2000/svg">
  <path fill-rule="evenodd" clip-rule="evenodd" d="M22 7C22 6.56684 21.8444 6.14906 21.5632 5.8275C19.7829 3.85 15.7305 0 11 0C6.26947 0 2.21714 3.85 0.436835 5.8275C0.155648 6.14906 0 6.56684 0 7C0 7.43316 0.155648 7.85094 0.436835 8.1725C2.21714 10.15 6.26947 14 11 14C15.7305 14 19.7829 10.15 21.5632 8.1725C21.8444 7.85094 22 7.43316 22 7ZM14.6089 7.26923C14.6089 9.35092 13.0419 11.0385 11.1089 11.0385C9.17589 11.0385 7.60889 9.35092 7.60889 7.26923C7.60889 5.18754 9.17589 3.5 11.1089 3.5C13.0419 3.5 14.6089 5.18754 14.6089 7.26923Z" fill="#4360F8" />
</svg>