<svg width="22" height="22" viewBox="0 0 22 22" fill="none" xmlns="http://www.w3.org/2000/svg">
  <path fill-rule="evenodd" clip-rule="evenodd" d="M21.2625 1.54806C21.5942 1.18927 21.5891 0.612893 21.2513 0.260693C20.9135 -0.0915072 20.3708 -0.0861623 20.0392 0.272631L15.5033 5.1802C14.1208 4.53044 12.5991 4.09655 11 4.09655C6.26947 4.09655 2.21714 7.89345 0.436835 9.84367C0.155648 10.1608 0 10.5728 0 11C0 11.4272 0.155648 11.8392 0.436835 12.1563C1.43906 13.2542 3.16133 14.9373 5.31928 16.1988L1.38831 20.4519C1.0567 20.8107 1.06173 21.3871 1.39955 21.7393C1.73738 22.0915 2.28007 22.0862 2.61169 21.7274L21.2625 1.54806ZM8.10865 13.1809L12.8564 8.04404C12.3422 7.72871 11.7454 7.54828 11.1089 7.54828C9.17589 7.54828 7.60889 9.21254 7.60889 11.2655C7.60889 11.9661 7.79139 12.6215 8.10865 13.1809Z" fill="#4360F8" />
  <path d="M11.1089 14.9828C10.8856 14.9828 10.6673 14.9606 10.4557 14.9181L8.11506 17.4506C9.03666 17.7349 10.0033 17.9034 11 17.9034C15.7305 17.9034 19.7829 14.1066 21.5632 12.1563C21.8444 11.8392 22 11.4272 22 11C22 10.5728 21.8444 10.1608 21.5632 9.84367C20.7842 8.99039 19.5704 7.7836 18.055 6.69599L14.5354 10.5041C14.5836 10.7499 14.6089 11.0045 14.6089 11.2655C14.6089 13.3185 13.0419 14.9828 11.1089 14.9828Z" fill="#4360F8" />
</svg>