<svg width="24" height="24" viewBox="0 0 24 24" fill="none" xmlns="http://www.w3.org/2000/svg">
  <path d="M23.3724 17.6136L20.0231 14.2643C18.8269 13.0681 16.7934 13.5467 16.315 15.1016C15.9561 16.1782 14.76 16.7763 13.6834 16.537C11.2911 15.9389 8.06141 12.8289 7.46333 10.317C7.10448 9.24035 7.82218 8.04418 8.89873 7.68538C10.4537 7.20691 10.9322 5.17343 9.73605 3.97726L6.38677 0.627988C5.42984 -0.209329 3.99444 -0.209329 3.15712 0.627988L0.8844 2.90071C-1.38832 5.29305 1.12363 11.6327 6.74563 17.2547C12.3676 22.8767 18.7073 25.5083 21.0996 23.116L23.3724 20.8432C24.2097 19.8863 24.2097 18.4509 23.3724 17.6136Z" fill="#5B94EA" />
</svg>