<svg width="1296" height="374" viewBox="0 0 1296 374" fill="none" xmlns="http://www.w3.org/2000/svg">
<path fill-rule="evenodd" clip-rule="evenodd" d="M125.661 -3.4109e-05C101.515 -3.19981e-05 65.049 6.60736 23.9706 16.4982C-17.121 26.3923 -62.8714 39.5832 -105.605 52.7722C-148.341 65.9616 -188.064 79.1507 -217.104 89.0423C-231.624 93.9882 -243.473 98.1098 -251.693 100.995C-255.803 102.438 -259.005 103.571 -261.18 104.344C-262.267 104.731 -263.098 105.027 -263.657 105.227C-263.936 105.326 -264.148 105.402 -264.289 105.453L-264.449 105.51L-264.49 105.525L-264.5 105.528C-264.502 105.529 -264.503 105.529 -264.334 106C-264.165 106.471 -264.164 106.47 -264.162 106.469L-264.152 106.466L-264.112 106.451L-263.952 106.394C-263.811 106.344 -263.599 106.268 -263.32 106.168C-262.762 105.969 -261.932 105.673 -260.845 105.286C-258.671 104.514 -255.47 103.381 -251.362 101.939C-243.145 99.0543 -231.298 94.9337 -216.782 89.9889C-187.748 80.0993 -148.034 66.9134 -105.311 53.7278C-62.5864 40.5418 -16.8582 27.3576 24.2047 17.4705C65.2809 7.58009 101.645 0.999968 125.661 0.999966C180.753 0.999961 220.822 7.58847 253.38 17.4628C285.941 27.3381 311.007 40.5044 336.113 53.6926L336.125 53.6991L336.126 53.6996C361.225 66.8841 386.364 80.0898 419.021 89.994C451.686 99.901 491.855 106.5 547.029 106.5C625.314 106.5 744.683 96.7487 864.02 87.0001L864.043 86.9982C983.407 77.2475 1102.74 67.4999 1180.97 67.4999C1214.7 67.4999 1238.57 69.9362 1255.39 73.5823C1272.23 77.2296 1281.98 82.0797 1287.52 86.8778C1293.04 91.6599 1294.38 96.3981 1294.39 99.9064C1294.39 101.671 1294.05 103.141 1293.71 104.168C1293.54 104.681 1293.37 105.082 1293.25 105.353C1293.19 105.488 1293.14 105.59 1293.1 105.657L1293.08 105.69L1293.06 105.731L1293.05 105.748L1293.05 105.751C1293.05 105.751 1293.05 105.75 1293.48 106C1293.92 106.249 1293.92 106.249 1293.92 106.248L1293.92 106.245L1293.92 106.238L1293.94 106.212L1293.96 106.167L1293.99 106.119C1294.03 106.038 1294.09 105.922 1294.16 105.771C1294.3 105.47 1294.48 105.034 1294.66 104.48C1295.02 103.374 1295.39 101.798 1295.39 99.9058C1295.38 96.1016 1293.91 91.0899 1288.17 86.1219C1282.46 81.17 1272.52 76.2701 1255.61 72.605C1238.68 68.9386 1214.74 66.4999 1180.97 66.4999C1102.69 66.4999 983.322 76.251 863.985 85.9996L863.961 86.0016C744.597 95.7523 625.268 105.5 547.029 105.5C491.938 105.5 451.869 98.9114 419.311 89.0371C386.75 79.1618 361.684 65.9955 336.578 52.8073L336.566 52.8008L336.565 52.8002C311.466 39.6158 286.326 26.4101 253.67 16.5059C221.005 6.59894 180.836 -3.89325e-05 125.661 -3.4109e-05ZM23.9726 35.9982C65.0509 26.1074 101.517 19.5 125.663 19.5C180.838 19.5 221.007 26.0989 253.672 36.0059C286.328 45.9101 311.468 59.1158 336.567 72.3003L336.568 72.3008L336.58 72.3073C361.686 85.4955 386.752 98.6618 419.313 108.537C451.871 118.411 491.94 125 547.031 125C625.27 125 744.599 115.252 863.963 105.502L863.987 105.5C983.324 95.751 1102.69 85.9999 1180.98 85.9999C1214.74 85.9999 1238.69 88.4386 1255.61 92.105C1272.52 95.7701 1282.46 100.67 1288.18 105.622C1293.91 110.59 1295.39 115.602 1295.39 119.406C1295.39 121.298 1295.03 122.874 1294.66 123.98C1294.48 124.534 1294.3 124.97 1294.16 125.271C1294.09 125.422 1294.03 125.538 1293.99 125.619C1293.97 125.659 1293.95 125.69 1293.94 125.712L1293.93 125.738L1293.92 125.745L1293.92 125.748C1293.92 125.749 1293.92 125.749 1293.49 125.5L1293.18 125.323C1293.05 125.25 1293.05 125.251 1293.05 125.251L1293.05 125.248L1293.06 125.231L1293.09 125.19L1293.1 125.157C1293.12 125.127 1293.14 125.089 1293.16 125.045C1293.19 124.991 1293.22 124.927 1293.25 124.853C1293.38 124.582 1293.54 124.181 1293.71 123.668C1294.05 122.641 1294.39 121.171 1294.39 119.406C1294.39 115.898 1293.04 111.16 1287.52 106.378C1281.98 101.58 1272.23 96.7296 1255.4 93.0823C1238.57 89.4362 1214.7 86.9999 1180.98 86.9999C1102.74 86.9999 983.409 96.7475 864.045 106.498L864.022 106.5C744.685 116.249 625.316 126 547.031 126C491.857 126 451.688 119.401 419.023 109.494C386.366 99.5898 361.227 86.3841 336.128 73.1996L336.127 73.1991L336.115 73.1926C311.009 60.0044 285.943 46.8381 253.382 36.9628C220.824 27.0885 180.755 20.5 125.663 20.5C101.647 20.5 65.2829 27.0801 24.2067 36.9705C-16.8563 46.8576 -62.5845 60.0418 -105.309 73.2278C-148.032 86.4134 -187.746 99.5993 -216.78 109.489C-231.296 114.434 -243.143 118.554 -251.36 121.439C-255.468 122.881 -258.669 124.014 -260.843 124.786C-261.93 125.173 -262.76 125.469 -263.318 125.668C-263.598 125.768 -263.809 125.844 -263.95 125.894L-264.11 125.951L-264.15 125.966L-264.16 125.969C-264.162 125.97 -264.163 125.971 -264.332 125.5C-264.501 125.029 -264.5 125.029 -264.498 125.028L-264.488 125.025L-264.447 125.01L-264.287 124.953C-264.146 124.902 -263.934 124.826 -263.655 124.727C-263.096 124.527 -262.265 124.231 -261.178 123.844C-259.003 123.071 -255.801 121.938 -251.691 120.495C-243.471 117.61 -231.622 113.488 -217.102 108.542C-188.062 98.6507 -148.339 85.4616 -105.604 72.2722C-62.8694 59.0832 -17.119 45.8923 23.9726 35.9982ZM125.661 39C101.515 39 65.049 45.6074 23.9706 55.4982C-17.121 65.3923 -62.8714 78.5832 -105.605 91.7722C-148.341 104.962 -188.064 118.151 -217.104 128.042C-231.624 132.988 -243.473 137.11 -251.693 139.995C-255.803 141.438 -259.005 142.571 -261.18 143.344C-262.267 143.73 -263.098 144.027 -263.657 144.227C-263.936 144.326 -264.148 144.402 -264.289 144.453L-264.449 144.51L-264.49 144.525L-264.5 144.528C-264.502 144.529 -264.503 144.529 -264.334 145C-264.165 145.471 -264.164 145.47 -264.162 145.469L-264.152 145.466L-264.112 145.451L-263.952 145.394C-263.811 145.344 -263.599 145.268 -263.32 145.168C-262.762 144.969 -261.932 144.673 -260.845 144.286C-258.671 143.514 -255.47 142.381 -251.362 140.939C-243.145 138.054 -231.298 133.934 -216.782 128.989C-187.748 119.099 -148.034 105.913 -105.311 92.7278C-62.5864 79.5418 -16.8582 66.3576 24.2047 56.4705C65.2809 46.5801 101.645 40 125.661 40C180.753 40 220.822 46.5885 253.38 56.4628C285.941 66.3381 311.007 79.5044 336.113 92.6926L336.125 92.6991L336.126 92.6996C361.225 105.884 386.364 119.09 419.021 128.994C451.686 138.901 491.855 145.5 547.029 145.5C625.314 145.5 744.683 135.749 864.02 126L864.043 125.998C983.407 116.247 1102.74 106.5 1180.97 106.5C1214.7 106.5 1238.57 108.936 1255.39 112.582C1272.23 116.23 1281.98 121.08 1287.52 125.878C1293.04 130.66 1294.38 135.398 1294.39 138.906C1294.39 140.671 1294.05 142.141 1293.71 143.168C1293.54 143.681 1293.37 144.082 1293.25 144.353C1293.19 144.488 1293.14 144.59 1293.1 144.657L1293.08 144.69L1293.06 144.731L1293.05 144.748L1293.05 144.751C1293.05 144.751 1293.05 144.75 1293.48 145C1293.92 145.249 1293.92 145.249 1293.92 145.248L1293.92 145.245L1293.92 145.238L1293.94 145.212C1293.95 145.19 1293.97 145.159 1293.99 145.119C1294 145.091 1294.02 145.058 1294.04 145.021C1294.07 144.952 1294.11 144.869 1294.16 144.771C1294.3 144.47 1294.48 144.034 1294.66 143.48C1295.02 142.374 1295.39 140.798 1295.39 138.906C1295.38 135.102 1293.91 130.09 1288.17 125.122C1282.46 120.17 1272.52 115.27 1255.61 111.605C1238.68 107.939 1214.74 105.5 1180.97 105.5C1102.69 105.5 983.322 115.251 863.985 125L863.961 125.002C744.597 134.752 625.268 144.5 547.029 144.5C491.938 144.5 451.869 137.911 419.311 128.037C386.75 118.162 361.684 104.995 336.578 91.8073L336.566 91.8008L336.565 91.8003C311.466 78.6158 286.326 65.4101 253.67 55.5059C221.005 45.5989 180.836 39 125.661 39ZM23.9726 74.9982C65.0509 65.1074 101.517 58.5 125.663 58.5C180.838 58.5 221.007 65.0989 253.672 75.0059C286.328 84.9101 311.468 98.1158 336.567 111.3L336.568 111.301L336.58 111.307C361.686 124.495 386.752 137.662 419.313 147.537C451.871 157.411 491.94 164 547.031 164C625.27 164 744.599 154.252 863.963 144.502L863.987 144.5C983.324 134.751 1102.69 125 1180.98 125C1214.74 125 1238.69 127.439 1255.61 131.105C1272.52 134.77 1282.46 139.67 1288.18 144.622C1293.91 149.59 1295.39 154.602 1295.39 158.406C1295.39 160.298 1295.03 161.874 1294.66 162.98C1294.48 163.534 1294.3 163.97 1294.16 164.271C1294.09 164.422 1294.03 164.538 1293.99 164.619C1293.97 164.659 1293.95 164.69 1293.94 164.712L1293.93 164.738L1293.92 164.745L1293.92 164.748C1293.92 164.749 1293.92 164.749 1293.49 164.5C1293.05 164.25 1293.05 164.251 1293.05 164.251L1293.05 164.248L1293.06 164.231L1293.09 164.19L1293.1 164.157C1293.14 164.09 1293.19 163.988 1293.25 163.853C1293.38 163.582 1293.54 163.181 1293.71 162.668C1294.05 161.641 1294.39 160.171 1294.39 158.406C1294.39 154.898 1293.04 150.16 1287.52 145.378C1281.98 140.58 1272.23 135.73 1255.4 132.082C1238.57 128.436 1214.7 126 1180.98 126C1102.74 126 983.409 135.747 864.045 145.498L864.022 145.5C744.685 155.249 625.316 165 547.031 165C491.857 165 451.688 158.401 419.023 148.494C386.366 138.59 361.227 125.384 336.128 112.2L336.127 112.199L336.115 112.193C311.009 99.0044 285.943 85.8381 253.382 75.9628C220.824 66.0885 180.755 59.5 125.663 59.5C101.647 59.5 65.2829 66.0801 24.2067 75.9705C-16.8563 85.8576 -62.5844 99.0418 -105.309 112.228C-148.032 125.413 -187.746 138.599 -216.78 148.489C-231.296 153.434 -243.143 157.554 -251.36 160.439C-255.468 161.881 -258.669 163.014 -260.843 163.786C-261.93 164.173 -262.76 164.469 -263.318 164.668C-263.598 164.768 -263.809 164.844 -263.95 164.894L-264.11 164.951L-264.15 164.966L-264.16 164.969C-264.162 164.97 -264.163 164.971 -264.332 164.5C-264.501 164.029 -264.5 164.029 -264.498 164.028L-264.488 164.025L-264.447 164.01L-264.287 163.953C-264.146 163.902 -263.934 163.826 -263.655 163.727C-263.096 163.527 -262.265 163.23 -261.178 162.844C-259.003 162.071 -255.801 160.938 -251.691 159.495C-243.471 156.61 -231.622 152.488 -217.102 147.542C-188.062 137.651 -148.339 124.462 -105.604 111.272C-62.8694 98.0832 -17.119 84.8923 23.9726 74.9982ZM125.661 78C101.515 78 65.049 84.6074 23.9706 94.4982C-17.121 104.392 -62.8714 117.583 -105.605 130.772C-148.341 143.962 -188.064 157.151 -217.104 167.042C-231.624 171.988 -243.473 176.11 -251.693 178.995C-255.803 180.438 -259.005 181.571 -261.18 182.344C-262.267 182.73 -263.098 183.027 -263.657 183.227C-263.936 183.326 -264.148 183.402 -264.289 183.453L-264.449 183.51L-264.49 183.525L-264.5 183.528C-264.502 183.529 -264.503 183.529 -264.334 184C-264.165 184.471 -264.164 184.47 -264.162 184.469L-264.152 184.466L-264.112 184.451L-263.952 184.394C-263.811 184.344 -263.599 184.268 -263.32 184.168C-262.762 183.969 -261.932 183.673 -260.845 183.286C-258.671 182.514 -255.47 181.381 -251.362 179.939C-243.145 177.054 -231.298 172.934 -216.782 167.989C-187.748 158.099 -148.034 144.913 -105.311 131.728C-62.5864 118.542 -16.8582 105.358 24.2047 95.4705C65.2809 85.5801 101.645 79 125.661 79C180.753 79 220.822 85.5885 253.38 95.4628C285.941 105.338 311.007 118.504 336.113 131.693L336.125 131.699L336.126 131.7L336.127 131.7C361.226 144.884 386.365 158.09 419.021 167.994C451.686 177.901 491.855 184.5 547.029 184.5C625.314 184.5 744.683 174.749 864.02 165L864.043 164.998C983.407 155.247 1102.74 145.5 1180.97 145.5C1214.7 145.5 1238.57 147.936 1255.39 151.582C1272.23 155.23 1281.98 160.08 1287.52 164.878C1293.04 169.66 1294.38 174.398 1294.39 177.906C1294.39 179.671 1294.05 181.141 1293.71 182.168C1293.54 182.681 1293.37 183.082 1293.25 183.353C1293.19 183.488 1293.14 183.59 1293.1 183.657L1293.08 183.69L1293.06 183.731L1293.05 183.748L1293.05 183.751C1293.05 183.751 1293.05 183.75 1293.48 184C1293.92 184.249 1293.92 184.249 1293.92 184.248L1293.92 184.245L1293.92 184.238L1293.94 184.212L1293.97 184.159L1293.99 184.119C1294.02 184.063 1294.05 183.991 1294.1 183.902L1294.12 183.849L1294.14 183.798L1294.16 183.771C1294.3 183.47 1294.48 183.034 1294.66 182.48C1295.02 181.374 1295.39 179.798 1295.39 177.906C1295.38 174.102 1293.91 169.09 1288.17 164.122C1282.46 159.17 1272.52 154.27 1255.61 150.605C1238.68 146.939 1214.74 144.5 1180.97 144.5C1102.69 144.5 983.322 154.251 863.985 164L863.961 164.002C744.597 173.752 625.268 183.5 547.029 183.5C491.938 183.5 451.869 176.911 419.311 167.037C386.75 157.162 361.684 143.995 336.578 130.807L336.566 130.801L336.565 130.8C311.466 117.616 286.326 104.41 253.67 94.5059C221.005 84.5989 180.836 78 125.661 78ZM23.9706 115.498C65.049 105.607 101.515 99 125.661 99C180.836 99 221.005 105.599 253.67 115.506C286.326 125.41 311.466 138.616 336.565 151.8L336.566 151.801L336.578 151.807C361.684 164.995 386.75 178.162 419.311 188.037C451.869 197.911 491.938 204.5 547.029 204.5C625.268 204.5 744.597 194.752 863.961 185.002L863.985 185C983.322 175.251 1102.69 165.5 1180.97 165.5C1214.74 165.5 1238.68 167.939 1255.61 171.605C1272.52 175.27 1282.46 180.17 1288.17 185.122C1293.91 190.09 1295.38 195.102 1295.39 198.906C1295.39 200.798 1295.02 202.374 1294.66 203.48C1294.48 204.034 1294.3 204.47 1294.16 204.771C1294.09 204.922 1294.03 205.038 1293.99 205.119L1293.96 205.169L1293.94 205.212L1293.92 205.238L1293.92 205.245L1293.92 205.248C1293.92 205.248 1293.92 205.248 1293.91 205.246L1293.88 205.227L1293.82 205.196L1293.48 205C1293.05 204.75 1293.05 204.751 1293.05 204.751L1293.05 204.748L1293.06 204.731L1293.08 204.69L1293.1 204.657C1293.14 204.59 1293.19 204.488 1293.25 204.353C1293.37 204.082 1293.54 203.681 1293.71 203.168C1294.05 202.141 1294.39 200.671 1294.39 198.906C1294.38 195.398 1293.04 190.66 1287.52 185.878C1281.98 181.08 1272.23 176.23 1255.39 172.582C1238.57 168.936 1214.7 166.5 1180.97 166.5C1102.74 166.5 983.407 176.247 864.043 185.998L864.02 186C744.683 195.749 625.314 205.5 547.029 205.5C491.855 205.5 451.686 198.901 419.021 188.994C386.365 179.09 361.226 165.884 336.127 152.7L336.126 152.7L336.125 152.699L336.113 152.693C311.007 139.504 285.941 126.338 253.38 116.463C220.822 106.588 180.753 100 125.661 100C101.645 100 65.2809 106.58 24.2047 116.47C-16.8582 126.358 -62.5864 139.542 -105.311 152.728C-148.034 165.913 -187.748 179.099 -216.782 188.989C-231.298 193.934 -243.145 198.054 -251.362 200.939C-255.47 202.381 -258.671 203.514 -260.845 204.286C-261.932 204.673 -262.762 204.969 -263.32 205.168C-263.599 205.268 -263.811 205.344 -263.952 205.394L-264.112 205.451L-264.152 205.466L-264.162 205.469C-264.164 205.47 -264.165 205.471 -264.334 205C-264.503 204.529 -264.502 204.529 -264.5 204.528L-264.49 204.525L-264.449 204.51L-264.289 204.453C-264.148 204.402 -263.936 204.326 -263.657 204.227C-263.098 204.027 -262.267 203.73 -261.18 203.344C-259.005 202.571 -255.803 201.438 -251.693 199.995C-243.473 197.11 -231.624 192.988 -217.104 188.042C-188.064 178.151 -148.341 164.962 -105.605 151.772C-62.8714 138.583 -17.121 125.392 23.9706 115.498ZM125.661 120C101.515 120 65.049 126.607 23.9706 136.498C-17.121 146.392 -62.8714 159.583 -105.605 172.772C-148.341 185.962 -188.064 199.151 -217.104 209.042C-231.624 213.988 -243.473 218.11 -251.693 220.995C-255.803 222.438 -259.005 223.571 -261.18 224.344C-262.267 224.73 -263.098 225.027 -263.657 225.227C-263.936 225.326 -264.148 225.402 -264.289 225.453L-264.449 225.51L-264.49 225.525L-264.5 225.528C-264.502 225.529 -264.503 225.529 -264.334 226C-264.165 226.471 -264.164 226.47 -264.162 226.469L-264.152 226.466L-264.112 226.451L-263.952 226.394C-263.811 226.344 -263.599 226.268 -263.32 226.168C-262.762 225.969 -261.932 225.673 -260.845 225.286C-258.671 224.514 -255.47 223.381 -251.362 221.939C-243.145 219.054 -231.298 214.934 -216.782 209.989C-187.748 200.099 -148.034 186.913 -105.311 173.728C-62.5864 160.542 -16.8582 147.358 24.2047 137.47C65.2809 127.58 101.645 121 125.661 121C180.753 121 220.822 127.588 253.38 137.463C285.941 147.338 311.007 160.504 336.113 173.693L336.125 173.699L336.126 173.7L336.127 173.7C361.226 186.884 386.365 200.09 419.021 209.994C451.686 219.901 491.855 226.5 547.029 226.5C625.314 226.5 744.683 216.749 864.02 207L864.043 206.998C983.407 197.247 1102.74 187.5 1180.97 187.5C1214.7 187.5 1238.57 189.936 1255.39 193.582C1272.23 197.23 1281.98 202.08 1287.52 206.878C1293.04 211.66 1294.38 216.398 1294.39 219.906C1294.39 221.671 1294.05 223.141 1293.71 224.168C1293.54 224.681 1293.37 225.082 1293.25 225.353C1293.19 225.488 1293.14 225.59 1293.1 225.657L1293.08 225.69L1293.06 225.731L1293.05 225.748L1293.05 225.751C1293.05 225.751 1293.05 225.75 1293.48 226C1293.92 226.249 1293.92 226.249 1293.92 226.248L1293.92 226.245L1293.92 226.238L1293.94 226.212L1293.96 226.163L1293.99 226.119C1294.03 226.038 1294.09 225.922 1294.16 225.771C1294.3 225.47 1294.48 225.034 1294.66 224.48C1295.02 223.374 1295.39 221.798 1295.39 219.906C1295.38 216.102 1293.91 211.09 1288.17 206.122C1282.46 201.17 1272.52 196.27 1255.61 192.605C1238.68 188.939 1214.74 186.5 1180.97 186.5C1102.69 186.5 983.322 196.251 863.985 206L863.961 206.002C744.597 215.752 625.268 225.5 547.029 225.5C491.938 225.5 451.869 218.911 419.311 209.037C386.75 199.162 361.684 185.995 336.578 172.807L336.566 172.801L336.565 172.8C311.466 159.616 286.326 146.41 253.67 136.506C221.005 126.599 180.836 120 125.661 120ZM23.9706 157.498C65.049 147.607 101.515 141 125.661 141C180.836 141 221.005 147.599 253.67 157.506C286.326 167.41 311.466 180.616 336.565 193.8L336.566 193.801L336.578 193.807C361.684 206.995 386.75 220.162 419.311 230.037C451.869 239.911 491.938 246.5 547.029 246.5C625.268 246.5 744.597 236.752 863.961 227.002L863.985 227C983.322 217.251 1102.69 207.5 1180.97 207.5C1214.74 207.5 1238.68 209.939 1255.61 213.605C1272.52 217.27 1282.46 222.17 1288.17 227.122C1293.91 232.09 1295.38 237.102 1295.39 240.906C1295.39 242.798 1295.02 244.374 1294.66 245.48C1294.48 246.034 1294.3 246.47 1294.16 246.771C1294.09 246.922 1294.03 247.038 1293.99 247.119C1293.97 247.159 1293.95 247.19 1293.94 247.212L1293.92 247.238L1293.92 247.245L1293.92 247.248C1293.92 247.249 1293.92 247.249 1293.48 247L1293.09 246.773L1293.05 246.751L1293.05 246.748L1293.06 246.731L1293.08 246.69L1293.1 246.657C1293.14 246.59 1293.19 246.488 1293.25 246.353C1293.37 246.082 1293.54 245.681 1293.71 245.168C1294.05 244.141 1294.39 242.671 1294.39 240.906C1294.38 237.398 1293.04 232.66 1287.52 227.878C1281.98 223.08 1272.23 218.23 1255.39 214.582C1238.57 210.936 1214.7 208.5 1180.97 208.5C1102.74 208.5 983.407 218.247 864.043 227.998L864.02 228C744.683 237.749 625.314 247.5 547.029 247.5C491.855 247.5 451.686 240.901 419.021 230.994C386.365 221.09 361.226 207.884 336.127 194.7L336.126 194.7L336.125 194.699L336.113 194.693C311.007 181.504 285.941 168.338 253.38 158.463C220.822 148.588 180.753 142 125.661 142C101.645 142 65.2809 148.58 24.2047 158.47C-16.8582 168.358 -62.5864 181.542 -105.311 194.728C-148.034 207.913 -187.748 221.099 -216.782 230.989C-231.298 235.934 -243.145 240.054 -251.362 242.939C-255.47 244.381 -258.671 245.514 -260.845 246.286C-261.932 246.673 -262.762 246.969 -263.32 247.168C-263.599 247.268 -263.811 247.344 -263.952 247.394L-264.112 247.451L-264.152 247.466L-264.162 247.469C-264.164 247.47 -264.165 247.471 -264.334 247C-264.503 246.529 -264.502 246.529 -264.5 246.528L-264.49 246.525L-264.449 246.51L-264.289 246.453C-264.148 246.402 -263.936 246.326 -263.657 246.227C-263.098 246.027 -262.267 245.73 -261.18 245.344C-259.005 244.571 -255.803 243.438 -251.693 241.995C-243.473 239.11 -231.624 234.988 -217.104 230.042C-188.064 220.151 -148.341 206.962 -105.605 193.772C-62.8714 180.583 -17.121 167.392 23.9706 157.498ZM125.661 162C101.515 162 65.049 168.607 23.9706 178.498C-17.121 188.392 -62.8714 201.583 -105.605 214.772C-148.341 227.962 -188.064 241.151 -217.104 251.042C-231.624 255.988 -243.473 260.11 -251.693 262.995C-255.803 264.438 -259.005 265.571 -261.18 266.344C-262.267 266.73 -263.098 267.027 -263.657 267.227L-264.25 267.439L-264.289 267.453L-264.449 267.51L-264.49 267.525L-264.5 267.528C-264.502 267.529 -264.503 267.529 -264.334 268C-264.165 268.471 -264.164 268.47 -264.162 268.469L-264.152 268.466L-264.112 268.451L-263.952 268.394C-263.811 268.344 -263.599 268.268 -263.32 268.168C-262.762 267.969 -261.932 267.673 -260.845 267.286C-258.671 266.514 -255.47 265.381 -251.362 263.939C-243.145 261.054 -231.298 256.934 -216.782 251.989C-187.748 242.099 -148.034 228.913 -105.311 215.728C-62.5864 202.542 -16.8582 189.358 24.2047 179.47C65.2809 169.58 101.645 163 125.661 163C180.753 163 220.822 169.588 253.38 179.463C285.941 189.338 311.007 202.504 336.113 215.693L336.125 215.699L336.126 215.7L336.127 215.7C361.226 228.884 386.365 242.09 419.021 251.994C451.686 261.901 491.855 268.5 547.029 268.5C625.314 268.5 744.683 258.749 864.02 249L864.043 248.998C983.407 239.247 1102.74 229.5 1180.97 229.5C1214.7 229.5 1238.57 231.936 1255.39 235.582C1272.23 239.23 1281.98 244.08 1287.52 248.878C1293.04 253.66 1294.38 258.398 1294.39 261.906C1294.39 263.671 1294.05 265.141 1293.71 266.168C1293.54 266.681 1293.37 267.082 1293.25 267.353C1293.19 267.488 1293.14 267.59 1293.1 267.657L1293.08 267.69L1293.06 267.731L1293.05 267.748L1293.05 267.751C1293.05 267.751 1293.05 267.75 1293.48 268C1293.92 268.249 1293.92 268.249 1293.92 268.248L1293.92 268.245L1293.92 268.238L1293.94 268.212C1293.95 268.19 1293.97 268.159 1293.99 268.119C1294.03 268.038 1294.09 267.922 1294.16 267.771C1294.3 267.47 1294.48 267.034 1294.66 266.48C1295.02 265.374 1295.39 263.798 1295.39 261.906C1295.38 258.102 1293.91 253.09 1288.17 248.122C1282.46 243.17 1272.52 238.27 1255.61 234.605C1238.68 230.939 1214.74 228.5 1180.97 228.5C1102.69 228.5 983.322 238.251 863.985 248L863.961 248.002C744.597 257.752 625.268 267.5 547.029 267.5C491.938 267.5 451.869 260.911 419.311 251.037C386.75 241.162 361.684 227.995 336.578 214.807L336.566 214.801L336.565 214.8C311.466 201.616 286.326 188.41 253.67 178.506C221.005 168.599 180.836 162 125.661 162ZM23.9707 199.498C65.0491 189.608 101.515 183 125.661 183C180.836 183 221.005 189.599 253.67 199.506C286.327 209.41 311.466 222.616 336.565 235.8L336.566 235.801L336.578 235.807C361.684 248.996 386.75 262.162 419.311 272.037C451.869 281.912 491.938 288.5 547.03 288.5C625.268 288.5 744.598 278.753 863.961 269.002L863.985 269C983.322 259.251 1102.69 249.5 1180.97 249.5C1214.74 249.5 1238.68 251.939 1255.61 255.605C1272.52 259.27 1282.46 264.17 1288.17 269.122C1293.91 274.09 1295.38 279.102 1295.39 282.906C1295.39 284.798 1295.02 286.375 1294.66 287.481C1294.48 288.034 1294.3 288.47 1294.16 288.771C1294.09 288.922 1294.03 289.038 1293.99 289.119C1293.97 289.159 1293.95 289.19 1293.94 289.212L1293.92 289.238L1293.92 289.246L1293.92 289.248C1293.92 289.249 1293.92 289.249 1293.7 289.123L1293.48 289C1293.05 288.75 1293.05 288.751 1293.05 288.751L1293.05 288.748L1293.06 288.731L1293.08 288.69L1293.1 288.657C1293.14 288.59 1293.19 288.488 1293.25 288.353C1293.37 288.082 1293.54 287.681 1293.71 287.168C1294.05 286.141 1294.39 284.671 1294.39 282.907C1294.38 279.398 1293.04 274.66 1287.52 269.878C1281.98 265.08 1272.23 260.23 1255.39 256.582C1238.57 252.936 1214.7 250.5 1180.97 250.5C1102.74 250.5 983.407 260.248 864.043 269.998L864.02 270C744.683 279.749 625.314 289.5 547.03 289.5C491.855 289.5 451.686 282.901 419.021 272.994C386.365 263.09 361.226 249.885 336.127 236.7L336.126 236.7L336.125 236.699L336.113 236.693C311.007 223.505 285.941 210.338 253.38 200.463C220.822 190.589 180.753 184 125.661 184C101.645 184 65.281 190.58 24.2048 200.471C-16.8581 210.358 -62.5863 223.542 -105.31 236.728C-148.034 249.914 -187.748 263.1 -216.782 272.989C-231.298 277.934 -243.145 282.054 -251.361 284.939C-255.47 286.381 -258.671 287.514 -260.845 288.286C-261.932 288.673 -262.762 288.969 -263.32 289.168C-263.599 289.268 -263.811 289.344 -263.952 289.394L-264.111 289.452L-264.151 289.466L-264.161 289.47C-264.164 289.47 -264.165 289.471 -264.334 289C-264.503 288.53 -264.502 288.529 -264.499 288.528L-264.489 288.525L-264.449 288.51L-264.289 288.453L-264.25 288.439L-263.657 288.227C-263.098 288.027 -262.267 287.731 -261.18 287.344C-259.005 286.571 -255.802 285.438 -251.693 283.995C-243.473 281.11 -231.624 276.988 -217.104 272.043C-188.064 262.151 -148.34 248.962 -105.605 235.772C-62.8713 222.583 -17.1209 209.393 23.9707 199.498ZM125.662 204C101.515 204 65.0492 210.607 23.9708 220.498C-17.1208 230.392 -62.8712 243.583 -105.605 256.772C-148.34 269.962 -188.064 283.151 -217.104 293.042C-231.624 297.988 -243.473 302.11 -251.693 304.995C-255.802 306.438 -259.005 307.571 -261.18 308.344C-262.267 308.731 -263.098 309.027 -263.657 309.227C-263.936 309.326 -264.148 309.402 -264.289 309.453L-264.449 309.51L-264.489 309.525L-264.499 309.528C-264.502 309.529 -264.503 309.53 -264.334 310C-264.165 310.471 -264.164 310.47 -264.161 310.469L-264.151 310.466L-264.111 310.452L-263.952 310.394C-263.81 310.344 -263.599 310.268 -263.32 310.168C-262.762 309.969 -261.932 309.673 -260.845 309.286C-258.671 308.514 -255.47 307.381 -251.361 305.939C-243.144 303.054 -231.298 298.934 -216.781 293.989C-187.748 284.099 -148.034 270.914 -105.31 257.728C-62.5862 244.542 -16.858 231.358 24.2049 221.471C65.2811 211.58 101.645 205 125.662 205C180.753 205 220.822 211.589 253.38 221.463C285.941 231.338 311.007 244.505 336.113 257.693L336.125 257.699L336.126 257.7C361.225 270.884 386.365 284.09 419.021 293.994C451.686 303.901 491.855 310.5 547.03 310.5C625.313 310.5 744.681 300.749 864.017 291L864.018 291L864.02 291L864.043 290.998C983.407 281.248 1102.74 271.5 1180.97 271.5C1214.7 271.5 1238.57 273.936 1255.39 277.582C1272.23 281.23 1281.98 286.08 1287.52 290.878C1293.04 295.66 1294.38 300.398 1294.39 303.907C1294.39 305.671 1294.05 307.141 1293.71 308.168C1293.54 308.681 1293.37 309.082 1293.25 309.353C1293.22 309.425 1293.19 309.489 1293.16 309.542C1293.14 309.588 1293.12 309.626 1293.1 309.657L1293.08 309.69L1293.06 309.731L1293.05 309.748L1293.05 309.751C1293.05 309.751 1293.05 309.75 1293.48 310C1293.71 310.13 1293.82 310.192 1293.87 310.222C1293.92 310.249 1293.92 310.248 1293.92 310.248L1293.92 310.246L1293.92 310.238L1293.94 310.212L1293.97 310.162L1293.99 310.119L1294.01 310.075L1294.03 310.037C1294.07 309.966 1294.11 309.877 1294.16 309.771C1294.3 309.47 1294.48 309.034 1294.66 308.48C1295.02 307.375 1295.39 305.798 1295.39 303.906C1295.38 300.102 1293.91 295.09 1288.17 290.122C1282.46 285.17 1272.52 280.27 1255.61 276.605C1238.68 272.939 1214.74 270.5 1180.97 270.5C1102.69 270.5 983.322 280.251 863.985 290L863.962 290.002C744.598 299.752 625.268 309.5 547.03 309.5C491.938 309.5 451.869 302.912 419.311 293.037C386.75 283.162 361.684 269.996 336.578 256.807L336.566 256.801L336.565 256.8L336.564 256.8L336.563 256.8C311.465 243.615 286.326 230.41 253.67 220.506C221.005 210.599 180.836 204 125.662 204ZM23.9706 241.498C65.0489 231.607 101.515 225 125.661 225C180.836 225 221.005 231.599 253.67 241.506C286.326 251.41 311.466 264.616 336.564 277.8L336.566 277.801L336.578 277.807C361.684 290.996 386.75 304.162 419.311 314.037C451.869 323.912 491.938 330.5 547.029 330.5C625.268 330.5 744.597 320.752 863.961 311.002L863.985 311C983.322 301.251 1102.69 291.5 1180.97 291.5C1214.74 291.5 1238.68 293.939 1255.61 297.605C1272.52 301.27 1282.46 306.17 1288.17 311.122C1293.91 316.09 1295.38 321.102 1295.39 324.906C1295.39 326.798 1295.02 328.375 1294.66 329.48C1294.48 330.034 1294.3 330.47 1294.16 330.771C1294.13 330.84 1294.1 330.901 1294.07 330.956C1294.04 331.021 1294.01 331.075 1293.99 331.119C1293.97 331.159 1293.95 331.19 1293.94 331.212L1293.92 331.238L1293.92 331.246L1293.92 331.248C1293.92 331.248 1293.92 331.249 1293.88 331.227C1293.83 331.199 1293.72 331.138 1293.48 331C1293.05 330.75 1293.05 330.751 1293.05 330.751L1293.05 330.748L1293.06 330.731L1293.08 330.69L1293.1 330.657C1293.14 330.59 1293.19 330.488 1293.25 330.353C1293.37 330.082 1293.54 329.681 1293.71 329.168C1294.05 328.141 1294.39 326.671 1294.39 324.907C1294.38 321.398 1293.04 316.66 1287.52 311.878C1281.98 307.08 1272.23 302.23 1255.39 298.582C1238.57 294.936 1214.7 292.5 1180.97 292.5C1102.74 292.5 983.407 302.248 864.043 311.998L864.02 312C744.683 321.749 625.314 331.5 547.029 331.5C491.855 331.5 451.686 324.901 419.021 314.994C386.365 305.09 361.226 291.885 336.127 278.7L336.126 278.7L336.125 278.699L336.113 278.693C311.007 265.505 285.941 252.338 253.38 242.463C220.822 232.589 180.753 226 125.661 226C101.645 226 65.2809 232.58 24.2047 242.471C-16.8582 252.358 -62.5864 265.542 -105.311 278.728C-148.034 291.914 -187.748 305.099 -216.782 314.989C-231.298 319.934 -243.145 324.054 -251.362 326.939C-255.47 328.381 -258.671 329.514 -260.845 330.286C-261.932 330.673 -262.762 330.969 -263.32 331.168C-263.599 331.268 -263.811 331.344 -263.952 331.394L-264.112 331.452L-264.152 331.466L-264.162 331.469C-264.164 331.47 -264.165 331.471 -264.334 331C-264.503 330.53 -264.502 330.529 -264.5 330.528L-264.49 330.525L-264.449 330.51L-264.289 330.453L-264.25 330.439L-263.657 330.227C-263.098 330.027 -262.267 329.731 -261.18 329.344C-259.005 328.571 -255.803 327.438 -251.693 325.995C-243.473 323.11 -231.624 318.988 -217.104 314.042C-188.064 304.151 -148.341 290.962 -105.605 277.772C-62.8714 264.583 -17.121 251.392 23.9706 241.498ZM125.661 246C101.515 246 65.0489 252.607 23.9706 262.498C-17.121 272.392 -62.8714 285.583 -105.605 298.772C-148.341 311.962 -188.064 325.151 -217.104 335.042C-231.624 339.988 -243.473 344.11 -251.693 346.995C-255.803 348.438 -259.005 349.571 -261.18 350.344C-262.267 350.731 -263.098 351.027 -263.657 351.227L-264.25 351.439L-264.289 351.453L-264.449 351.51L-264.49 351.525L-264.5 351.528C-264.502 351.529 -264.503 351.53 -264.334 352C-264.165 352.471 -264.164 352.47 -264.162 352.469L-264.152 352.466L-264.112 352.451L-263.952 352.394C-263.811 352.344 -263.599 352.268 -263.32 352.168C-262.762 351.969 -261.932 351.673 -260.845 351.286C-258.671 350.514 -255.47 349.381 -251.362 347.939C-243.145 345.054 -231.298 340.934 -216.782 335.989C-187.748 326.099 -148.034 312.913 -105.311 299.728C-62.5864 286.542 -16.8582 273.358 24.2047 263.471C65.2809 253.58 101.645 247 125.661 247C180.753 247 220.822 253.589 253.38 263.463C285.941 273.338 311.007 286.504 336.113 299.693L336.125 299.699L336.126 299.7L336.127 299.7C361.226 312.885 386.365 326.09 419.021 335.994C451.686 345.901 491.855 352.5 547.029 352.5C625.314 352.5 744.683 342.749 864.02 333L864.043 332.998C983.407 323.248 1102.74 313.5 1180.97 313.5C1214.7 313.5 1238.57 315.936 1255.39 319.582C1272.23 323.23 1281.98 328.08 1287.52 332.878C1293.04 337.66 1294.38 342.398 1294.39 345.906C1294.39 347.671 1294.05 349.141 1293.71 350.168C1293.54 350.681 1293.37 351.082 1293.25 351.353C1293.19 351.488 1293.14 351.59 1293.1 351.657L1293.08 351.69L1293.06 351.731L1293.05 351.748L1293.05 351.751L1293.07 351.759L1293.15 351.806L1293.48 352C1293.92 352.25 1293.92 352.249 1293.92 352.248L1293.92 352.246L1293.92 352.238L1293.94 352.212C1293.95 352.19 1293.97 352.159 1293.99 352.119C1294.03 352.038 1294.09 351.922 1294.16 351.771C1294.22 351.633 1294.29 351.467 1294.37 351.273C1294.46 351.045 1294.56 350.78 1294.66 350.48C1295.02 349.375 1295.39 347.798 1295.39 345.906C1295.38 342.102 1293.91 337.09 1288.17 332.122C1282.46 327.17 1272.52 322.27 1255.61 318.605C1238.68 314.939 1214.74 312.5 1180.97 312.5C1102.69 312.5 983.322 322.251 863.985 332L863.961 332.002C744.597 341.752 625.268 351.5 547.029 351.5C491.938 351.5 451.869 344.911 419.311 335.037C386.75 325.162 361.684 311.996 336.578 298.807L336.566 298.801L336.564 298.8C311.465 285.616 286.326 272.41 253.67 262.506C221.005 252.599 180.836 246 125.661 246ZM125.663 267C101.517 267 65.0509 273.607 23.9726 283.498C-17.1191 293.392 -62.8694 306.583 -105.604 319.772C-148.339 332.962 -188.062 346.151 -217.102 356.042C-231.622 360.988 -243.471 365.11 -251.691 367.995C-255.801 369.438 -259.003 370.571 -261.178 371.344C-262.265 371.73 -263.096 372.027 -263.655 372.227L-264.248 372.439L-264.287 372.453L-264.447 372.51L-264.488 372.525L-264.498 372.528C-264.5 372.529 -264.501 372.529 -264.332 373C-264.163 373.471 -264.162 373.47 -264.16 373.469L-264.15 373.466L-264.11 373.451L-263.95 373.394C-263.809 373.344 -263.598 373.268 -263.318 373.168C-262.76 372.969 -261.93 372.673 -260.843 372.286C-258.669 371.514 -255.468 370.381 -251.36 368.939C-243.143 366.054 -231.296 361.934 -216.78 356.989C-187.746 347.099 -148.032 333.913 -105.309 320.728C-62.5845 307.542 -16.8563 294.358 24.2067 284.47C65.2829 274.58 101.647 268 125.663 268C180.755 268 220.824 274.588 253.382 284.463C285.943 294.338 311.009 307.504 336.115 320.693L336.127 320.699L336.128 320.7L336.129 320.7C361.228 333.884 386.367 347.09 419.023 356.994C451.688 366.901 491.857 373.5 547.031 373.5C625.316 373.5 744.685 363.749 864.022 354L864.045 353.998C983.409 344.247 1102.74 334.5 1180.98 334.5C1214.7 334.5 1238.57 336.936 1255.4 340.582C1272.23 344.23 1281.98 349.08 1287.52 353.878C1293.04 358.66 1294.39 363.398 1294.39 366.906C1294.39 368.671 1294.05 370.141 1293.71 371.168C1293.54 371.681 1293.38 372.082 1293.25 372.353C1293.21 372.444 1293.17 372.52 1293.14 372.581C1293.13 372.61 1293.11 372.635 1293.1 372.657L1293.09 372.69L1293.06 372.731L1293.05 372.748L1293.05 372.751C1293.05 372.751 1293.05 372.751 1293.14 372.799L1293.49 373C1293.92 373.249 1293.92 373.249 1293.92 373.248L1293.92 373.245L1293.93 373.238L1293.94 373.212C1293.95 373.197 1293.96 373.179 1293.97 373.156L1293.99 373.119C1294.03 373.038 1294.09 372.922 1294.16 372.771C1294.3 372.47 1294.48 372.034 1294.66 371.48C1295.03 370.374 1295.39 368.798 1295.39 366.906C1295.39 363.102 1293.91 358.09 1288.18 353.122C1282.46 348.17 1272.52 343.27 1255.61 339.605C1238.69 335.939 1214.74 333.5 1180.98 333.5C1102.69 333.5 983.324 343.251 863.987 353L863.963 353.002C744.599 362.752 625.27 372.5 547.031 372.5C491.94 372.5 451.871 365.911 419.313 356.037C386.752 346.162 361.686 332.995 336.58 319.807L336.568 319.801L336.566 319.8C311.467 306.616 286.328 293.41 253.672 283.506C221.007 273.599 180.838 267 125.663 267Z" fill="url(#paint0_linear_564_5978)"/>
<defs>
<linearGradient id="paint0_linear_564_5978" x1="583" y1="234.5" x2="557.17" y2="380.864" gradientUnits="userSpaceOnUse">
<stop stop-color="#1F3891" stop-opacity="0"/>
<stop offset="1" stop-color="#1F3891"/>
</linearGradient>
</defs>
</svg>
