<svg width="93" height="92" viewBox="0 0 93 92" fill="none"
    xmlns="http://www.w3.org/2000/svg">
    <g filter="url(#filter0_dii_2074_891)">
        <circle cx="44.75" cy="44" r="38" fill="#5B94EA"/>
    </g>
    <path d="M66.3102 26H33.7176C33.5015 26 33.2942 26.0858 33.1414 26.2387C32.9886 26.3915 32.9028 26.5987 32.9028 26.8148V34.963H23.9398C23.7237 34.963 23.5165 35.0488 23.3637 35.2016C23.2108 35.3544 23.125 35.5617 23.125 35.7778V56.2541C23.1272 57.738 23.7176 59.1606 24.7669 60.2099C25.8163 61.2592 27.2388 61.8497 28.7228 61.8519H60.4517C62.2215 61.8519 63.9189 61.1488 65.1704 59.8973C66.4219 58.6458 67.125 56.9484 67.125 55.1785V26.8148C67.125 26.5987 67.0392 26.3915 66.8863 26.2387C66.7335 26.0858 66.5263 26 66.3102 26ZM24.7546 56.2541V36.5926H32.9028V60.2222H28.7228C27.6704 60.2222 26.661 59.8041 25.9169 59.06C25.1727 58.3158 24.7546 57.3065 24.7546 56.2541ZM65.4954 55.1785C65.4932 56.5155 64.9611 57.7972 64.0157 58.7426C63.0703 59.688 61.7887 60.2201 60.4517 60.2222H34.5324V27.6296H65.4954V55.1785Z" fill="white"/>
    <path d="M39.4213 44.7407H47.5694C47.7855 44.7407 47.9928 44.6548 48.1456 44.502C48.2984 44.3492 48.3842 44.142 48.3842 43.9259V35.7777C48.3842 35.5616 48.2984 35.3544 48.1456 35.2015C47.9928 35.0487 47.7855 34.9629 47.5694 34.9629H39.4213C39.2052 34.9629 38.9979 35.0487 38.8451 35.2015C38.6923 35.3544 38.6064 35.5616 38.6064 35.7777V43.9259C38.6064 44.142 38.6923 44.3492 38.8451 44.502C38.9979 44.6548 39.2052 44.7407 39.4213 44.7407ZM40.2361 36.5925H46.7546V43.111H40.2361V36.5925Z" fill="white"/>
    <path d="M39.4213 48.8147H60.6064C60.8225 48.8147 61.0298 48.7288 61.1826 48.576C61.3354 48.4232 61.4213 48.216 61.4213 47.9999C61.4213 47.7838 61.3354 47.5765 61.1826 47.4237C61.0298 47.2709 60.8225 47.1851 60.6064 47.1851H39.4213C39.2052 47.1851 38.9979 47.2709 38.8451 47.4237C38.6923 47.5765 38.6064 47.7838 38.6064 47.9999C38.6064 48.216 38.6923 48.4232 38.8451 48.576C38.9979 48.7288 39.2052 48.8147 39.4213 48.8147Z" fill="white"/>
    <path d="M39.4213 52.8889H60.6064C60.8225 52.8889 61.0298 52.8031 61.1826 52.6503C61.3354 52.4974 61.4213 52.2902 61.4213 52.0741C61.4213 51.858 61.3354 51.6507 61.1826 51.4979C61.0298 51.3451 60.8225 51.2593 60.6064 51.2593H39.4213C39.2052 51.2593 38.9979 51.3451 38.8451 51.4979C38.6923 51.6507 38.6064 51.858 38.6064 52.0741C38.6064 52.2902 38.6923 52.4974 38.8451 52.6503C38.9979 52.8031 39.2052 52.8889 39.4213 52.8889Z" fill="white"/>
    <path d="M39.4213 56.9631H47.5694C47.7855 56.9631 47.9928 56.8773 48.1456 56.7245C48.2984 56.5717 48.3842 56.3644 48.3842 56.1483C48.3842 55.9322 48.2984 55.725 48.1456 55.5721C47.9928 55.4193 47.7855 55.3335 47.5694 55.3335H39.4213C39.2052 55.3335 38.9979 55.4193 38.8451 55.5721C38.6923 55.725 38.6064 55.9322 38.6064 56.1483C38.6064 56.3644 38.6923 56.5717 38.8451 56.7245C38.9979 56.8773 39.2052 56.9631 39.4213 56.9631Z" fill="white"/>
    <path d="M60.6065 55.3335H52.4584C52.2423 55.3335 52.035 55.4193 51.8822 55.5721C51.7294 55.725 51.6436 55.9322 51.6436 56.1483C51.6436 56.3644 51.7294 56.5717 51.8822 56.7245C52.035 56.8773 52.2423 56.9631 52.4584 56.9631H60.6065C60.8226 56.9631 61.0299 56.8773 61.1827 56.7245C61.3355 56.5717 61.4213 56.3644 61.4213 56.1483C61.4213 55.9322 61.3355 55.725 61.1827 55.5721C61.0299 55.4193 60.8226 55.3335 60.6065 55.3335Z" fill="white"/>
    <path d="M60.6069 39.0371H51.6439C51.4278 39.0371 51.2206 39.123 51.0678 39.2758C50.9149 39.4286 50.8291 39.6358 50.8291 39.8519C50.8291 40.068 50.9149 40.2753 51.0678 40.4281C51.2206 40.5809 51.4278 40.6667 51.6439 40.6667H60.6069C60.823 40.6667 61.0302 40.5809 61.183 40.4281C61.3358 40.2753 61.4217 40.068 61.4217 39.8519C61.4217 39.6358 61.3358 39.4286 61.183 39.2758C61.0302 39.123 60.823 39.0371 60.6069 39.0371Z" fill="white"/>
    <path d="M60.6069 34.9629H51.6439C51.4278 34.9629 51.2206 35.0487 51.0678 35.2015C50.9149 35.3544 50.8291 35.5616 50.8291 35.7777C50.8291 35.9938 50.9149 36.2011 51.0678 36.3539C51.2206 36.5067 51.4278 36.5925 51.6439 36.5925H60.6069C60.823 36.5925 61.0302 36.5067 61.183 36.3539C61.3358 36.2011 61.4217 35.9938 61.4217 35.7777C61.4217 35.5616 61.3358 35.3544 61.183 35.2015C61.0302 35.0487 60.823 34.9629 60.6069 34.9629Z" fill="white"/>
    <path d="M60.6069 43.1113H51.6439C51.4278 43.1113 51.2206 43.1972 51.0678 43.35C50.9149 43.5028 50.8291 43.71 50.8291 43.9261C50.8291 44.1422 50.9149 44.3495 51.0678 44.5023C51.2206 44.6551 51.4278 44.741 51.6439 44.741H60.6069C60.823 44.741 61.0302 44.6551 61.183 44.5023C61.3358 44.3495 61.4217 44.1422 61.4217 43.9261C61.4217 43.71 61.3358 43.5028 61.183 43.35C61.0302 43.1972 60.823 43.1113 60.6069 43.1113Z" fill="white"/>
    <path d="M39.4213 32.5183H60.6064C60.8225 32.5183 61.0298 32.4325 61.1826 32.2796C61.3354 32.1268 61.4213 31.9196 61.4213 31.7035C61.4213 31.4874 61.3354 31.2801 61.1826 31.1273C61.0298 30.9745 60.8225 30.8887 60.6064 30.8887H39.4213C39.2052 30.8887 38.9979 30.9745 38.8451 31.1273C38.6923 31.2801 38.6064 31.4874 38.6064 31.7035C38.6064 31.9196 38.6923 32.1268 38.8451 32.2796C38.9979 32.4325 39.2052 32.5183 39.4213 32.5183Z" fill="white"/>
    <defs>
        <filter id="filter0_dii_2074_891" x="0.75" y="0" width="92" height="92" filterUnits="userSpaceOnUse" color-interpolation-filters="sRGB">
            <feFlood flood-opacity="0" result="BackgroundImageFix"/>
            <feColorMatrix in="SourceAlpha" type="matrix" values="0 0 0 0 0 0 0 0 0 0 0 0 0 0 0 0 0 0 127 0" result="hardAlpha"/>
            <feOffset dx="2" dy="2"/>
            <feGaussianBlur stdDeviation="4"/>
            <feComposite in2="hardAlpha" operator="out"/>
            <feColorMatrix type="matrix" values="0 0 0 0 0 0 0 0 0 0 0 0 0 0 0 0 0 0 0.4 0"/>
            <feBlend mode="normal" in2="BackgroundImageFix" result="effect1_dropShadow_2074_891"/>
            <feBlend mode="normal" in="SourceGraphic" in2="effect1_dropShadow_2074_891" result="shape"/>
            <feColorMatrix in="SourceAlpha" type="matrix" values="0 0 0 0 0 0 0 0 0 0 0 0 0 0 0 0 0 0 127 0" result="hardAlpha"/>
            <feOffset dx="2" dy="2"/>
            <feGaussianBlur stdDeviation="4.1"/>
            <feComposite in2="hardAlpha" operator="arithmetic" k2="-1" k3="1"/>
            <feColorMatrix type="matrix" values="0 0 0 0 1 0 0 0 0 1 0 0 0 0 1 0 0 0 1 0"/>
            <feBlend mode="normal" in2="shape" result="effect2_innerShadow_2074_891"/>
            <feColorMatrix in="SourceAlpha" type="matrix" values="0 0 0 0 0 0 0 0 0 0 0 0 0 0 0 0 0 0 127 0" result="hardAlpha"/>
            <feOffset dx="-2" dy="-2"/>
            <feGaussianBlur stdDeviation="4.1"/>
            <feComposite in2="hardAlpha" operator="arithmetic" k2="-1" k3="1"/>
            <feColorMatrix type="matrix" values="0 0 0 0 0.262745 0 0 0 0 0.376471 0 0 0 0 0.972549 0 0 0 1 0"/>
            <feBlend mode="normal" in2="effect2_innerShadow_2074_891" result="effect3_innerShadow_2074_891"/>
        </filter>
    </defs>
</svg>
