<svg width="1560" height="373" viewBox="0 0 1560 373" fill="none" xmlns="http://www.w3.org/2000/svg">
<path fill-rule="evenodd" clip-rule="evenodd" d="M1194.99 15.4982C1219.06 17.3294 1254.92 26.6834 1295.13 39.6612C1335.36 52.6432 1379.98 69.2658 1421.59 85.6578C1463.2 102.05 1501.81 118.214 1530.01 130.28C1544.12 136.312 1555.62 141.321 1563.6 144.821C1567.58 146.571 1570.69 147.944 1572.8 148.88C1573.86 149.348 1574.66 149.706 1575.2 149.948C1575.48 150.069 1575.68 150.16 1575.82 150.221L1575.97 150.291L1576.01 150.308L1576.02 150.313C1576.02 150.313 1576.03 150.314 1575.82 150.77C1575.62 151.227 1575.62 151.226 1575.61 151.225L1575.6 151.221L1575.57 151.204L1575.41 151.135C1575.27 151.073 1575.07 150.982 1574.8 150.861C1574.26 150.62 1573.45 150.262 1572.4 149.794C1570.29 148.859 1567.18 147.486 1563.19 145.737C1555.22 142.238 1543.72 137.23 1529.62 131.199C1501.42 119.136 1462.82 102.976 1421.22 86.5882C1379.62 70.2 1335.02 53.5858 1294.83 40.6129C1254.62 27.6357 1218.86 18.3167 1194.91 16.4953C1139.98 12.3171 1099.53 15.8478 1066.31 23.2245C1033.1 30.6018 1007.1 41.8292 981.071 53.0754L981.058 53.0809L981.057 53.0814C955.03 64.3244 928.962 75.5855 895.648 82.9845C862.326 90.3855 821.772 93.9191 766.757 89.7346C688.698 83.7975 570.412 65.0213 452.158 46.2502L452.135 46.2466C333.855 27.4713 215.608 8.70172 137.595 2.76808C103.967 0.210391 79.9853 0.829656 62.929 3.189C45.8671 5.54914 35.7735 9.64553 29.887 14.0097C24.0202 18.3594 22.3208 22.9821 22.0524 26.4801C21.9175 28.2394 22.1436 29.7308 22.4025 30.7805C22.5319 31.3049 22.6693 31.7178 22.7731 31.9968C22.8249 32.1363 22.8683 32.2422 22.898 32.3118L22.9127 32.3457L22.9317 32.3885L22.9396 32.4057L22.941 32.4088C22.941 32.4088 22.9408 32.4084 22.4899 32.6244C22.039 32.8405 22.0387 32.8398 22.0383 32.8389L22.037 32.8363L22.0333 32.8284L22.021 32.8017C22.0108 32.7789 21.9963 32.7465 21.9784 32.7048C21.9612 32.6643 21.9407 32.6151 21.9176 32.5573C21.893 32.4961 21.8654 32.4253 21.8357 32.3453C21.7203 32.0348 21.5712 31.5855 21.4317 31.02C21.1527 29.8898 20.9108 28.29 21.0554 26.4037C21.3463 22.6106 23.1966 17.7251 29.2914 13.2064C35.3667 8.70228 45.6466 4.57012 62.7919 2.19843C79.943 -0.174046 104.002 -0.789877 137.671 1.77096C215.729 7.70807 334.015 26.4841 452.269 45.2553L452.292 45.259C570.573 64.0343 688.819 82.8038 766.832 88.7375C821.765 92.9156 862.219 89.385 895.432 82.0083C928.648 74.6309 954.64 63.4035 980.674 52.1574L980.687 52.1518L980.688 52.1513C1006.71 40.9083 1032.78 29.6473 1066.1 22.2483C1099.42 14.8472 1139.97 11.3137 1194.99 15.4982ZM1293.66 59.1065C1253.45 46.1287 1217.59 36.7747 1193.51 34.9435C1138.5 30.759 1097.94 34.2925 1064.62 41.6936C1031.31 49.0926 1005.24 60.3536 979.211 71.5966L979.21 71.5971L979.197 71.6027C953.164 82.8488 927.171 94.0762 893.955 101.454C860.742 108.83 820.289 112.361 765.356 108.183C687.343 102.249 569.096 83.4796 450.815 64.7043L450.792 64.7006C332.538 45.9295 214.253 27.1534 136.194 21.2163C102.525 18.6554 78.4665 19.2713 61.3154 21.6437C44.17 24.0154 33.8901 28.1476 27.8148 32.6517C21.7201 37.1705 19.8697 42.0559 19.5788 45.849C19.4342 47.7353 19.6761 49.3351 19.9551 50.4654C20.0946 51.0308 20.2437 51.4801 20.3592 51.7906C20.4169 51.9459 20.4662 52.0667 20.5019 52.1501C20.5198 52.1919 20.5342 52.2243 20.5445 52.247L20.5568 52.2738L20.5604 52.2816L20.5617 52.2842C20.5621 52.2851 20.5625 52.2858 21.0134 52.0698C21.4643 51.8537 21.4645 51.8541 21.4645 51.8542L21.463 51.851L21.4551 51.8338L21.4361 51.7911L21.4214 51.7571C21.4057 51.7203 21.3862 51.6733 21.3636 51.6166C21.3434 51.5661 21.3209 51.5079 21.2965 51.4422C21.1928 51.1631 21.0553 50.7503 20.9259 50.2258C20.667 49.1762 20.441 47.6847 20.5759 45.9254C20.8443 42.4274 22.5436 37.8047 28.4104 33.4551C34.2969 29.0908 44.3906 24.9945 61.4524 22.6343C78.5087 20.275 102.491 19.6557 136.118 22.2134C214.131 28.147 332.378 46.9166 450.659 65.6919L450.681 65.6955C568.936 84.4666 687.221 103.243 765.28 109.18C820.296 113.364 860.849 109.831 894.172 102.43C927.485 95.0308 953.554 83.7697 979.58 72.5266L979.581 72.5262L979.594 72.5207C1005.63 61.2745 1031.62 50.0472 1064.84 42.6698C1098.05 35.2931 1138.5 31.7624 1193.44 35.9406C1217.38 37.762 1253.14 47.081 1293.35 60.0582C1333.55 73.0311 1378.14 89.6453 1419.74 106.034C1461.34 122.421 1499.94 138.581 1528.14 150.644C1542.24 156.676 1553.74 161.683 1561.72 165.182C1565.7 166.932 1568.81 168.304 1570.92 169.239C1571.97 169.707 1572.78 170.065 1573.32 170.307C1573.59 170.427 1573.8 170.519 1573.93 170.58L1574.09 170.649L1574.13 170.666L1574.14 170.671C1574.14 170.672 1574.14 170.672 1574.34 170.216C1574.55 169.759 1574.55 169.759 1574.55 169.758L1574.54 169.753L1574.5 169.736L1574.34 169.667C1574.2 169.605 1574 169.514 1573.73 169.393C1573.19 169.152 1572.38 168.793 1571.33 168.325C1569.21 167.39 1566.11 166.017 1562.12 164.266C1554.14 160.766 1542.64 155.758 1528.54 149.725C1500.33 137.659 1461.72 121.496 1420.11 105.103C1378.5 88.7111 1333.88 72.0885 1293.66 59.1065ZM1192.03 54.3888C1216.11 56.22 1251.97 65.574 1292.18 78.5518C1332.4 91.5338 1377.02 108.156 1418.63 124.548C1460.24 140.941 1498.85 157.105 1527.06 169.17C1541.16 175.203 1552.66 180.211 1560.64 183.712C1564.63 185.462 1567.74 186.835 1569.85 187.771C1570.9 188.238 1571.71 188.597 1572.25 188.838C1572.52 188.959 1572.73 189.051 1572.86 189.112L1573.02 189.181L1573.06 189.199L1573.07 189.203C1573.07 189.204 1573.07 189.205 1572.87 189.661C1572.66 190.117 1572.66 190.117 1572.66 190.116L1572.65 190.112L1572.61 190.094L1572.46 190.025C1572.32 189.964 1572.11 189.872 1571.84 189.752C1571.3 189.511 1570.5 189.152 1569.44 188.685C1567.33 187.75 1564.23 186.377 1560.24 184.627C1552.26 181.128 1540.76 176.121 1526.66 170.09C1498.46 158.027 1459.87 141.867 1418.26 125.479C1376.66 109.091 1332.07 92.4764 1291.87 79.5035C1251.66 66.5264 1215.9 57.2073 1191.96 55.3859C1137.02 51.2077 1096.57 54.7384 1063.36 62.1151C1030.14 69.4925 1004.15 80.7199 978.116 91.966L978.103 91.9715L978.102 91.972C952.075 103.215 926.007 114.476 892.693 121.875C859.371 129.276 818.817 132.81 763.801 128.625C685.743 122.688 567.457 103.912 449.203 85.1408L449.18 85.1372C330.899 66.3619 212.653 47.5923 134.64 41.6587C101.012 39.101 77.0302 39.7203 59.9739 42.0796C42.9121 44.4398 32.8184 48.5362 26.9319 52.9004C21.0651 57.25 19.3657 61.8727 19.0974 65.3708C18.9624 67.13 19.1885 68.6215 19.4474 69.6711C19.5768 70.1956 19.7142 70.6084 19.818 70.8875C19.8698 71.027 19.9132 71.1329 19.9429 71.2024L19.9576 71.2364L19.9766 71.2791L19.9845 71.2963L19.986 71.2995C19.986 71.2994 19.9859 71.2993 19.8799 71.3499L19.5348 71.5151C19.0839 71.7311 19.0836 71.7304 19.0832 71.7295L19.0819 71.727L19.0782 71.7191L19.066 71.6923C19.0557 71.6696 19.0413 71.6372 19.0234 71.5954C18.9877 71.512 18.9384 71.3912 18.8807 71.2359C18.7652 70.9254 18.6161 70.4761 18.4766 69.9107C18.1976 68.7804 17.9557 67.1806 18.1003 65.2943C18.3912 61.5012 20.2416 56.6158 26.3363 52.097C32.4116 47.5929 42.6915 43.4607 59.8369 41.0891C76.9879 38.7166 101.047 38.1007 134.716 40.6616C212.774 46.5987 331.059 65.3748 449.314 84.1459L449.337 84.1496C567.618 102.925 685.864 121.694 763.877 127.628C818.81 131.806 859.263 128.276 892.476 120.899C925.693 113.522 951.685 102.294 977.719 91.048L977.732 91.0425L977.733 91.042C1003.76 79.799 1029.83 68.5379 1063.14 61.1389C1096.46 53.7379 1137.02 50.2043 1192.03 54.3888ZM1290.7 97.9932C1250.49 85.0154 1214.63 75.6614 1190.55 73.8302C1135.54 69.6457 1094.98 73.1793 1061.66 80.5803C1028.35 87.9793 1002.28 99.2404 976.252 110.483L976.251 110.484L976.238 110.489C950.205 121.736 924.212 132.963 890.996 140.34C857.783 147.717 817.33 151.248 762.397 147.07C684.384 141.136 566.137 122.366 447.856 103.591L447.833 103.587C329.579 84.8162 211.294 66.0401 133.235 60.103C99.5663 57.5422 75.5074 58.158 58.3563 60.5305C41.2109 62.9021 30.9311 67.0343 24.8558 71.5385C18.761 76.0572 16.9107 80.9426 16.6197 84.7357C16.4752 86.622 16.7171 88.2218 16.9961 89.3521C17.1356 89.9175 17.2847 90.3668 17.4001 90.6773C17.4579 90.8326 17.5072 90.9534 17.5428 91.0368C17.5607 91.0786 17.5751 91.111 17.5854 91.1337L17.5977 91.1605L17.6014 91.1684L17.6027 91.1709C17.6031 91.1718 17.6034 91.1725 18.0543 90.9565C18.5052 90.7404 18.5054 90.7408 18.5054 90.7409L18.504 90.7377L18.4961 90.7205L18.477 90.6778L18.4624 90.6438C18.452 90.6197 18.4401 90.5912 18.4268 90.5584L18.4067 90.5086C18.386 90.4569 18.3628 90.3969 18.3375 90.3289C18.2337 90.0498 18.0963 89.637 17.9669 89.1125C17.7079 88.0629 17.4819 86.5714 17.6168 84.8122C17.8852 81.3141 19.5846 76.6914 25.4513 72.3418C31.3379 67.9776 41.4315 63.8812 58.4934 61.521C75.5497 59.1617 99.5318 58.5424 133.159 61.1001C211.172 67.0337 329.419 85.8033 447.7 104.579L447.722 104.582C565.977 123.353 684.262 142.13 762.321 148.067C817.337 152.251 857.89 148.718 891.213 141.317C924.526 133.918 950.595 122.656 976.621 111.413L976.622 111.413L976.635 111.407C1002.67 100.161 1028.66 88.9339 1061.88 81.5565C1095.09 74.1798 1135.54 70.6491 1190.48 74.8273C1214.42 76.6487 1250.18 85.9678 1290.39 98.9449C1330.59 111.918 1375.18 128.532 1416.78 144.92C1458.38 161.308 1496.98 177.468 1525.18 189.531C1539.28 195.563 1550.78 200.57 1558.76 204.069C1562.75 205.818 1565.85 207.191 1567.96 208.126C1569.02 208.594 1569.82 208.952 1570.36 209.193C1570.63 209.314 1570.84 209.405 1570.97 209.467L1571.13 209.536L1571.17 209.553L1571.18 209.557C1571.18 209.558 1571.18 209.559 1571.39 209.102C1571.59 208.646 1571.59 208.646 1571.59 208.645L1571.58 208.64L1571.54 208.623L1571.38 208.553C1571.25 208.492 1571.04 208.401 1570.77 208.28C1570.23 208.038 1569.42 207.68 1568.37 207.212C1566.26 206.276 1563.15 204.903 1559.16 203.153C1551.18 199.653 1539.68 194.644 1525.58 188.612C1497.37 176.546 1458.76 160.382 1417.15 143.99C1375.54 127.598 1330.92 110.975 1290.7 97.9932ZM1189.08 93.2755C1213.15 95.1068 1249.01 104.461 1289.22 117.439C1329.45 130.421 1374.06 147.043 1415.67 163.435C1457.29 179.828 1495.9 195.991 1524.1 208.057C1538.2 214.09 1549.71 219.098 1557.68 222.598C1561.67 224.349 1564.78 225.722 1566.89 226.657C1567.94 227.125 1568.75 227.484 1569.29 227.725C1569.56 227.846 1569.77 227.937 1569.91 227.999L1570.06 228.068L1570.1 228.085L1570.11 228.09C1570.11 228.091 1570.11 228.091 1569.91 228.548C1569.7 229.004 1569.7 229.004 1569.7 229.003L1569.69 228.998L1569.65 228.981L1569.5 228.912C1569.36 228.851 1569.16 228.759 1568.89 228.639C1568.34 228.397 1567.54 228.039 1566.48 227.572C1564.38 226.636 1561.27 225.264 1557.28 223.514C1549.31 220.015 1537.81 215.008 1523.71 208.976C1495.51 196.913 1456.91 180.753 1415.31 164.366C1373.71 147.977 1329.11 131.363 1288.92 118.39C1248.71 105.413 1212.95 96.094 1189 94.2726C1134.07 90.0944 1093.61 93.6251 1060.4 101.002C1027.18 108.379 1001.19 119.607 975.158 130.853L975.146 130.858L975.145 130.859C949.118 142.102 923.05 153.363 889.736 160.762C856.414 168.163 815.86 171.696 760.844 167.512C682.786 161.575 564.501 142.799 446.247 124.028L446.246 124.028L446.223 124.024C327.942 105.249 209.696 86.4791 131.683 80.5454C98.0553 77.9877 74.0731 78.607 57.0168 80.9663C39.955 83.3265 29.8613 87.4229 23.9748 91.7871C18.108 96.1367 16.4086 100.759 16.1403 104.257C16.0053 106.017 16.2314 107.508 16.4903 108.558C16.6197 109.082 16.7571 109.495 16.8609 109.774C16.9127 109.914 16.9561 110.02 16.9858 110.089L17.0005 110.123L17.0195 110.166L17.0274 110.183L17.0289 110.186L16.9922 110.204C16.9442 110.226 16.8334 110.279 16.5777 110.402C16.1268 110.618 16.1265 110.617 16.1261 110.616L16.1248 110.614L16.1211 110.606L16.1089 110.579C16.0986 110.556 16.0842 110.524 16.0663 110.482C16.0306 110.399 15.9813 110.278 15.9236 110.123C15.8081 109.812 15.659 109.363 15.5195 108.797C15.2405 107.667 14.9986 106.067 15.1432 104.181C15.4341 100.388 17.2845 95.5025 23.3792 90.9838C29.4545 86.4796 39.7344 82.3475 56.8798 79.9758C74.0308 77.6033 98.0897 76.9875 131.758 79.5483C209.817 85.4854 328.102 104.261 446.357 123.033L446.38 123.036C564.661 141.812 682.907 160.581 760.92 166.515C815.853 170.693 856.306 167.162 889.519 159.786C922.736 152.408 948.728 141.181 974.762 129.935L974.775 129.929L974.776 129.929C1000.8 118.686 1026.87 107.425 1060.18 100.026C1093.51 92.6246 1134.06 89.091 1189.08 93.2755ZM1287.63 138.38C1247.42 125.402 1211.56 116.048 1187.48 114.217C1132.47 110.032 1091.91 113.566 1058.59 120.967C1025.28 128.366 999.208 139.627 973.182 150.87L973.181 150.871L973.168 150.876C947.135 162.122 921.142 173.35 887.926 180.727C854.713 188.104 814.259 191.634 759.326 187.456C681.314 181.523 563.067 162.753 444.786 143.978L444.763 143.974C326.509 125.203 208.223 106.427 130.165 100.49C96.4961 97.9289 72.4372 98.5447 55.2861 100.917C38.1407 103.289 27.8608 107.421 21.7856 111.925C15.6908 116.444 13.8405 121.329 13.5495 125.122C13.405 127.009 13.6469 128.609 13.9258 129.739C14.0654 130.304 14.2145 130.754 14.3299 131.064C14.3488 131.115 14.3668 131.162 14.3837 131.205C14.3944 131.233 14.4047 131.259 14.4146 131.283L14.4489 131.367L14.4726 131.424C14.4905 131.465 14.5049 131.498 14.5152 131.52L14.5275 131.547L14.5312 131.555L14.5324 131.558C14.5329 131.559 14.5332 131.559 14.9841 131.343C15.435 131.127 15.4352 131.128 15.4352 131.128L15.4337 131.124L15.4259 131.107L15.4068 131.064L15.3922 131.031C15.3817 131.006 15.3694 130.977 15.3558 130.943C15.3307 130.882 15.3008 130.806 15.2672 130.716C15.1635 130.437 15.0261 130.024 14.8966 129.499C14.6377 128.45 14.4117 126.958 14.5466 125.199C14.815 121.701 16.5143 117.078 22.3811 112.728C28.2676 108.364 38.3613 104.268 55.4232 101.908C72.4795 99.5484 96.4616 98.9292 130.089 101.487C208.102 107.42 326.349 126.19 444.629 144.965L444.652 144.969C562.906 163.74 681.192 182.516 759.251 188.453C814.267 192.638 854.82 189.104 888.142 181.703C921.456 174.304 947.524 163.043 973.551 151.8L973.552 151.8L973.565 151.794C999.598 140.548 1025.59 129.321 1058.81 121.943C1092.02 114.567 1132.47 111.036 1187.41 115.214C1211.35 117.035 1247.11 126.354 1287.32 139.332C1327.52 152.305 1372.11 168.919 1413.71 185.307C1455.31 201.695 1493.91 217.855 1522.11 229.918C1536.21 235.949 1547.71 240.956 1555.69 244.456C1559.68 246.205 1562.78 247.578 1564.89 248.513C1565.94 248.98 1566.75 249.339 1567.29 249.58C1567.56 249.701 1567.77 249.792 1567.9 249.853L1568.06 249.922L1568.1 249.94L1568.11 249.944C1568.11 249.945 1568.11 249.946 1568.32 249.489C1568.52 249.033 1568.52 249.032 1568.52 249.031L1568.51 249.027L1568.47 249.009L1568.31 248.94C1568.17 248.879 1567.97 248.787 1567.7 248.667C1567.16 248.425 1566.35 248.067 1565.3 247.599C1563.19 246.663 1560.08 245.29 1556.09 243.54C1548.11 240.04 1536.61 235.031 1522.51 228.998C1494.3 216.933 1455.69 200.769 1414.08 184.377C1372.47 167.985 1327.85 151.362 1287.63 138.38ZM1185.89 135.154C1209.96 136.986 1245.83 146.34 1286.04 159.317C1326.26 172.299 1370.88 188.922 1412.49 205.314C1454.1 221.706 1492.71 237.87 1520.91 249.936C1535.02 255.969 1546.52 260.977 1554.5 264.477C1558.48 266.227 1561.59 267.601 1563.7 268.536C1564.76 269.004 1565.56 269.362 1566.1 269.604C1566.38 269.725 1566.58 269.816 1566.72 269.878L1566.87 269.947L1566.91 269.964L1566.92 269.969C1566.92 269.97 1566.93 269.97 1566.72 270.427C1566.52 270.883 1566.52 270.883 1566.51 270.882L1566.5 270.877L1566.47 270.86L1566.31 270.791C1566.17 270.73 1565.97 270.638 1565.7 270.517C1565.16 270.276 1564.35 269.918 1563.3 269.45C1561.19 268.515 1558.08 267.143 1554.09 265.393C1546.12 261.894 1534.62 256.887 1520.52 250.855C1492.32 238.792 1453.72 222.632 1412.12 206.244C1370.52 189.856 1325.92 173.242 1285.73 160.269C1245.52 147.292 1209.76 137.973 1185.81 136.152C1130.88 131.973 1090.43 135.504 1057.21 142.881C1024 150.258 998.005 161.485 971.971 172.732L971.958 172.737L971.957 172.738C945.931 183.981 919.862 195.242 886.549 202.641C853.226 210.042 812.673 213.575 757.657 209.391C679.599 203.454 561.313 184.678 443.06 165.907L443.058 165.906L443.036 165.903C324.755 147.128 206.508 128.358 128.495 122.424C94.8678 119.867 70.8856 120.486 53.8293 122.845C36.7675 125.205 26.6738 129.302 20.7873 133.666C14.9205 138.016 13.2211 142.638 12.9528 146.136C12.8178 147.896 13.0439 149.387 13.3028 150.437C13.4322 150.961 13.5696 151.374 13.6734 151.653C13.7252 151.793 13.7686 151.898 13.7983 151.968L13.813 152.002L13.832 152.045L13.8399 152.062L13.8414 152.065C13.8414 152.065 13.8412 152.065 13.3902 152.281C12.9393 152.497 12.939 152.496 12.9386 152.495L12.9373 152.493L12.9336 152.485L12.9214 152.458C12.9111 152.435 12.8967 152.403 12.8788 152.361C12.8431 152.278 12.7938 152.157 12.7361 152.002C12.6206 151.691 12.4715 151.242 12.332 150.676C12.053 149.546 11.8111 147.946 11.9557 146.06C12.2466 142.267 14.097 137.381 20.1917 132.863C26.267 128.359 36.5469 124.226 53.6923 121.855C70.8433 119.482 94.9022 118.866 128.571 121.427C206.63 127.364 324.915 146.14 443.169 164.912L443.192 164.915C561.473 183.691 679.72 202.46 757.733 208.394C812.666 212.572 853.119 209.041 886.332 201.665C919.548 194.287 945.541 183.06 971.574 171.814L971.587 171.808L971.588 171.808C997.615 160.565 1023.68 149.304 1057 141.905C1090.32 134.503 1130.87 130.97 1185.89 135.154ZM1284.44 180.259C1244.23 167.281 1208.37 157.927 1184.3 156.096C1129.28 151.911 1088.73 155.445 1055.4 162.846C1022.09 170.245 996.023 181.506 969.996 192.749L969.995 192.749L969.983 192.755C943.949 204.001 917.956 215.229 884.74 222.606C851.527 229.983 811.074 233.513 756.141 229.335C678.128 223.401 559.881 204.632 441.601 185.857L441.577 185.853C323.323 167.082 205.038 148.306 126.979 142.369C93.3105 139.808 69.2516 140.424 52.1006 142.796C34.9552 145.168 24.6753 149.3 18.6 153.804C12.5053 158.323 10.6549 163.208 10.364 167.001C10.2194 168.888 10.4613 170.487 10.7403 171.618C10.8798 172.183 11.0289 172.632 11.1444 172.943C11.2021 173.098 11.2514 173.219 11.2871 173.302C11.305 173.344 11.3194 173.377 11.3297 173.399L11.3419 173.426L11.3456 173.434L11.3469 173.437C11.3473 173.437 11.3476 173.438 11.7986 173.222L12.1838 173.038L12.2497 173.006L12.2482 173.003L12.2403 172.986L12.2213 172.943L12.2066 172.909C12.1769 172.84 12.1335 172.734 12.0817 172.595C11.9779 172.315 11.8405 171.903 11.7111 171.378C11.4522 170.328 11.2261 168.837 11.3611 167.078C11.6294 163.58 13.3288 158.957 19.1956 154.607C25.0821 150.243 35.1758 146.147 52.2376 143.787C69.2939 141.427 93.2761 140.808 126.903 143.366C204.916 149.299 323.163 168.069 441.444 186.844L441.466 186.848C559.721 205.619 678.006 224.395 756.065 230.332C811.081 234.517 851.634 230.983 884.957 223.582C918.27 216.183 944.338 204.922 970.365 193.679L970.366 193.679L970.366 193.679L970.379 193.673C996.413 182.427 1022.41 171.199 1055.62 163.822C1088.83 156.445 1129.29 152.915 1184.22 157.093C1208.17 158.914 1243.93 168.233 1284.14 181.211C1324.33 194.183 1368.93 210.798 1410.53 227.186C1452.13 243.574 1490.73 259.734 1518.93 271.797C1533.03 277.828 1544.53 282.835 1552.5 286.334C1556.49 288.084 1559.6 289.457 1561.7 290.392C1562.76 290.859 1563.56 291.218 1564.11 291.459C1564.38 291.58 1564.58 291.671 1564.72 291.732L1564.87 291.801L1564.91 291.819L1564.92 291.823C1564.92 291.824 1564.93 291.824 1565.13 291.368C1565.33 290.912 1565.33 290.911 1565.33 290.91L1565.32 290.906L1565.28 290.888L1565.13 290.819C1564.99 290.758 1564.78 290.666 1564.51 290.545C1563.97 290.304 1563.17 289.945 1562.11 289.478C1560 288.542 1556.89 287.169 1552.9 285.419C1544.93 281.918 1533.42 276.91 1519.32 270.877C1491.12 258.812 1452.51 242.648 1410.9 226.255C1369.28 209.863 1324.67 193.241 1284.44 180.259ZM1182.7 177.033C1206.78 178.865 1242.64 188.219 1282.85 201.196C1323.07 214.178 1367.69 230.801 1409.3 247.193C1450.91 263.585 1489.52 279.749 1517.73 291.815C1531.83 297.848 1543.33 302.856 1551.31 306.356C1555.3 308.106 1558.41 309.48 1560.52 310.415C1561.57 310.883 1562.38 311.241 1562.92 311.483C1563.19 311.604 1563.4 311.695 1563.53 311.757L1563.69 311.826L1563.73 311.843L1563.74 311.848C1563.74 311.849 1563.74 311.849 1563.54 312.306C1563.33 312.762 1563.33 312.761 1563.33 312.76L1563.32 312.756L1563.28 312.739L1563.13 312.67L1562.51 312.396C1561.97 312.155 1561.17 311.797 1560.11 311.329C1558 310.394 1554.9 309.022 1550.91 307.272C1542.93 303.773 1531.43 298.766 1517.33 292.734C1489.13 280.671 1450.54 264.511 1408.93 248.123C1367.33 231.735 1322.74 215.121 1282.54 202.148C1242.33 189.171 1206.57 179.852 1182.63 178.03C1127.69 173.852 1087.24 177.383 1054.03 184.76C1020.81 192.137 994.819 203.364 968.785 214.611L968.773 214.616L968.772 214.616L968.771 214.617C942.745 225.86 916.676 237.121 883.363 244.52C850.041 251.921 809.487 255.454 754.471 251.27C676.413 245.333 558.127 226.557 439.873 207.785L439.85 207.782C321.569 189.006 203.323 170.237 125.31 164.303C91.6822 161.746 67.7001 162.365 50.6438 164.724C33.5819 167.084 23.4883 171.181 17.6017 175.545C11.735 179.895 10.0356 184.517 9.76721 188.015C9.6323 189.775 9.85834 191.266 10.1172 192.316C10.2467 192.84 10.3841 193.253 10.4879 193.532C10.5397 193.671 10.583 193.777 10.6128 193.847L10.6274 193.881L10.6465 193.924L10.6544 193.941L10.6558 193.944L10.6508 193.946L10.554 193.992L10.2047 194.16L9.94159 194.286L9.79362 194.356C9.75337 194.375 9.75327 194.374 9.75306 194.374L9.75178 194.371L9.7481 194.364L9.73581 194.337C9.72554 194.314 9.71111 194.282 9.69323 194.24C9.65758 194.157 9.60825 194.036 9.55053 193.88C9.43507 193.57 9.28598 193.121 9.14645 192.555C8.86748 191.425 8.62556 189.825 8.77014 187.939C9.06108 184.146 10.9114 179.26 17.0062 174.742C23.0815 170.237 33.3613 166.105 50.5067 163.734C67.6578 161.361 91.7167 160.745 125.385 163.306C203.444 169.243 321.729 188.019 439.983 206.79L440.007 206.794C558.287 225.569 676.534 244.339 754.547 250.273C809.48 254.451 849.933 250.92 883.146 243.543C916.362 236.166 942.355 224.939 968.389 213.693L968.402 213.687L968.403 213.687C994.429 202.444 1020.5 191.182 1053.81 183.783C1087.13 176.382 1127.69 172.849 1182.7 177.033ZM1281.26 222.134C1241.05 209.156 1205.19 199.802 1181.11 197.971C1126.1 193.786 1085.54 197.32 1052.22 204.721C1018.91 212.12 992.837 223.381 966.811 234.624L966.81 234.624L966.797 234.63C940.763 245.876 914.771 257.104 881.555 264.481C848.342 271.858 807.888 275.388 752.955 271.21C674.942 265.276 556.696 246.507 438.415 227.732L438.392 227.728C320.138 208.957 201.852 190.181 123.794 184.244C90.1249 181.683 66.066 182.299 48.915 184.671C31.7696 187.043 21.4897 191.175 15.4144 195.679C9.31965 200.198 7.46932 205.083 7.17837 208.876C7.0338 210.763 7.27571 212.362 7.55469 213.493C7.69421 214.058 7.84331 214.507 7.95876 214.818C8.01648 214.973 8.06582 215.094 8.10146 215.177C8.11935 215.219 8.13378 215.252 8.14405 215.274L8.15633 215.301L8.16002 215.309L8.16129 215.312C8.16171 215.312 8.16203 215.313 8.61294 215.097C9.06385 214.881 9.06406 214.881 9.06406 214.881L9.06259 214.878L9.05472 214.861L9.03568 214.818L9.021 214.784C8.99128 214.715 8.94792 214.609 8.89609 214.469C8.79233 214.19 8.6549 213.778 8.52548 213.253C8.26657 212.203 8.04054 210.712 8.17544 208.953C8.44383 205.455 10.1432 200.832 16.01 196.482C21.8965 192.118 31.9901 188.022 49.052 185.662C66.1083 183.302 90.0904 182.683 123.718 185.241C201.731 191.174 319.978 209.944 438.258 228.719L438.281 228.723C556.535 247.494 674.821 266.27 752.88 272.207C807.895 276.392 848.449 272.858 881.771 265.457C915.085 258.058 941.153 246.797 967.18 235.554L967.181 235.554L967.194 235.548C993.227 224.302 1019.22 213.074 1052.44 205.697C1085.65 198.32 1126.1 194.79 1181.04 198.968C1204.98 200.789 1240.74 210.108 1280.95 223.085C1321.15 236.058 1365.74 252.673 1407.34 269.061C1448.94 285.449 1487.54 301.609 1515.74 313.672C1529.84 319.703 1541.34 324.71 1549.32 328.209C1553.3 329.959 1556.41 331.332 1558.52 332.267C1559.57 332.734 1560.38 333.093 1560.92 333.334C1561.19 333.455 1561.4 333.546 1561.53 333.607L1561.69 333.676L1561.73 333.694L1561.74 333.698C1561.74 333.699 1561.74 333.699 1561.94 333.243C1562.15 332.787 1562.15 332.786 1562.15 332.785L1562.14 332.781L1562.1 332.763L1561.94 332.694C1561.8 332.633 1561.6 332.541 1561.33 332.42C1560.79 332.179 1559.98 331.82 1558.92 331.353C1556.81 330.417 1553.71 329.044 1549.72 327.294C1541.74 323.793 1530.24 318.785 1516.14 312.752C1487.93 300.687 1449.32 284.523 1407.71 268.13C1366.1 251.738 1321.48 235.116 1281.26 222.134ZM1179.52 218.912C1203.6 220.743 1239.46 230.097 1279.67 243.075C1319.89 256.057 1364.51 272.68 1406.12 289.072C1447.73 305.464 1486.34 321.628 1514.54 333.694C1528.65 339.727 1540.15 344.735 1548.13 348.235C1552.12 349.985 1555.22 351.358 1557.33 352.294C1558.39 352.762 1559.19 353.12 1559.74 353.362L1560.31 353.619L1560.35 353.635L1560.5 353.705L1560.54 353.722L1560.55 353.727C1560.56 353.728 1560.56 353.728 1560.35 354.184C1560.15 354.641 1560.15 354.64 1560.14 354.639L1560.14 354.635L1560.1 354.618L1559.94 354.549C1559.8 354.487 1559.6 354.396 1559.33 354.275C1558.79 354.034 1557.98 353.676 1556.93 353.208C1554.82 352.273 1551.71 350.9 1547.73 349.151C1539.75 345.652 1528.25 340.645 1514.15 334.613C1485.95 322.55 1447.35 306.39 1405.75 290.002C1364.15 273.614 1319.55 257 1279.36 244.027C1239.15 231.05 1203.39 221.731 1179.44 219.909C1124.51 215.731 1084.06 219.262 1050.84 226.639C1017.63 234.016 991.635 245.243 965.602 256.489L965.589 256.495L965.588 256.495L965.587 256.496C939.561 267.739 913.493 279 880.18 286.399C846.857 293.8 806.304 297.333 751.288 293.149C673.229 287.212 554.943 268.435 436.689 249.664L436.666 249.661C318.386 230.885 200.139 212.116 122.126 206.182C88.4986 203.624 64.5165 204.244 47.4602 206.603C30.3983 208.963 20.3047 213.06 14.4182 217.424C8.55137 221.773 6.85201 226.396 6.58363 229.894C6.44872 231.653 6.67476 233.145 6.93367 234.195C7.06308 234.719 7.20051 235.132 7.30427 235.411C7.3561 235.55 7.39946 235.656 7.42918 235.726L7.44386 235.76L7.4629 235.803L7.47077 235.82L7.47224 235.823C7.47224 235.823 7.47203 235.822 7.02112 236.038C6.57021 236.255 6.5699 236.254 6.56947 236.253L6.5682 236.25L6.56451 236.242L6.55223 236.216C6.54196 236.193 6.52753 236.161 6.50965 236.119C6.474 236.035 6.42467 235.915 6.36694 235.759C6.25149 235.449 6.1024 235 5.96287 234.434C5.6839 233.304 5.44198 231.704 5.58655 229.818C5.8775 226.025 7.72783 221.139 13.8226 216.62C19.8979 212.116 30.1778 207.984 47.3231 205.612C64.4742 203.24 88.5331 202.624 122.202 205.185C200.26 211.122 318.546 229.898 436.8 248.669L436.823 248.673C555.104 267.448 673.351 286.218 751.364 292.152C806.296 296.33 846.75 292.799 879.963 285.422C913.179 278.045 939.172 266.818 965.205 255.571L965.218 255.566L965.219 255.565L965.219 255.565L965.22 255.565C991.246 244.322 1017.31 233.061 1050.63 225.662C1083.95 218.261 1124.5 214.728 1179.52 218.912ZM1278.07 264.017C1237.86 251.039 1202 241.685 1177.93 239.854C1122.91 235.669 1082.36 239.203 1049.03 246.604C1015.72 254.003 989.652 265.264 963.625 276.507L963.624 276.507L963.611 276.513C937.578 287.759 911.585 298.986 878.369 306.364C845.156 313.74 804.703 317.271 749.77 313.093C671.757 307.159 553.51 288.39 435.229 269.614L435.206 269.611C316.952 250.84 198.667 232.064 120.608 226.126C86.9393 223.566 62.8804 224.181 45.7294 226.554C28.584 228.926 18.3041 233.058 12.2288 237.562C6.13406 242.081 4.28372 246.966 3.99278 250.759C3.8482 252.645 4.09012 254.245 4.36909 255.376C4.50862 255.941 4.65771 256.39 4.77317 256.701C4.83089 256.856 4.88022 256.977 4.91587 257.06C4.93375 257.102 4.94818 257.134 4.95845 257.157L4.97074 257.184L4.97442 257.192L4.9757 257.194C4.97612 257.195 4.97643 257.196 5.42734 256.98L5.83694 256.784L5.87846 256.764L5.87699 256.761L5.86912 256.744L5.85009 256.701L5.83541 256.667C5.80569 256.598 5.76232 256.492 5.7105 256.352C5.60673 256.073 5.46931 255.66 5.33989 255.136C5.08098 254.086 4.85494 252.595 4.98985 250.836C5.25824 247.338 6.95759 242.715 12.8244 238.365C18.7109 234.001 28.8046 229.905 45.8664 227.544C62.9227 225.185 86.9049 224.566 120.532 227.124C198.545 233.057 316.792 251.827 435.073 270.602L435.095 270.606C553.35 289.377 671.635 308.153 749.694 314.09C804.71 318.275 845.263 314.741 878.586 307.34C911.899 299.941 937.968 288.68 963.994 277.437L963.995 277.436L964.008 277.431C990.042 266.185 1016.03 254.957 1049.25 247.58C1082.46 240.203 1122.92 236.673 1177.85 240.851C1201.8 242.672 1237.56 251.991 1277.77 264.968C1317.96 277.941 1362.56 294.555 1404.16 310.944C1445.76 327.332 1484.36 343.491 1512.56 355.554C1526.66 361.586 1538.16 366.593 1546.13 370.092C1550.12 371.842 1553.22 373.214 1555.33 374.15C1556.39 374.617 1557.19 374.975 1557.74 375.217C1558.01 375.337 1558.21 375.429 1558.35 375.49L1558.5 375.559L1558.54 375.576L1558.55 375.581C1558.55 375.582 1558.55 375.582 1558.76 375.126C1558.96 374.669 1558.96 374.669 1558.96 374.668L1558.95 374.664L1558.91 374.646L1558.76 374.577C1558.62 374.516 1558.41 374.424 1558.14 374.303C1557.6 374.062 1556.79 373.703 1555.74 373.235C1553.63 372.3 1550.52 370.927 1546.53 369.177C1538.56 365.676 1527.05 360.668 1512.95 354.635C1484.74 342.57 1446.14 326.406 1404.52 310.013C1362.91 293.621 1318.3 276.999 1278.07 264.017ZM1176.33 260.791C1200.41 262.622 1236.27 271.976 1276.48 284.954C1316.7 297.936 1361.32 314.559 1402.93 330.951C1444.54 347.343 1483.15 363.507 1511.36 375.573C1525.46 381.605 1536.96 386.614 1544.94 390.114C1548.93 391.864 1552.04 393.237 1554.15 394.173C1555.2 394.641 1556.01 394.999 1556.55 395.241C1556.82 395.361 1557.03 395.453 1557.16 395.514L1557.32 395.584L1557.36 395.601L1557.37 395.605C1557.37 395.606 1557.37 395.607 1557.17 396.063C1556.96 396.52 1556.96 396.519 1556.96 396.518L1556.95 396.514L1556.91 396.497L1556.76 396.427C1556.62 396.366 1556.41 396.275 1556.14 396.154C1555.6 395.913 1554.8 395.555 1553.74 395.087C1551.63 394.152 1548.53 392.779 1544.54 391.03C1536.57 387.531 1525.07 382.523 1510.97 376.492C1482.77 364.429 1444.17 348.269 1402.57 331.881C1360.96 315.493 1316.37 298.879 1276.17 285.906C1235.97 272.929 1200.2 263.61 1176.26 261.788C1121.33 257.61 1080.87 261.141 1047.66 268.517C1014.44 275.895 988.45 287.122 962.416 298.368L962.404 298.374L962.402 298.374C936.376 309.617 910.307 320.878 876.994 328.277C843.671 335.678 803.118 339.212 748.102 335.028C670.044 329.09 551.758 310.314 433.503 291.543L433.481 291.54C315.2 272.764 196.953 253.995 118.94 248.061C85.3131 245.503 61.331 246.123 44.2747 248.482C27.2128 250.842 17.1191 254.939 11.2326 259.303C5.36582 263.652 3.66647 268.275 3.39808 271.773C3.26317 273.532 3.48921 275.024 3.74812 276.073C3.87754 276.598 4.01496 277.011 4.11873 277.29L4.14408 277.357C4.15795 277.394 4.17118 277.428 4.18352 277.458L4.19844 277.496L4.2169 277.541L4.24364 277.605L4.25832 277.639L4.27735 277.681L4.28523 277.699L4.2867 277.702C4.2867 277.702 4.28649 277.701 3.83558 277.917C3.62073 278.02 3.50817 278.074 3.44912 278.102C3.38435 278.133 3.38414 278.132 3.38393 278.132L3.38266 278.129L3.37897 278.121L3.36668 278.095L3.34108 278.037L3.3241 277.998C3.31018 277.965 3.29413 277.927 3.27629 277.883C3.24855 277.814 3.21657 277.733 3.1814 277.638C3.06595 277.328 2.91685 276.878 2.77733 276.313C2.49835 275.183 2.25644 273.583 2.40101 271.697C2.69196 267.904 4.54229 263.018 10.637 258.499C16.7123 253.995 26.9922 249.863 44.1376 247.491C61.2887 245.119 85.3475 244.503 119.016 247.064C197.075 253.001 315.36 271.777 433.614 290.548L433.638 290.552C551.918 309.327 670.165 328.097 748.178 334.03C803.111 338.209 843.564 334.678 876.777 327.301C909.993 319.924 935.986 308.696 962.02 297.45L962.032 297.445L962.034 297.444C988.06 286.201 1014.13 274.94 1047.44 267.541C1080.76 260.14 1121.32 256.607 1176.33 260.791ZM1174.74 281.733C1198.81 283.564 1234.67 292.918 1274.88 305.896C1315.11 318.878 1359.73 335.5 1401.34 351.892C1442.95 368.285 1481.56 384.448 1509.76 396.514C1523.87 402.547 1535.37 407.555 1543.35 411.055C1547.33 412.806 1550.44 414.179 1552.55 415.114C1553.61 415.582 1554.41 415.941 1554.95 416.182L1555.53 416.439L1555.57 416.456L1555.72 416.525L1555.76 416.543L1555.77 416.547C1555.77 416.548 1555.78 416.548 1555.57 417.005C1555.37 417.461 1555.37 417.461 1555.36 417.46L1555.35 417.455L1555.32 417.438L1555.16 417.369C1555.02 417.308 1554.82 417.216 1554.55 417.096C1554.01 416.854 1553.2 416.496 1552.15 416.029C1550.04 415.093 1546.93 413.721 1542.94 411.971C1534.97 408.472 1523.47 403.465 1509.37 397.433C1481.17 385.37 1442.57 369.21 1400.97 352.823C1359.37 336.434 1314.77 319.82 1274.58 306.847C1234.37 293.87 1198.61 284.551 1174.66 282.73C1119.73 278.551 1079.28 282.082 1046.06 289.459C1012.85 296.836 986.854 308.064 960.821 319.31L960.808 319.315L960.807 319.316L960.806 319.316C934.78 330.559 908.712 341.82 875.398 349.219C842.076 356.62 801.522 360.153 746.507 355.969C668.448 350.032 550.162 331.256 431.908 312.485L431.885 312.481C313.604 293.706 195.358 274.936 117.345 269.002C83.7173 266.445 59.7352 267.064 42.6789 269.423C25.617 271.784 15.5234 275.88 9.63688 280.244C3.77009 284.594 2.07073 289.216 1.80235 292.714C1.66744 294.474 1.89348 295.965 2.15239 297.015C2.28181 297.539 2.41923 297.952 2.52299 298.231C2.57482 298.371 2.61818 298.477 2.6479 298.546L2.66258 298.58L2.68162 298.623L2.68949 298.64L2.69096 298.643C2.69096 298.643 2.69075 298.643 2.23984 298.859C1.78893 299.075 1.78862 299.074 1.78819 299.073L1.78692 299.071L1.78323 299.063L1.77095 299.036C1.76403 299.021 1.75524 299.001 1.74493 298.977L1.72837 298.939C1.69272 298.856 1.64339 298.735 1.58567 298.58C1.47021 298.269 1.32112 297.82 1.18159 297.254C0.902616 296.124 0.6607 294.524 0.805274 292.638C1.09622 288.845 2.94655 283.96 9.04131 279.441C15.1166 274.937 25.3965 270.804 42.5419 268.433C59.6929 266.06 83.7518 265.445 117.421 268.005C195.479 273.942 313.764 292.719 432.019 311.49L432.042 311.493C550.323 330.269 668.569 349.038 746.582 354.972C801.515 359.15 841.968 355.619 875.182 348.243C908.398 340.865 934.39 329.638 960.424 318.392L960.437 318.386L960.438 318.386C986.465 307.143 1012.53 295.882 1045.85 288.483C1079.17 281.082 1119.72 277.548 1174.74 281.733Z" fill="url(#paint0_linear_564_5867)"/>
<defs>
<linearGradient id="paint0_linear_564_5867" x1="743.632" y1="198.078" x2="763.284" y2="377.447" gradientUnits="userSpaceOnUse">
<stop stop-color="#1F3891" stop-opacity="0"/>
<stop offset="1" stop-color="#1F3891"/>
</linearGradient>
</defs>
</svg>


