<svg width="1440" height="374" viewBox="0 0 1440 374" fill="none"
    xmlns="http://www.w3.org/2000/svg">
    <path fill-rule="evenodd" clip-rule="evenodd" d="M302.888 373.9C278.742 373.9 242.276 367.292 201.197 357.401C160.106 347.507 114.355 334.316 71.6214 321.127C28.8863 307.938 -10.8375 294.749 -39.8772 284.857C-54.3972 279.911 -66.2465 275.79 -74.4659 272.905C-78.5757 271.462 -81.778 270.329 -83.953 269.556C-85.0405 269.169 -85.8711 268.873 -86.43 268.673C-86.7094 268.573 -86.9209 268.498 -87.0626 268.447L-87.2224 268.39L-87.2626 268.375L-87.2728 268.371C-87.275 268.371 -87.2762 268.37 -87.1071 267.9C-86.9381 267.429 -86.937 267.429 -86.9348 267.43L-86.9248 267.434L-86.8847 267.448L-86.7252 267.505C-86.5838 267.556 -86.3726 267.632 -86.0935 267.731C-85.5352 267.931 -84.705 268.227 -83.6181 268.613C-81.4443 269.386 -78.2432 270.519 -74.1347 271.961C-65.9178 274.845 -54.0715 278.966 -39.5548 283.911C-10.5211 293.8 29.1931 306.986 71.9163 320.172C114.64 333.358 160.369 346.542 201.432 356.429C242.508 366.32 278.872 372.9 302.888 372.9C357.98 372.9 398.049 366.311 430.607 356.437C463.168 346.562 488.234 333.395 513.34 320.207L513.352 320.201L513.353 320.2C538.452 307.016 563.591 293.81 596.248 283.906C628.913 273.999 669.081 267.4 724.256 267.4C802.54 267.4 921.909 277.151 1041.25 286.899L1041.27 286.901C1160.63 296.652 1279.96 306.4 1358.2 306.4C1391.93 306.4 1415.79 303.963 1432.62 300.317C1449.45 296.67 1459.21 291.82 1464.75 287.022C1470.27 282.24 1471.61 277.501 1471.61 273.993C1471.61 272.229 1471.28 270.759 1470.94 269.732C1470.77 269.219 1470.6 268.817 1470.48 268.547C1470.41 268.412 1470.36 268.309 1470.33 268.242L1470.31 268.21L1470.29 268.168L1470.28 268.152L1470.28 268.149C1470.28 268.149 1470.28 268.149 1470.71 267.9C1471.14 267.65 1471.14 267.651 1471.14 267.652L1471.15 267.654L1471.15 267.662L1471.16 267.687C1471.18 267.709 1471.19 267.74 1471.21 267.781C1471.26 267.861 1471.31 267.978 1471.38 268.128C1471.52 268.429 1471.71 268.866 1471.89 269.419C1472.25 270.525 1472.61 272.102 1472.61 273.994C1472.61 277.798 1471.14 282.81 1465.4 287.778C1459.69 292.729 1449.75 297.629 1432.83 301.295C1415.91 304.961 1391.97 307.4 1358.2 307.4C1279.92 307.4 1160.55 297.649 1041.21 287.9L1041.19 287.898C921.824 278.147 802.495 268.4 724.256 268.4C669.165 268.4 629.096 274.988 596.538 284.863C563.977 294.738 538.91 307.904 513.805 321.092L513.793 321.099L513.791 321.099C488.693 334.284 463.553 347.49 430.897 357.394C398.232 367.301 358.063 373.9 302.888 373.9ZM201.197 337.901C242.275 347.792 278.742 354.399 302.888 354.399C358.063 354.399 398.231 347.8 430.896 337.894C463.553 327.989 488.692 314.784 513.791 301.599L513.792 301.599L513.804 301.592C538.91 288.404 563.976 275.238 596.537 265.362C629.095 255.488 669.164 248.899 724.256 248.899C802.494 248.899 921.824 258.647 1041.19 268.398L1041.21 268.4C1160.55 278.148 1279.92 287.899 1358.2 287.899C1391.97 287.899 1415.91 285.461 1432.83 281.794C1449.75 278.129 1459.68 273.229 1465.4 268.277C1471.14 263.309 1472.61 258.298 1472.61 254.494C1472.61 252.602 1472.25 251.025 1471.89 249.919C1471.7 249.366 1471.52 248.929 1471.38 248.628C1471.31 248.478 1471.26 248.361 1471.21 248.281C1471.19 248.24 1471.18 248.209 1471.16 248.187L1471.15 248.161L1471.15 248.154L1471.14 248.151C1471.14 248.151 1471.14 248.15 1470.71 248.399L1470.4 248.576C1470.28 248.649 1470.28 248.649 1470.28 248.649L1470.28 248.652L1470.29 248.668L1470.31 248.709L1470.33 248.742C1470.34 248.773 1470.36 248.81 1470.38 248.855C1470.41 248.909 1470.44 248.973 1470.48 249.047C1470.6 249.317 1470.77 249.718 1470.94 250.232C1471.27 251.258 1471.61 252.729 1471.61 254.493C1471.61 258.001 1470.27 262.739 1464.75 267.522C1459.21 272.32 1449.45 277.17 1432.62 280.817C1415.79 284.463 1391.93 286.899 1358.2 286.899C1279.96 286.899 1160.63 277.152 1041.27 267.401L1041.25 267.399C921.909 257.651 802.54 247.899 724.256 247.899C669.081 247.899 628.912 254.498 596.247 264.405C563.591 274.31 538.451 287.515 513.352 300.7L513.352 300.7L513.339 300.707C488.234 313.895 463.167 327.061 430.606 336.937C398.048 346.811 357.979 353.399 302.888 353.399C278.872 353.399 242.507 346.819 201.431 336.929C160.368 327.042 114.64 313.858 71.9158 300.672C29.1926 287.486 -10.5216 274.3 -39.5553 264.411C-54.072 259.466 -65.9183 255.345 -74.1352 252.461C-78.2437 251.019 -81.4447 249.886 -83.6186 249.113C-84.7055 248.727 -85.5356 248.431 -86.094 248.231C-86.3731 248.132 -86.5843 248.056 -86.7257 248.005L-86.8852 247.948L-86.9252 247.934L-86.9353 247.93C-86.9375 247.929 -86.9386 247.929 -87.1076 248.399C-87.2767 248.87 -87.2755 248.87 -87.2732 248.871L-87.2631 248.875L-87.2229 248.889L-87.063 248.947C-86.9214 248.997 -86.7099 249.073 -86.4305 249.173C-85.8716 249.373 -85.041 249.669 -83.9535 250.055C-81.7785 250.828 -78.5761 251.962 -74.4664 253.404C-66.2469 256.29 -54.3977 260.411 -39.8777 265.357C-10.838 275.249 28.8858 288.438 71.6209 301.627C114.355 314.816 160.105 328.007 201.197 337.901ZM302.887 334.9C278.741 334.9 242.275 328.292 201.196 318.401C160.105 308.507 114.354 295.316 71.6204 282.127C28.8853 268.938 -10.8385 255.749 -39.8782 245.857C-54.3982 240.911 -66.2475 236.79 -74.4669 233.904C-78.5767 232.462 -81.779 231.328 -83.954 230.555C-85.0415 230.169 -85.8721 229.873 -86.431 229.673C-86.7104 229.573 -86.9219 229.497 -87.0636 229.447L-87.2234 229.389L-87.2637 229.375L-87.2738 229.371C-87.276 229.37 -87.2772 229.37 -87.1081 228.9C-86.9391 228.429 -86.938 228.429 -86.9358 228.43L-86.9258 228.434L-86.8857 228.448L-86.7263 228.505C-86.5849 228.556 -86.3737 228.632 -86.0945 228.731C-85.5362 228.931 -84.7061 229.227 -83.6191 229.613C-81.4453 230.386 -78.2442 231.519 -74.1357 232.961C-65.9188 235.845 -54.0725 239.966 -39.5558 244.911C-10.5221 254.8 29.1921 267.986 71.9153 281.172C114.639 294.358 160.368 307.542 201.431 317.429C242.507 327.319 278.871 333.9 302.887 333.9C357.979 333.9 398.048 327.311 430.606 317.437C463.167 307.561 488.233 294.395 513.339 281.207L513.351 281.2L513.352 281.2C538.451 268.015 563.59 254.81 596.247 244.905C628.912 234.999 669.08 228.4 724.255 228.4C802.539 228.4 921.908 238.151 1041.25 247.899L1041.27 247.901C1160.63 257.652 1279.96 267.4 1358.2 267.4C1391.93 267.4 1415.79 264.963 1432.62 261.317C1449.45 257.67 1459.21 252.82 1464.75 248.022C1470.27 243.24 1471.61 238.501 1471.61 234.993C1471.61 233.229 1471.27 231.759 1470.94 230.732C1470.77 230.218 1470.6 229.817 1470.47 229.547L1470.45 229.493C1470.43 229.445 1470.41 229.401 1470.39 229.362C1470.36 229.314 1470.34 229.274 1470.33 229.242L1470.31 229.209L1470.29 229.168L1470.28 229.152L1470.28 229.149C1470.28 229.149 1470.28 229.149 1470.71 228.9L1471.05 228.705C1471.14 228.65 1471.14 228.651 1471.14 228.651L1471.15 228.654L1471.15 228.661L1471.16 228.687C1471.18 228.709 1471.19 228.74 1471.21 228.781C1471.24 228.835 1471.28 228.907 1471.32 228.995L1471.35 229.065L1471.38 229.128C1471.52 229.429 1471.7 229.866 1471.89 230.419C1472.25 231.525 1472.61 233.102 1472.61 234.994C1472.61 238.798 1471.13 243.81 1465.4 248.777C1459.68 253.729 1449.75 258.629 1432.83 262.294C1415.91 265.961 1391.97 268.4 1358.2 268.4C1279.92 268.4 1160.55 258.648 1041.21 248.9L1041.19 248.898C921.823 239.147 802.494 229.4 724.255 229.4C669.164 229.4 629.095 235.988 596.537 245.862C563.976 255.738 538.909 268.904 513.804 282.092L513.792 282.099L513.79 282.099C488.692 295.284 463.552 308.489 430.896 318.394C398.231 328.301 358.062 334.9 302.887 334.9ZM201.197 298.901C242.275 308.792 278.742 315.399 302.888 315.399C358.062 315.399 398.231 308.8 430.896 298.894C463.553 288.989 488.692 275.784 513.791 262.599L513.792 262.599L513.804 262.592C538.91 249.404 563.976 236.238 596.537 226.362C629.095 216.488 669.164 209.899 724.256 209.899C802.494 209.899 921.824 219.647 1041.19 229.398L1041.21 229.4C1160.55 239.148 1279.92 248.899 1358.2 248.899C1391.97 248.899 1415.91 246.461 1432.83 242.794C1449.75 239.129 1459.68 234.229 1465.4 229.277C1471.14 224.309 1472.61 219.298 1472.61 215.494C1472.61 213.602 1472.25 212.025 1471.89 210.919C1471.7 210.366 1471.52 209.929 1471.38 209.628C1471.31 209.478 1471.26 209.361 1471.21 209.281L1471.18 209.221L1471.16 209.187L1471.15 209.161L1471.15 209.154L1471.14 209.151C1471.14 209.151 1471.14 209.15 1470.71 209.399C1470.28 209.649 1470.28 209.649 1470.28 209.649L1470.28 209.652L1470.29 209.668L1470.31 209.709L1470.33 209.742C1470.36 209.809 1470.41 209.912 1470.48 210.047C1470.6 210.317 1470.77 210.718 1470.94 211.231C1471.27 212.258 1471.61 213.728 1471.61 215.493C1471.61 219.001 1470.27 223.739 1464.75 228.522C1459.21 233.32 1449.45 238.17 1432.62 241.817C1415.79 245.463 1391.93 247.899 1358.2 247.899C1279.96 247.899 1160.63 238.152 1041.27 228.401L1041.25 228.399C921.909 218.651 802.54 208.899 724.256 208.899C669.081 208.899 628.912 215.498 596.247 225.405C563.591 235.31 538.451 248.515 513.352 261.7L513.351 261.7L513.339 261.707C488.233 274.895 463.167 288.061 430.606 297.937C398.048 307.811 357.979 314.399 302.888 314.399C278.871 314.399 242.507 307.819 201.431 297.929C160.368 288.042 114.64 274.858 71.9158 261.672C29.1926 248.486 -10.5216 235.3 -39.5553 225.411C-54.072 220.466 -65.9183 216.345 -74.1352 213.461C-78.2437 212.019 -81.4448 210.886 -83.6187 210.113C-84.7056 209.727 -85.5357 209.431 -86.094 209.231C-86.3732 209.131 -86.5844 209.056 -86.7258 209.005L-86.8853 208.948L-86.9253 208.934L-86.9353 208.93C-86.9375 208.929 -86.9386 208.929 -87.1077 209.399C-87.2767 209.87 -87.2756 209.87 -87.2733 209.871L-87.2632 209.875L-87.223 209.889L-87.0631 209.947C-86.9214 209.997 -86.71 210.073 -86.4305 210.173C-85.8717 210.373 -85.041 210.669 -83.9535 211.055C-81.7785 211.828 -78.5762 212.962 -74.4665 214.404C-66.247 217.29 -54.3977 221.411 -39.8777 226.357C-10.838 236.249 28.8858 249.438 71.6208 262.627C114.355 275.816 160.105 289.007 201.197 298.901ZM302.886 295.899C278.74 295.899 242.274 289.292 201.195 279.401C160.104 269.507 114.354 256.316 71.6194 243.127C28.8843 229.937 -10.8395 216.748 -39.8792 206.857C-54.3992 201.911 -66.2484 197.789 -74.4679 194.904C-78.5776 193.461 -81.7799 192.328 -83.9549 191.555C-85.0424 191.169 -85.8731 190.872 -86.432 190.672C-86.7114 190.573 -86.9229 190.497 -87.0645 190.446L-87.2244 190.389L-87.2646 190.374L-87.2747 190.371C-87.277 190.37 -87.2781 190.37 -87.1091 189.899C-86.9401 189.428 -86.939 189.429 -86.9367 189.43L-86.9267 189.433L-86.8867 189.448L-86.7272 189.505C-86.5858 189.555 -86.3746 189.631 -86.0955 189.731C-85.5371 189.93 -84.707 190.226 -83.6201 190.613C-81.4462 191.385 -78.2451 192.518 -74.1367 193.96C-65.9198 196.845 -54.0735 200.965 -39.5568 205.91C-10.5231 215.8 29.1911 228.986 71.9143 242.171C114.638 255.357 160.367 268.541 201.43 278.429C242.506 288.319 278.87 294.899 302.886 294.899C357.978 294.899 398.047 288.31 430.605 278.436C463.166 268.561 488.232 255.395 513.338 242.206L513.35 242.2L513.351 242.199C538.45 229.015 563.589 215.809 596.246 205.905C628.911 195.998 669.08 189.399 724.254 189.399C802.538 189.399 921.908 199.15 1041.24 208.899L1041.27 208.901C1160.63 218.651 1279.96 228.399 1358.2 228.399C1391.92 228.399 1415.79 225.963 1432.62 222.317C1449.45 218.669 1459.21 213.819 1464.74 209.021C1470.26 204.239 1471.61 199.501 1471.61 195.992C1471.61 194.228 1471.27 192.758 1470.94 191.731C1470.77 191.218 1470.6 190.817 1470.47 190.546C1470.44 190.48 1470.42 190.422 1470.39 190.372C1470.37 190.32 1470.34 190.276 1470.33 190.242L1470.31 190.209L1470.29 190.168L1470.28 190.151L1470.28 190.148C1470.28 190.148 1470.28 190.149 1470.71 189.899C1471.14 189.649 1471.14 189.65 1471.14 189.651L1471.14 189.653L1471.15 189.661L1471.16 189.687C1471.17 189.709 1471.19 189.74 1471.21 189.78C1471.25 189.861 1471.31 189.977 1471.38 190.128C1471.52 190.429 1471.7 190.865 1471.89 191.419C1472.25 192.524 1472.61 194.101 1472.61 195.993C1472.61 199.797 1471.13 204.809 1465.4 209.777C1459.68 214.729 1449.75 219.629 1432.83 223.294C1415.91 226.96 1391.97 229.399 1358.2 229.399C1279.92 229.399 1160.55 219.648 1041.21 209.899L1041.19 209.897C921.822 200.147 802.493 190.399 724.254 190.399C669.163 190.399 629.094 196.988 596.536 206.862C563.975 216.737 538.909 229.903 513.803 243.092L513.791 243.098L513.789 243.099C488.691 256.283 463.551 269.489 430.895 279.393C398.23 289.3 358.061 295.899 302.886 295.899ZM201.195 258.401C242.273 268.292 278.739 274.899 302.886 274.899C358.06 274.899 398.229 268.3 430.894 258.393C463.551 248.489 488.69 235.283 513.789 222.099L513.79 222.098L513.802 222.092C538.908 208.904 563.974 195.737 596.535 185.862C629.093 175.988 669.162 169.399 724.254 169.399C802.492 169.399 921.822 179.147 1041.19 188.898L1041.21 188.899C1160.55 198.648 1279.91 208.399 1358.2 208.399C1391.96 208.399 1415.91 205.961 1432.83 202.294C1449.75 198.629 1459.68 193.729 1465.4 188.777C1471.13 183.809 1472.61 178.797 1472.61 174.993C1472.61 173.101 1472.25 171.525 1471.88 170.419C1471.7 169.865 1471.52 169.429 1471.38 169.128C1471.35 169.057 1471.32 168.993 1471.29 168.937C1471.28 168.905 1471.26 168.875 1471.25 168.848L1471.21 168.78C1471.19 168.74 1471.17 168.709 1471.16 168.687L1471.15 168.661L1471.14 168.654L1471.14 168.651C1471.14 168.65 1471.14 168.65 1470.71 168.899L1470.32 169.121L1470.27 169.148L1470.28 169.151L1470.29 169.168L1470.31 169.209L1470.32 169.242C1470.36 169.309 1470.41 169.411 1470.47 169.546C1470.6 169.817 1470.77 170.218 1470.94 170.731C1471.27 171.758 1471.61 173.228 1471.61 174.993C1471.61 178.501 1470.26 183.239 1464.74 188.021C1459.21 192.819 1449.45 197.669 1432.62 201.317C1415.79 204.963 1391.92 207.399 1358.2 207.399C1279.96 207.399 1160.63 197.652 1041.27 187.901L1041.24 187.899C921.907 178.15 802.538 168.399 724.254 168.399C669.079 168.399 628.91 174.998 596.245 184.905C563.589 194.809 538.449 208.015 513.35 221.2L513.349 221.2L513.337 221.207C488.231 234.395 463.165 247.561 430.604 257.436C398.046 267.311 357.977 273.899 302.886 273.899C278.869 273.899 242.505 267.319 201.429 257.429C160.366 247.542 114.638 234.357 71.9137 221.171C29.1905 207.986 -10.5237 194.8 -39.5574 184.91C-54.0741 179.966 -65.9204 175.845 -74.1374 172.961C-78.2458 171.518 -81.4469 170.385 -83.6208 169.613C-84.7077 169.227 -85.5378 168.931 -86.0961 168.731C-86.3753 168.631 -86.5865 168.556 -86.7279 168.505L-86.8874 168.448L-86.9274 168.433L-86.9374 168.43C-86.9396 168.429 -86.9407 168.429 -87.1098 168.899C-87.2788 169.37 -87.2777 169.37 -87.2754 169.371L-87.2653 169.375L-87.2251 169.389L-87.0652 169.446C-86.9235 169.497 -86.7121 169.573 -86.4326 169.673C-85.8738 169.872 -85.0431 170.169 -83.9556 170.555C-81.7806 171.328 -78.5783 172.462 -74.4686 173.904C-66.2491 176.789 -54.3998 180.911 -39.8798 185.857C-10.8401 195.749 28.8837 208.938 71.6187 222.127C114.353 235.316 160.103 248.507 201.195 258.401ZM302.888 253.899C278.742 253.899 242.275 247.292 201.197 237.401C160.106 227.507 114.355 214.316 71.621 201.127C28.886 187.938 -10.8378 174.749 -39.8776 164.857C-54.3976 159.911 -66.2468 155.79 -74.4663 152.904C-78.576 151.462 -81.7783 150.328 -83.9533 149.555C-85.0408 149.169 -85.8715 148.873 -86.4303 148.673C-86.7098 148.573 -86.9213 148.497 -87.0629 148.447L-87.2228 148.389L-87.263 148.375L-87.2731 148.371C-87.2754 148.37 -87.2765 148.37 -87.1075 147.899C-86.9384 147.429 -86.9373 147.429 -86.9351 147.43L-86.9251 147.434L-86.8851 147.448L-86.7256 147.505C-86.5842 147.556 -86.373 147.632 -86.0938 147.731C-85.5355 147.931 -84.7054 148.227 -83.6185 148.613C-81.4446 149.386 -78.2435 150.519 -74.1351 151.961C-65.9181 154.845 -54.0718 158.966 -39.5551 163.911C-10.5214 173.8 29.1927 186.986 71.9159 200.172C114.64 213.358 160.368 226.542 201.431 236.429C242.507 246.319 278.872 252.899 302.888 252.899C357.979 252.899 398.048 246.311 430.606 236.437C463.167 226.561 488.234 213.395 513.339 200.207L513.352 200.2L513.353 200.2C538.451 187.015 563.591 173.81 596.247 163.905C628.913 153.998 669.081 147.399 724.256 147.399C802.54 147.399 921.909 157.151 1041.25 166.899L1041.27 166.901C1160.63 176.652 1279.96 186.399 1358.2 186.399C1391.93 186.399 1415.79 183.963 1432.62 180.317C1449.45 176.67 1459.21 171.82 1464.75 167.022C1470.27 162.239 1471.61 157.501 1471.61 153.993C1471.61 152.228 1471.28 150.758 1470.94 149.731C1470.77 149.218 1470.6 148.817 1470.48 148.547C1470.41 148.412 1470.36 148.309 1470.33 148.242L1470.31 148.209L1470.29 148.168L1470.28 148.152L1470.28 148.149C1470.28 148.149 1470.28 148.149 1470.71 147.899C1471.14 147.65 1471.14 147.651 1471.14 147.651L1471.15 147.654L1471.15 147.661L1471.16 147.687C1471.18 147.709 1471.19 147.74 1471.21 147.781C1471.26 147.861 1471.31 147.978 1471.38 148.128C1471.52 148.429 1471.71 148.866 1471.89 149.419C1472.25 150.525 1472.61 152.102 1472.61 153.994C1472.61 157.798 1471.14 162.809 1465.4 167.777C1459.68 172.729 1449.75 177.629 1432.83 181.294C1415.91 184.961 1391.97 187.399 1358.2 187.399C1279.92 187.399 1160.55 177.648 1041.21 167.9L1041.19 167.898C921.824 158.147 802.494 148.399 724.256 148.399C669.164 148.399 629.095 154.988 596.537 164.862C563.977 174.738 538.91 187.904 513.804 201.092L513.792 201.099L513.791 201.099C488.692 214.284 463.553 227.489 430.896 237.394C398.231 247.3 358.063 253.899 302.888 253.899ZM201.197 216.401C242.275 226.292 278.741 232.899 302.887 232.899C358.062 232.899 398.231 226.3 430.896 216.393C463.552 206.489 488.692 193.283 513.791 180.099L513.792 180.098L513.804 180.092C538.909 166.904 563.976 153.737 596.537 143.862C629.095 133.988 669.164 127.399 724.255 127.399C802.494 127.399 921.823 137.147 1041.19 146.898L1041.21 146.899C1160.55 156.648 1279.92 166.399 1358.2 166.399C1391.97 166.399 1415.91 163.96 1432.83 160.294C1449.75 156.629 1459.68 151.729 1465.4 146.777C1471.14 141.809 1472.61 136.797 1472.61 132.993C1472.61 131.101 1472.25 129.525 1471.89 128.419C1471.7 127.865 1471.52 127.429 1471.38 127.128C1471.31 126.977 1471.26 126.861 1471.21 126.78C1471.19 126.74 1471.18 126.709 1471.16 126.687L1471.15 126.661L1471.15 126.654L1471.14 126.651C1471.14 126.65 1471.14 126.65 1470.71 126.899C1470.28 127.149 1470.28 127.148 1470.28 127.148L1470.28 127.151L1470.29 127.168L1470.31 127.209L1470.33 127.242C1470.36 127.309 1470.41 127.411 1470.47 127.546C1470.6 127.817 1470.77 128.218 1470.94 128.731C1471.27 129.758 1471.61 131.228 1471.61 132.993C1471.61 136.501 1470.27 141.239 1464.75 146.021C1459.21 150.819 1449.45 155.669 1432.62 159.317C1415.79 162.963 1391.93 165.399 1358.2 165.399C1279.96 165.399 1160.63 155.652 1041.27 145.901L1041.25 145.899L1041.24 145.899C921.908 136.15 802.539 126.399 724.255 126.399C669.081 126.399 628.912 132.998 596.247 142.905C563.59 152.809 538.451 166.015 513.352 179.2L513.351 179.2L513.339 179.207C488.233 192.395 463.167 205.561 430.606 215.436C398.048 225.311 357.979 231.899 302.887 231.899C278.871 231.899 242.507 225.319 201.431 215.429C160.368 205.542 114.64 192.357 71.9153 179.171C29.1922 165.986 -10.522 152.8 -39.5557 142.91C-54.0724 137.966 -65.9187 133.845 -74.1357 130.961C-78.2441 129.518 -81.4452 128.385 -83.6191 127.613C-84.706 127.227 -85.5361 126.931 -86.0944 126.731C-86.3736 126.631 -86.5848 126.556 -86.7262 126.505L-86.8857 126.448L-86.9257 126.433L-86.9357 126.43C-86.9379 126.429 -86.939 126.429 -87.1081 126.899C-87.2771 127.37 -87.276 127.37 -87.2737 127.371L-87.2636 127.375L-87.2234 127.389L-87.0635 127.446C-86.9218 127.497 -86.7104 127.573 -86.4309 127.673C-85.8721 127.872 -85.0414 128.169 -83.9539 128.555C-81.7789 129.328 -78.5766 130.462 -74.4669 131.904C-66.2474 134.789 -54.3981 138.911 -39.8782 143.857C-10.8384 153.749 28.8854 166.938 71.6204 180.127C114.355 193.316 160.105 206.507 201.197 216.401ZM302.888 211.9C278.741 211.9 242.275 205.292 201.197 195.401C160.105 185.507 114.355 172.316 71.6207 159.127C28.8857 145.938 -10.8381 132.749 -39.8778 122.857C-54.3978 117.911 -66.2471 113.79 -74.4666 110.905C-78.5763 109.462 -81.7786 108.328 -83.9536 107.555C-85.0411 107.169 -85.8718 106.873 -86.4306 106.673C-86.7101 106.573 -86.9215 106.497 -87.0632 106.447L-87.2231 106.389L-87.2633 106.375L-87.2734 106.371C-87.2757 106.37 -87.2768 106.37 -87.1078 105.9C-86.9387 105.429 -86.9376 105.429 -86.9354 105.43L-86.9254 105.434L-86.8854 105.448L-86.7259 105.505C-86.5845 105.556 -86.3733 105.632 -86.0941 105.731C-85.5358 105.931 -84.7057 106.227 -83.6188 106.613C-81.4449 107.386 -78.2438 108.519 -74.1354 109.961C-65.9184 112.845 -54.0721 116.966 -39.5554 121.911C-10.5217 131.8 29.1925 144.986 71.9156 158.172C114.64 171.358 160.368 184.542 201.431 194.429C242.507 204.319 278.871 210.9 302.888 210.9C357.979 210.9 398.048 204.311 430.606 194.437C463.167 184.561 488.233 171.395 513.339 158.207L513.351 158.2L513.352 158.2C538.451 145.015 563.591 131.81 596.247 121.905C628.912 111.999 669.081 105.4 724.256 105.4C802.54 105.4 921.909 115.151 1041.25 124.899L1041.27 124.901C1160.63 134.652 1279.96 144.4 1358.2 144.4C1391.93 144.4 1415.79 141.963 1432.62 138.317C1449.45 134.67 1459.21 129.82 1464.75 125.022C1470.27 120.24 1471.61 115.501 1471.61 111.993C1471.61 110.229 1471.27 108.759 1470.94 107.732C1470.77 107.218 1470.6 106.817 1470.48 106.547C1470.41 106.412 1470.36 106.309 1470.33 106.242L1470.31 106.209L1470.29 106.168L1470.28 106.152L1470.28 106.149C1470.28 106.149 1470.28 106.149 1470.71 105.9C1471.14 105.65 1471.14 105.651 1471.14 105.651L1471.15 105.654L1471.15 105.661L1471.16 105.687C1471.18 105.709 1471.19 105.74 1471.21 105.781L1471.24 105.832L1471.27 105.895C1471.3 105.96 1471.34 106.038 1471.38 106.128C1471.52 106.429 1471.7 106.866 1471.89 107.419C1472.25 108.525 1472.61 110.102 1472.61 111.994C1472.61 115.798 1471.14 120.81 1465.4 125.777C1459.68 130.729 1449.75 135.629 1432.83 139.294C1415.91 142.961 1391.97 145.4 1358.2 145.4C1279.92 145.4 1160.55 135.648 1041.21 125.9L1041.19 125.898C921.824 116.147 802.494 106.4 724.256 106.4C669.164 106.4 629.095 112.988 596.537 122.862C563.976 132.738 538.91 145.904 513.804 159.092L513.792 159.099L513.791 159.099C488.692 172.284 463.553 185.489 430.896 195.394C398.231 205.301 358.062 211.9 302.888 211.9ZM201.195 174.401C242.274 184.292 278.74 190.899 302.886 190.899C358.061 190.899 398.229 184.3 430.895 174.393C463.551 164.489 488.69 151.283 513.789 138.099L513.79 138.098L513.803 138.092C538.908 124.904 563.975 111.737 596.536 101.862C629.094 91.9877 669.163 85.3992 724.254 85.3992C802.492 85.3992 921.822 95.1468 1041.19 104.898L1041.21 104.899C1160.55 114.648 1279.92 124.399 1358.2 124.399C1391.97 124.399 1415.91 121.961 1432.83 118.294C1449.75 114.629 1459.68 109.729 1465.4 104.777C1471.13 99.8092 1472.61 94.7975 1472.61 90.9933C1472.61 89.1014 1472.25 87.5246 1471.89 86.4188C1471.7 85.8655 1471.52 85.4288 1471.38 85.128C1471.31 84.9775 1471.25 84.8608 1471.21 84.7803C1471.19 84.7401 1471.17 84.7088 1471.16 84.687L1471.15 84.6612L1471.14 84.6536L1471.14 84.6512C1471.14 84.6503 1471.14 84.6496 1470.71 84.8992C1470.28 85.1489 1470.27 85.1484 1470.27 85.1484L1470.28 85.1515L1470.29 85.168L1470.31 85.2092L1470.33 85.2419C1470.36 85.309 1470.41 85.4113 1470.47 85.5465C1470.6 85.8169 1470.77 86.2181 1470.94 86.7313C1471.27 87.7582 1471.61 89.2283 1471.61 90.9927C1471.61 94.501 1470.26 99.2393 1464.74 104.021C1459.21 108.819 1449.45 113.669 1432.62 117.317C1415.79 120.963 1391.92 123.399 1358.2 123.399C1279.96 123.399 1160.63 113.652 1041.27 103.901L1041.24 103.899C921.907 94.1504 802.538 84.3992 724.254 84.3992C669.079 84.3992 628.911 90.9982 596.245 100.905C563.589 110.809 538.45 124.015 513.352 137.199L513.351 137.2L513.35 137.2L513.338 137.207C488.232 150.395 463.165 163.561 430.604 173.436C398.047 183.311 357.977 189.899 302.886 189.899C278.87 189.899 242.506 183.319 201.429 173.429C160.366 163.542 114.638 150.357 71.9141 137.171C29.1909 123.986 -10.5233 110.8 -39.557 100.91C-54.0737 95.9656 -65.92 91.845 -74.1369 88.9607C-78.2454 87.5185 -81.4465 86.3854 -83.6203 85.6129C-84.7073 85.2267 -85.5374 84.9305 -86.0957 84.731C-86.3749 84.6313 -86.5861 84.5557 -86.7275 84.505L-86.8869 84.4478L-86.927 84.4335L-86.937 84.4299C-86.9392 84.4291 -86.9403 84.4287 -87.1093 84.8992C-87.2784 85.3698 -87.2772 85.3702 -87.275 85.371L-87.2649 85.3746L-87.2247 85.3891L-87.0648 85.4464L-87.0257 85.4604L-86.4322 85.6727C-85.8734 85.8724 -85.0427 86.1687 -83.9552 86.5552C-81.7802 87.3281 -78.5779 88.4616 -74.4681 89.9042C-66.2487 92.7894 -54.3994 96.911 -39.8794 101.857C-10.8397 111.749 28.8841 124.938 71.6192 138.127C114.353 151.316 160.104 164.507 201.195 174.401ZM302.886 169.899C278.74 169.899 242.274 163.292 201.196 153.401C160.104 143.507 114.354 130.316 71.6195 117.127C28.8844 103.938 -10.8394 90.7487 -39.8791 80.857C-54.3991 75.9111 -66.2483 71.7895 -74.4678 68.9043C-78.5775 67.4617 -81.7798 66.3282 -83.9548 65.5553C-85.0423 65.1688 -85.873 64.8725 -86.4319 64.6728C-86.7113 64.573 -86.9228 64.4973 -87.0644 64.4465L-87.2243 64.3892L-87.2645 64.3748L-87.2746 64.3711C-87.2769 64.3703 -87.278 64.3699 -87.109 63.8994C-86.94 63.4288 -86.9389 63.4292 -86.9366 63.43L-86.9266 63.4336L-86.8866 63.4479L-86.7271 63.5051C-86.5857 63.5558 -86.3745 63.6314 -86.0954 63.7311C-85.537 63.9307 -84.7069 64.2268 -83.62 64.613C-81.4461 65.3855 -78.245 66.5186 -74.1366 67.9608C-65.9197 70.8451 -54.0734 74.9657 -39.5567 79.9104C-10.523 89.8 29.1912 102.986 71.9144 116.172C114.639 129.358 160.367 142.542 201.43 152.429C242.506 162.319 278.87 168.899 302.886 168.899C357.978 168.899 398.047 162.311 430.605 152.436C463.166 142.561 488.232 129.395 513.338 116.207L513.35 116.2L513.351 116.2C538.45 103.015 563.589 89.8094 596.246 79.9052C628.911 69.9983 669.08 63.3994 724.254 63.3994C802.539 63.3994 921.908 73.1505 1041.24 82.8991L1041.27 82.901C1160.63 92.6518 1279.96 102.399 1358.2 102.399C1391.92 102.399 1415.79 99.963 1432.62 96.3169C1449.45 92.6696 1459.21 87.8195 1464.74 83.0214C1470.26 78.2393 1471.61 73.5011 1471.61 69.9928C1471.61 68.2284 1471.27 66.7583 1470.94 65.7314C1470.77 65.2182 1470.6 64.817 1470.47 64.5466C1470.41 64.4114 1470.36 64.3091 1470.33 64.242L1470.31 64.2093L1470.29 64.1682L1470.28 64.1516L1470.28 64.1485C1470.28 64.1486 1470.28 64.1487 1470.36 64.1025L1470.71 63.8994C1471.14 63.6497 1471.14 63.6504 1471.14 63.6512L1471.14 63.6537L1471.15 63.6613L1471.16 63.6871L1471.19 63.7375L1471.21 63.7804C1471.25 63.8609 1471.31 63.9776 1471.38 64.1281C1471.52 64.429 1471.7 64.8656 1471.89 65.4189C1472.25 66.5247 1472.61 68.1016 1472.61 69.9934C1472.61 73.7976 1471.13 78.8093 1465.4 83.7773C1459.68 88.7292 1449.75 93.6291 1432.83 97.2943C1415.91 100.961 1391.97 103.399 1358.2 103.399C1279.92 103.399 1160.55 93.6482 1041.21 83.8996L1041.19 83.8977C921.822 74.1469 802.493 64.3994 724.254 64.3994C669.163 64.3994 629.094 70.9879 596.536 80.8622C563.975 90.7375 538.909 103.904 513.803 117.092L513.791 117.098L513.79 117.099L513.789 117.099L513.788 117.1C488.69 130.284 463.551 143.489 430.895 153.393C398.23 163.3 358.061 169.899 302.886 169.899ZM201.196 132.401C242.274 142.292 278.741 148.899 302.887 148.899C358.062 148.899 398.23 142.3 430.895 132.393C463.552 122.489 488.691 109.284 513.79 96.0991L513.791 96.0984L513.803 96.0919C538.909 82.9038 563.975 69.7374 596.536 59.8622C629.094 49.9878 669.163 43.3993 724.255 43.3993C802.493 43.3993 921.823 53.1469 1041.19 62.8976L1041.21 62.8996C1160.55 72.6482 1279.92 82.3993 1358.2 82.3993C1391.97 82.3993 1415.91 79.9606 1432.83 76.2942C1449.75 72.629 1459.68 67.7292 1465.4 62.7772C1471.13 57.8093 1472.61 52.7975 1472.61 48.9934C1472.61 47.1015 1472.25 45.5247 1471.89 44.4188C1471.7 43.8656 1471.52 43.4289 1471.38 43.128C1471.35 43.0589 1471.32 42.9969 1471.29 42.9422L1471.26 42.8718L1471.23 42.8036L1471.21 42.7804L1471.19 42.7401L1471.16 42.687L1471.15 42.6613L1471.14 42.6537L1471.14 42.6512C1471.14 42.6504 1471.14 42.6497 1470.71 42.8993C1470.28 43.1489 1470.28 43.1485 1470.28 43.1485L1470.28 43.1516L1470.29 43.1681L1470.31 43.2093L1470.33 43.242C1470.36 43.3091 1470.41 43.4114 1470.47 43.5466C1470.6 43.817 1470.77 44.2182 1470.94 44.7314C1471.27 45.7583 1471.61 47.2283 1471.61 48.9927C1471.61 52.5011 1470.27 57.2393 1464.75 62.0214C1459.21 66.8195 1449.45 71.6696 1432.62 75.3169C1415.79 78.963 1391.92 81.3993 1358.2 81.3993C1279.96 81.3993 1160.63 71.6517 1041.27 61.901L1041.25 61.8991L1041.24 61.8989C921.907 52.1504 802.538 42.3993 724.255 42.3993C669.08 42.3993 628.911 48.9983 596.246 58.9052C563.59 68.8094 538.45 82.0151 513.352 95.1995L513.35 95.2002L513.338 95.2067C488.232 108.395 463.166 121.561 430.605 131.436C398.047 141.311 357.978 147.899 302.887 147.899C278.871 147.899 242.506 141.319 201.43 131.429C160.367 121.542 114.639 108.358 71.9148 95.1715C29.1916 81.9859 -10.5226 68.8 -39.5563 58.9104C-54.073 53.9656 -65.9193 49.8451 -74.1362 46.9607C-78.2447 45.5186 -81.4458 44.3855 -83.6196 43.613C-84.7066 43.2267 -85.5367 42.9306 -86.095 42.7311C-86.3742 42.6313 -86.5854 42.5557 -86.7268 42.5051L-86.8863 42.4479L-86.9263 42.4335L-86.9363 42.4299C-86.9385 42.4291 -86.9396 42.4287 -87.1086 42.8993C-87.2777 43.3699 -87.2765 43.3703 -87.2743 43.3711L-87.2642 43.3747L-87.224 43.3892L-87.0641 43.4465C-86.9224 43.4972 -86.711 43.5729 -86.4315 43.6728C-85.8727 43.8725 -85.042 44.1688 -83.9545 44.5553C-81.7795 45.3282 -78.5772 46.4617 -74.4674 47.9043C-66.248 50.7895 -54.3987 54.9111 -39.8787 59.857C-10.839 69.7486 28.8848 82.9377 71.6199 96.1271C114.354 109.316 160.104 122.507 201.196 132.401ZM302.886 127.899C278.74 127.899 242.274 121.292 201.195 111.401C160.104 101.507 114.353 88.3161 71.6192 75.127C28.8842 61.9377 -10.8396 48.7486 -39.8794 38.8569C-54.3994 33.9111 -66.2486 29.7895 -74.4681 26.9043C-78.5778 25.4616 -81.7801 24.3281 -83.9551 23.5552C-85.0426 23.1688 -85.8733 22.8725 -86.4321 22.6728C-86.7116 22.5729 -86.9231 22.4972 -87.0647 22.4464L-87.2246 22.3891L-87.2648 22.3747L-87.2749 22.3711C-87.2772 22.3702 -87.2783 22.3698 -87.1093 21.8993C-86.9402 21.4287 -86.9391 21.4291 -86.9369 21.4299L-86.9269 21.4335L-86.8869 21.4479L-86.7274 21.505C-86.586 21.5557 -86.3748 21.6313 -86.0956 21.7311C-85.5373 21.9306 -84.7072 22.2267 -83.6203 22.6129C-81.4464 23.3855 -78.2453 24.5186 -74.1369 25.9607C-65.9199 28.845 -54.0736 32.9656 -39.5569 37.9103C-10.5232 47.8 29.1909 60.9858 71.9141 74.1715C114.638 87.3575 160.366 100.542 201.429 110.429C242.506 120.319 278.87 126.899 302.886 126.899C357.978 126.899 398.047 120.311 430.604 110.436C463.165 100.561 488.232 87.3948 513.338 74.2066L513.35 74.2001L513.351 74.1995C538.45 61.015 563.589 47.8094 596.245 37.9052C628.911 27.9983 669.079 21.3993 724.254 21.3993C802.538 21.3993 921.907 31.1505 1041.24 40.8991L1041.27 40.9009C1160.63 50.6517 1279.96 60.3993 1358.2 60.3993C1391.92 60.3993 1415.79 57.963 1432.62 54.3169C1449.45 50.6696 1459.21 45.8194 1464.74 41.0214C1470.26 36.2393 1471.61 31.501 1471.61 27.9927C1471.61 26.2283 1471.27 24.7583 1470.94 23.7313C1470.77 23.2182 1470.6 22.817 1470.47 22.5465C1470.41 22.4114 1470.36 22.3091 1470.33 22.242L1470.31 22.2092L1470.29 22.1681L1470.28 22.1516L1470.28 22.1485C1470.28 22.1485 1470.28 22.1489 1470.71 21.8993C1471.14 21.6497 1471.14 21.6504 1471.14 21.6512L1471.14 21.6537L1471.15 21.6612L1471.16 21.687C1471.17 21.7089 1471.19 21.7401 1471.21 21.7803C1471.25 21.8608 1471.31 21.9775 1471.38 22.128C1471.52 22.4289 1471.7 22.8655 1471.89 23.4188C1472.25 24.5247 1472.61 26.1015 1472.61 27.9933C1472.61 31.7975 1471.13 36.8093 1465.4 41.7772C1459.68 46.7291 1449.75 51.629 1432.83 55.2942C1415.91 58.9606 1391.97 61.3993 1358.2 61.3993C1279.92 61.3993 1160.55 51.6481 1041.21 41.8995L1041.19 41.8976C921.822 32.1469 802.492 22.3993 724.254 22.3993C669.163 22.3993 629.094 28.9878 596.536 38.8621C563.975 48.7374 538.908 61.9037 513.803 75.0919L513.79 75.0984L513.789 75.0991C488.69 88.2835 463.551 101.489 430.895 111.393C398.229 121.3 358.061 127.899 302.886 127.899ZM302.886 106.9C278.74 106.9 242.274 100.292 201.196 90.4012C160.104 80.5072 114.354 67.3163 71.6196 54.1273C28.8845 40.9379 -10.8393 27.7488 -39.879 17.8572C-54.399 12.9113 -66.2483 8.7897 -74.4678 5.90448C-78.5775 4.46188 -81.7798 3.32837 -83.9548 2.55545C-85.0423 2.16901 -85.873 1.87268 -86.4318 1.67297C-86.7113 1.57312 -86.9227 1.49744 -87.0644 1.44666L-87.2243 1.38934L-87.2645 1.37491L-87.2746 1.37128C-87.2768 1.37048 -87.278 1.37006 -87.1089 0.899506C-86.9399 0.428955 -86.9388 0.429352 -86.9366 0.430145L-86.9266 0.433716L-86.8866 0.44809L-86.7271 0.50528L-86.0953 0.731323C-85.537 0.930847 -84.7069 1.22693 -83.6199 1.61319C-81.4461 2.38568 -78.245 3.51877 -74.1365 4.96094C-65.9196 7.84525 -54.0733 11.9658 -39.5566 16.9106C-10.5229 26.8002 29.1913 39.9861 71.9145 53.1718C114.639 66.3577 160.367 79.5418 201.43 89.429C242.506 99.3194 278.87 105.9 302.886 105.9C357.978 105.9 398.047 99.311 430.605 89.4366C463.166 79.5614 488.232 66.395 513.338 53.2068L513.35 53.2004L513.351 53.1999L513.352 53.1995C538.451 40.0151 563.59 26.8095 596.246 16.9054C628.911 6.99847 669.08 0.399506 724.254 0.399506C802.539 0.399506 921.908 10.1507 1041.25 19.8993L1041.27 19.9012C1160.63 29.6519 1279.96 39.3995 1358.2 39.3995C1391.92 39.3995 1415.79 36.9632 1432.62 33.3171C1449.45 29.6698 1459.21 24.8197 1464.74 20.0216C1470.26 15.2395 1471.61 10.5013 1471.61 6.99292C1471.61 5.22855 1471.27 3.75851 1470.94 2.73154C1470.77 2.21838 1470.6 1.81717 1470.47 1.54675C1470.43 1.45953 1470.4 1.38599 1470.37 1.32678C1470.35 1.29422 1470.34 1.26599 1470.33 1.24219L1470.31 1.20947L1470.29 1.1683L1470.28 1.15176L1470.28 1.14868L1470.31 1.12677L1470.71 0.899506C1471.14 0.649872 1471.14 0.650574 1471.14 0.651428L1471.14 0.65387L1471.15 0.661438L1471.16 0.687256L1471.18 0.719849L1471.21 0.780579C1471.25 0.861053 1471.31 0.977722 1471.38 1.12823C1471.52 1.42911 1471.7 1.86578 1471.89 2.41904C1472.25 3.52487 1472.61 5.10172 1472.61 6.99359C1472.61 10.7978 1471.13 15.8095 1465.4 20.7774C1459.68 25.7293 1449.75 30.6292 1432.83 34.2944C1415.91 37.9608 1391.97 40.3995 1358.2 40.3995C1279.92 40.3995 1160.55 30.6484 1041.21 20.8999L1041.21 20.8998L1041.19 20.8978C921.822 11.1471 802.493 1.39951 724.254 1.39951C669.163 1.39951 629.094 7.98804 596.536 17.8624C563.975 27.7376 538.909 40.904 513.803 54.0922L513.791 54.0986L513.79 54.0991L513.789 54.0995C488.69 67.2839 463.551 80.4895 430.895 90.3936C398.23 100.301 358.061 106.9 302.886 106.9Z" fill="url(#paint0_linear_564_3119)"/>
    <defs>
        <linearGradient id="paint0_linear_564_3119" x1="774.35" y1="226.822" x2="758.506" y2="-4.11738" gradientUnits="userSpaceOnUse">
            <stop stop-color="#1F3891" stop-opacity="0"/>
            <stop offset="1" stop-color="#1F3891"/>
        </linearGradient>
    </defs>
</svg>
