<svg width="1443" height="340" viewBox="0 0 1443 340" fill="none"
    xmlns="http://www.w3.org/2000/svg">
    <g clip-path="url(#clip0_3005_5673)">
        <rect width="1443" height="340" fill="white"/>
        <g clip-path="url(#clip1_3005_5673)">
            <path d="M1 -358.5H0.5V-358V338V338.731L1.18105 338.466L1 338C1.18105 338.466 1.18206 338.466 1.18411 338.465L1.19336 338.461L1.23039 338.447L1.37797 338.39C1.5088 338.339 1.70425 338.263 1.96259 338.164C2.47926 337.964 3.24747 337.668 4.25334 337.281C6.26509 336.508 9.22751 335.374 13.0296 333.931C20.6339 331.045 31.5971 326.921 45.0315 321.973C71.9007 312.076 108.654 298.881 148.192 285.686C187.731 272.491 230.049 259.298 268.049 249.404C306.064 239.507 339.71 232.924 361.926 232.924C412.905 232.924 449.98 239.516 480.103 249.396C510.231 259.276 533.425 272.449 556.659 285.647L556.672 285.654C579.899 298.848 603.169 312.065 633.398 321.979C663.636 331.895 700.818 338.5 751.887 338.5C824.339 338.5 934.813 328.742 1045.25 318.986L1045.28 318.984C1155.75 309.226 1266.18 299.472 1338.58 299.472C1369.79 299.472 1391.87 301.91 1407.44 305.557C1423.01 309.205 1432.02 314.055 1437.14 318.851C1439.67 321.214 1441.25 323.568 1442.2 325.771V338L1443.14 338.235V338.231C1443.14 338.234 1443.14 338.235 1443.14 338.235L1443.15 338.231V338.224L1443.16 338.198C1443.17 338.176 1443.19 338.145 1443.21 338.105C1443.25 338.025 1443.3 337.908 1443.37 337.758C1443.49 337.457 1443.66 337.021 1443.83 336.469C1444.17 335.364 1444.5 333.79 1444.5 331.902C1444.5 330.035 1444.17 327.874 1443.2 325.567V-358V-358.5H1442.7H1Z" fill="url(#paint0_linear_3005_5673)"/>
            <path d="M1443.14 338.235L1442.2 338V325.771C1441.25 323.568 1439.67 321.214 1437.14 318.851C1432.02 314.055 1423.01 309.205 1407.44 305.557C1391.87 301.91 1369.79 299.472 1338.58 299.472C1266.18 299.472 1155.75 309.226 1045.28 318.984L1045.25 318.986C934.813 328.742 824.339 338.5 751.887 338.5C700.818 338.5 663.636 331.895 633.398 321.979C603.169 312.065 579.899 298.848 556.672 285.654L556.659 285.647C533.425 272.449 510.231 259.276 480.103 249.396C449.98 239.516 412.905 232.924 361.926 232.924C339.71 232.924 306.064 239.507 268.049 249.404C230.049 259.298 187.731 272.491 148.192 285.686C108.654 298.881 71.9007 312.076 45.0315 321.973C31.5971 326.921 20.6339 331.045 13.0296 333.931C9.22751 335.374 6.26509 336.508 4.25334 337.281C3.24747 337.668 2.47926 337.964 1.96259 338.164C1.70425 338.263 1.5088 338.339 1.37797 338.39L1.23039 338.447L1.19336 338.461L1.18411 338.465C1.18206 338.466 1.18105 338.466 1 338L1.18105 338.466L0.5 338.731V338V-358V-358.5H1H1442.7H1443.2V-358V325.567C1444.17 327.874 1444.5 330.035 1444.5 331.902C1444.5 333.79 1444.17 335.364 1443.83 336.469C1443.66 337.021 1443.49 337.457 1443.37 337.758C1443.3 337.908 1443.25 338.025 1443.21 338.105C1443.19 338.145 1443.17 338.176 1443.16 338.198L1443.15 338.224V338.231L1443.14 338.235ZM1443.14 338.235V338.231C1443.14 338.234 1443.14 338.235 1443.14 338.235Z" stroke="#5B94EA"/>
            <path fill-rule="evenodd" clip-rule="evenodd" d="M362.185 -56C339.824 -56 306.06 -49.39 268.036 -39.5C229.996 -29.605 187.645 -16.414 148.087 -3.224C108.528 9.965 71.756 23.155 44.8744 33.046C31.4335 37.992 20.4649 42.114 12.8562 44.999C9.05188 46.442 6.08753 47.575 4.07413 48.348C3.06743 48.735 2.29847 49.031 1.78112 49.231C1.52244 49.331 1.32666 49.406 1.19552 49.457L1.04751 49.515L1.01027 49.529L1.00091 49.533C0.998807 49.533 0.997743 49.534 1.17865 50C1.35955 50.466 1.36056 50.466 1.36261 50.465L1.37187 50.461L1.40891 50.447L1.55651 50.39C1.68737 50.339 1.88287 50.264 2.14126 50.164C2.65805 49.964 3.42643 49.668 4.43252 49.282C6.44472 48.509 9.40779 47.376 13.2108 45.934C20.8168 43.05 31.7823 38.93 45.2198 33.985C72.095 24.095 108.856 10.91 148.403 -2.276C187.951 -15.461 230.279 -28.645 268.287 -38.532C306.31 -48.422 339.964 -55 362.185 -55C413.175 -55 450.258 -48.412 480.388 -38.54C510.523 -28.667 533.722 -15.504 556.962 -2.315L556.975 -2.30801C580.207 10.876 603.482 24.085 633.717 33.991C663.962 43.9 701.152 50.5 752.232 50.5C824.7 50.5 935.198 40.749 1045.66 31L1045.69 30.998C1156.18 21.247 1266.64 11.5 1339.05 11.5C1370.27 11.5 1392.36 13.936 1407.93 17.581C1423.5 21.226 1432.52 26.073 1437.64 30.865C1442.75 35.643 1444 40.385 1444 43.907C1444 45.676 1443.69 47.149 1443.37 48.179C1443.22 48.693 1443.06 49.095 1442.94 49.366C1442.89 49.501 1442.84 49.604 1442.81 49.671C1442.79 49.705 1442.78 49.73 1442.77 49.745L1442.76 49.762V49.765C1442.76 49.765 1442.76 49.765 1443.2 50C1443.64 50.235 1443.64 50.234 1443.64 50.234V50.231L1443.65 50.224L1443.66 50.198L1443.69 50.147L1443.71 50.105C1443.75 50.025 1443.8 49.908 1443.86 49.758C1443.99 49.458 1444.16 49.022 1444.33 48.47C1444.67 47.366 1445 45.793 1445 43.906C1445 40.115 1443.64 35.107 1438.32 30.135C1433.03 25.177 1423.82 20.274 1408.15 16.607C1392.48 12.939 1370.31 10.5 1339.05 10.5C1266.59 10.5 1156.09 20.251 1045.62 30L1045.6 30.002C935.107 39.753 824.651 49.5 752.232 49.5C701.242 49.5 664.159 42.912 634.028 33.04C603.894 23.167 580.695 10.004 557.455 -3.185L557.442 -3.19199C534.21 -16.376 510.935 -29.585 480.7 -39.491C450.455 -49.4 413.265 -56 362.185 -56ZM268.036 -20C306.06 -29.89 339.824 -36.5 362.185 -36.5C413.265 -36.5 450.455 -29.9 480.7 -19.991C510.935 -10.085 534.21 3.12401 557.442 16.308L557.455 16.315C580.695 29.504 603.894 42.667 634.028 52.54C664.159 62.412 701.242 69 752.232 69C824.651 69 935.107 59.253 1045.6 49.502L1045.62 49.5C1156.09 39.751 1266.59 30 1339.05 30C1370.31 30 1392.48 32.439 1408.15 36.107C1423.82 39.774 1433.03 44.677 1438.32 49.635C1443.64 54.607 1445 59.615 1445 63.406C1445 65.293 1444.67 66.866 1444.33 67.97C1444.16 68.522 1443.99 68.958 1443.86 69.258C1443.83 69.345 1443.79 69.42 1443.76 69.483C1443.74 69.53 1443.72 69.571 1443.71 69.605C1443.69 69.645 1443.67 69.676 1443.66 69.698L1443.65 69.724L1443.64 69.731V69.734C1443.64 69.734 1443.64 69.735 1443.2 69.5C1442.76 69.265 1442.76 69.265 1442.76 69.265V69.262L1442.77 69.245L1442.78 69.228L1442.81 69.171C1442.82 69.14 1442.84 69.102 1442.86 69.056C1442.88 69.002 1442.91 68.939 1442.94 68.866C1443.06 68.595 1443.22 68.193 1443.37 67.679C1443.69 66.649 1444 65.176 1444 63.407C1444 59.885 1442.75 55.143 1437.64 50.365C1432.52 45.573 1423.5 40.726 1407.93 37.081C1392.36 33.436 1370.27 31 1339.05 31C1266.64 31 1156.18 40.747 1045.69 50.498L1045.66 50.5C935.198 60.249 824.7 70 752.232 70C701.152 70 663.962 63.4 633.717 53.491C603.482 43.585 580.207 30.376 556.975 17.192L556.962 17.185C533.722 3.996 510.523 -9.16701 480.388 -19.04C450.258 -28.912 413.175 -35.5 362.185 -35.5C339.964 -35.5 306.31 -28.922 268.287 -19.032C230.279 -9.14501 187.951 4.039 148.403 17.224C108.856 30.41 72.095 43.595 45.2198 53.485C31.7823 58.43 20.8168 62.55 13.2108 65.434C9.40779 66.876 6.44472 68.009 4.43252 68.782C3.42643 69.168 2.65805 69.464 2.14126 69.664C1.88287 69.764 1.68737 69.839 1.55651 69.89L1.40891 69.947L1.37187 69.961L1.36261 69.965C1.36056 69.966 1.35955 69.966 1.17865 69.5C0.997743 69.034 0.998807 69.033 1.00091 69.033L1.01027 69.029L1.04751 69.015L1.19552 68.957C1.32666 68.906 1.52244 68.831 1.78112 68.731C2.29847 68.531 3.06743 68.235 4.07413 67.848C6.08753 67.075 9.05188 65.942 12.8562 64.499C20.4649 61.614 31.4335 57.492 44.8744 52.546C71.756 42.655 108.528 29.465 148.087 16.276C187.645 3.086 229.996 -10.105 268.036 -20ZM362.185 -17C339.824 -17 306.06 -10.39 268.036 -0.5C229.996 9.395 187.645 22.586 148.087 35.776C108.528 48.965 71.756 62.155 44.8744 72.046C31.4335 76.992 20.4649 81.114 12.8562 83.999C9.05188 85.442 6.08753 86.575 4.07413 87.348C3.06743 87.735 2.29847 88.031 1.78112 88.231C1.52244 88.331 1.32666 88.406 1.19552 88.457L1.04751 88.515L1.01027 88.529L1.00091 88.533C0.998807 88.533 0.997743 88.534 1.17865 89C1.35955 89.466 1.36056 89.466 1.36261 89.465L1.37187 89.461L1.40891 89.447L1.55651 89.39C1.68737 89.339 1.88287 89.264 2.14126 89.164C2.65805 88.964 3.42643 88.668 4.43252 88.282C6.44472 87.509 9.40779 86.376 13.2108 84.934C20.8168 82.05 31.7823 77.93 45.2198 72.985C72.095 63.095 108.856 49.91 148.403 36.724C187.951 23.539 230.279 10.355 268.287 0.467987C306.31 -9.42201 339.964 -16 362.185 -16C413.175 -16 450.258 -9.41201 480.388 0.459991C510.523 10.333 533.722 23.496 556.962 36.685L556.975 36.692C580.207 49.876 603.482 63.085 633.717 72.991C663.962 82.9 701.152 89.5 752.232 89.5C824.7 89.5 935.198 79.749 1045.66 70L1045.69 69.998C1156.18 60.247 1266.64 50.5 1339.05 50.5C1370.27 50.5 1392.36 52.936 1407.93 56.581C1423.5 60.226 1432.52 65.073 1437.64 69.865C1442.75 74.643 1444 79.385 1444 82.907C1444 84.676 1443.69 86.149 1443.37 87.179C1443.22 87.693 1443.06 88.095 1442.94 88.366C1442.89 88.501 1442.84 88.604 1442.81 88.671L1442.79 88.708L1442.77 88.745L1442.76 88.762V88.765C1442.76 88.765 1442.76 88.765 1443.2 89C1443.46 89.137 1443.57 89.194 1443.61 89.218C1443.64 89.234 1443.64 89.234 1443.64 89.234V89.231L1443.65 89.224L1443.66 89.198L1443.68 89.161L1443.71 89.105C1443.75 89.025 1443.8 88.908 1443.86 88.758C1443.99 88.458 1444.16 88.022 1444.33 87.47C1444.67 86.366 1445 84.793 1445 82.906C1445 79.115 1443.64 74.107 1438.32 69.135C1433.03 64.177 1423.82 59.274 1408.15 55.607C1392.48 51.939 1370.31 49.5 1339.05 49.5C1266.59 49.5 1156.09 59.251 1045.62 69L1045.6 69.002C935.107 78.753 824.651 88.5 752.232 88.5C701.242 88.5 664.159 81.912 634.028 72.04C603.894 62.167 580.695 49.004 557.455 35.815L557.442 35.808C534.21 22.624 510.935 9.415 480.7 -0.490997C450.455 -10.4 413.265 -17 362.185 -17ZM268.036 19C306.06 9.11 339.824 2.5 362.185 2.5C413.265 2.5 450.455 9.1 480.7 19.009C510.935 28.915 534.21 42.124 557.442 55.308L557.455 55.315C580.695 68.504 603.894 81.667 634.028 91.54C664.159 101.412 701.242 108 752.232 108C824.651 108 935.107 98.253 1045.6 88.502L1045.62 88.5C1156.09 78.751 1266.59 69 1339.05 69C1370.31 69 1392.48 71.439 1408.15 75.107C1423.82 78.774 1433.03 83.677 1438.32 88.635C1443.64 93.607 1445 98.615 1445 102.406C1445 104.293 1444.67 105.866 1444.33 106.97C1444.16 107.522 1443.99 107.958 1443.86 108.258L1443.83 108.327L1443.81 108.376C1443.77 108.47 1443.74 108.547 1443.71 108.605C1443.69 108.645 1443.67 108.676 1443.66 108.698L1443.65 108.724L1443.64 108.731V108.734C1443.64 108.734 1443.64 108.734 1443.63 108.729L1443.59 108.709C1443.54 108.682 1443.43 108.623 1443.2 108.5C1442.76 108.265 1442.76 108.265 1442.76 108.265V108.262L1442.77 108.245C1442.78 108.23 1442.79 108.205 1442.81 108.171C1442.84 108.104 1442.89 108.001 1442.94 107.866C1443.06 107.595 1443.22 107.193 1443.37 106.679C1443.69 105.649 1444 104.176 1444 102.407C1444 98.885 1442.75 94.143 1437.64 89.365C1432.52 84.573 1423.5 79.726 1407.93 76.081C1392.36 72.436 1370.27 70 1339.05 70C1266.64 70 1156.18 79.747 1045.69 89.498L1045.66 89.5C935.198 99.249 824.7 109 752.232 109C701.152 109 663.962 102.4 633.717 92.491C603.482 82.585 580.207 69.376 556.975 56.192L556.962 56.185C533.722 42.996 510.523 29.833 480.388 19.96C450.258 10.088 413.175 3.5 362.185 3.5C339.964 3.5 306.31 10.078 268.287 19.968C230.279 29.855 187.951 43.039 148.403 56.224C108.856 69.41 72.095 82.595 45.2198 92.485C31.7823 97.43 20.8168 101.55 13.2108 104.434C9.40779 105.876 6.44472 107.009 4.43252 107.782C3.42643 108.168 2.65805 108.464 2.14126 108.664C1.88287 108.764 1.68737 108.839 1.55651 108.89L1.40891 108.947L1.37187 108.961L1.36261 108.965C1.36056 108.966 1.35955 108.966 1.17865 108.5C0.997743 108.034 0.998807 108.033 1.00091 108.033L1.01027 108.029L1.04751 108.015L1.19552 107.957C1.32666 107.906 1.52244 107.831 1.78112 107.731C2.29847 107.531 3.06743 107.235 4.07413 106.848C6.08753 106.075 9.05188 104.942 12.8562 103.499C20.4649 100.614 31.4335 96.492 44.8744 91.546C71.756 81.655 108.528 68.465 148.087 55.276C187.645 42.086 229.996 28.895 268.036 19ZM362.185 22C339.824 22 306.06 28.61 268.036 38.5C229.996 48.395 187.645 61.586 148.087 74.776C108.528 87.965 71.756 101.155 44.8744 111.046C31.4335 115.992 20.4649 120.114 12.8562 122.999C9.05188 124.442 6.08753 125.575 4.07413 126.348C3.06743 126.735 2.29847 127.031 1.78112 127.231C1.52244 127.331 1.32666 127.406 1.19552 127.457L1.04751 127.515L1.01027 127.529L1.00091 127.533C0.998807 127.533 0.997743 127.534 1.17865 128C1.35955 128.466 1.36056 128.466 1.36261 128.465L1.37187 128.461L1.40891 128.447L1.55651 128.39C1.68737 128.339 1.88287 128.264 2.14126 128.164C2.65805 127.964 3.42643 127.668 4.43252 127.282C6.44472 126.509 9.40779 125.376 13.2108 123.934C20.8168 121.05 31.7823 116.93 45.2198 111.985C72.095 102.095 108.856 88.91 148.403 75.724C187.951 62.539 230.279 49.355 268.287 39.468C306.31 29.578 339.964 23 362.185 23C413.175 23 450.258 29.588 480.388 39.46C510.523 49.333 533.722 62.496 556.962 75.685L556.975 75.692C580.207 88.876 603.482 102.085 633.717 111.991C663.962 121.9 701.152 128.5 752.232 128.5C824.7 128.5 935.198 118.749 1045.66 109L1045.69 108.998C1156.18 99.247 1266.64 89.5 1339.05 89.5C1370.27 89.5 1392.36 91.936 1407.93 95.581C1423.5 99.226 1432.52 104.073 1437.64 108.865C1442.75 113.643 1444 118.385 1444 121.907C1444 123.676 1443.69 125.149 1443.37 126.179C1443.22 126.693 1443.06 127.095 1442.94 127.366C1442.89 127.501 1442.84 127.604 1442.81 127.671C1442.79 127.705 1442.78 127.73 1442.77 127.745L1442.76 127.762V127.765L1442.78 127.777L1442.86 127.819L1443.2 128C1443.64 128.235 1443.64 128.234 1443.64 128.234V128.231L1443.65 128.224L1443.66 128.198C1443.67 128.176 1443.69 128.145 1443.71 128.105C1443.75 128.025 1443.8 127.908 1443.86 127.758C1443.99 127.458 1444.16 127.022 1444.33 126.47C1444.67 125.366 1445 123.793 1445 121.906C1445 118.115 1443.64 113.107 1438.32 108.135C1433.03 103.177 1423.82 98.274 1408.15 94.607C1392.48 90.939 1370.31 88.5 1339.05 88.5C1266.59 88.5 1156.09 98.251 1045.62 108L1045.6 108.002C935.107 117.753 824.651 127.5 752.232 127.5C701.242 127.5 664.159 120.912 634.028 111.04C603.894 101.167 580.695 88.004 557.455 74.815L557.442 74.808C534.21 61.624 510.935 48.415 480.7 38.509C450.455 28.6 413.265 22 362.185 22ZM268.036 59.5C306.06 49.61 339.824 43 362.185 43C413.265 43 450.455 49.6 480.7 59.509C510.935 69.415 534.21 82.624 557.442 95.808L557.455 95.815C580.695 109.004 603.894 122.167 634.028 132.04C664.159 141.912 701.242 148.5 752.232 148.5C824.651 148.5 935.107 138.753 1045.6 129.002L1045.62 129C1156.09 119.251 1266.59 109.5 1339.05 109.5C1370.31 109.5 1392.48 111.939 1408.15 115.607C1423.82 119.274 1433.03 124.177 1438.32 129.135C1443.64 134.107 1445 139.115 1445 142.906C1445 144.793 1444.67 146.366 1444.33 147.47C1444.16 148.022 1443.99 148.458 1443.86 148.758C1443.83 148.839 1443.8 148.91 1443.77 148.97C1443.75 149.023 1443.73 149.068 1443.71 149.105C1443.69 149.145 1443.67 149.176 1443.66 149.198L1443.65 149.224L1443.64 149.231V149.234C1443.64 149.234 1443.64 149.235 1443.2 149C1442.76 148.765 1442.76 148.765 1442.76 148.765V148.762L1442.77 148.745L1442.78 148.719L1442.81 148.671C1442.84 148.604 1442.89 148.501 1442.94 148.366C1443.06 148.095 1443.22 147.693 1443.37 147.179C1443.69 146.149 1444 144.676 1444 142.907C1444 139.385 1442.75 134.643 1437.64 129.865C1432.52 125.073 1423.5 120.226 1407.93 116.581C1392.36 112.936 1370.27 110.5 1339.05 110.5C1266.64 110.5 1156.18 120.247 1045.69 129.998L1045.66 130C935.198 139.749 824.7 149.5 752.232 149.5C701.152 149.5 663.962 142.9 633.717 132.991C603.482 123.085 580.207 109.876 556.975 96.692L556.962 96.685C533.722 83.496 510.523 70.333 480.388 60.46C450.258 50.588 413.175 44 362.185 44C339.964 44 306.31 50.578 268.287 60.468C230.279 70.355 187.951 83.539 148.403 96.724C108.856 109.91 72.095 123.095 45.2198 132.985C31.7823 137.93 20.8168 142.05 13.2108 144.934C9.40779 146.376 6.44472 147.509 4.43252 148.282C3.42643 148.668 2.65805 148.964 2.14126 149.164C1.88287 149.264 1.68737 149.339 1.55651 149.39L1.40891 149.447L1.37187 149.461L1.36261 149.465C1.36056 149.466 1.35955 149.466 1.17865 149C0.997743 148.534 0.998807 148.533 1.00091 148.533L1.01027 148.529L1.04751 148.515L1.19552 148.457C1.32666 148.406 1.52244 148.331 1.78112 148.231C2.29847 148.031 3.06743 147.735 4.07413 147.348C6.08753 146.575 9.05188 145.442 12.8562 143.999C20.4649 141.114 31.4335 136.992 44.8744 132.046C71.756 122.155 108.528 108.965 148.087 95.776C187.645 82.586 229.996 69.395 268.036 59.5ZM362.185 64C339.824 64 306.06 70.61 268.036 80.5C229.996 90.395 187.645 103.586 148.087 116.776C108.528 129.965 71.756 143.155 44.8744 153.046C31.4335 157.992 20.4649 162.114 12.8562 164.999C9.05188 166.442 6.08753 167.575 4.07413 168.348C3.06743 168.735 2.29847 169.031 1.78112 169.231C1.52244 169.331 1.32666 169.406 1.19552 169.457L1.04751 169.515L1.01027 169.529L1.00091 169.533C0.998807 169.533 0.997743 169.534 1.17865 170C1.35955 170.466 1.36056 170.466 1.36261 170.465L1.37187 170.461L1.40891 170.447L1.55651 170.39C1.68737 170.339 1.88287 170.264 2.14126 170.164C2.65805 169.964 3.42643 169.668 4.43252 169.282C6.44472 168.509 9.40779 167.376 13.2108 165.934C20.8168 163.05 31.7823 158.93 45.2198 153.985C72.095 144.095 108.856 130.91 148.403 117.724C187.951 104.539 230.279 91.355 268.287 81.468C306.31 71.578 339.964 65 362.185 65C413.175 65 450.258 71.588 480.388 81.46C510.523 91.333 533.722 104.496 556.962 117.685L556.975 117.692C580.207 130.876 603.482 144.085 633.717 153.991C663.962 163.9 701.152 170.5 752.232 170.5C824.7 170.5 935.198 160.749 1045.66 151L1045.69 150.998C1156.18 141.247 1266.64 131.5 1339.05 131.5C1370.27 131.5 1392.36 133.936 1407.93 137.581C1423.5 141.226 1432.52 146.073 1437.64 150.865C1442.75 155.643 1444 160.385 1444 163.907C1444 165.676 1443.69 167.149 1443.37 168.179C1443.22 168.693 1443.06 169.095 1442.94 169.366C1442.89 169.501 1442.84 169.604 1442.81 169.671C1442.79 169.705 1442.78 169.73 1442.77 169.745L1442.76 169.762V169.765C1442.76 169.765 1442.76 169.765 1443.2 170C1443.64 170.235 1443.64 170.234 1443.64 170.234V170.231L1443.65 170.224L1443.66 170.198C1443.67 170.176 1443.69 170.145 1443.71 170.105C1443.75 170.025 1443.8 169.908 1443.86 169.758C1443.99 169.458 1444.16 169.022 1444.33 168.47C1444.67 167.366 1445 165.793 1445 163.906C1445 160.115 1443.64 155.107 1438.32 150.135C1433.03 145.177 1423.82 140.274 1408.15 136.607C1392.48 132.939 1370.31 130.5 1339.05 130.5C1266.59 130.5 1156.09 140.251 1045.62 150L1045.6 150.002C935.107 159.753 824.651 169.5 752.232 169.5C701.242 169.5 664.159 162.912 634.028 153.04C603.894 143.167 580.695 130.004 557.455 116.815L557.442 116.808C534.21 103.624 510.935 90.415 480.7 80.509C450.455 70.6 413.265 64 362.185 64ZM268.036 101.5C306.06 91.61 339.824 85 362.185 85C413.265 85 450.455 91.6 480.7 101.509C510.935 111.415 534.21 124.624 557.442 137.808L557.455 137.815C580.695 151.004 603.894 164.167 634.028 174.04C664.159 183.912 701.242 190.5 752.232 190.5C824.651 190.5 935.107 180.753 1045.6 171.002L1045.62 171C1156.09 161.251 1266.59 151.5 1339.05 151.5C1370.31 151.5 1392.48 153.939 1408.15 157.607C1423.82 161.274 1433.03 166.177 1438.32 171.135C1443.64 176.107 1445 181.115 1445 184.906C1445 186.793 1444.67 188.366 1444.33 189.47C1444.16 190.022 1443.99 190.458 1443.86 190.758C1443.8 190.908 1443.75 191.025 1443.71 191.105C1443.69 191.145 1443.67 191.176 1443.66 191.198L1443.65 191.224L1443.64 191.231V191.234C1443.64 191.234 1443.64 191.235 1443.2 191C1442.76 190.765 1442.76 190.765 1442.76 190.765V190.762L1442.77 190.745L1442.79 190.704L1442.81 190.671L1442.83 190.631C1442.84 190.605 1442.85 190.576 1442.87 190.543C1442.89 190.492 1442.92 190.433 1442.94 190.366C1443.06 190.095 1443.22 189.693 1443.37 189.179C1443.69 188.149 1444 186.676 1444 184.907C1444 181.385 1442.75 176.643 1437.64 171.865C1432.52 167.073 1423.5 162.226 1407.93 158.581C1392.36 154.936 1370.27 152.5 1339.05 152.5C1266.64 152.5 1156.18 162.247 1045.69 171.998L1045.66 172C935.198 181.749 824.7 191.5 752.232 191.5C701.152 191.5 663.962 184.9 633.717 174.991C603.482 165.085 580.207 151.876 556.975 138.692L556.962 138.685C533.722 125.496 510.523 112.333 480.388 102.46C450.258 92.588 413.175 86 362.185 86C339.964 86 306.31 92.578 268.287 102.468C230.279 112.355 187.951 125.539 148.403 138.724C108.856 151.91 72.095 165.095 45.2198 174.985C31.7823 179.93 20.8168 184.05 13.2108 186.934C9.40779 188.376 6.44472 189.509 4.43252 190.282C3.42643 190.668 2.65805 190.964 2.14126 191.164C1.88287 191.264 1.68737 191.339 1.55651 191.39L1.40891 191.447L1.37187 191.461L1.36261 191.465C1.36056 191.466 1.35955 191.466 1.17865 191C0.997743 190.534 0.998807 190.533 1.00091 190.533L1.01027 190.529L1.04751 190.515L1.19552 190.457C1.32666 190.406 1.52244 190.331 1.78112 190.231C2.29847 190.031 3.06743 189.735 4.07413 189.348C6.08753 188.575 9.05188 187.442 12.8562 185.999C20.4649 183.114 31.4335 178.992 44.8744 174.046C71.756 164.155 108.528 150.965 148.087 137.776C187.645 124.586 229.996 111.395 268.036 101.5ZM362.185 106C339.824 106 306.06 112.61 268.036 122.5C229.996 132.395 187.645 145.586 148.087 158.776C108.528 171.965 71.756 185.155 44.8744 195.046C31.4335 199.992 20.4649 204.114 12.8562 206.999C9.05188 208.442 6.08753 209.575 4.07413 210.348C3.06743 210.735 2.29847 211.031 1.78112 211.231L1.19552 211.457L1.04751 211.515L1.01027 211.529L1.00091 211.533C0.998807 211.533 0.997743 211.534 1.17865 212C1.35955 212.466 1.36056 212.466 1.36261 212.465L1.37187 212.461L1.40891 212.447L1.55651 212.39C1.68737 212.339 1.88287 212.264 2.14126 212.164C2.65805 211.964 3.42643 211.668 4.43252 211.282C6.44472 210.509 9.40779 209.376 13.2108 207.934C20.8168 205.05 31.7823 200.93 45.2198 195.985C72.095 186.095 108.856 172.91 148.403 159.724C187.951 146.539 230.279 133.355 268.287 123.468C306.31 113.578 339.964 107 362.185 107C413.175 107 450.258 113.588 480.388 123.46C510.523 133.333 533.722 146.496 556.962 159.685L556.975 159.692C580.207 172.876 603.482 186.085 633.717 195.991C663.962 205.9 701.152 212.5 752.232 212.5C824.7 212.5 935.198 202.749 1045.66 193L1045.69 192.998C1156.18 183.247 1266.64 173.5 1339.05 173.5C1370.27 173.5 1392.36 175.936 1407.93 179.581C1423.5 183.226 1432.52 188.073 1437.64 192.865C1442.75 197.643 1444 202.385 1444 205.907C1444 207.676 1443.69 209.149 1443.37 210.179C1443.22 210.693 1443.06 211.095 1442.94 211.366C1442.89 211.501 1442.84 211.604 1442.81 211.671C1442.79 211.705 1442.78 211.73 1442.77 211.745L1442.76 211.762V211.765C1442.76 211.765 1442.76 211.765 1443.2 212C1443.64 212.235 1443.64 212.234 1443.64 212.234V212.231L1443.65 212.224L1443.66 212.198L1443.68 212.168C1443.69 212.15 1443.7 212.129 1443.71 212.105C1443.75 212.025 1443.8 211.908 1443.86 211.758C1443.99 211.458 1444.16 211.022 1444.33 210.47C1444.67 209.366 1445 207.793 1445 205.906C1445 202.115 1443.64 197.107 1438.32 192.135C1433.03 187.177 1423.82 182.274 1408.15 178.607C1392.48 174.939 1370.31 172.5 1339.05 172.5C1266.59 172.5 1156.09 182.251 1045.62 192L1045.6 192.002C935.107 201.753 824.651 211.5 752.232 211.5C701.242 211.5 664.159 204.912 634.028 195.04C603.894 185.167 580.695 172.004 557.455 158.815L557.442 158.808C534.21 145.624 510.935 132.415 480.7 122.509C450.455 112.6 413.265 106 362.185 106ZM268.036 143.5C306.06 133.61 339.824 127 362.185 127C413.265 127 450.455 133.6 480.7 143.509C510.935 153.415 534.21 166.624 557.442 179.808L557.455 179.815C580.695 193.004 603.894 206.167 634.028 216.04C664.159 225.912 701.242 232.5 752.232 232.5C824.651 232.5 935.107 222.753 1045.6 213.002L1045.62 213C1156.09 203.251 1266.59 193.5 1339.05 193.5C1370.31 193.5 1392.48 195.939 1408.15 199.607C1423.82 203.274 1433.03 208.177 1438.32 213.135C1443.64 218.107 1445 223.115 1445 226.906C1445 228.793 1444.67 230.366 1444.33 231.47C1444.16 232.022 1443.99 232.458 1443.86 232.758C1443.8 232.908 1443.75 233.025 1443.71 233.105C1443.69 233.145 1443.67 233.176 1443.66 233.198L1443.65 233.224L1443.64 233.231V233.234C1443.64 233.234 1443.64 233.235 1443.2 233L1442.88 232.829L1442.78 232.778L1442.76 232.765V232.762L1442.77 232.745L1442.79 232.709L1442.81 232.671C1442.82 232.633 1442.85 232.584 1442.88 232.523C1442.9 232.477 1442.92 232.425 1442.94 232.366C1443.06 232.095 1443.22 231.693 1443.37 231.179C1443.69 230.149 1444 228.676 1444 226.907C1444 223.385 1442.75 218.643 1437.64 213.865C1432.52 209.073 1423.5 204.226 1407.93 200.581C1392.36 196.936 1370.27 194.5 1339.05 194.5C1266.64 194.5 1156.18 204.247 1045.69 213.998L1045.66 214C935.198 223.749 824.7 233.5 752.232 233.5C701.152 233.5 663.962 226.9 633.717 216.991C603.482 207.085 580.207 193.876 556.975 180.692L556.962 180.685C533.722 167.496 510.523 154.333 480.388 144.46C450.258 134.588 413.175 128 362.185 128C339.964 128 306.31 134.578 268.287 144.468C230.279 154.355 187.951 167.539 148.403 180.724C108.856 193.91 72.095 207.095 45.2198 216.985C31.7823 221.93 20.8168 226.05 13.2108 228.934C9.40779 230.376 6.44472 231.509 4.43252 232.282C3.42643 232.668 2.65805 232.964 2.14126 233.164C1.88287 233.264 1.68737 233.339 1.55651 233.39L1.40891 233.447L1.37187 233.461L1.36261 233.465C1.36056 233.466 1.35955 233.466 1.17865 233C0.997743 232.534 0.998807 232.533 1.00091 232.533L1.01027 232.529L1.04751 232.515L1.19552 232.457L1.78112 232.231C2.29847 232.031 3.06743 231.735 4.07413 231.348C6.08753 230.575 9.05188 229.442 12.8562 227.999C20.4649 225.114 31.4335 220.992 44.8744 216.046C71.756 206.155 108.528 192.965 148.087 179.776C187.645 166.586 229.996 153.395 268.036 143.5ZM362.185 148C339.824 148 306.06 154.61 268.036 164.5C229.996 174.395 187.645 187.586 148.087 200.776C108.528 213.965 71.756 227.155 44.8744 237.046C31.4335 241.992 20.4649 246.114 12.8562 248.999C9.05188 250.442 6.08753 251.575 4.07413 252.348C3.06743 252.735 2.29847 253.031 1.78112 253.231L1.19552 253.457L1.04751 253.515L1.01027 253.529L1.00091 253.533C0.998807 253.533 0.997743 253.534 1.17865 254C1.35955 254.466 1.36056 254.466 1.36261 254.465L1.37187 254.461L1.40891 254.447L1.55651 254.39C1.68737 254.339 1.88287 254.264 2.14126 254.164C2.65805 253.964 3.42643 253.668 4.43252 253.282C6.44472 252.509 9.40779 251.376 13.2108 249.934C20.8168 247.05 31.7823 242.93 45.2198 237.985C72.095 228.095 108.856 214.91 148.403 201.724C187.951 188.539 230.279 175.355 268.287 165.468C306.31 155.578 339.964 149 362.185 149C413.175 149 450.258 155.588 480.388 165.46C510.523 175.333 533.722 188.496 556.962 201.685L556.975 201.692C580.207 214.876 603.482 228.085 633.717 237.991C663.962 247.9 701.152 254.5 752.232 254.5C824.7 254.5 935.198 244.749 1045.66 235L1045.69 234.998C1156.18 225.247 1266.64 215.5 1339.05 215.5C1370.27 215.5 1392.36 217.936 1407.93 221.581C1423.5 225.226 1432.52 230.073 1437.64 234.865C1442.75 239.643 1444 244.385 1444 247.907C1444 249.676 1443.69 251.149 1443.37 252.179C1443.22 252.693 1443.06 253.095 1442.94 253.366C1442.89 253.501 1442.84 253.604 1442.81 253.671C1442.79 253.705 1442.78 253.73 1442.77 253.745L1442.76 253.762V253.765L1442.83 253.801L1443.2 254C1443.64 254.235 1443.64 254.234 1443.64 254.234V254.231L1443.65 254.224L1443.66 254.198L1443.68 254.158L1443.71 254.105C1443.75 254.025 1443.8 253.908 1443.86 253.758C1443.99 253.458 1444.16 253.022 1444.33 252.47C1444.67 251.366 1445 249.793 1445 247.906C1445 244.115 1443.64 239.107 1438.32 234.135C1433.03 229.177 1423.82 224.274 1408.15 220.607C1392.48 216.939 1370.31 214.5 1339.05 214.5C1266.59 214.5 1156.09 224.251 1045.62 234L1045.6 234.002C935.107 243.753 824.651 253.5 752.232 253.5C701.242 253.5 664.159 246.912 634.028 237.04C603.894 227.167 580.695 214.004 557.455 200.815L557.442 200.808C534.21 187.624 510.935 174.415 480.7 164.509C450.455 154.6 413.265 148 362.185 148ZM268.036 185.5C306.06 175.61 339.824 169 362.185 169C413.265 169 450.455 175.6 480.7 185.509C510.935 195.415 534.21 208.624 557.442 221.808L557.455 221.815C580.695 235.004 603.894 248.167 634.028 258.04C664.159 267.912 701.242 274.5 752.232 274.5C824.651 274.5 935.107 264.753 1045.6 255.002L1045.62 255C1156.09 245.251 1266.59 235.5 1339.05 235.5C1370.31 235.5 1392.48 237.939 1408.15 241.607C1423.82 245.274 1433.03 250.177 1438.32 255.135C1443.64 260.107 1445 265.115 1445 268.906C1445 270.793 1444.67 272.366 1444.33 273.47C1444.16 274.022 1443.99 274.458 1443.86 274.758C1443.8 274.908 1443.75 275.025 1443.71 275.105C1443.69 275.145 1443.67 275.176 1443.66 275.198L1443.65 275.224L1443.64 275.231V275.234C1443.64 275.234 1443.64 275.234 1443.61 275.216C1443.56 275.191 1443.45 275.134 1443.2 275C1442.76 274.765 1442.76 274.765 1442.76 274.765V274.762L1442.77 274.745C1442.78 274.73 1442.79 274.705 1442.81 274.671C1442.84 274.604 1442.89 274.501 1442.94 274.366C1443.06 274.095 1443.22 273.693 1443.37 273.179C1443.69 272.149 1444 270.676 1444 268.907C1444 265.385 1442.75 260.643 1437.64 255.865C1432.52 251.073 1423.5 246.226 1407.93 242.581C1392.36 238.936 1370.27 236.5 1339.05 236.5C1266.64 236.5 1156.18 246.247 1045.69 255.998L1045.66 256C935.198 265.749 824.7 275.5 752.232 275.5C701.152 275.5 663.962 268.9 633.717 258.991C603.482 249.085 580.207 235.876 556.975 222.692L556.962 222.685C533.722 209.496 510.523 196.333 480.388 186.46C450.258 176.588 413.175 170 362.185 170C339.964 170 306.31 176.578 268.287 186.468C230.279 196.355 187.951 209.539 148.403 222.724C108.856 235.91 72.095 249.095 45.2198 258.985C31.7823 263.93 20.8168 268.05 13.2108 270.934C9.40779 272.376 6.44472 273.509 4.43252 274.282C3.42643 274.668 2.65805 274.964 2.14126 275.164C1.88287 275.264 1.68737 275.339 1.55651 275.39L1.40891 275.447L1.37187 275.461L1.36261 275.465C1.36056 275.466 1.35955 275.466 1.17865 275C0.997743 274.534 0.998807 274.533 1.00091 274.533L1.01027 274.529L1.04751 274.515L1.19552 274.457L1.78112 274.231C2.29847 274.031 3.06743 273.735 4.07413 273.348C6.08753 272.575 9.05188 271.442 12.8562 269.999C20.4649 267.114 31.4335 262.992 44.8744 258.046C71.756 248.155 108.528 234.965 148.087 221.776C187.645 208.586 229.996 195.395 268.036 185.5ZM362.185 190C339.824 190 306.06 196.61 268.036 206.5C229.996 216.395 187.645 229.586 148.087 242.776C108.528 255.965 71.756 269.155 44.8744 279.046C31.4335 283.992 20.4649 288.114 12.8562 290.999C9.05188 292.442 6.08753 293.575 4.07413 294.348C3.06743 294.735 2.29847 295.031 1.78112 295.231L1.19552 295.457L1.04751 295.515L1.01027 295.529L1.00091 295.533C0.998807 295.533 0.997743 295.534 1.17865 296C1.35955 296.466 1.36056 296.466 1.36261 296.465L1.37187 296.461L1.40891 296.447L1.55651 296.39C1.68737 296.339 1.88287 296.264 2.14126 296.164C2.65805 295.964 3.42643 295.668 4.43252 295.282C6.44472 294.509 9.40779 293.376 13.2108 291.934C20.8168 289.05 31.7823 284.93 45.2198 279.985C72.095 270.095 108.856 256.91 148.403 243.724C187.951 230.539 230.279 217.355 268.287 207.468C306.31 197.578 339.964 191 362.185 191C413.175 191 450.258 197.588 480.388 207.46C510.523 217.333 533.722 230.496 556.962 243.685L556.975 243.692C580.207 256.876 603.482 270.085 633.717 279.991C663.962 289.9 701.152 296.5 752.232 296.5C824.7 296.5 935.198 286.749 1045.66 277L1045.69 276.998C1156.18 267.247 1266.64 257.5 1339.05 257.5C1370.27 257.5 1392.36 259.936 1407.93 263.581C1423.5 267.226 1432.52 272.073 1437.64 276.865C1442.75 281.643 1444 286.385 1444 289.907C1444 291.676 1443.69 293.149 1443.37 294.179C1443.22 294.693 1443.06 295.095 1442.94 295.366C1442.89 295.501 1442.84 295.604 1442.81 295.671C1442.79 295.705 1442.78 295.73 1442.77 295.745L1442.76 295.762V295.765C1442.76 295.765 1442.76 295.765 1443.2 296C1443.64 296.235 1443.64 296.234 1443.64 296.234V296.231L1443.65 296.224L1443.66 296.198L1443.69 296.149L1443.71 296.105C1443.72 296.073 1443.74 296.036 1443.76 295.992C1443.79 295.927 1443.83 295.849 1443.86 295.758C1443.99 295.458 1444.16 295.022 1444.33 294.47C1444.67 293.366 1445 291.793 1445 289.906C1445 286.115 1443.64 281.107 1438.32 276.135C1433.03 271.177 1423.82 266.274 1408.15 262.607C1392.48 258.939 1370.31 256.5 1339.05 256.5C1266.59 256.5 1156.09 266.251 1045.62 276L1045.6 276.002C935.107 285.753 824.651 295.5 752.232 295.5C701.242 295.5 664.159 288.912 634.028 279.04C603.894 269.167 580.695 256.004 557.455 242.815L557.442 242.808C534.21 229.624 510.935 216.415 480.7 206.509C450.455 196.6 413.265 190 362.185 190ZM362.185 211C339.824 211 306.06 217.61 268.036 227.5C229.996 237.395 187.645 250.586 148.087 263.776C108.528 276.965 71.756 290.155 44.8744 300.046C31.4335 304.992 20.4649 309.114 12.8562 311.999C9.05188 313.442 6.08753 314.575 4.07413 315.348C3.06743 315.735 2.29847 316.031 1.78112 316.231L1.19552 316.457L1.04751 316.515L1.01027 316.529L1.00091 316.533C0.998807 316.533 0.997743 316.534 1.17865 317C1.35955 317.466 1.36056 317.466 1.36261 317.465L1.37187 317.461L1.40891 317.447L1.55651 317.39C1.68737 317.339 1.88287 317.264 2.14126 317.164C2.65805 316.964 3.42643 316.668 4.43252 316.282C6.44472 315.509 9.40779 314.376 13.2108 312.934C20.8168 310.05 31.7823 305.93 45.2198 300.985C72.095 291.095 108.856 277.91 148.403 264.724C187.951 251.539 230.279 238.355 268.287 228.468C306.31 218.578 339.964 212 362.185 212C413.175 212 450.258 218.588 480.388 228.46C510.523 238.333 533.722 251.496 556.962 264.685L556.975 264.692C580.207 277.876 603.482 291.085 633.717 300.991C663.962 310.9 701.152 317.5 752.232 317.5C824.7 317.5 935.198 307.749 1045.66 298L1045.69 297.998C1156.18 288.247 1266.64 278.5 1339.05 278.5C1370.27 278.5 1392.36 280.936 1407.93 284.581C1423.5 288.226 1432.52 293.073 1437.64 297.865C1442.75 302.643 1444 307.385 1444 310.907C1444 312.676 1443.69 314.149 1443.37 315.179C1443.22 315.693 1443.06 316.095 1442.94 316.366C1442.89 316.501 1442.84 316.604 1442.81 316.671C1442.8 316.692 1442.79 316.709 1442.78 316.723L1442.77 316.745L1442.76 316.762V316.765C1442.76 316.765 1442.76 316.765 1443.2 317C1443.42 317.116 1443.53 317.174 1443.58 317.204C1443.64 317.235 1443.64 317.234 1443.64 317.234V317.231L1443.65 317.224L1443.66 317.198C1443.67 317.176 1443.69 317.145 1443.71 317.105L1443.72 317.073L1443.75 317.008L1443.78 316.946C1443.81 316.891 1443.83 316.828 1443.86 316.758C1443.99 316.458 1444.16 316.022 1444.33 315.47C1444.67 314.366 1445 312.793 1445 310.906C1445 307.115 1443.64 302.107 1438.32 297.135C1433.03 292.177 1423.82 287.274 1408.15 283.607C1392.48 279.939 1370.31 277.5 1339.05 277.5C1266.59 277.5 1156.09 287.251 1045.62 297L1045.6 297.002C935.107 306.753 824.651 316.5 752.232 316.5C701.242 316.5 664.159 309.912 634.028 300.04C603.894 290.167 580.695 277.004 557.455 263.815L557.442 263.808C534.21 250.624 510.935 237.415 480.7 227.509C450.455 217.6 413.265 211 362.185 211Z" fill="url(#paint1_linear_3005_5673)"/>
        </g>
    </g>
    <defs>
        <linearGradient id="paint0_linear_3005_5673" x1="440.018" y1="-358" x2="762.737" y2="354.533" gradientUnits="userSpaceOnUse">
            <stop stop-color="#DAEBFF"/>
            <stop offset="1" stop-color="#EDF5FF"/>
        </linearGradient>
        <linearGradient id="paint1_linear_3005_5673" x1="764.249" y1="141" x2="768.219" y2="316.477" gradientUnits="userSpaceOnUse">
            <stop stop-color="#1F3891" stop-opacity="0"/>
            <stop offset="1" stop-color="#1F3891"/>
        </linearGradient>
        <clipPath id="clip0_3005_5673">
            <rect width="1443" height="340" fill="white"/>
        </clipPath>
        <clipPath id="clip1_3005_5673">
            <rect width="1445" height="699" fill="white" transform="translate(0 -359)"/>
        </clipPath>
    </defs>
</svg>
