<svg width="24" height="24" viewBox="0 0 24 24" fill="none" xmlns="http://www.w3.org/2000/svg">
<path fill-rule="evenodd" clip-rule="evenodd" d="M22.5632 11.8275C22.8444 12.1491 23 12.5668 23 13C23 13.4332 22.8444 13.8509 22.5632 14.1725C20.7829 16.15 16.7305 20 12 20C7.26947 20 3.21714 16.15 1.43683 14.1725C1.15565 13.8509 1 13.4332 1 13C1 12.5668 1.15565 12.1491 1.43683 11.8275C3.21714 9.85 7.26947 6 12 6C16.7305 6 20.7829 9.85 22.5632 11.8275ZM12 17C14.2091 17 16 15.2091 16 13C16 10.7909 14.2091 9 12 9C9.79086 9 8 10.7909 8 13C8 15.2091 9.79086 17 12 17ZM14 13C14 14.1046 13.1046 15 12 15C10.8954 15 10 14.1046 10 13C10 11.8954 10.8954 11 12 11C13.1046 11 14 11.8954 14 13Z" fill="#4360F8"/>
</svg>
