<svg
                        width="416"
                        height="103"
                        viewBox="0 0 416 103"
                        fill="none"
                        xmlns="http://www.w3.org/2000/svg"
                    >
                        <path
                            fill-rule="evenodd"
                            clip-rule="evenodd"
                            d="M21.4416 7.40384C8.6717 3.03303 -12.1694 1.09133 -36.1874 0.620123C-60.2243 0.14855 -87.505 1.14966 -113.191 2.69324C-138.879 4.23689 -162.979 6.3235 -180.657 8.02413C-189.496 8.87447 -196.73 9.62834 -201.754 10.1697C-204.267 10.4403 -206.226 10.6579 -207.558 10.8077C-208.224 10.8827 -208.733 10.9407 -209.076 10.98L-209.464 11.0247L-209.562 11.0361L-209.587 11.039L-209.593 11.0397C-209.594 11.0398 -209.595 11.0399 -209.537 11.5366C-209.479 12.0332 -209.478 12.0331 -209.477 12.0329L-209.471 12.0322L-209.446 12.0294L-209.349 12.0181L-208.962 11.9735C-208.62 11.9343 -208.112 11.8763 -207.446 11.8015C-206.116 11.6518 -204.158 11.4344 -201.647 11.1639C-196.626 10.6229 -189.396 9.86946 -180.561 9.01954C-162.891 7.31966 -138.804 5.23416 -113.131 3.69144C-87.4577 2.14863 -60.2064 1.14909 -36.207 1.61993C-12.1887 2.09114 8.51079 4.03491 21.1178 8.34996C50.1143 18.2747 69.6124 30.1045 84.3673 42.8761C99.1277 55.6523 109.159 69.3848 119.224 83.1645L119.235 83.1799L119.235 83.1801C129.291 96.9485 139.381 110.764 154.233 123.619C169.096 136.484 188.71 148.374 217.813 158.335C259.076 172.459 324.324 187.15 389.531 201.831L389.561 201.838C454.802 216.528 519.999 231.208 561.204 245.312C596.747 257.477 609.032 269.327 612.533 277.977C614.277 282.284 613.857 285.832 613.014 288.299C612.591 289.537 612.061 290.505 611.637 291.163C611.426 291.491 611.242 291.741 611.112 291.907C611.048 291.99 610.997 292.051 610.963 292.091L610.943 292.114L610.925 292.135L610.917 292.145L610.915 292.146C610.916 292.146 610.916 292.146 611.286 292.482C611.656 292.819 611.656 292.818 611.656 292.818L611.658 292.816L611.662 292.811L611.676 292.795C611.684 292.786 611.694 292.775 611.706 292.761L611.726 292.738C611.768 292.688 611.827 292.616 611.901 292.522C612.047 292.335 612.249 292.06 612.478 291.704C612.937 290.992 613.507 289.95 613.961 288.623C614.87 285.96 615.306 282.162 613.46 277.601C609.783 268.515 597.108 256.543 561.528 244.365C520.265 230.242 455.017 215.551 389.811 200.869L389.78 200.863C324.539 186.173 259.342 171.493 218.137 157.389C189.14 147.465 169.642 135.635 154.887 122.863C140.127 110.087 130.095 96.3545 120.031 82.5747L120.02 82.5594L120.02 82.5591C109.964 68.7907 99.8737 54.9754 85.0218 42.12C70.1589 29.255 50.545 17.3651 21.4416 7.40384ZM-40.8671 14.2962C-16.8491 14.7674 3.99202 16.7091 16.762 21.0799C45.8653 31.0412 65.4792 42.931 80.3421 55.796C95.194 68.6514 105.284 82.4667 115.34 96.2352L115.34 96.2354L115.351 96.2507C125.416 110.031 135.447 123.763 150.208 136.539C164.963 149.311 184.461 161.141 213.457 171.065C254.663 185.169 319.859 199.849 385.101 214.539L385.131 214.545C450.338 229.227 515.585 243.918 556.848 258.041C592.428 270.22 605.103 282.191 608.781 291.277C610.627 295.838 610.191 299.636 609.281 302.299C608.827 303.626 608.257 304.668 607.799 305.38C607.569 305.736 607.367 306.011 607.221 306.198C607.148 306.292 607.088 306.364 607.046 306.414C607.025 306.438 607.009 306.458 606.997 306.471L606.983 306.487L606.978 306.492L606.977 306.494C606.976 306.494 606.976 306.495 606.606 306.158C606.236 305.822 606.236 305.822 606.236 305.822L606.237 305.821L606.245 305.811C606.253 305.802 606.266 305.787 606.283 305.767C606.317 305.727 606.368 305.666 606.433 305.583C606.562 305.417 606.746 305.167 606.958 304.839C607.381 304.181 607.912 303.213 608.335 301.975C609.178 299.508 609.597 295.96 607.854 291.653C604.352 283.003 592.067 271.153 556.525 258.988C515.319 244.884 450.122 230.204 384.881 215.514L384.851 215.507C319.644 200.826 254.396 186.135 213.133 172.011C184.03 162.05 164.416 150.16 149.553 137.295C134.701 124.44 124.611 110.625 114.555 96.8562L114.555 96.8559L114.544 96.8405C104.48 83.0608 94.448 69.3283 79.6876 56.5521C64.9327 43.7806 45.4346 31.9507 16.4381 22.026C3.83111 17.7109 -16.8684 15.7672 -40.8867 15.296C-64.8861 14.8251 -92.1374 15.8247 -117.811 17.3675C-143.483 18.9102 -167.571 20.9957 -185.241 22.6956C-194.076 23.5455 -201.306 24.299 -206.327 24.8399C-208.837 25.1104 -210.796 25.3278 -212.126 25.4775C-212.791 25.5523 -213.3 25.6103 -213.642 25.6495L-214.028 25.6941L-214.126 25.7054L-214.151 25.7083L-214.157 25.709C-214.158 25.7091 -214.159 25.7092 -214.217 25.2126C-214.275 24.716 -214.274 24.7159 -214.273 24.7157L-214.266 24.715L-214.242 24.7121L-214.143 24.7007L-213.756 24.656C-213.413 24.6167 -212.904 24.5587 -212.238 24.4838C-210.906 24.3339 -208.946 24.1164 -206.434 23.8457C-201.41 23.3044 -194.176 22.5505 -185.337 21.7002C-167.659 19.9995 -143.559 17.9129 -117.871 16.3693C-92.1847 14.8257 -64.904 13.8246 -40.8671 14.2962ZM12.0784 34.7596C-0.691573 30.3887 -21.5327 28.447 -45.5507 27.9758C-69.5876 27.5043 -96.8683 28.5054 -122.555 30.0489C-148.242 31.5926 -172.342 33.6792 -190.02 35.3798C-198.859 36.2302 -206.093 36.9841 -211.118 37.5254C-213.63 37.796 -215.59 38.0136 -216.922 38.1635C-217.588 38.2384 -218.097 38.2964 -218.439 38.3357L-218.827 38.3804L-218.925 38.3918L-218.95 38.3947L-218.956 38.3954C-218.958 38.3956 -218.958 38.3956 -218.9 38.8923C-218.842 39.3889 -218.842 39.3888 -218.84 39.3887L-218.834 39.3879L-218.81 39.3851L-218.712 39.3738L-218.325 39.3292C-217.983 39.29 -217.475 39.232 -216.81 39.1572C-215.479 39.0075 -213.521 38.7901 -211.01 38.5196C-205.989 37.9787 -198.759 37.2252 -189.925 36.3753C-172.255 34.6754 -148.167 32.5899 -122.495 31.0471C-96.821 29.5043 -69.5697 28.5048 -45.5703 28.9757C-21.552 29.4469 -0.852486 31.3906 11.7545 35.7057C40.751 45.6304 60.2491 57.4602 75.004 70.2318C89.7644 83.008 99.7961 96.7405 109.86 110.52L109.871 110.536C119.927 124.304 130.018 138.119 144.87 150.975C159.732 163.84 179.346 175.73 208.45 185.691C249.713 199.814 314.961 214.505 380.167 229.187L380.197 229.194C445.439 243.883 510.635 258.564 551.841 272.667C587.383 284.832 599.669 296.682 603.17 305.332C604.914 309.64 604.494 313.188 603.651 315.655C603.228 316.892 602.697 317.861 602.274 318.518C602.063 318.847 601.879 319.097 601.749 319.262C601.684 319.345 601.633 319.407 601.599 319.447C601.582 319.467 601.57 319.482 601.562 319.491L601.554 319.5L601.552 319.502C601.552 319.502 601.552 319.502 601.588 319.534L601.669 319.607L601.922 319.838C602.12 320.017 602.212 320.101 602.255 320.14C602.293 320.174 602.293 320.174 602.293 320.173L602.295 320.172L602.299 320.167L602.313 320.151L602.334 320.127L602.363 320.093C602.383 320.069 602.408 320.039 602.437 320.004C602.466 319.968 602.5 319.926 602.537 319.878C602.684 319.691 602.886 319.416 603.115 319.06C603.573 318.348 604.144 317.306 604.597 315.978C605.507 313.316 605.943 309.517 604.097 304.957C600.419 295.871 587.745 283.899 552.165 271.721C510.902 257.598 445.654 242.907 380.447 228.225L380.417 228.218C315.176 213.529 249.979 198.849 208.773 184.745C179.777 174.82 160.279 162.99 145.524 150.219C130.764 137.443 120.732 123.71 110.668 109.93L110.657 109.915L110.656 109.915C100.6 96.1464 90.5104 82.3311 75.6585 69.4757C60.7956 56.6107 41.1818 44.7209 12.0784 34.7596ZM-50.2343 41.6516C-26.2163 42.1228 -5.37517 44.0645 7.39478 48.4353C36.4982 58.3966 56.112 70.2865 70.9749 83.1515C85.8269 96.007 95.917 109.822 105.973 123.591L105.984 123.606C116.048 137.386 126.08 151.118 140.84 163.895C155.595 176.666 175.093 188.496 204.09 198.421C245.295 212.524 310.492 227.205 375.734 241.894L375.764 241.901C440.97 256.583 506.218 271.274 547.481 285.397C583.061 297.575 595.736 309.547 599.413 318.633C601.259 323.193 600.823 326.992 599.914 329.654C599.46 330.982 598.89 332.023 598.431 332.736C598.202 333.092 598 333.366 597.854 333.554C597.822 333.594 597.793 333.631 597.767 333.663C597.753 333.681 597.739 333.697 597.726 333.712C597.709 333.734 597.693 333.753 597.679 333.769C597.658 333.794 597.641 333.813 597.63 333.827L597.615 333.843L597.611 333.847L597.61 333.849C597.609 333.85 597.609 333.85 597.239 333.514C596.869 333.177 596.869 333.177 596.869 333.178L596.87 333.176L596.878 333.167C596.886 333.158 596.899 333.143 596.916 333.123C596.95 333.083 597.001 333.021 597.066 332.938C597.195 332.772 597.379 332.523 597.591 332.194C598.014 331.537 598.545 330.568 598.967 329.331C599.81 326.864 600.23 323.316 598.487 319.008C594.985 310.358 582.7 298.508 547.157 286.343C505.952 272.239 440.755 257.559 375.514 242.87L375.484 242.863C310.277 228.181 245.029 213.49 203.766 199.367C174.663 189.406 155.049 177.516 140.186 164.651C125.334 151.795 115.244 137.98 105.188 124.212L105.188 124.211L105.177 124.196C95.1125 110.416 85.0808 96.6838 70.3204 83.9076C55.5655 71.136 36.0675 59.3062 7.07095 49.3815C-5.53608 45.0664 -26.2355 43.1226 -50.2539 42.6514C-74.2533 42.1806 -101.505 43.1801 -127.178 44.7229C-152.85 46.2657 -176.938 48.3511 -194.608 50.051C-203.443 50.901 -210.673 51.6544 -215.694 52.1954C-218.205 52.4659 -220.163 52.6833 -221.493 52.833C-222.159 52.9078 -222.667 52.9658 -223.009 53.005L-223.396 53.0496L-223.493 53.0609L-223.518 53.0637L-223.524 53.0644C-223.525 53.0646 -223.526 53.0647 -223.584 52.568C-223.642 52.0714 -223.641 52.0713 -223.64 52.0712L-223.633 52.0705L-223.609 52.0676L-223.511 52.0562L-223.123 52.0115C-222.78 51.9722 -222.271 51.9142 -221.605 51.8392C-220.273 51.6894 -218.313 51.4718 -215.801 51.2012C-210.777 50.6598 -203.543 49.906 -194.704 49.0556C-177.026 47.355 -152.926 45.2684 -127.238 43.7247C-101.552 42.1812 -74.2712 41.18 -50.2343 41.6516ZM2.71509 62.1111C-10.0549 57.7403 -30.896 55.7986 -54.914 55.3274C-78.9508 54.8558 -106.232 55.8569 -131.918 57.4005C-157.606 58.9442 -181.706 61.0308 -199.384 62.7314C-208.223 63.5817 -215.457 64.3356 -220.481 64.8769C-222.993 65.1476 -224.953 65.3651 -226.285 65.515C-226.951 65.5899 -227.46 65.648 -227.802 65.6873L-228.19 65.732L-228.288 65.7434L-228.313 65.7462L-228.319 65.747C-228.321 65.7471 -228.322 65.7472 -228.264 66.2438C-228.206 66.7404 -228.205 66.7404 -228.204 66.7402L-228.197 66.7395L-228.173 66.7367L-228.075 66.7253L-227.688 66.6808C-227.347 66.6415 -226.838 66.5836 -226.173 66.5087C-224.843 66.359 -222.884 66.1417 -220.374 65.8712C-215.353 65.3302 -208.123 64.5767 -199.288 63.7268C-181.618 62.0269 -157.53 59.9414 -131.858 58.3987C-106.184 56.8559 -78.933 55.8564 -54.9336 56.3272C-30.9152 56.7984 -10.2158 58.7422 2.39126 63.0572C31.3878 72.982 50.8858 84.8118 65.6407 97.5833C80.4011 110.36 90.4328 124.092 100.497 137.872L100.508 137.887L100.508 137.887C110.564 151.656 120.654 165.471 135.506 178.327C150.369 191.192 169.983 203.081 199.086 213.043C240.35 227.166 305.597 241.857 370.804 256.539L370.834 256.545C436.076 271.235 501.272 285.915 542.478 300.019C578.02 312.184 590.305 324.034 593.807 332.684C595.55 336.992 595.131 340.539 594.288 343.007C593.865 344.244 593.334 345.213 592.911 345.87C592.699 346.198 592.515 346.448 592.386 346.614C592.321 346.697 592.27 346.759 592.236 346.799C592.219 346.819 592.207 346.833 592.199 346.842L592.19 346.852L592.189 346.853C592.189 346.853 592.189 346.853 592.251 346.909L592.37 347.017L592.559 347.189C592.929 347.526 592.929 347.525 592.93 347.525L592.931 347.523L592.936 347.518L592.95 347.502C592.962 347.489 592.978 347.47 592.999 347.445C593.041 347.395 593.101 347.323 593.174 347.229C593.32 347.042 593.522 346.768 593.752 346.411C594.21 345.699 594.78 344.657 595.234 343.33C596.144 340.668 596.58 336.869 594.734 332.309C591.056 323.223 578.382 311.251 542.802 299.073C501.538 284.949 436.291 270.258 371.084 255.577L371.054 255.57C305.812 240.88 240.616 226.2 199.41 212.097C170.414 202.172 150.916 190.342 136.161 177.57C121.4 164.794 111.369 151.062 101.304 137.282L101.293 137.267L101.293 137.266C91.2372 123.498 81.1471 109.683 66.2952 96.8273C51.4323 83.9623 31.8185 72.0724 2.71509 62.1111ZM-59.953 70.054C-35.935 70.5252 -15.0939 72.4669 -2.32398 76.8377C26.7794 86.799 46.3933 98.6888 61.2562 111.554C76.108 124.409 86.1981 138.225 96.254 151.993L96.2542 151.993L96.2654 152.009C106.33 165.788 116.361 179.521 131.122 192.297C145.877 205.069 165.375 216.898 194.371 226.823C235.577 240.927 300.773 255.607 366.015 270.296L366.045 270.303C431.252 284.985 496.499 299.676 537.763 313.799C573.343 325.977 586.017 337.949 589.695 347.035C591.541 351.596 591.105 355.394 590.195 358.057C589.741 359.384 589.171 360.426 588.713 361.138C588.483 361.494 588.281 361.769 588.135 361.956C588.062 362.05 588.002 362.122 587.96 362.171C587.939 362.196 587.923 362.215 587.911 362.229L587.897 362.245L587.892 362.25L587.891 362.251C587.89 362.252 587.89 362.252 587.52 361.916C587.15 361.579 587.15 361.58 587.15 361.58L587.151 361.578L587.159 361.569L587.177 361.549L587.197 361.525C587.231 361.485 587.282 361.423 587.347 361.341C587.476 361.175 587.66 360.925 587.872 360.596C588.295 359.939 588.826 358.97 589.249 357.733C590.092 355.266 590.511 351.718 588.768 347.41C585.266 338.76 572.981 326.911 537.439 314.745C496.233 300.642 431.037 285.962 365.795 271.272L365.765 271.265L365.764 271.265C300.558 256.583 235.31 241.892 194.047 227.769C164.944 217.808 145.33 205.918 130.467 193.053C115.615 180.198 105.525 166.382 95.4691 152.614L95.4579 152.598C85.3937 138.819 75.362 125.086 60.6017 112.31C45.8468 99.5384 26.3487 87.7085 -2.64781 77.7838C-15.2548 73.4687 -35.9543 71.525 -59.9726 71.0538C-83.9721 70.5829 -111.223 71.5825 -136.897 73.1253C-162.569 74.668 -186.657 76.7535 -204.327 78.4534C-213.162 79.3033 -220.392 80.0568 -225.413 80.5978C-227.923 80.8682 -229.882 81.0856 -231.212 81.2353C-231.877 81.3102 -232.386 81.3681 -232.728 81.4073L-233.114 81.4519L-233.212 81.4632L-233.236 81.4661L-233.243 81.4668C-233.244 81.4669 -233.245 81.467 -233.303 80.9704C-233.361 80.4738 -233.36 80.4737 -233.358 80.4735L-233.352 80.4728L-233.328 80.4699L-233.229 80.4585L-232.841 80.4138C-232.499 80.3746 -231.99 80.3165 -231.324 80.2416C-229.992 80.0917 -228.032 79.8742 -225.52 79.6035C-220.496 79.0622 -213.262 78.3083 -204.423 77.458C-186.745 75.7573 -162.645 73.6707 -136.957 72.1271C-111.271 70.5835 -83.9899 69.5824 -59.953 70.054ZM-7.36694 91.5682C-20.1369 87.1973 -40.978 85.2556 -64.996 84.7844C-89.0329 84.3129 -116.314 85.314 -142 86.8575C-167.688 88.4012 -191.788 90.4878 -209.466 92.1884C-218.305 93.0388 -225.539 93.7927 -230.563 94.334C-233.075 94.6046 -235.035 94.8222 -236.367 94.972C-237.033 95.047 -237.542 95.105 -237.884 95.1443L-238.272 95.189L-238.37 95.2004L-238.395 95.2033L-238.401 95.204C-238.403 95.2042 -238.404 95.2042 -238.346 95.7009C-238.288 96.1975 -238.287 96.1974 -238.286 96.1973L-238.279 96.1965L-238.255 96.1937L-238.157 96.1824L-237.77 96.1378C-237.429 96.0986 -236.92 96.0406 -236.255 95.9658C-234.925 95.8161 -232.966 95.5987 -230.456 95.3282C-225.435 94.7873 -218.205 94.0338 -209.37 93.1838C-191.7 91.484 -167.612 89.3985 -141.94 87.8557C-116.266 86.3129 -89.015 85.3134 -65.0156 85.7842C-40.9973 86.2555 -20.2978 88.1992 -7.69077 92.5143C21.3057 102.439 40.8038 114.269 55.5587 127.04C70.3191 139.817 80.3508 153.549 90.4149 167.329L90.4261 167.344L90.4264 167.345C100.482 181.113 110.572 194.928 125.424 207.784C140.287 220.649 159.901 232.538 189.004 242.5C230.268 256.623 295.515 271.314 360.722 285.996L360.752 286.003C425.994 300.692 491.19 315.372 532.396 329.476C567.938 341.641 580.223 353.491 583.725 362.141C585.468 366.449 585.049 369.997 584.206 372.464C583.783 373.701 583.252 374.67 582.829 375.327C582.617 375.655 582.433 375.905 582.304 376.071C582.239 376.154 582.188 376.216 582.154 376.256C582.137 376.276 582.124 376.29 582.117 376.299L582.108 376.309L582.107 376.31C582.107 376.31 582.107 376.31 582.194 376.389L582.477 376.646C582.614 376.77 582.7 376.849 582.754 376.898C582.847 376.983 582.848 376.982 582.848 376.982L582.849 376.98L582.854 376.975L582.868 376.959C582.88 376.946 582.896 376.927 582.917 376.902C582.959 376.852 583.019 376.78 583.092 376.687C583.238 376.499 583.44 376.225 583.67 375.868C584.128 375.156 584.698 374.115 585.152 372.787C586.062 370.125 586.498 366.326 584.652 361.766C580.974 352.68 568.3 340.708 532.72 328.53C491.456 314.406 426.209 299.715 361.002 285.034L360.972 285.027C295.73 270.337 230.534 255.657 189.328 241.554C160.332 231.629 140.834 219.799 126.079 207.027C111.318 194.251 101.287 180.519 91.2225 166.739L91.2113 166.724L91.2111 166.723C81.1552 152.955 71.065 139.14 56.2132 126.284C41.3503 113.419 21.7364 101.529 -7.36694 91.5682ZM-70.039 99.511C-46.021 99.9822 -25.1799 101.924 -12.4099 106.295C16.6935 116.256 36.3073 128.146 51.1702 141.011C66.0222 153.866 76.1123 167.682 86.1683 181.45L86.1795 181.466C96.2437 195.245 106.275 208.978 121.036 221.754C135.791 234.526 155.289 246.355 184.285 256.28C225.491 270.384 290.687 285.064 355.929 299.753L355.959 299.76C421.166 314.442 486.413 329.133 527.677 343.256C563.257 355.434 575.931 367.406 579.609 376.492C581.455 381.053 581.019 384.851 580.109 387.514C579.655 388.841 579.085 389.883 578.627 390.595C578.397 390.951 578.195 391.226 578.049 391.413C577.976 391.507 577.916 391.579 577.874 391.628L577.848 391.659L577.825 391.686L577.811 391.702L577.806 391.707L577.805 391.708C577.804 391.709 577.804 391.709 577.434 391.373C577.064 391.036 577.064 391.037 577.064 391.037L577.065 391.035L577.074 391.026C577.082 391.017 577.094 391.002 577.111 390.982C577.145 390.942 577.196 390.88 577.261 390.798C577.39 390.632 577.574 390.382 577.786 390.054C578.209 389.396 578.74 388.427 579.163 387.19C580.006 384.723 580.425 381.175 578.682 376.867C575.18 368.217 562.895 356.368 527.353 344.202C486.147 330.099 420.951 315.419 355.709 300.729L355.679 300.722C290.472 286.041 225.225 271.35 183.961 257.226C154.858 247.265 135.244 235.375 120.381 222.51C105.529 209.655 95.4393 195.839 85.3834 182.071L85.3832 182.071L85.372 182.055C75.3078 168.276 65.2761 154.543 50.5158 141.767C35.7608 128.995 16.2628 117.166 -12.7337 107.241C-25.3408 102.926 -46.0402 100.982 -70.0586 100.511C-94.058 100.04 -121.309 101.04 -146.983 102.582C-172.655 104.125 -196.743 106.211 -214.413 107.91C-223.248 108.76 -230.478 109.514 -235.499 110.055C-238.009 110.325 -239.968 110.543 -241.298 110.692C-241.963 110.767 -242.472 110.825 -242.813 110.864L-243.2 110.909L-243.298 110.92L-243.322 110.923L-243.329 110.924C-243.33 110.924 -243.331 110.924 -243.389 110.427C-243.447 109.931 -243.446 109.931 -243.444 109.931L-243.438 109.93L-243.413 109.927L-243.315 109.916L-242.927 109.871C-242.585 109.832 -242.076 109.774 -241.41 109.699C-240.078 109.549 -238.118 109.331 -235.606 109.061C-230.582 108.519 -223.348 107.765 -214.509 106.915C-196.831 105.214 -172.731 103.128 -147.043 101.584C-121.357 100.041 -94.0758 99.0394 -70.039 99.511ZM-17.449 121.025C-30.2189 116.654 -51.06 114.713 -75.078 114.241C-99.1149 113.77 -126.396 114.771 -152.082 116.315C-177.77 117.858 -201.87 119.945 -219.548 121.645C-228.387 122.496 -235.621 123.25 -240.645 123.791C-243.157 124.062 -245.117 124.279 -246.449 124.429C-247.115 124.504 -247.624 124.562 -247.966 124.601L-248.354 124.646L-248.453 124.657L-248.477 124.66L-248.483 124.661C-248.485 124.661 -248.486 124.661 -248.428 125.158C-248.37 125.655 -248.369 125.654 -248.368 125.654L-248.361 125.654L-248.337 125.651L-248.239 125.639L-247.853 125.595C-247.511 125.556 -247.002 125.498 -246.337 125.423C-245.007 125.273 -243.048 125.056 -240.538 124.785C-235.517 124.244 -228.287 123.491 -219.452 122.641C-201.782 120.941 -177.694 118.855 -152.022 117.313C-126.348 115.77 -99.0971 114.77 -75.0976 115.241C-51.0793 115.712 -30.3798 117.656 -17.7728 121.971C11.2237 131.896 30.7218 143.726 45.4767 156.497C60.237 169.274 70.2687 183.006 80.3329 196.786L80.3441 196.801L80.3444 196.802C90.4002 210.57 100.49 224.385 115.342 237.241C130.205 250.106 149.819 261.995 178.922 271.957C220.186 286.08 285.433 300.771 350.64 315.453L350.67 315.46C415.912 330.149 481.108 344.829 522.314 358.933C557.856 371.098 570.141 382.948 573.643 391.598C575.386 395.906 574.967 399.454 574.124 401.921C573.701 403.158 573.17 404.127 572.747 404.784C572.535 405.112 572.351 405.362 572.222 405.528C572.157 405.611 572.106 405.673 572.072 405.713C572.055 405.733 572.042 405.747 572.035 405.756L572.026 405.766L572.025 405.767C572.025 405.767 572.025 405.767 572.395 406.103C572.589 406.28 572.681 406.364 572.725 406.403C572.765 406.439 572.766 406.439 572.766 406.439L572.767 406.437L572.772 406.432L572.786 406.416C572.798 406.403 572.814 406.384 572.835 406.359L572.863 406.326L572.892 406.291C572.926 406.25 572.965 406.201 573.01 406.144C573.156 405.956 573.358 405.682 573.588 405.325C574.046 404.613 574.616 403.572 575.07 402.244C575.98 399.582 576.416 395.783 574.57 391.223C570.892 382.137 558.218 370.165 522.638 357.987C481.374 343.863 416.127 329.173 350.92 314.491L350.89 314.484C285.648 299.794 220.452 285.114 179.246 271.011C150.25 261.086 130.752 249.256 115.997 236.485C101.236 223.708 91.2046 209.976 81.1404 196.196L81.1292 196.181L81.129 196.18C71.0731 182.412 60.983 168.597 46.1312 155.741C31.2683 142.876 11.6544 130.986 -17.449 121.025ZM-80.121 128.968C-56.103 129.439 -35.2619 131.381 -22.4919 135.752C6.61144 145.713 26.2253 157.603 41.0882 170.468C55.94 183.323 66.0302 197.139 76.086 210.907L76.0862 210.907L76.0975 210.923C86.1616 224.702 96.1933 238.435 110.954 251.211C125.709 263.983 145.207 275.812 174.203 285.737C215.409 299.841 280.605 314.521 345.847 329.211L345.877 329.217C411.084 343.899 476.331 358.59 517.595 372.713C553.175 384.891 565.849 396.863 569.527 405.949C571.373 410.51 570.937 414.308 570.027 416.971C569.573 418.298 569.003 419.34 568.545 420.052C568.315 420.408 568.113 420.683 567.967 420.87C567.894 420.964 567.834 421.036 567.792 421.085C567.771 421.11 567.755 421.129 567.743 421.143L567.729 421.159L567.724 421.164L567.723 421.165C567.722 421.166 567.722 421.166 567.352 420.83C567.167 420.662 567.075 420.578 567.029 420.536C566.998 420.508 566.988 420.499 566.984 420.496L566.982 420.494L566.983 420.492L566.992 420.483L567.01 420.462L567.029 420.439C567.063 420.399 567.114 420.337 567.179 420.255C567.308 420.089 567.492 419.839 567.704 419.511C568.127 418.853 568.658 417.885 569.081 416.647C569.924 414.18 570.343 410.632 568.6 406.325C565.098 397.675 552.813 385.825 517.271 373.659C476.065 359.556 410.869 344.876 345.627 330.186L345.597 330.179C280.39 315.498 215.143 300.807 173.879 286.683C144.776 276.722 125.162 264.832 110.299 251.967C95.4474 239.112 85.3572 225.297 75.3014 211.528L75.3011 211.528L75.2899 211.512C65.2257 197.733 55.1941 184 40.4337 171.224C25.6788 158.452 6.18074 146.623 -22.8158 136.698C-35.4228 132.383 -56.1223 130.439 -80.1406 129.968C-104.14 129.497 -131.391 130.497 -157.065 132.039C-182.737 133.582 -206.825 135.668 -224.495 137.367C-233.33 138.217 -240.56 138.971 -245.581 139.512C-248.091 139.782 -250.05 140 -251.38 140.149C-252.045 140.224 -252.554 140.282 -252.895 140.321L-253.282 140.366L-253.38 140.377L-253.404 140.38L-253.411 140.381C-253.412 140.381 -253.413 140.381 -253.471 139.884C-253.529 139.388 -253.528 139.388 -253.526 139.388L-253.52 139.387L-253.495 139.384L-253.397 139.373L-253.009 139.328C-252.667 139.289 -252.158 139.231 -251.492 139.156C-250.16 139.006 -248.2 138.788 -245.688 138.518C-240.664 137.976 -233.43 137.222 -224.591 136.372C-206.913 134.671 -182.813 132.585 -157.125 131.041C-131.439 129.498 -104.158 128.496 -80.121 128.968ZM-27.531 150.482C-40.301 146.111 -61.1421 144.17 -85.16 143.698C-109.197 143.227 -136.478 144.228 -162.164 145.772C-187.852 147.315 -211.952 149.402 -229.63 151.103C-238.469 151.953 -245.703 152.707 -250.727 153.248C-253.239 153.519 -255.199 153.736 -256.531 153.886C-257.197 153.961 -257.706 154.019 -258.049 154.058L-258.436 154.103L-258.535 154.114L-258.559 154.117L-258.565 154.118C-258.567 154.118 -258.568 154.118 -258.51 154.615C-258.452 155.112 -258.451 155.111 -258.45 155.111L-258.444 155.111L-258.419 155.108L-258.321 155.096L-257.935 155.052C-257.593 155.013 -257.084 154.955 -256.419 154.88C-255.089 154.73 -253.13 154.513 -250.62 154.242C-245.599 153.701 -238.369 152.948 -229.534 152.098C-211.864 150.398 -187.776 148.313 -162.104 146.77C-136.43 145.227 -109.179 144.227 -85.1797 144.698C-61.1613 145.17 -40.4619 147.113 -27.8548 151.428C1.14167 161.353 20.6397 173.183 35.3947 185.954C50.155 198.731 60.1867 212.463 70.2509 226.243L70.2621 226.258L70.2623 226.259C80.3182 240.027 90.4083 253.842 105.26 266.698C120.123 279.563 139.737 291.452 168.84 301.414C210.104 315.537 275.351 330.228 340.558 344.91L340.588 344.917C405.83 359.606 471.026 374.286 512.232 388.39C547.774 400.555 560.059 412.405 563.561 421.055C565.304 425.363 564.885 428.911 564.042 431.378C563.619 432.615 563.088 433.584 562.665 434.241C562.549 434.421 562.442 434.577 562.347 434.708C562.268 434.818 562.198 434.91 562.14 434.985C562.075 435.068 562.024 435.13 561.99 435.17C561.973 435.19 561.96 435.204 561.953 435.213L561.944 435.223L561.943 435.224C561.943 435.224 561.943 435.224 562.313 435.56C562.683 435.897 562.683 435.896 562.684 435.896L562.685 435.894L562.69 435.889L562.704 435.873L562.727 435.847L562.753 435.816C562.795 435.766 562.855 435.694 562.928 435.601C563.074 435.413 563.276 435.139 563.506 434.782C563.964 434.07 564.534 433.029 564.988 431.701C565.898 429.039 566.334 425.24 564.488 420.68C560.81 411.594 548.136 399.622 512.556 387.444C471.292 373.321 406.045 358.63 340.838 343.948L340.808 343.941C275.566 329.251 210.37 314.571 169.164 300.468C140.168 290.543 120.67 278.713 105.915 265.942C91.1543 253.165 81.1226 239.433 71.0584 225.653L71.0472 225.638L71.047 225.637C60.9911 211.869 50.901 198.054 36.0491 185.198C21.1862 172.333 1.57237 160.444 -27.531 150.482ZM-90.1991 158.425C-66.1811 158.896 -45.34 160.838 -32.5701 165.209C-3.46669 175.17 16.1471 187.06 31.01 199.925C45.8619 212.78 55.952 226.596 66.0079 240.364L66.0081 240.364L66.0193 240.38C76.0835 254.159 86.1152 267.892 100.876 280.668C115.63 293.44 135.129 305.269 164.125 315.194C205.331 329.298 270.527 343.978 335.769 358.668L335.799 358.674C401.006 373.356 466.253 388.047 507.516 402.17C543.096 414.348 555.771 426.32 559.449 435.406C561.295 439.967 560.859 443.765 559.949 446.428C559.495 447.755 558.925 448.797 558.467 449.509C558.237 449.865 558.035 450.14 557.889 450.327C557.816 450.421 557.756 450.493 557.714 450.542L557.688 450.574L557.665 450.6L557.65 450.616L557.646 450.621L557.645 450.622C557.644 450.623 557.644 450.624 557.274 450.287C556.904 449.95 556.904 449.951 556.904 449.951L556.905 449.949L556.913 449.94C556.921 449.931 556.934 449.916 556.951 449.896C556.985 449.856 557.036 449.795 557.101 449.712C557.23 449.546 557.414 449.296 557.626 448.968C558.049 448.31 558.58 447.342 559.002 446.104C559.846 443.637 560.265 440.089 558.522 435.782C555.02 427.132 542.735 415.282 507.193 403.116C465.987 389.013 400.79 374.333 335.549 359.643L335.519 359.636C270.312 344.955 205.064 330.264 163.801 316.14C134.698 306.179 115.084 294.289 100.221 281.424C85.3692 268.569 75.2791 254.754 65.2232 240.985L65.223 240.985L65.2118 240.969C55.1476 227.19 45.1159 213.457 30.3556 200.681C15.6006 187.909 -3.89739 176.08 -32.8939 166.155C-45.5009 161.84 -66.2004 159.896 -90.2187 159.425C-114.218 158.954 -141.469 159.954 -167.143 161.496C-192.815 163.039 -216.903 165.125 -234.573 166.824C-243.408 167.674 -250.638 168.428 -255.659 168.969C-258.169 169.239 -260.128 169.457 -261.458 169.606C-262.123 169.681 -262.632 169.739 -262.974 169.778L-263.36 169.823L-263.458 169.834L-263.483 169.837L-263.489 169.838C-263.49 169.838 -263.491 169.838 -263.549 169.342C-263.607 168.845 -263.606 168.845 -263.605 168.845L-263.598 168.844L-263.574 168.841L-263.475 168.83L-263.088 168.785C-262.745 168.746 -262.236 168.688 -261.57 168.613C-260.238 168.463 -258.278 168.245 -255.766 167.975C-250.742 167.433 -243.508 166.679 -234.669 165.829C-216.991 164.128 -192.891 162.042 -167.203 160.498C-141.517 158.955 -114.236 157.953 -90.1991 158.425ZM-37.613 179.939C-50.383 175.568 -71.2241 173.627 -95.2421 173.156C-119.279 172.684 -146.56 173.685 -172.246 175.229C-197.934 176.772 -222.034 178.859 -239.712 180.56C-248.551 181.41 -255.785 182.164 -260.809 182.705C-263.321 182.976 -265.281 183.193 -266.613 183.343C-267.279 183.418 -267.788 183.476 -268.131 183.515L-268.518 183.56L-268.617 183.571L-268.641 183.574L-268.648 183.575C-268.649 183.575 -268.65 183.575 -268.592 184.072C-268.534 184.569 -268.533 184.569 -268.532 184.568L-268.526 184.568L-268.501 184.565L-268.403 184.553L-268.017 184.509C-267.675 184.47 -267.166 184.412 -266.501 184.337C-265.171 184.187 -263.212 183.97 -260.702 183.699C-255.681 183.158 -248.451 182.405 -239.616 181.555C-221.946 179.855 -197.858 177.77 -172.186 176.227C-146.512 174.684 -119.261 173.684 -95.2617 174.155C-71.2434 174.627 -50.5439 176.57 -37.9369 180.885C-8.94036 190.81 10.5577 202.64 25.3126 215.411C40.073 228.188 50.1046 241.92 60.1688 255.7L60.18 255.715L60.1803 255.716C70.2361 269.484 80.3263 283.299 95.1781 296.155C110.041 309.02 129.655 320.909 158.758 330.871C200.021 344.994 265.269 359.685 330.476 374.367L330.506 374.374C395.747 389.063 460.944 403.743 502.15 417.847C537.692 430.012 549.977 441.862 553.479 450.512C555.222 454.82 554.803 458.368 553.96 460.835C553.537 462.072 553.006 463.041 552.583 463.698C552.371 464.026 552.187 464.276 552.058 464.442C551.993 464.525 551.942 464.587 551.908 464.627C551.891 464.647 551.878 464.661 551.87 464.671L551.862 464.68L551.861 464.682C551.861 464.681 551.861 464.681 551.87 464.69L551.913 464.728C551.961 464.771 552.053 464.855 552.231 465.017C552.411 465.181 552.504 465.265 552.551 465.308C552.601 465.354 552.601 465.353 552.602 465.353L552.603 465.351L552.608 465.347L552.622 465.33C552.63 465.321 552.641 465.309 552.654 465.294L552.671 465.273C552.713 465.223 552.773 465.151 552.846 465.058C552.992 464.87 553.194 464.596 553.424 464.239C553.882 463.527 554.452 462.486 554.906 461.158C555.816 458.496 556.252 454.697 554.406 450.137C550.728 441.051 538.053 429.079 502.474 416.901C461.21 402.778 395.963 388.087 330.756 373.405L330.726 373.398C265.484 358.708 200.288 344.028 159.082 329.925C130.086 320 110.588 308.17 95.8326 295.399C81.0722 282.622 71.0405 268.89 60.9764 255.11L60.9652 255.095L60.9649 255.095C50.9091 241.326 40.8189 227.511 25.9671 214.655C11.1042 201.79 -8.50966 189.901 -37.613 179.939ZM-42.6521 194.666C-55.4221 190.295 -76.2632 188.353 -100.281 187.882C-124.318 187.411 -151.599 188.412 -177.285 189.955C-202.973 191.499 -227.073 193.585 -244.751 195.286C-253.59 196.136 -260.824 196.89 -265.848 197.432C-268.36 197.702 -270.32 197.92 -271.652 198.07C-272.318 198.145 -272.827 198.203 -273.17 198.242L-273.558 198.287L-273.656 198.298L-273.68 198.301L-273.687 198.302C-273.688 198.302 -273.689 198.302 -273.631 198.799C-273.573 199.295 -273.572 199.295 -273.571 199.295L-273.565 199.294L-273.54 199.291L-273.443 199.28L-273.056 199.235C-272.714 199.196 -272.205 199.138 -271.54 199.063C-270.21 198.914 -268.251 198.696 -265.741 198.426C-260.72 197.885 -253.49 197.131 -244.655 196.282C-226.985 194.582 -202.897 192.496 -177.225 190.953C-151.551 189.411 -124.3 188.411 -100.301 188.882C-76.2824 189.353 -55.583 191.297 -42.9759 195.612C-13.9794 205.537 5.51861 217.367 20.2735 230.138C35.0339 242.914 45.0656 256.647 55.1298 270.426L55.141 270.442L55.1412 270.442C65.1971 284.211 75.2872 298.026 90.1391 310.881C105.002 323.746 124.616 335.636 153.719 345.597C194.982 359.721 260.229 374.411 325.434 389.093L325.437 389.093L325.467 389.1C390.708 403.79 455.905 418.47 497.111 432.574C532.653 444.739 544.938 456.589 548.44 465.239C550.183 469.546 549.764 473.094 548.92 475.561C548.498 476.799 547.967 477.767 547.544 478.425C547.332 478.753 547.148 479.003 547.019 479.169L546.996 479.197L546.971 479.229C546.956 479.248 546.942 479.265 546.929 479.281C546.905 479.31 546.885 479.334 546.869 479.353C546.852 479.373 546.839 479.388 546.831 479.397L546.823 479.406L546.822 479.408C546.822 479.408 546.822 479.408 547.192 479.744C547.562 480.081 547.562 480.08 547.563 480.079L547.564 480.078L547.568 480.073L547.583 480.057L547.595 480.043L547.608 480.028L547.632 480C547.674 479.95 547.734 479.878 547.807 479.784C547.953 479.597 548.155 479.322 548.385 478.966C548.843 478.254 549.413 477.212 549.867 475.885C550.777 473.222 551.212 469.424 549.367 464.863C545.689 455.777 533.014 443.805 497.434 431.627C456.171 417.504 390.924 402.813 325.717 388.131L325.687 388.125C260.445 373.435 195.249 358.755 154.043 344.651C125.046 334.727 105.548 322.897 90.7935 310.125C76.0331 297.349 66.0015 283.616 55.9373 269.837L55.9261 269.821L55.9259 269.821C45.87 256.053 35.7799 242.237 20.928 229.382C6.06511 216.517 -13.5487 204.627 -42.6521 194.666Z"
                            fill="url(#paint0_radial_439_18280)"
                        />
                        <defs>
                            <radialGradient
                                id="paint0_radial_439_18280"
                                cx="0"
                                cy="0"
                                r="1"
                                gradientUnits="userSpaceOnUse"
                                gradientTransform="translate(60.1088 218.697) rotate(-32.0605) scale(219.472 831.418)"
                            >
                                <stop stop-color="#1F3891" />
                                <stop offset="1" stop-color="#1F3891" stop-opacity="0" />
                            </radialGradient>
                        </defs>
                    </svg>