<svg
                        width="403"
                        height="116"
                        viewBox="0 0 403 116"
                        fill="none"
                        xmlns="http://www.w3.org/2000/svg"
                    >
                        <path
                            fill-rule="evenodd"
                            clip-rule="evenodd"
                            d="M425.639 -36.3393C434.809 -39.4782 449.759 -40.8689 466.964 -41.2064C484.189 -41.5444 503.735 -40.827 522.137 -39.7211C540.541 -38.6152 557.807 -37.1203 570.472 -35.902C576.804 -35.2928 581.987 -34.7527 585.586 -34.3648C587.386 -34.1709 588.79 -34.0151 589.745 -33.9077C590.222 -33.854 590.587 -33.8124 590.832 -33.7842L591.11 -33.7522L591.18 -33.7441L591.198 -33.742L591.203 -33.7415C591.204 -33.7413 591.204 -33.7413 591.146 -33.2447C591.088 -32.748 591.088 -32.7481 591.087 -32.7482L591.082 -32.7487L591.065 -32.7507L590.995 -32.7589L590.718 -32.7908C590.473 -32.8188 590.109 -32.8603 589.633 -32.914C588.68 -33.0212 587.277 -33.1769 585.479 -33.3706C581.883 -33.7581 576.704 -34.2978 570.376 -34.9066C557.719 -36.1242 540.466 -37.6179 522.077 -38.7229C503.688 -39.828 484.171 -40.5438 466.984 -40.2066C449.778 -39.8691 434.97 -38.4764 425.962 -35.3932C405.206 -28.2888 391.255 -19.823 380.701 -10.6873C370.141 -1.54701 362.963 8.27771 355.753 18.1497L355.742 18.1651C348.54 28.0259 341.304 37.9335 330.652 47.1531C319.99 56.3822 305.923 64.908 285.06 72.049C255.494 82.1687 208.748 92.6938 162.044 103.21L162.013 103.216C115.274 113.74 68.5796 124.254 39.0711 134.354C13.6157 143.067 4.8702 151.538 2.38709 157.673C1.15252 160.723 1.45084 163.229 2.04536 164.969C2.34389 165.842 2.71854 166.526 3.01662 166.989C3.16558 167.22 3.29492 167.396 3.3853 167.511C3.40417 167.536 3.42136 167.557 3.43667 167.576C3.45798 167.602 3.47554 167.623 3.48898 167.639C3.50056 167.653 3.50907 167.663 3.51423 167.669L3.51932 167.674L3.51994 167.675C3.5195 167.675 3.5192 167.674 3.14938 168.011C2.77957 168.347 2.77915 168.347 2.77871 168.346L2.77747 168.345L2.77394 168.341L2.76291 168.329C2.75383 168.318 2.74135 168.304 2.72574 168.285C2.71143 168.269 2.69448 168.248 2.67516 168.225C2.65237 168.197 2.62625 168.164 2.59721 168.127C2.48997 167.99 2.34276 167.789 2.17586 167.53C1.84235 167.012 1.42844 166.256 1.09909 165.292C0.437856 163.357 0.123313 160.6 1.46014 157.298C4.11975 150.727 13.2542 142.134 38.7473 133.408C68.3134 123.289 115.059 112.763 161.763 102.248L161.794 102.241C208.533 91.7172 255.227 81.2028 284.736 71.1028C305.492 63.9985 319.443 55.5326 329.998 46.397C340.558 37.2567 347.735 27.4319 354.945 17.5599L354.957 17.5445C362.159 7.68378 369.395 -2.22383 380.046 -11.4434C390.708 -20.6725 404.775 -29.1983 425.639 -36.3393ZM470.316 -31.4096C453.111 -31.072 438.161 -29.6814 428.99 -26.5424C408.127 -19.4015 394.06 -10.8756 383.398 -1.64656C372.746 7.57304 365.51 17.4807 358.308 27.3414L358.297 27.3568C351.087 37.2288 343.909 47.0535 333.349 56.1939C322.795 65.3295 308.844 73.7953 288.088 80.8997C258.579 90.9997 211.885 101.514 165.145 112.038L165.115 112.045C118.411 122.56 71.665 133.085 42.0989 143.205C16.6058 151.931 7.47134 160.524 4.81173 167.095C3.4749 170.397 3.78945 173.154 4.45068 175.089C4.78003 176.053 5.19394 176.809 5.52745 177.327C5.69435 177.586 5.84156 177.786 5.94881 177.924C5.97785 177.961 6.00396 177.994 6.02675 178.021C6.04607 178.045 6.06303 178.065 6.07733 178.082C6.09294 178.101 6.10542 178.115 6.11451 178.126L6.12553 178.138L6.12906 178.142L6.1303 178.143C6.13074 178.144 6.13116 178.144 6.50097 177.808C6.72445 177.604 6.813 177.524 6.84817 177.492C6.8712 177.472 6.87133 177.472 6.87153 177.472L6.87091 177.471L6.86583 177.466L6.85635 177.455L6.84057 177.436C6.82713 177.42 6.80957 177.399 6.78826 177.373C6.77295 177.354 6.75576 177.332 6.73689 177.308C6.64651 177.193 6.51717 177.017 6.36821 176.786C6.07013 176.323 5.69548 175.639 5.39695 174.766C4.80243 173.026 4.50411 170.52 5.73868 167.47C8.2218 161.335 16.9673 152.864 42.4227 144.151C71.9312 134.051 118.626 123.537 165.365 113.013L165.395 113.006C212.1 102.491 258.845 91.9656 288.411 81.8458C309.275 74.7049 323.342 66.1791 334.004 56.95C344.655 47.7303 351.891 37.8227 359.093 27.962L359.105 27.9466C366.315 18.0746 373.492 8.24987 384.052 -0.890463C394.607 -10.0261 408.558 -18.4919 429.314 -25.5963C438.322 -28.6795 453.13 -30.0722 470.336 -30.4098C487.522 -30.7469 507.04 -30.0311 525.429 -28.9261C543.817 -27.8211 561.071 -26.3273 573.727 -25.1097C580.056 -24.5009 585.234 -23.9612 588.831 -23.5737C590.629 -23.38 592.032 -23.2243 592.984 -23.1171C593.461 -23.0635 593.825 -23.022 594.07 -22.9939L594.347 -22.962L594.417 -22.9539L594.434 -22.9518L594.438 -22.9513C594.439 -22.9512 594.44 -22.9512 594.498 -23.4478C594.556 -23.9444 594.555 -23.9445 594.554 -23.9446L594.55 -23.9451L594.532 -23.9472L594.462 -23.9553L594.184 -23.9874C593.938 -24.0155 593.573 -24.0571 593.096 -24.1108C592.142 -24.2182 590.738 -24.374 588.938 -24.568C585.338 -24.9558 580.156 -25.4959 573.823 -26.1051C561.159 -27.3234 543.893 -28.8183 525.489 -29.9243C507.087 -31.0301 487.54 -31.7475 470.316 -31.4096ZM432.342 -16.7416C441.513 -19.8806 456.462 -21.2712 473.668 -21.6088C490.892 -21.9467 510.438 -21.2293 528.841 -20.1235C547.244 -19.0175 564.51 -17.5226 577.175 -16.3043C583.507 -15.6951 588.69 -15.155 592.289 -14.7672C594.089 -14.5733 595.493 -14.4174 596.448 -14.31C596.925 -14.2563 597.29 -14.2147 597.535 -14.1866L597.813 -14.1545L597.884 -14.1464L597.901 -14.1443L597.906 -14.1438C597.907 -14.1437 597.907 -14.1436 597.849 -13.647C597.791 -13.1504 597.791 -13.1504 597.79 -13.1505L597.786 -13.151L597.768 -13.1531L597.698 -13.1612L597.421 -13.1931C597.176 -13.2212 596.812 -13.2627 596.336 -13.3163C595.383 -13.4235 593.981 -13.5792 592.182 -13.7729C588.586 -14.1604 583.407 -14.7001 577.079 -15.3089C564.422 -16.5265 547.169 -18.0203 528.781 -19.1253C510.391 -20.2304 490.874 -20.9461 473.687 -20.609C456.482 -20.2714 441.674 -18.8787 432.666 -15.7955C411.909 -8.69112 397.958 -0.225318 387.404 8.91033C376.844 18.0507 369.666 27.8754 362.456 37.7474L362.445 37.7628C355.243 47.6235 348.007 57.5311 337.356 66.7508C326.693 75.9799 312.626 84.5057 291.763 91.6466C262.197 101.766 215.452 112.291 168.747 122.807L168.747 122.807L168.717 122.814C121.977 133.338 75.2829 143.852 45.7744 153.952C20.3189 162.665 11.5734 171.136 9.09032 177.271C7.85576 180.321 8.15407 182.827 8.74859 184.566C9.04713 185.44 9.42177 186.124 9.71985 186.587C9.86881 186.818 9.99815 186.993 10.0885 187.109C10.1074 187.133 10.1246 187.155 10.1399 187.174C10.1612 187.2 10.1788 187.221 10.1922 187.237C10.2038 187.251 10.2123 187.26 10.2175 187.266L10.2226 187.272L10.2232 187.273C10.2227 187.272 10.2224 187.272 9.85262 187.608C9.4828 187.945 9.48239 187.945 9.48194 187.944L9.4807 187.943L9.47717 187.939L9.46615 187.926L9.4549 187.913L9.42897 187.883C9.41467 187.866 9.39772 187.846 9.37839 187.822C9.35561 187.794 9.32949 187.762 9.30045 187.725C9.19321 187.587 9.04599 187.387 8.87909 187.128C8.54558 186.61 8.13168 185.853 7.80233 184.89C7.14109 182.955 6.82655 180.198 8.16337 176.895C10.823 170.325 19.9574 161.732 45.4505 153.006C75.0167 142.886 121.762 132.361 168.467 121.845L168.497 121.839C215.236 111.315 261.931 100.801 291.439 90.7005C312.196 83.5961 326.147 75.1303 336.701 65.9947C347.261 56.8543 354.439 47.0296 361.649 37.1576L361.66 37.1422L361.66 37.1421L361.66 37.142C368.862 27.2813 376.098 17.3738 386.749 8.15423C397.412 -1.07485 411.478 -9.60066 432.342 -16.7416ZM477.023 -11.8158C459.818 -11.4783 444.868 -10.0876 435.697 -6.94868C414.834 0.1923 400.767 8.71811 390.105 17.9472C379.453 27.1668 372.217 37.0744 365.015 46.9352L365.004 46.9506C357.794 56.8226 350.616 66.6473 340.056 75.7876C329.502 84.9233 315.551 93.3891 294.795 100.493C265.286 110.593 218.592 121.108 171.852 131.631L171.822 131.638C125.118 142.154 78.372 152.679 48.8059 162.799C23.3128 171.524 14.1783 180.118 11.5187 186.688C10.1819 189.991 10.4964 192.748 11.1577 194.683C11.487 195.646 11.9009 196.403 12.2344 196.921C12.4013 197.18 12.5486 197.38 12.6558 197.518C12.6713 197.537 12.686 197.556 12.6997 197.573L12.7337 197.615L12.7566 197.643L12.7843 197.676C12.7999 197.695 12.8124 197.709 12.8215 197.719L12.8325 197.732L12.8361 197.736L12.8373 197.737C12.8377 197.738 12.8382 197.738 13.208 197.401C13.3534 197.269 13.4417 197.189 13.4953 197.14C13.5333 197.106 13.5539 197.087 13.5651 197.077L13.5769 197.067C13.5785 197.066 13.5785 197.066 13.5785 197.066L13.5779 197.065L13.5728 197.059C13.5677 197.053 13.5592 197.044 13.5476 197.03L13.5373 197.018C13.5256 197.004 13.5115 196.987 13.4953 196.967C13.4799 196.948 13.4628 196.926 13.4439 196.902C13.3535 196.786 13.2242 196.611 13.0752 196.38C12.7771 195.917 12.4025 195.233 12.104 194.359C11.5094 192.62 11.2111 190.114 12.4457 187.064C14.9288 180.929 23.6743 172.458 49.1297 163.745C78.6382 153.645 125.333 143.131 172.072 132.607L172.102 132.6C218.807 122.084 265.552 111.559 295.118 101.44C315.982 94.2986 330.049 85.7728 340.711 76.5437C351.362 67.3241 358.598 57.4165 365.8 47.5557L365.812 47.5404C373.022 37.6683 380.199 27.8436 390.759 18.7033C401.314 9.56764 415.265 1.10184 436.021 -6.00256C445.029 -9.08574 459.837 -10.4785 477.043 -10.816C494.229 -11.1532 513.747 -10.4374 532.136 -9.33231C550.524 -8.22732 567.778 -6.73353 580.434 -5.51593C586.763 -4.90714 591.941 -4.36744 595.538 -3.97997C597.336 -3.78623 598.739 -3.63055 599.691 -3.52333C600.168 -3.46971 600.532 -3.42822 600.777 -3.40013L601.054 -3.36822L601.124 -3.36012L601.141 -3.35809L601.145 -3.35758C601.146 -3.35747 601.147 -3.35741 601.205 -3.85403C601.263 -4.35066 601.262 -4.35072 601.261 -4.35084L601.257 -4.35136L601.239 -4.35343L601.169 -4.36159L600.891 -4.39362C600.645 -4.42178 600.28 -4.46336 599.803 -4.51705C598.849 -4.62445 597.445 -4.7803 595.645 -4.97421C592.045 -5.36204 586.863 -5.90213 580.53 -6.51133C567.866 -7.72968 550.6 -9.22459 532.196 -10.3305C513.794 -11.4364 494.247 -12.1537 477.023 -11.8158ZM439.049 2.84821C448.22 -0.290728 463.169 -1.68138 480.375 -2.01892C497.599 -2.35684 517.145 -1.63947 535.548 -0.53363C553.951 0.572298 571.217 2.06721 583.882 3.28556C590.214 3.89476 595.397 4.43485 598.997 4.82268C600.796 5.01659 602.201 5.17244 603.155 5.27984C603.632 5.33353 603.997 5.37511 604.242 5.40327L604.52 5.4353L604.591 5.44347L604.608 5.44554L604.613 5.44605C604.614 5.44617 604.614 5.44623 604.556 5.94286C604.498 6.43948 604.498 6.43942 604.497 6.43931L604.493 6.43881L604.475 6.43677L604.405 6.42867L604.128 6.39676C603.883 6.36867 603.519 6.32718 603.043 6.27356C602.09 6.16634 600.688 6.01066 598.889 5.81693C595.293 5.42945 590.114 4.88975 583.786 4.28097C571.129 3.06336 553.876 1.56957 535.488 0.46457C517.098 -0.640507 497.581 -1.35629 480.394 -1.01911C463.189 -0.681563 448.381 0.71115 439.373 3.79433C418.616 10.8987 404.665 19.3645 394.111 28.5002C383.551 37.6405 376.373 47.4652 369.163 57.3372L369.152 57.3526C361.95 67.2134 354.714 77.121 344.063 86.3406C333.4 95.5697 319.333 104.096 298.47 111.236C268.904 121.356 222.159 131.881 175.454 142.397L175.454 142.397L175.424 142.404C128.684 152.928 81.9899 163.442 52.4814 173.542C27.0259 182.255 18.2805 190.726 15.7973 196.861C14.5628 199.91 14.8611 202.417 15.4556 204.156C15.7541 205.03 16.1288 205.713 16.4269 206.176C16.5758 206.408 16.7052 206.583 16.7955 206.699C16.8144 206.723 16.8316 206.745 16.8469 206.764L16.8698 206.792C16.8811 206.805 16.891 206.817 16.8992 206.827L16.9146 206.845L16.9245 206.856L16.9296 206.862L16.9302 206.863C16.9298 206.862 16.9294 206.862 16.5596 207.198L16.3668 207.374L16.234 207.494C16.1894 207.534 16.1892 207.534 16.189 207.534L16.1877 207.533L16.1842 207.529L16.1732 207.516C16.1641 207.506 16.1516 207.491 16.136 207.473C16.1217 207.456 16.1047 207.436 16.0854 207.412C16.0626 207.384 16.0365 207.352 16.0075 207.314C15.9002 207.177 15.753 206.977 15.5861 206.718C15.2526 206.2 14.8387 205.443 14.5093 204.48C13.8481 202.545 13.5336 199.788 14.8704 196.485C17.53 189.915 26.6645 181.321 52.1575 172.596C81.7237 162.476 128.469 151.951 175.174 141.435L175.204 141.428C221.943 130.905 268.638 120.39 298.146 110.29C318.903 103.186 332.854 94.7202 343.408 85.5845C353.968 76.4442 361.146 66.6195 368.356 56.7474L368.367 56.7321C375.569 46.8713 382.805 36.9637 393.456 27.7441C404.119 18.515 418.185 9.98919 439.049 2.84821ZM483.988 8.53184C466.783 8.86939 451.833 10.26 442.662 13.399C421.799 20.54 407.732 29.0658 397.07 38.2948C386.418 47.5144 379.182 57.4221 371.98 67.2828L371.969 67.2982C364.759 77.1702 357.581 86.995 347.021 96.1353C336.467 105.271 322.516 113.737 301.759 120.841C272.251 130.941 225.556 141.455 178.817 151.979L178.787 151.986C132.082 162.502 85.3369 173.027 55.7707 183.147C30.2776 191.872 21.1432 200.466 18.4836 207.036C17.1467 210.339 17.4613 213.095 18.1225 215.03C18.4519 215.994 18.8658 216.751 19.1993 217.269C19.3662 217.528 19.5134 217.728 19.6206 217.865C19.6497 217.902 19.6758 217.935 19.6986 217.963C19.7179 217.987 19.7349 218.007 19.7492 218.024C19.7648 218.042 19.7773 218.057 19.7863 218.067L19.7974 218.079L19.8009 218.083L19.8021 218.085C19.8023 218.085 19.8024 218.085 19.8189 218.07C19.8489 218.043 19.9337 217.967 20.1728 217.749C20.5426 217.413 20.5429 217.413 20.5434 217.413L20.5428 217.413L20.5377 217.407C20.5325 217.401 20.524 217.391 20.5124 217.378C20.499 217.362 20.4814 217.341 20.4601 217.314C20.4448 217.295 20.4276 217.274 20.4087 217.25C20.3183 217.134 20.189 216.958 20.04 216.727C19.742 216.264 19.3673 215.58 19.0688 214.707C18.4743 212.967 18.176 210.461 19.4105 207.411C21.8936 201.277 30.6391 192.805 56.0945 184.093C85.6031 173.993 132.298 163.478 179.037 152.955L179.067 152.948C225.771 142.432 272.517 131.907 302.083 121.787C322.947 114.646 337.013 106.12 347.676 96.8914C358.327 87.6718 365.563 77.7641 372.765 67.9034L372.776 67.888C379.987 58.016 387.164 48.1913 397.724 39.0509C408.278 29.9153 422.229 21.4495 442.986 14.3451C451.994 11.2619 466.802 9.8692 484.007 9.53165C501.194 9.19447 520.711 9.91026 539.101 11.0153C557.489 12.1203 574.742 13.6141 587.399 14.8317C593.728 15.4405 598.906 15.9802 602.503 16.3677C604.301 16.5614 605.703 16.7171 606.656 16.8243C607.133 16.8779 607.497 16.9194 607.742 16.9475L608.019 16.9794L608.088 16.9875L608.106 16.9896L608.11 16.9901C608.111 16.9902 608.112 16.9902 608.17 16.4936C608.228 15.997 608.227 15.9969 608.226 15.9968L608.222 15.9963L608.204 15.9942L608.134 15.9861L607.856 15.954C607.61 15.9259 607.245 15.8843 606.768 15.8306C605.814 15.7232 604.41 15.5674 602.61 15.3734C599.01 14.9856 593.828 14.4455 587.495 13.8363C574.83 12.618 557.564 11.1231 539.161 10.0171C520.759 8.91129 501.212 8.19392 483.988 8.53184ZM446.272 23.9498C455.442 20.8108 470.392 19.4202 487.597 19.0826C504.821 18.7447 524.368 19.4621 542.77 20.5679C561.174 21.6739 578.44 23.1688 591.104 24.3871C597.437 24.9963 602.62 25.5364 606.219 25.9242C608.019 26.1182 609.423 26.274 610.378 26.3814C610.855 26.4351 611.219 26.4767 611.465 26.5048L611.743 26.5369L611.813 26.545L611.831 26.5471L611.836 26.5476C611.837 26.5477 611.837 26.5478 611.779 27.0444C611.721 27.541 611.721 27.541 611.72 27.5409L611.715 27.5404L611.698 27.5383L611.628 27.5302L611.351 27.4983C611.106 27.4702 610.742 27.4287 610.266 27.3751C609.313 27.2679 607.91 27.1122 606.112 26.9185C602.516 26.531 597.337 25.9913 591.009 25.3825C578.352 24.1649 561.098 22.6711 542.71 21.5661C524.321 20.4611 504.804 19.7453 487.617 20.0824C470.411 20.42 455.603 21.8127 446.595 24.8959C425.839 32.0003 411.888 40.4661 401.333 49.6017C390.774 58.7421 383.596 68.5668 376.386 78.4388L376.375 78.4542C369.173 88.3149 361.937 98.2226 351.285 107.442C340.623 116.671 326.556 125.197 305.693 132.338C276.127 142.458 229.381 152.983 182.677 163.499L182.676 163.499L182.646 163.505C135.907 174.029 89.2125 184.543 59.704 194.643C34.2486 203.356 25.5031 211.828 23.02 217.962C21.7854 221.012 22.0837 223.518 22.6782 225.258C22.9768 226.131 23.3514 226.815 23.6495 227.278C23.7985 227.509 23.9278 227.685 24.0182 227.8C24.037 227.825 24.0542 227.846 24.0695 227.865C24.0909 227.891 24.1084 227.913 24.1219 227.928C24.1334 227.942 24.142 227.952 24.1471 227.958L24.1522 227.964L24.1528 227.964C24.1524 227.964 24.1521 227.963 23.7823 228.3C23.4124 228.636 23.412 228.636 23.4116 228.635L23.4103 228.634L23.4068 228.63L23.3958 228.618C23.3867 228.607 23.3742 228.593 23.3586 228.575C23.3443 228.558 23.3274 228.537 23.308 228.514L23.275 228.473L23.255 228.448L23.2301 228.416C23.1229 228.279 22.9756 228.079 22.8087 227.819C22.4752 227.301 22.0613 226.545 21.732 225.581C21.0707 223.646 20.7562 220.89 22.093 217.587C24.7526 211.016 33.8871 202.423 59.3802 193.697C88.9463 183.578 135.692 173.053 182.396 162.537L182.427 162.53C229.166 152.006 275.86 141.492 305.369 131.392C326.125 124.288 340.076 115.822 350.631 106.686C361.191 97.5457 368.368 87.721 375.578 77.849L375.59 77.8336C382.791 67.9729 390.028 58.0652 400.679 48.8456C411.341 39.6166 425.408 31.0908 446.272 23.9498ZM491.21 29.6373C474.005 29.9749 459.056 31.3655 449.885 34.5044C429.021 41.6454 414.955 50.1712 404.292 59.4003C393.641 68.6199 386.405 78.5275 379.203 88.3883L379.192 88.4037C371.981 98.2757 364.804 108.1 354.244 117.241C343.69 126.376 329.739 134.842 308.982 141.947C279.473 152.047 232.779 162.561 186.04 173.085L186.01 173.091C139.305 183.607 92.5596 194.132 62.9934 204.252C37.5003 212.978 28.3659 221.571 25.7062 228.142C24.3694 231.444 24.684 234.201 25.3452 236.136C25.6745 237.1 26.0885 237.856 26.422 238.374C26.5889 238.633 26.7361 238.833 26.8433 238.971C26.8724 239.008 26.8985 239.04 26.9213 239.068C26.9333 239.083 26.9444 239.096 26.9545 239.109L26.9718 239.129C26.9875 239.148 26.9999 239.162 27.009 239.172L27.02 239.185L27.0236 239.189L27.0248 239.19C27.0253 239.191 27.0257 239.191 27.3955 238.855C27.7653 238.518 27.7656 238.518 27.766 238.519L27.7654 238.518L27.7603 238.512L27.7518 238.503L27.7351 238.483C27.7216 238.467 27.7041 238.446 27.6828 238.42L27.6581 238.389L27.6314 238.355C27.541 238.239 27.4117 238.064 27.2627 237.833C26.9646 237.37 26.59 236.686 26.2915 235.812C25.6969 234.073 25.3986 231.567 26.6332 228.517C29.1163 222.382 37.8618 213.911 63.3172 205.198C92.8258 195.098 139.52 184.584 186.259 174.06L186.29 174.053L186.29 174.053C232.994 163.537 279.74 153.012 309.306 142.893C330.169 135.752 344.236 127.226 354.898 117.997C365.55 108.777 372.786 98.8696 379.988 89.0089L379.999 88.9935C387.209 79.1215 394.387 69.2967 404.947 60.1564C415.501 51.0208 429.452 42.555 450.209 35.4506C459.216 32.3674 474.024 30.9747 491.23 30.6371C508.417 30.2999 527.934 31.0157 546.324 32.1208C564.712 33.2258 581.965 34.7196 594.622 35.9372C600.95 36.546 606.129 37.0857 609.725 37.4732C611.523 37.6669 612.926 37.8226 613.879 37.9298C614.355 37.9834 614.719 38.0249 614.964 38.053L615.241 38.0849L615.311 38.093L615.329 38.095L615.333 38.0956C615.334 38.0957 615.334 38.0957 615.392 37.5991C615.45 37.1025 615.45 37.1024 615.449 37.1023L615.444 37.1018L615.427 37.0997L615.356 37.0915L615.078 37.0595C614.833 37.0313 614.468 36.9898 613.991 36.9361C613.036 36.8287 611.632 36.6728 609.832 36.4789C606.233 36.0911 601.05 35.551 594.718 34.9418C582.053 33.7234 564.787 32.2285 546.384 31.1226C527.981 30.0168 508.435 29.2994 491.21 29.6373ZM453.494 45.0513C462.665 41.9124 477.615 40.5217 494.82 40.1842C512.044 39.8463 531.591 40.5637 549.993 41.6695C568.397 42.7754 585.663 44.2703 598.327 45.4887C604.66 46.0979 609.842 46.638 613.442 47.0258C615.242 47.2197 616.646 47.3756 617.6 47.483C618.077 47.5366 618.442 47.5782 618.688 47.6064L618.966 47.6384L619.036 47.6466L619.054 47.6487L619.058 47.6492C619.059 47.6493 619.06 47.6494 619.002 48.146C618.944 48.6426 618.943 48.6426 618.942 48.6424L618.938 48.6419L618.92 48.6399L618.851 48.6318L618.574 48.5999C618.329 48.5718 617.965 48.5303 617.488 48.4767C616.535 48.3695 615.133 48.2138 613.335 48.02C609.738 47.6326 604.56 47.0929 598.231 46.4841C585.575 45.2665 568.321 43.7727 549.933 42.6677C531.544 41.5626 512.026 40.8468 494.84 41.184C477.634 41.5216 462.826 42.9143 453.818 45.9974C433.061 53.1018 419.11 61.5677 408.556 70.7033C397.996 79.8436 390.819 89.6684 383.609 99.5404L383.597 99.5557C376.395 109.416 369.159 119.324 358.508 128.544C347.846 137.773 333.779 146.299 312.915 153.44C283.349 163.559 236.604 174.084 189.899 184.6L189.869 184.607C143.13 195.131 96.4352 205.645 66.9267 215.745C41.4713 224.458 32.7258 232.929 30.2426 239.064C29.0081 242.114 29.3064 244.62 29.9009 246.359C30.1995 247.233 30.5741 247.917 30.8722 248.38C31.0211 248.611 31.1505 248.786 31.2409 248.902C31.2597 248.926 31.2769 248.948 31.2922 248.967L31.3194 249L31.3289 249.011L31.3445 249.03L31.3608 249.049L31.3698 249.059L31.3749 249.065L31.3755 249.066C31.3751 249.065 31.3748 249.065 31.0049 249.401C30.6351 249.738 30.6347 249.738 30.6343 249.737L30.633 249.736L30.6295 249.732L30.6185 249.719L30.6037 249.702L30.5813 249.676C30.567 249.659 30.55 249.639 30.5307 249.615C30.5079 249.587 30.4818 249.555 30.4528 249.518C30.3455 249.38 30.1983 249.18 30.0314 248.921C29.6979 248.403 29.284 247.646 28.9547 246.683C28.2934 244.748 27.9789 241.991 29.3157 238.688C31.9753 232.118 41.1098 223.524 66.6029 214.799C96.169 204.679 142.915 194.154 189.619 183.638L189.649 183.631C236.388 173.108 283.083 162.593 312.591 152.493C333.348 145.389 347.299 136.923 357.853 127.788C368.413 118.647 375.591 108.823 382.801 98.9506L382.812 98.9352C390.014 89.0744 397.25 79.1668 407.902 69.9472C418.564 60.7181 432.631 52.1923 453.494 45.0513ZM498.433 50.735C481.228 51.0725 466.278 52.4632 457.107 55.6021C436.244 62.7431 422.177 71.2689 411.515 80.498C400.863 89.7176 393.627 99.6252 386.425 109.486L386.414 109.501C379.204 119.373 372.026 129.198 361.467 138.338C350.912 147.474 336.961 155.94 316.205 163.044C286.696 173.144 240.002 183.659 193.262 194.182L193.232 194.189C146.528 204.705 99.7822 215.23 70.216 225.35C44.723 234.075 35.5885 242.669 32.9289 249.239C31.5921 252.542 31.9066 255.299 32.5678 257.233C32.8972 258.197 33.3111 258.954 33.6446 259.472C33.8115 259.731 33.9587 259.931 34.066 260.068C34.095 260.105 34.1211 260.138 34.1439 260.166L34.1696 260.197L34.1945 260.227C34.2101 260.245 34.2226 260.26 34.2317 260.27L34.2427 260.283L34.2462 260.286L34.2475 260.288C34.2479 260.288 34.2483 260.289 34.6181 259.952C34.9879 259.616 34.9883 259.616 34.9887 259.617L34.9881 259.616L34.983 259.61C34.9778 259.604 34.9693 259.594 34.9577 259.581C34.9443 259.565 34.9267 259.544 34.9054 259.517C34.8901 259.499 34.8729 259.477 34.854 259.453C34.7637 259.337 34.6343 259.162 34.4854 258.93C34.1873 258.467 33.8126 257.784 33.5141 256.91C32.9196 255.17 32.6213 252.664 33.8558 249.614C36.339 243.48 45.0844 235.009 70.5399 226.296C100.048 216.196 146.743 205.681 193.482 195.158L193.512 195.151C240.217 184.635 286.962 174.11 316.529 163.99C337.392 156.849 351.459 148.324 362.121 139.095C372.773 129.875 380.009 119.967 387.21 110.107L387.222 110.091C394.432 100.219 401.609 90.3944 412.169 81.2541C422.724 72.1184 436.675 63.6526 457.431 56.5482C466.439 53.465 481.247 52.0723 498.453 51.7348C515.639 51.3976 535.157 52.1134 553.546 53.2185C571.934 54.3235 589.188 55.8173 601.845 57.0349C608.173 57.6436 613.352 58.1833 616.948 58.5708C618.746 58.7646 620.149 58.9202 621.102 59.0275C621.578 59.0811 621.942 59.1226 622.187 59.1506L622.464 59.1826L622.534 59.1907L622.551 59.1927L622.556 59.1932C622.556 59.1933 622.557 59.1934 622.615 58.6967C622.673 58.2001 622.672 58.2001 622.671 58.1999L622.667 58.1994L622.649 58.1974L622.579 58.1892L622.301 58.1572C622.055 58.129 621.691 58.0874 621.213 58.0337C620.259 57.9263 618.855 57.7705 617.055 57.5766C613.455 57.1887 608.273 56.6486 601.94 56.0395C589.276 54.8211 572.01 53.3262 553.606 52.2203C535.204 51.1144 515.657 50.3971 498.433 50.735ZM460.717 66.1529C469.888 63.014 484.837 61.6233 502.043 61.2858C519.267 60.9478 538.813 61.6652 557.216 62.7711C575.619 63.877 592.885 65.3719 605.55 66.5902C611.882 67.1994 617.065 67.7395 620.664 68.1274C622.464 68.3213 623.868 68.4771 624.823 68.5845C625.3 68.6382 625.665 68.6798 625.91 68.708L626.188 68.74L626.259 68.7482L626.276 68.7502L626.281 68.7507C626.282 68.7509 626.282 68.7509 626.224 69.2476C626.166 69.7442 626.166 69.7441 626.165 69.744L626.161 69.7435L626.143 69.7415L626.073 69.7333L625.796 69.7015C625.551 69.6734 625.187 69.6319 624.711 69.5783C623.758 69.471 622.356 69.3153 620.557 69.1216C616.961 68.7341 611.782 68.1944 605.454 67.5857C592.797 66.368 575.544 64.8743 557.156 63.7693C538.766 62.6642 519.249 61.9484 502.062 62.2856C484.857 62.6231 470.049 64.0158 461.041 67.099C440.284 74.2034 426.333 82.6692 415.779 91.8049C405.219 100.945 398.041 110.77 390.831 120.642L390.82 120.657C383.618 130.518 376.382 140.426 365.731 149.645C355.068 158.874 341.001 167.4 320.138 174.541C290.572 184.661 243.826 195.186 197.122 205.702L197.122 205.702L197.092 205.709C150.352 216.232 103.658 226.747 74.1493 236.847C48.6939 245.559 39.9484 254.031 37.4653 260.165C36.2307 263.215 36.529 265.721 37.1236 267.461C37.4221 268.334 37.7967 269.018 38.0948 269.481C38.2438 269.712 38.3731 269.888 38.4635 270.004C38.4824 270.028 38.4996 270.049 38.5149 270.068L38.5391 270.098L38.5672 270.132C38.5788 270.145 38.5873 270.155 38.5924 270.161L38.5975 270.167L38.5981 270.167C38.5977 270.167 38.5974 270.167 38.2276 270.503C37.8578 270.84 37.8574 270.839 37.8569 270.839L37.8557 270.837L37.8521 270.833L37.8411 270.821C37.832 270.811 37.8195 270.796 37.8039 270.778L37.778 270.747L37.7534 270.717C37.7306 270.689 37.7045 270.656 37.6754 270.619C37.5682 270.482 37.421 270.282 37.2541 270.022C36.9205 269.505 36.5066 268.748 36.1773 267.784C35.5161 265.849 35.2015 263.093 36.5383 259.79C39.1979 253.219 48.3324 244.626 73.8255 235.9C103.392 225.781 150.137 215.256 196.842 204.74L196.872 204.733C243.611 194.209 290.306 183.695 319.814 173.595C340.571 166.491 354.522 158.025 365.076 148.889C375.636 139.749 382.814 129.924 390.024 120.052L390.035 120.037L390.035 120.037C397.237 110.176 404.473 100.268 415.124 91.0488C425.787 81.8197 439.853 73.2939 460.717 66.1529ZM505.652 71.8365C488.447 72.1741 473.497 73.5647 464.326 76.7037C443.463 83.8447 429.396 92.3705 418.734 101.6C408.082 110.819 400.846 120.727 393.644 130.587L393.644 130.588L393.633 130.603C386.423 140.475 379.245 150.3 368.685 159.44C358.131 168.576 344.18 177.041 323.424 184.146C293.915 194.246 247.221 204.76 200.481 215.284L200.451 215.291C153.747 225.806 107.001 236.332 77.4349 246.451C51.9418 255.177 42.8073 263.77 40.1477 270.341C38.8109 273.643 39.1254 276.4 39.7867 278.335C40.116 279.299 40.5299 280.055 40.8634 280.573C41.0303 280.832 41.1775 281.033 41.2848 281.17C41.3138 281.207 41.3399 281.24 41.3627 281.268C41.3821 281.291 41.399 281.312 41.4133 281.328C41.4289 281.347 41.4414 281.361 41.4505 281.372L41.4615 281.384L41.465 281.388L41.4663 281.389C41.4665 281.39 41.4667 281.39 41.4945 281.365C41.5327 281.33 41.623 281.249 41.837 281.054C42.2068 280.717 42.2071 280.718 42.2075 280.718L42.2069 280.717L42.2018 280.712C42.1966 280.706 42.1881 280.696 42.1766 280.682C42.1631 280.666 42.1456 280.645 42.1242 280.619C42.1089 280.6 42.0917 280.579 42.0729 280.554C41.9825 280.439 41.8531 280.263 41.7042 280.032C41.4061 279.569 41.0315 278.885 40.7329 278.012C40.1384 276.272 39.8401 273.766 41.0747 270.716C43.5578 264.581 52.3033 256.11 77.7587 247.397C107.267 237.297 153.962 226.783 200.701 216.259L200.731 216.253C247.436 205.737 294.181 195.212 323.747 185.092C344.611 177.951 358.678 169.425 369.34 160.196C379.991 150.976 387.227 141.069 394.429 131.208L394.441 131.193C401.651 121.321 408.828 111.496 419.388 102.356C429.943 93.22 443.894 84.7542 464.65 77.6498C473.658 74.5666 488.466 73.1739 505.672 72.8364C522.858 72.4992 542.376 73.215 560.765 74.32C579.153 75.425 596.407 76.9188 609.063 78.1364C615.392 78.7452 620.57 79.2849 624.167 79.6724C625.965 79.8661 627.368 80.0218 628.32 80.129C628.797 80.1827 629.161 80.2241 629.406 80.2522L629.683 80.2841L629.753 80.2922L629.77 80.2943L629.774 80.2948C629.775 80.2949 629.776 80.2949 629.834 79.7983C629.892 79.3017 629.891 79.3016 629.89 79.3015L629.886 79.301L629.868 79.2989L629.798 79.2908L629.52 79.2587C629.274 79.2306 628.909 79.189 628.432 79.1353C627.478 79.0279 626.074 78.8721 624.274 78.6781C620.674 78.2903 615.492 77.7502 609.159 77.141C596.495 75.9227 579.229 74.4278 560.825 73.3218C542.423 72.216 522.876 71.4986 505.652 71.8365ZM467.939 87.2545C477.11 84.1155 492.06 82.7249 509.265 82.3873C526.489 82.0494 546.036 82.7668 564.438 83.8726C582.842 84.9786 600.108 86.4735 612.772 87.6918C619.105 88.301 624.287 88.8411 627.887 89.2289C629.687 89.4228 631.091 89.5787 632.045 89.6861C632.523 89.7398 632.887 89.7814 633.133 89.8095L633.411 89.8416L633.481 89.8497L633.499 89.8518L633.504 89.8523C633.505 89.8524 633.505 89.8525 633.447 90.3491C633.389 90.8457 633.389 90.8457 633.388 90.8456L633.383 90.8451L633.366 90.843L633.296 90.8349L633.019 90.803C632.774 90.7749 632.41 90.7334 631.934 90.6798C630.981 90.5726 629.578 90.4169 627.78 90.2232C624.184 89.8357 619.005 89.296 612.677 88.6872C600.02 87.4696 582.766 85.9758 564.378 84.8708C545.989 83.7657 526.472 83.05 509.285 83.3871C492.079 83.7247 477.271 85.1174 468.263 88.2006C447.507 95.305 433.556 103.771 423.001 112.906C412.442 122.047 405.264 131.871 398.054 141.744L398.043 141.759C390.841 151.62 383.605 161.527 372.953 170.747C362.291 179.976 348.224 188.502 327.361 195.643C297.795 205.762 251.049 216.287 204.345 226.803L204.344 226.803L204.314 226.81C157.575 237.334 110.881 247.848 81.372 257.948C55.9166 266.661 47.1711 275.132 44.688 281.267C43.4534 284.317 43.7517 286.823 44.3462 288.562C44.6448 289.436 45.0194 290.12 45.3175 290.583C45.4665 290.814 45.5958 290.989 45.6862 291.105L45.7134 291.14L45.7376 291.17L45.768 291.207L45.7899 291.233C45.8015 291.247 45.81 291.257 45.8151 291.262L45.8202 291.268L45.8208 291.269C45.8204 291.268 45.8201 291.268 45.4503 291.605C45.0805 291.941 45.08 291.941 45.0796 291.94L45.0784 291.939L45.0748 291.935L45.0638 291.922C45.0547 291.912 45.0422 291.898 45.0266 291.879C45.0123 291.862 44.9954 291.842 44.976 291.818C44.9533 291.79 44.9271 291.758 44.8981 291.721C44.7909 291.583 44.6436 291.383 44.4767 291.124C44.1432 290.606 43.7293 289.85 43.4 288.886C42.7387 286.951 42.4242 284.194 43.761 280.892C46.4206 274.321 55.5551 265.728 81.0482 257.002C110.614 246.882 157.36 236.357 204.064 225.841L204.095 225.835C250.834 215.311 297.528 204.797 327.037 194.697C347.793 187.592 361.744 179.126 372.299 169.991C382.859 160.85 390.036 151.026 397.246 141.154L397.258 141.138C404.459 131.278 411.696 121.37 422.347 112.15C433.009 102.921 447.076 94.3954 467.939 87.2545ZM471.549 97.8013C480.72 94.6624 495.669 93.2718 512.875 92.9342C530.099 92.5963 549.645 93.3137 568.048 94.4195C586.451 95.5254 603.717 97.0203 616.382 98.2387C622.714 98.8479 627.897 99.388 631.497 99.7758C633.296 99.9697 634.701 100.126 635.655 100.233C636.132 100.287 636.497 100.328 636.742 100.356L637.02 100.388L637.091 100.397L637.108 100.399L637.113 100.399C637.114 100.399 637.114 100.399 637.056 100.896C636.998 101.393 636.998 101.393 636.997 101.392L636.993 101.392L636.975 101.39L636.905 101.382L636.628 101.35C636.383 101.322 636.019 101.28 635.543 101.227C634.59 101.119 633.188 100.964 631.389 100.77C627.793 100.383 622.614 99.8429 616.286 99.2341C603.629 98.0165 586.376 96.5227 567.988 95.4177C549.598 94.3126 530.081 93.5968 512.894 93.934C495.689 94.2716 480.881 95.6643 471.873 98.7475C451.116 105.852 437.165 114.318 426.611 123.453C416.051 132.594 408.873 142.418 401.663 152.29L401.652 152.306C394.45 162.167 387.214 172.074 376.563 181.294C365.9 190.523 351.833 199.049 330.97 206.19C301.404 216.309 254.658 226.834 207.954 237.35L207.924 237.357C161.184 247.881 114.49 258.395 84.9813 268.495C59.5259 277.208 50.7804 285.679 48.2973 291.814C47.0627 294.864 47.3611 297.37 47.9556 299.109C48.2541 299.983 48.6288 300.667 48.9268 301.13C49.0758 301.361 49.2051 301.536 49.2955 301.652C49.3144 301.676 49.3316 301.698 49.3469 301.717C49.3682 301.743 49.3858 301.764 49.3992 301.78C49.4108 301.794 49.4193 301.803 49.4245 301.809L49.4295 301.815L49.4302 301.816C49.4297 301.815 49.4294 301.815 49.0596 302.151C48.6898 302.488 48.6894 302.488 48.6889 302.487L48.6877 302.486L48.6842 302.482L48.6731 302.469C48.6641 302.459 48.6516 302.445 48.636 302.426L48.6057 302.39L48.5854 302.365C48.5626 302.337 48.5365 302.305 48.5074 302.268C48.4002 302.13 48.253 301.93 48.0861 301.671C47.7526 301.153 47.3387 300.396 47.0093 299.433C46.3481 297.498 46.0335 294.741 47.3704 291.438C50.03 284.868 59.1644 276.275 84.6575 267.549C114.224 257.429 160.969 246.904 207.674 236.388L207.704 236.381C254.443 225.858 301.138 215.343 330.646 205.243C351.403 198.139 365.354 189.673 375.908 180.538C386.468 171.397 393.646 161.573 400.856 151.701L400.867 151.685C408.069 141.824 415.305 131.917 425.956 122.697C436.619 113.468 450.685 104.942 471.549 97.8013Z"
                            fill="url(#paint0_radial_442_58806)"
                        />
                        <defs>
                            <radialGradient
                                id="paint0_radial_442_58806"
                                cx="0"
                                cy="0"
                                r="1"
                                gradientUnits="userSpaceOnUse"
                                gradientTransform="translate(397.983 115.204) rotate(-147.909) scale(157.372 596.036)"
                            >
                                <stop stop-color="#1F3891" />
                                <stop offset="1" stop-color="#1F3891" stop-opacity="0" />
                            </radialGradient>
                        </defs>
                    </svg>