<svg width="1440" height="374" viewBox="0 0 1440 374" fill="none"
    xmlns="http://www.w3.org/2000/svg">
    <path fill-rule="evenodd" clip-rule="evenodd" d="M1081.72 8.79612e-05C1105.87 9.00721e-05 1142.34 6.60748 1183.42 16.4984C1224.51 26.3924 1270.26 39.5833 1312.99 52.7723C1355.73 65.9617 1395.45 79.1508 1424.49 89.0424C1439.01 93.9883 1450.86 98.1099 1459.08 100.995C1463.19 102.438 1466.39 103.571 1468.57 104.344C1469.65 104.731 1470.48 105.027 1471.04 105.227C1471.32 105.326 1471.53 105.402 1471.68 105.453L1471.83 105.51L1471.88 105.525L1471.89 105.528C1471.89 105.529 1471.89 105.53 1471.72 106C1471.55 106.471 1471.55 106.47 1471.55 106.469L1471.54 106.466L1471.5 106.452L1471.34 106.394C1471.2 106.344 1470.99 106.268 1470.71 106.168C1470.15 105.969 1469.32 105.673 1468.23 105.286C1466.06 104.514 1462.86 103.381 1458.75 101.939C1450.53 99.0544 1438.68 94.9338 1424.17 89.989C1395.13 80.0994 1355.42 66.9135 1312.7 53.7279C1269.97 40.5419 1224.24 27.3578 1183.18 17.4706C1142.1 7.58021 1105.74 1.00009 1081.72 1.00009C1026.63 1.00008 986.564 7.5886 954.006 17.4629C921.445 27.3382 896.378 40.5046 871.273 53.6927L871.26 53.6992L871.26 53.6997C846.161 66.8842 821.021 80.0899 788.365 89.9942C755.7 99.9011 715.531 106.5 660.356 106.5C582.072 106.5 462.703 96.7488 343.366 87.0002L343.343 86.9984C223.979 77.2476 104.649 67.5 26.4109 67.5C-7.3136 67.5 -31.1797 69.9363 -48.0079 73.5824C-64.8417 77.2297 -74.5956 82.0798 -80.1342 86.8779C-85.6542 91.66 -86.9981 96.3982 -87.0004 99.9066C-87.0015 101.671 -86.663 103.141 -86.3252 104.168C-86.1564 104.681 -85.988 105.082 -85.8634 105.353C-85.8316 105.422 -85.8025 105.482 -85.7771 105.534C-85.7529 105.583 -85.7321 105.625 -85.715 105.657L-85.6978 105.69L-85.6755 105.731L-85.6664 105.748L-85.6647 105.751C-85.6647 105.751 -85.6649 105.75 -86.0982 106C-86.5314 106.25 -86.5317 106.249 -86.5322 106.248L-86.5337 106.246L-86.538 106.238L-86.5523 106.212C-86.5642 106.19 -86.5811 106.159 -86.6021 106.119C-86.6439 106.038 -86.7023 105.922 -86.7716 105.771C-86.9103 105.47 -87.093 105.034 -87.275 104.48C-87.6389 103.375 -88.0015 101.798 -88.0004 99.9059C-87.9979 96.1017 -86.5234 91.09 -80.7889 86.1221C-75.0728 81.1701 -65.1359 76.2703 -48.2197 72.6051C-31.298 68.9387 -7.35511 66.5 26.4109 66.5C104.695 66.5 224.064 76.2512 343.401 85.9998L343.424 86.0017C462.788 95.7525 582.118 105.5 660.356 105.5C715.448 105.5 755.517 98.9115 788.075 89.0372C820.636 79.1619 845.702 65.9956 870.808 52.8074L870.82 52.8009L870.821 52.8004C895.92 39.6159 921.059 26.4102 953.716 16.506C986.381 6.59906 1026.55 8.31377e-05 1081.72 8.79612e-05ZM1183.42 35.9985C1142.34 26.1076 1105.87 19.5002 1081.72 19.5002C1026.55 19.5002 986.381 26.0992 953.716 36.0061C921.059 45.9103 895.92 59.116 870.821 72.3005L870.82 72.3011L870.808 72.3075C845.702 85.4957 820.636 98.6621 788.075 108.537C755.517 118.412 715.448 125 660.356 125C582.118 125 462.788 115.253 343.424 105.502L343.401 105.5C224.064 95.7513 104.695 86.0001 26.4109 86.0001C-7.35511 86.0001 -31.298 88.4388 -48.2197 92.1052C-65.1359 95.7704 -75.0728 100.67 -80.7889 105.622C-86.5234 110.59 -87.9979 115.602 -88.0004 119.406C-88.0015 121.298 -87.6389 122.875 -87.275 123.981C-87.093 124.534 -86.9103 124.971 -86.7716 125.271C-86.7023 125.422 -86.6439 125.539 -86.6021 125.619C-86.5811 125.659 -86.5642 125.69 -86.5523 125.712L-86.538 125.738L-86.5337 125.746L-86.5322 125.748C-86.5317 125.749 -86.5314 125.75 -86.0982 125.5L-85.7894 125.322L-85.6735 125.256L-85.6647 125.251L-85.6664 125.248L-85.6755 125.231L-85.6978 125.19L-85.715 125.157C-85.7499 125.09 -85.8012 124.988 -85.8634 124.853C-85.988 124.582 -86.1564 124.181 -86.3252 123.668C-86.663 122.641 -87.0015 121.171 -87.0004 119.407C-86.9981 115.898 -85.6542 111.16 -80.1342 106.378C-74.5956 101.58 -64.8417 96.7298 -48.0079 93.0825C-31.1797 89.4364 -7.31361 87.0001 26.4109 87.0001C104.649 87.0001 223.979 96.7477 343.343 106.498L343.366 106.5C462.703 116.249 582.072 126 660.356 126C715.531 126 755.7 119.401 788.365 109.494C821.021 99.59 846.161 86.3843 871.26 73.1998L871.26 73.1993L871.273 73.1928C896.378 60.0047 921.445 46.8383 954.006 36.9631C986.564 27.0887 1026.63 20.5002 1081.72 20.5002C1105.74 20.5002 1142.1 27.0803 1183.18 36.9707C1224.24 46.8579 1269.97 60.042 1312.7 73.228C1355.42 86.4137 1395.13 99.5996 1424.17 109.489C1438.68 114.434 1450.53 118.554 1458.75 121.439C1462.86 122.881 1466.06 124.014 1468.23 124.787C1469.32 125.173 1470.15 125.469 1470.71 125.668C1470.99 125.768 1471.2 125.844 1471.34 125.894L1471.5 125.952L1471.54 125.966L1471.55 125.97C1471.55 125.97 1471.55 125.971 1471.72 125.5C1471.89 125.03 1471.89 125.029 1471.89 125.028L1471.88 125.025L1471.83 125.01L1471.68 124.953C1471.53 124.902 1471.32 124.827 1471.04 124.727C1470.48 124.527 1469.65 124.231 1468.57 123.844C1466.39 123.071 1463.19 121.938 1459.08 120.495C1450.86 117.61 1439.01 113.488 1424.49 108.543C1395.45 98.6509 1355.73 85.4618 1312.99 72.2725C1270.26 59.0834 1224.51 45.8926 1183.42 35.9985ZM1081.72 39.0001C1105.87 39.0001 1142.34 45.6075 1183.42 55.4984C1224.51 65.3925 1270.26 78.5833 1312.99 91.7724C1355.73 104.962 1395.45 118.151 1424.49 128.042C1439.01 132.988 1450.86 137.11 1459.08 139.995C1463.19 141.438 1466.39 142.571 1468.57 143.344C1469.65 143.731 1470.48 144.027 1471.04 144.227C1471.32 144.327 1471.53 144.402 1471.68 144.453L1471.83 144.51L1471.88 144.525L1471.89 144.528C1471.89 144.529 1471.89 144.53 1471.72 145C1471.55 145.471 1471.55 145.47 1471.55 145.47L1471.54 145.466L1471.5 145.452L1471.34 145.394C1471.2 145.344 1470.99 145.268 1470.71 145.168C1470.15 144.969 1469.32 144.673 1468.23 144.286C1466.06 143.514 1462.86 142.381 1458.75 140.939C1450.53 138.054 1438.68 133.934 1424.17 128.989C1395.13 119.099 1355.42 105.914 1312.7 92.7279C1269.97 79.5419 1224.24 66.3578 1183.18 56.4706C1142.1 46.5802 1105.74 40.0001 1081.72 40.0001C1026.63 40.0001 986.564 46.5886 954.006 56.463C921.445 66.3382 896.378 79.5046 871.273 92.6927L871.26 92.6992L871.26 92.6997C846.161 105.884 821.021 119.09 788.365 128.994C755.7 138.901 715.531 145.5 660.356 145.5C582.072 145.5 462.703 135.749 343.366 126L343.343 125.998C223.979 116.248 104.649 106.5 26.4109 106.5C-7.31361 106.5 -31.1797 108.936 -48.0079 112.582C-64.8417 116.23 -74.5956 121.08 -80.1342 125.878C-85.6542 130.66 -86.9981 135.398 -87.0004 138.907C-87.0015 140.671 -86.663 142.141 -86.3252 143.168C-86.1564 143.681 -85.988 144.082 -85.8634 144.353C-85.8012 144.488 -85.7499 144.59 -85.715 144.657L-85.6978 144.69L-85.6755 144.731L-85.6664 144.748L-85.6647 144.751C-85.6647 144.751 -85.6649 144.75 -86.0982 145C-86.5314 145.25 -86.5318 145.249 -86.5322 145.248L-86.5337 145.246L-86.538 145.238L-86.5523 145.212C-86.5642 145.19 -86.5811 145.159 -86.6021 145.119L-86.6281 145.069L-86.6522 145.02C-86.6864 144.952 -86.7267 144.869 -86.7716 144.771C-86.9103 144.47 -87.093 144.034 -87.275 143.48C-87.6389 142.375 -88.0015 140.798 -88.0004 138.906C-87.9979 135.102 -86.5234 130.09 -80.789 125.122C-75.0728 120.17 -65.1359 115.27 -48.2197 111.605C-31.298 107.939 -7.35511 105.5 26.4109 105.5C104.695 105.5 224.064 115.251 343.401 125L343.424 125.002C462.788 134.753 582.118 144.5 660.356 144.5C715.448 144.5 755.517 137.912 788.075 128.037C820.636 118.162 845.702 104.996 870.808 91.8075L870.82 91.801L870.821 91.8004C895.92 78.6159 921.059 65.4102 953.716 55.506C986.381 45.5991 1026.55 39.0001 1081.72 39.0001ZM1183.42 74.9985C1142.34 65.1076 1105.87 58.5002 1081.72 58.5002C1026.55 58.5002 986.381 65.0992 953.716 75.0061C921.059 84.9103 895.92 98.1161 870.821 111.301L870.82 111.301L870.808 111.308C845.702 124.496 820.636 137.662 788.075 147.537C755.517 157.412 715.448 164 660.356 164C582.118 164 462.788 154.253 343.424 144.502L343.401 144.5C224.064 134.751 104.695 125 26.4109 125C-7.35511 125 -31.298 127.439 -48.2197 131.105C-65.1359 134.77 -75.0728 139.67 -80.789 144.622C-86.5235 149.59 -87.9979 154.602 -88.0004 158.406C-88.0015 160.298 -87.6389 161.875 -87.275 162.981C-87.093 163.534 -86.9103 163.971 -86.7716 164.271C-86.7023 164.422 -86.6439 164.539 -86.6021 164.619C-86.5811 164.659 -86.5642 164.691 -86.5523 164.712L-86.538 164.738L-86.5337 164.746L-86.5322 164.748C-86.5318 164.749 -86.5314 164.75 -86.0982 164.5L-85.7471 164.298C-85.6648 164.251 -85.6647 164.251 -85.6647 164.251L-85.6664 164.248L-85.6756 164.231L-85.6978 164.19L-85.715 164.157C-85.7499 164.09 -85.8012 163.988 -85.8634 163.853C-85.9881 163.582 -86.1564 163.181 -86.3252 162.668C-86.663 161.641 -87.0015 160.171 -87.0004 158.407C-86.9981 154.898 -85.6542 150.16 -80.1342 145.378C-74.5956 140.58 -64.8417 135.73 -48.0079 132.083C-31.1797 128.436 -7.31361 126 26.4109 126C104.649 126 223.979 135.748 343.343 145.499L343.366 145.5C462.703 155.249 582.072 165 660.356 165C715.531 165 755.7 158.401 788.365 148.494C821.021 138.59 846.161 125.384 871.26 112.2L871.26 112.199L871.273 112.193C896.378 99.0047 921.445 85.8383 954.006 75.9631C986.564 66.0887 1026.63 59.5002 1081.72 59.5002C1105.74 59.5002 1142.1 66.0804 1183.18 75.9707C1224.24 85.8579 1269.97 99.0421 1312.7 112.228C1355.42 125.414 1395.13 138.6 1424.17 148.489C1438.68 153.434 1450.53 157.555 1458.75 160.439C1462.86 161.881 1466.06 163.014 1468.23 163.787C1469.32 164.173 1470.15 164.469 1470.71 164.668C1470.99 164.768 1471.2 164.844 1471.34 164.895L1471.5 164.952L1471.54 164.966L1471.55 164.97C1471.55 164.97 1471.55 164.971 1471.72 164.5C1471.89 164.03 1471.89 164.029 1471.89 164.029L1471.88 164.025L1471.83 164.01L1471.68 163.953C1471.53 163.902 1471.32 163.827 1471.04 163.727C1470.48 163.527 1469.65 163.231 1468.57 162.844C1466.39 162.071 1463.19 160.938 1459.08 159.495C1450.86 156.61 1439.01 152.488 1424.49 147.543C1395.45 137.651 1355.73 124.462 1312.99 111.272C1270.26 98.0835 1224.51 84.8926 1183.42 74.9985ZM1081.72 78.0001C1105.87 78.0001 1142.34 84.6075 1183.42 94.4984C1224.51 104.392 1270.26 117.583 1312.99 130.772C1355.73 143.962 1395.45 157.151 1424.49 167.042C1439.01 171.988 1450.86 176.11 1459.08 178.995C1463.19 180.438 1466.39 181.571 1468.57 182.344C1469.65 182.731 1470.48 183.027 1471.04 183.227C1471.32 183.326 1471.53 183.402 1471.68 183.453L1471.83 183.51L1471.88 183.525L1471.89 183.528C1471.89 183.529 1471.89 183.53 1471.72 184C1471.55 184.471 1471.55 184.47 1471.55 184.469L1471.54 184.466L1471.5 184.452L1471.34 184.394C1471.2 184.344 1470.99 184.268 1470.71 184.168C1470.15 183.969 1469.32 183.673 1468.23 183.286C1466.06 182.514 1462.86 181.381 1458.75 179.939C1450.53 177.054 1438.68 172.934 1424.17 167.989C1395.13 158.099 1355.42 144.914 1312.7 131.728C1269.97 118.542 1224.24 105.358 1183.18 95.4706C1142.1 85.5802 1105.74 79.0001 1081.72 79.0001C1026.63 79.0001 986.564 85.5886 954.006 95.4629C921.445 105.338 896.378 118.505 871.273 131.693L871.26 131.699L871.26 131.7L871.259 131.7C846.16 144.885 821.021 158.09 788.365 167.994C755.7 177.901 715.531 184.5 660.356 184.5C582.072 184.5 462.703 174.749 343.366 165L343.343 164.998C223.979 155.248 104.649 145.5 26.4109 145.5C-7.31361 145.5 -31.1797 147.936 -48.0079 151.582C-64.8417 155.23 -74.5956 160.08 -80.1342 164.878C-85.6542 169.66 -86.9981 174.398 -87.0004 177.907C-87.0015 179.671 -86.663 181.141 -86.3252 182.168C-86.1564 182.681 -85.9881 183.082 -85.8634 183.353C-85.8012 183.488 -85.7499 183.59 -85.715 183.657L-85.6978 183.69L-85.6756 183.731L-85.6664 183.748L-85.6647 183.751C-85.6647 183.751 -85.6649 183.75 -86.0982 184C-86.5314 184.25 -86.5318 184.249 -86.5322 184.248L-86.5337 184.246L-86.538 184.238L-86.5523 184.212L-86.5809 184.159L-86.6021 184.119C-86.6439 184.038 -86.7023 183.922 -86.7716 183.771C-86.9103 183.47 -87.093 183.034 -87.275 182.48C-87.6389 181.375 -88.0015 179.798 -88.0004 177.906C-87.9979 174.102 -86.5235 169.09 -80.789 164.122C-75.0728 159.17 -65.1359 154.27 -48.2197 150.605C-31.298 146.939 -7.35512 144.5 26.4109 144.5C104.695 144.5 224.064 154.251 343.401 164L343.424 164.002C462.788 173.752 582.118 183.5 660.356 183.5C715.448 183.5 755.517 176.912 788.075 167.037C820.636 157.162 845.702 143.996 870.808 130.807L870.82 130.801L870.821 130.8C895.92 117.616 921.059 104.41 953.716 94.506C986.381 84.5991 1026.55 78.0001 1081.72 78.0001ZM1183.41 115.498C1142.34 105.608 1105.87 99.0002 1081.72 99.0002C1026.55 99.0002 986.381 105.599 953.716 115.506C921.059 125.41 895.92 138.616 870.821 151.8L870.82 151.801L870.808 151.808C845.702 164.996 820.636 178.162 788.075 188.037C755.517 197.912 715.448 204.5 660.356 204.5C582.118 204.5 462.788 194.753 343.424 185.002L343.401 185C224.064 175.251 104.695 165.5 26.4109 165.5C-7.35512 165.5 -31.298 167.939 -48.2197 171.605C-65.1359 175.27 -75.0728 180.17 -80.789 185.122C-86.5235 190.09 -87.9979 195.102 -88.0004 198.906C-88.0015 200.798 -87.6389 202.375 -87.275 203.481C-87.093 204.034 -86.9103 204.47 -86.7716 204.771C-86.7023 204.922 -86.6439 205.039 -86.6021 205.119L-86.5755 205.169L-86.5523 205.212L-86.538 205.238L-86.5337 205.246L-86.5322 205.248C-86.5318 205.249 -86.5314 205.25 -86.0982 205C-85.6649 204.75 -85.6647 204.751 -85.6647 204.751L-85.6664 204.748L-85.6756 204.731L-85.6978 204.69L-85.715 204.657C-85.7499 204.59 -85.8012 204.488 -85.8634 204.353C-85.9881 204.082 -86.1564 203.681 -86.3252 203.168C-86.663 202.141 -87.0015 200.671 -87.0004 198.907C-86.9981 195.398 -85.6542 190.66 -80.1342 185.878C-74.5956 181.08 -64.8417 176.23 -48.0079 172.582C-31.1797 168.936 -7.31361 166.5 26.4109 166.5C104.649 166.5 223.979 176.248 343.343 185.998L343.366 186C462.703 195.749 582.072 205.5 660.356 205.5C715.531 205.5 755.7 198.901 788.365 188.994C821.021 179.09 846.16 165.885 871.259 152.7L871.26 152.7L871.26 152.699L871.273 152.693C896.378 139.505 921.445 126.338 954.006 116.463C986.564 106.589 1026.63 100 1081.72 100C1105.74 100 1142.1 106.58 1183.18 116.471C1224.24 126.358 1269.97 139.542 1312.7 152.728C1355.42 165.914 1395.13 179.1 1424.17 188.989C1438.68 193.934 1450.53 198.054 1458.75 200.939C1462.86 202.381 1466.06 203.514 1468.23 204.287C1469.32 204.673 1470.15 204.969 1470.71 205.168C1470.99 205.268 1471.2 205.344 1471.34 205.394L1471.5 205.452L1471.54 205.466L1471.55 205.47C1471.55 205.47 1471.55 205.471 1471.72 205C1471.89 204.53 1471.89 204.529 1471.89 204.528L1471.88 204.525L1471.83 204.51L1471.68 204.453C1471.53 204.402 1471.32 204.327 1471.04 204.227C1470.48 204.027 1469.65 203.731 1468.57 203.344C1466.39 202.571 1463.19 201.438 1459.08 199.995C1450.86 197.11 1439.01 192.988 1424.49 188.043C1395.45 178.151 1355.73 164.962 1312.99 151.772C1270.26 138.583 1224.51 125.393 1183.41 115.498ZM1081.72 120C1105.87 120 1142.34 126.608 1183.42 136.498C1224.51 146.393 1270.26 159.583 1312.99 172.772C1355.73 185.962 1395.45 199.151 1424.49 209.043C1439.01 213.988 1450.86 218.11 1459.08 220.995C1463.19 222.438 1466.39 223.571 1468.57 224.344C1469.65 224.731 1470.48 225.027 1471.04 225.227C1471.32 225.327 1471.53 225.402 1471.68 225.453L1471.84 225.51L1471.88 225.525L1471.89 225.528C1471.89 225.529 1471.89 225.53 1471.72 226C1471.55 226.471 1471.55 226.47 1471.55 226.47L1471.54 226.466L1471.5 226.452L1471.34 226.394C1471.2 226.344 1470.99 226.268 1470.71 226.168C1470.15 225.969 1469.32 225.673 1468.23 225.287C1466.06 224.514 1462.86 223.381 1458.75 221.939C1450.53 219.055 1438.68 214.934 1424.17 209.989C1395.13 200.1 1355.42 186.914 1312.7 173.728C1269.97 160.542 1224.24 147.358 1183.18 137.471C1142.1 127.58 1105.74 121 1081.72 121C1026.63 121 986.564 127.589 954.006 137.463C921.445 147.338 896.379 160.505 871.273 173.693L871.261 173.699L871.26 173.7L871.259 173.7C846.16 186.885 821.021 200.09 788.365 209.994C755.7 219.901 715.531 226.5 660.356 226.5C582.072 226.5 462.703 216.749 343.366 207L343.343 206.998C223.979 197.248 104.649 187.5 26.4111 187.5C-7.31337 187.5 -31.1795 189.936 -48.0077 193.583C-64.8414 197.23 -74.5954 202.08 -80.1339 206.878C-85.6539 211.66 -86.9978 216.398 -87.0001 219.907C-87.0012 221.671 -86.6627 223.141 -86.325 224.168C-86.1561 224.681 -85.9878 225.082 -85.8632 225.353C-85.8009 225.488 -85.7497 225.59 -85.7147 225.657L-85.6975 225.69L-85.6753 225.731L-85.6662 225.748L-85.6644 225.751C-85.6644 225.751 -85.6647 225.75 -86.0979 226C-86.5311 226.25 -86.5315 226.249 -86.532 226.248L-86.5335 226.246L-86.5377 226.238L-86.552 226.212C-86.564 226.19 -86.5808 226.159 -86.6018 226.119C-86.6437 226.039 -86.702 225.922 -86.7714 225.771C-86.9101 225.471 -87.0928 225.034 -87.2748 224.481C-87.6387 223.375 -88.0012 221.798 -88.0001 219.906C-87.9977 216.102 -86.5232 211.09 -80.7887 206.122C-75.0725 201.17 -65.1356 196.27 -48.2195 192.605C-31.2977 188.939 -7.35487 186.5 26.4111 186.5C104.695 186.5 224.064 196.251 343.401 206L343.425 206.002C462.788 215.753 582.118 225.5 660.356 225.5C715.448 225.5 755.517 218.912 788.075 209.037C820.636 199.162 845.702 185.996 870.808 172.808L870.82 172.801L870.821 172.801C895.92 159.616 921.059 146.41 953.716 136.506C986.381 126.599 1026.55 120 1081.72 120ZM1183.42 157.499C1142.34 147.608 1105.87 141 1081.72 141C1026.55 141 986.381 147.599 953.716 157.506C921.059 167.41 895.92 180.616 870.821 193.801L870.82 193.801L870.808 193.808C845.702 206.996 820.636 220.162 788.075 230.037C755.517 239.912 715.448 246.5 660.356 246.5C582.118 246.5 462.788 236.753 343.424 227.002L343.401 227C224.064 217.251 104.695 207.5 26.411 207.5C-7.355 207.5 -31.2979 209.939 -48.2196 213.605C-65.1358 217.27 -75.0727 222.17 -80.7888 227.122C-86.5233 232.09 -87.9978 237.102 -88.0003 240.906C-88.0014 242.798 -87.6388 244.375 -87.2749 245.481C-87.0929 246.034 -86.9102 246.471 -86.7715 246.771L-86.7309 246.859L-86.7019 246.919L-86.684 246.956C-86.6524 247.021 -86.6247 247.075 -86.602 247.119C-86.581 247.159 -86.5641 247.191 -86.5521 247.212L-86.5379 247.238L-86.5336 247.246L-86.5321 247.248C-86.5316 247.249 -86.5313 247.25 -86.098 247L-85.7266 246.786L-85.6646 246.751L-85.6663 246.748L-85.6754 246.731L-85.6977 246.69L-85.7149 246.657C-85.7498 246.59 -85.801 246.488 -85.8633 246.353C-85.9879 246.082 -86.1563 245.681 -86.3251 245.168C-86.6629 244.141 -87.0014 242.671 -87.0003 240.907C-86.9979 237.398 -85.6541 232.66 -80.1341 227.878C-74.5955 223.08 -64.8416 218.23 -48.0078 214.583C-31.1796 210.936 -7.31349 208.5 26.411 208.5C104.649 208.5 223.979 218.248 343.343 227.999L343.366 228C462.703 237.749 582.072 247.5 660.356 247.5C715.531 247.5 755.7 240.901 788.365 230.994C821.021 221.09 846.16 207.885 871.259 194.7L871.26 194.7L871.261 194.699L871.273 194.693C896.379 181.505 921.445 168.338 954.006 158.463C986.564 148.589 1026.63 142 1081.72 142C1105.74 142 1142.1 148.58 1183.18 158.471C1224.24 168.358 1269.97 181.542 1312.7 194.728C1355.42 207.914 1395.13 221.1 1424.17 230.989C1438.68 235.934 1450.53 240.055 1458.75 242.939C1462.86 244.381 1466.06 245.514 1468.23 246.287C1469.32 246.673 1470.15 246.969 1470.71 247.168C1470.99 247.268 1471.2 247.344 1471.34 247.395L1471.5 247.452L1471.54 247.466L1471.55 247.47C1471.55 247.47 1471.55 247.471 1471.72 247C1471.89 246.53 1471.89 246.529 1471.89 246.529L1471.88 246.525L1471.83 246.51L1471.68 246.453C1471.53 246.402 1471.32 246.327 1471.04 246.227C1470.48 246.027 1469.65 245.731 1468.57 245.344C1466.39 244.571 1463.19 243.438 1459.08 241.995C1450.86 239.11 1439.01 234.988 1424.49 230.043C1395.45 220.151 1355.73 206.962 1312.99 193.772C1270.26 180.583 1224.51 167.393 1183.42 157.499ZM1081.72 162C1105.87 162 1142.34 168.607 1183.42 178.498C1224.51 188.392 1270.26 201.583 1312.99 214.772C1355.73 227.962 1395.45 241.151 1424.49 251.042C1439.01 255.988 1450.86 260.11 1459.08 262.995C1463.19 264.438 1466.39 265.571 1468.57 266.344C1469.65 266.731 1470.48 267.027 1471.04 267.227C1471.32 267.326 1471.53 267.402 1471.68 267.453L1471.83 267.51L1471.88 267.525L1471.89 267.528C1471.89 267.529 1471.89 267.53 1471.72 268C1471.55 268.471 1471.55 268.47 1471.55 268.469L1471.54 268.466L1471.5 268.451L1471.34 268.394C1471.2 268.344 1470.99 268.268 1470.71 268.168C1470.15 267.969 1469.32 267.673 1468.23 267.286C1466.06 266.514 1462.86 265.381 1458.75 263.939C1450.53 261.054 1438.68 256.934 1424.17 251.989C1395.13 242.099 1355.42 228.914 1312.7 215.728C1269.97 202.542 1224.24 189.358 1183.18 179.471C1142.1 169.58 1105.74 163 1081.72 163C1026.63 163 986.564 169.589 954.006 179.463C921.445 189.338 896.378 202.504 871.273 215.693L871.26 215.699L871.26 215.7C846.161 228.884 821.021 242.09 788.365 251.994C755.7 261.901 715.531 268.5 660.356 268.5C582.072 268.5 462.703 258.749 343.366 249L343.343 248.998C223.979 239.248 104.649 229.5 26.4109 229.5C-7.31362 229.5 -31.1797 231.936 -48.008 235.582C-64.8417 239.23 -74.5956 244.08 -80.1342 248.878C-85.6542 253.66 -86.9981 258.398 -87.0004 261.907C-87.0015 263.671 -86.663 265.141 -86.3252 266.168C-86.1564 266.681 -85.9881 267.082 -85.8634 267.353C-85.8012 267.488 -85.7499 267.59 -85.715 267.657L-85.6978 267.69L-85.6756 267.731L-85.6664 267.748L-85.6647 267.751L-85.6839 267.762C-85.7189 267.782 -85.8179 267.838 -86.0982 268C-86.5314 268.25 -86.5318 268.249 -86.5323 268.248L-86.5337 268.246L-86.538 268.238L-86.5523 268.212C-86.5642 268.19 -86.5811 268.159 -86.6021 268.119C-86.6439 268.038 -86.7023 267.922 -86.7716 267.771C-86.9103 267.47 -87.093 267.034 -87.275 266.48C-87.6389 265.375 -88.0015 263.798 -88.0004 261.906C-87.9979 258.102 -86.5235 253.09 -80.789 248.122C-75.0728 243.17 -65.1359 238.27 -48.2197 234.605C-31.298 230.939 -7.35512 228.5 26.4109 228.5C104.695 228.5 224.064 238.251 343.401 248L343.424 248.002C462.788 257.752 582.118 267.5 660.356 267.5C715.448 267.5 755.517 260.911 788.075 251.037C820.636 241.162 845.702 227.996 870.808 214.807L870.82 214.801L870.821 214.8C895.92 201.616 921.059 188.41 953.716 178.506C986.381 168.599 1026.55 162 1081.72 162ZM1183.42 199.499C1142.34 189.608 1105.87 183 1081.73 183C1026.55 183 986.382 189.599 953.716 199.506C921.06 209.41 895.921 222.616 870.822 235.801L870.821 235.801L870.809 235.808C845.703 248.996 820.636 262.162 788.075 272.037C755.518 281.912 715.448 288.5 660.357 288.5C582.119 288.5 462.789 278.753 343.425 269.002L343.402 269C224.064 259.251 104.696 249.5 26.4117 249.5C-7.35427 249.5 -31.2971 251.939 -48.2189 255.605C-65.135 259.27 -75.0719 264.17 -80.7881 269.122C-86.5226 274.09 -87.9971 279.102 -87.9995 282.906C-88.0006 284.798 -87.6381 286.375 -87.2742 287.481C-87.0922 288.034 -86.9094 288.471 -86.7708 288.771C-86.7014 288.922 -86.6431 289.039 -86.6012 289.119C-86.5802 289.159 -86.5634 289.191 -86.5514 289.212L-86.5371 289.238L-86.5329 289.246L-86.5314 289.248C-86.531 289.249 -86.5308 289.249 -86.3103 289.123L-86.0973 289C-85.6641 288.751 -85.6638 288.751 -85.6638 288.751L-85.6656 288.748L-85.6747 288.731L-85.6969 288.69L-85.7141 288.657C-85.749 288.59 -85.8003 288.488 -85.8626 288.353C-85.9872 288.083 -86.1555 287.681 -86.3244 287.168C-86.6621 286.141 -87.0006 284.671 -86.9995 282.907C-86.9972 279.398 -85.6533 274.66 -80.1333 269.878C-74.5947 265.08 -64.8408 260.23 -48.0071 256.583C-31.1789 252.936 -7.31277 250.5 26.4117 250.5C104.65 250.5 223.98 260.248 343.344 269.999L343.366 270C462.704 279.749 582.073 289.5 660.357 289.5C715.532 289.5 755.7 282.901 788.366 272.994C821.022 263.09 846.161 249.885 871.26 236.7L871.261 236.7L871.261 236.699L871.274 236.693C896.379 223.505 921.446 210.338 954.007 200.463C986.565 190.589 1026.63 184 1081.73 184C1105.74 184 1142.11 190.58 1183.18 200.471C1224.24 210.358 1269.97 223.542 1312.7 236.728C1355.42 249.914 1395.13 263.1 1424.17 272.989C1438.68 277.934 1450.53 282.055 1458.75 284.939C1462.86 286.381 1466.06 287.514 1468.23 288.287C1469.32 288.673 1470.15 288.969 1470.71 289.169C1470.99 289.268 1471.2 289.344 1471.34 289.395L1471.5 289.452L1471.54 289.466L1471.55 289.47C1471.55 289.47 1471.55 289.471 1471.72 289C1471.89 288.53 1471.89 288.529 1471.89 288.529L1471.88 288.525L1471.84 288.51L1471.68 288.453L1471.64 288.439L1471.04 288.227C1470.48 288.027 1469.65 287.731 1468.57 287.344C1466.39 286.571 1463.19 285.438 1459.08 283.995C1450.86 281.11 1439.01 276.989 1424.49 272.043C1395.45 262.151 1355.73 248.962 1312.99 235.773C1270.26 222.583 1224.51 209.393 1183.42 199.499ZM1081.73 204C1105.87 204 1142.34 210.608 1183.42 220.498C1224.51 230.393 1270.26 243.583 1312.99 256.772C1355.73 269.962 1395.45 283.151 1424.49 293.043C1439.01 297.988 1450.86 302.11 1459.08 304.995C1463.19 306.438 1466.39 307.571 1468.57 308.344C1469.65 308.731 1470.48 309.027 1471.04 309.227C1471.32 309.327 1471.53 309.402 1471.68 309.453L1471.84 309.51L1471.88 309.525L1471.89 309.528C1471.89 309.529 1471.89 309.53 1471.72 310C1471.55 310.471 1471.55 310.47 1471.55 310.47L1471.54 310.466L1471.5 310.452L1471.34 310.394C1471.2 310.344 1470.99 310.268 1470.71 310.168C1470.15 309.969 1469.32 309.673 1468.23 309.287C1466.06 308.514 1462.86 307.381 1458.75 305.939C1450.53 303.054 1438.68 298.934 1424.17 293.989C1395.13 284.1 1355.42 270.914 1312.7 257.728C1269.97 244.542 1224.24 231.358 1183.18 221.471C1142.11 211.58 1105.74 205 1081.73 205C1026.63 205 986.564 211.589 954.007 221.463C921.446 231.338 896.379 244.505 871.274 257.693L871.261 257.699L871.26 257.7C846.161 270.884 821.022 284.09 788.366 293.994C755.7 303.901 715.532 310.5 660.357 310.5C582.074 310.5 462.706 300.749 343.37 291.001L343.369 291.001L343.366 291L343.344 290.998C223.98 281.248 104.65 271.5 26.4116 271.5C-7.31289 271.5 -31.179 273.936 -48.0072 277.583C-64.841 281.23 -74.5949 286.08 -80.1334 290.878C-85.6535 295.66 -86.9973 300.398 -86.9997 303.907C-87.0008 305.671 -86.6623 307.141 -86.3245 308.168C-86.1557 308.681 -85.9873 309.082 -85.8627 309.353C-85.8291 309.426 -85.7989 309.489 -85.7726 309.542C-85.75 309.588 -85.7304 309.626 -85.7143 309.657L-85.697 309.69L-85.6748 309.731L-85.6657 309.748L-85.664 309.751C-85.664 309.751 -85.6642 309.75 -86.0974 310C-86.3234 310.13 -86.4317 310.192 -86.4835 310.222C-86.5312 310.249 -86.5313 310.249 -86.5315 310.248L-86.533 310.246L-86.5373 310.238L-86.5515 310.212L-86.5786 310.162L-86.6013 310.119L-86.6242 310.075L-86.6432 310.037C-86.6791 309.966 -86.7223 309.877 -86.7709 309.771C-86.9096 309.47 -87.0923 309.034 -87.2743 308.481C-87.6382 307.375 -88.0008 305.798 -87.9997 303.906C-87.9972 300.102 -86.5227 295.09 -80.7882 290.122C-75.072 285.17 -65.1352 280.27 -48.219 276.605C-31.2973 272.939 -7.35439 270.5 26.4116 270.5C104.696 270.5 224.064 280.251 343.401 290L343.425 290.002C462.789 299.753 582.119 309.5 660.357 309.5C715.448 309.5 755.517 302.912 788.075 293.037C820.636 283.162 845.703 269.996 870.808 256.808L870.821 256.801L870.822 256.8L870.822 256.8L870.823 256.8C895.922 243.616 921.061 230.41 953.716 220.506C986.382 210.599 1026.55 204 1081.73 204ZM1183.42 241.498C1142.34 231.608 1105.87 225 1081.73 225C1026.55 225 986.382 231.599 953.717 241.506C921.06 251.41 895.921 264.616 870.822 277.8L870.821 277.801L870.809 277.808C845.703 290.996 820.637 304.162 788.076 314.037C755.518 323.912 715.449 330.5 660.357 330.5C582.119 330.5 462.789 320.753 343.425 311.002L343.402 311C224.065 301.251 104.696 291.5 26.4118 291.5C-7.35415 291.5 -31.297 293.939 -48.2188 297.605C-65.1349 301.27 -75.0718 306.17 -80.788 311.122C-86.5225 316.09 -87.997 321.102 -87.9994 324.906C-88.0005 326.798 -87.638 328.375 -87.2741 329.481C-87.0921 330.034 -86.9093 330.471 -86.7707 330.771C-86.739 330.84 -86.7097 330.902 -86.6833 330.956C-86.6515 331.021 -86.6239 331.075 -86.6011 331.119C-86.5801 331.159 -86.5633 331.191 -86.5513 331.212L-86.537 331.238L-86.5327 331.246L-86.5313 331.248C-86.531 331.249 -86.5309 331.249 -86.4917 331.227C-86.4435 331.199 -86.3362 331.138 -86.0972 331C-85.664 330.75 -85.6637 330.751 -85.6637 330.751L-85.6654 330.748L-85.6746 330.731L-85.6968 330.69L-85.714 330.657C-85.7489 330.59 -85.8002 330.488 -85.8625 330.353C-85.9871 330.082 -86.1554 329.681 -86.3242 329.168C-86.662 328.141 -87.0005 326.671 -86.9994 324.907C-86.9971 321.398 -85.6532 316.66 -80.1332 311.878C-74.5946 307.08 -64.8407 302.23 -48.007 298.583C-31.1787 294.936 -7.31265 292.5 26.4118 292.5C104.65 292.5 223.98 302.248 343.344 311.998L343.367 312C462.704 321.749 582.073 331.5 660.357 331.5C715.532 331.5 755.7 324.901 788.366 314.994C821.022 305.09 846.161 291.885 871.26 278.7L871.261 278.7L871.261 278.699L871.274 278.693C896.379 265.505 921.446 252.338 954.007 242.463C986.565 232.589 1026.63 226 1081.73 226C1105.74 226 1142.11 232.58 1183.18 242.471C1224.24 252.358 1269.97 265.542 1312.7 278.728C1355.42 291.914 1395.13 305.1 1424.17 314.989C1438.68 319.934 1450.53 324.055 1458.75 326.939C1462.86 328.381 1466.06 329.514 1468.23 330.287C1469.32 330.673 1470.15 330.969 1470.71 331.168C1470.99 331.268 1471.2 331.344 1471.34 331.394L1471.5 331.452L1471.54 331.466L1471.55 331.47C1471.55 331.47 1471.55 331.471 1471.72 331C1471.89 330.53 1471.89 330.529 1471.89 330.528L1471.88 330.525L1471.84 330.51L1471.68 330.453L1471.64 330.439L1471.04 330.227C1470.48 330.027 1469.65 329.731 1468.57 329.344C1466.39 328.571 1463.19 327.438 1459.08 325.995C1450.86 323.11 1439.01 318.988 1424.49 314.043C1395.45 304.151 1355.73 290.962 1312.99 277.772C1270.26 264.583 1224.51 251.393 1183.42 241.498ZM1081.73 246C1105.87 246 1142.34 252.608 1183.42 262.498C1224.51 272.392 1270.26 285.583 1312.99 298.772C1355.73 311.962 1395.45 325.151 1424.49 335.043C1439.01 339.988 1450.86 344.11 1459.08 346.995C1463.19 348.438 1466.39 349.571 1468.57 350.344C1469.65 350.731 1470.48 351.027 1471.04 351.227L1471.64 351.439L1471.68 351.453L1471.84 351.51L1471.88 351.525L1471.89 351.528C1471.89 351.529 1471.89 351.53 1471.72 352C1471.55 352.471 1471.55 352.47 1471.55 352.47L1471.54 352.466L1471.5 352.452L1471.34 352.394C1471.2 352.344 1470.99 352.268 1470.71 352.168C1470.15 351.969 1469.32 351.673 1468.23 351.286C1466.06 350.514 1462.86 349.381 1458.75 347.939C1450.53 345.054 1438.68 340.934 1424.17 335.989C1395.13 326.1 1355.42 312.914 1312.7 299.728C1269.97 286.542 1224.24 273.358 1183.18 263.471C1142.11 253.58 1105.74 247 1081.73 247C1026.63 247 986.565 253.589 954.007 263.463C921.446 273.338 896.379 286.505 871.274 299.693L871.261 299.699L871.261 299.7L871.26 299.7C846.161 312.885 821.022 326.09 788.366 335.994C755.7 345.901 715.532 352.5 660.357 352.5C582.073 352.5 462.704 342.749 343.367 333L343.344 332.998C223.98 323.248 104.65 313.5 26.4118 313.5C-7.31265 313.5 -31.1787 315.936 -48.007 319.582C-64.8407 323.23 -74.5946 328.08 -80.1332 332.878C-85.6532 337.66 -86.9971 342.398 -86.9994 345.907C-87.0005 347.671 -86.662 349.141 -86.3242 350.168C-86.1554 350.681 -85.9871 351.082 -85.8625 351.353C-85.8002 351.488 -85.7489 351.59 -85.714 351.657L-85.6968 351.69L-85.6746 351.731L-85.6654 351.748L-85.6637 351.751L-85.679 351.759L-85.7609 351.806L-86.0972 352C-86.5304 352.25 -86.5308 352.249 -86.5313 352.248L-86.5327 352.246L-86.537 352.238L-86.5513 352.212C-86.5633 352.19 -86.5801 352.159 -86.6011 352.119C-86.643 352.038 -86.7013 351.922 -86.7707 351.771C-86.8343 351.633 -86.9071 351.467 -86.985 351.273C-87.0768 351.045 -87.1756 350.78 -87.2741 350.481C-87.638 349.375 -88.0005 347.798 -87.9994 345.906C-87.997 342.102 -86.5225 337.09 -80.788 332.122C-75.0718 327.17 -65.1349 322.27 -48.2188 318.605C-31.297 314.939 -7.35415 312.5 26.4118 312.5C104.696 312.5 224.065 322.251 343.402 332L343.425 332.002C462.789 341.753 582.119 351.5 660.357 351.5C715.449 351.5 755.518 344.912 788.076 335.037C820.637 325.162 845.703 311.996 870.809 298.808L870.821 298.801L870.822 298.8C895.921 285.616 921.06 272.41 953.717 262.506C986.382 252.599 1026.55 246 1081.73 246ZM1081.72 267C1105.87 267 1142.34 273.608 1183.42 283.498C1224.51 293.392 1270.26 306.583 1312.99 319.772C1355.73 332.962 1395.45 346.151 1424.49 356.043C1439.01 360.988 1450.86 365.11 1459.08 367.995C1463.19 369.438 1466.39 370.571 1468.57 371.344C1469.65 371.731 1470.48 372.027 1471.04 372.227L1471.64 372.439L1471.68 372.453L1471.83 372.51L1471.88 372.525L1471.89 372.528C1471.89 372.529 1471.89 372.53 1471.72 373C1471.55 373.471 1471.55 373.47 1471.55 373.47L1471.54 373.466L1471.5 373.452L1471.34 373.394C1471.2 373.344 1470.99 373.268 1470.71 373.168C1470.15 372.969 1469.32 372.673 1468.23 372.286C1466.06 371.514 1462.86 370.381 1458.75 368.939C1450.53 366.054 1438.68 361.934 1424.17 356.989C1395.13 347.1 1355.42 333.914 1312.7 320.728C1269.97 307.542 1224.24 294.358 1183.18 284.471C1142.1 274.58 1105.74 268 1081.72 268C1026.63 268 986.564 274.589 954.006 284.463C921.445 294.338 896.378 307.505 871.273 320.693L871.26 320.699L871.26 320.7L871.259 320.7C846.16 333.885 821.021 347.09 788.365 356.994C755.699 366.901 715.531 373.5 660.356 373.5C582.072 373.5 462.703 363.749 343.366 354L343.343 353.998C223.979 344.248 104.649 334.5 26.4109 334.5C-7.31363 334.5 -31.1797 336.936 -48.008 340.582C-64.8417 344.23 -74.5956 349.08 -80.1342 353.878C-85.6542 358.66 -86.9981 363.398 -87.0004 366.907C-87.0015 368.671 -86.663 370.141 -86.3252 371.168C-86.1564 371.681 -85.9881 372.082 -85.8634 372.353C-85.8012 372.488 -85.7499 372.59 -85.715 372.657L-85.6978 372.69L-85.6756 372.731L-85.6664 372.748L-85.6647 372.751C-85.6647 372.751 -85.6648 372.751 -85.7483 372.799L-86.0982 373C-86.2889 373.11 -86.3957 373.171 -86.4556 373.206C-86.5318 373.249 -86.532 373.249 -86.5323 373.248L-86.5337 373.246L-86.538 373.238L-86.5523 373.212L-86.5658 373.187L-86.5827 373.156L-86.6021 373.119C-86.644 373.038 -86.7023 372.922 -86.7716 372.771C-86.9103 372.47 -87.0931 372.034 -87.2751 371.481C-87.6389 370.375 -88.0015 368.798 -88.0004 366.906C-87.998 363.102 -86.5235 358.09 -80.789 353.122C-75.0728 348.17 -65.1359 343.27 -48.2198 339.605C-31.298 335.939 -7.35513 333.5 26.4109 333.5C104.695 333.5 224.064 343.251 343.401 353L343.424 353.002C462.788 362.753 582.118 372.5 660.356 372.5C715.448 372.5 755.517 365.912 788.075 356.037C820.636 346.162 845.702 332.996 870.808 319.808L870.82 319.801L870.821 319.8C895.92 306.616 921.059 293.41 953.716 283.506C986.381 273.599 1026.55 267 1081.72 267Z" fill="url(#paint0_linear_564_3228)"/>
    <defs>
        <linearGradient id="paint0_linear_564_3228" x1="618.5" y1="199" x2="640.415" y2="379.748" gradientUnits="userSpaceOnUse">
            <stop stop-color="#1F3891" stop-opacity="0"/>
            <stop offset="1" stop-color="#1F3891"/>
        </linearGradient>
    </defs>
</svg>
