<svg width="24" height="24" viewBox="0 0 24 24" fill="none" xmlns="http://www.w3.org/2000/svg">
  <path fill-rule="evenodd" clip-rule="evenodd" d="M22.2625 2.54806C22.5942 2.18927 22.5891 1.61289 22.2513 1.26069C21.9135 0.908493 21.3708 0.913838 21.0392 1.27263L16.5033 6.1802C15.1208 5.53044 13.5991 5.09655 12 5.09655C7.26947 5.09655 3.21714 8.89345 1.43683 10.8437C1.15565 11.1608 1 11.5728 1 12C1 12.4272 1.15565 12.8392 1.43683 13.1563C2.43906 14.2542 4.16133 15.9373 6.31928 17.1988L2.38831 21.4519C2.0567 21.8107 2.06173 22.3871 2.39955 22.7393C2.73738 23.0915 3.28007 23.0862 3.61169 22.7274L22.2625 2.54806ZM9.10865 14.1809L13.8564 9.04404C13.3422 8.72871 12.7454 8.54828 12.1089 8.54828C10.1759 8.54828 8.60889 10.2125 8.60889 12.2655C8.60889 12.9661 8.79139 13.6215 9.10865 14.1809Z" fill="#5B94EA" />
  <path d="M12.1089 15.9828C11.8856 15.9828 11.6673 15.9606 11.4557 15.9181L9.11506 18.4506C10.0367 18.7349 11.0033 18.9034 12 18.9034C16.7305 18.9034 20.7829 15.1066 22.5632 13.1563C22.8444 12.8392 23 12.4272 23 12C23 11.5728 22.8444 11.1608 22.5632 10.8437C21.7842 9.99039 20.5704 8.7836 19.055 7.69599L15.5354 11.5041C15.5836 11.7499 15.6089 12.0045 15.6089 12.2655C15.6089 14.3185 14.0419 15.9828 12.1089 15.9828Z" fill="#5B94EA" />
</svg>