<svg width="25" height="24" viewBox="0 0 25 24" fill="none" xmlns="http://www.w3.org/2000/svg">
  <path fill-rule="evenodd" clip-rule="evenodd" d="M23.4336 12C23.4336 11.5668 23.2779 11.1491 22.9968 10.8275C21.2164 8.85 17.1641 5 12.4336 5C7.70306 5 3.65074 8.85 1.87043 10.8275C1.58924 11.1491 1.43359 11.5668 1.43359 12C1.43359 12.4332 1.58924 12.8509 1.87043 13.1725C3.65074 15.15 7.70306 19 12.4336 19C17.1641 19 21.2164 15.15 22.9968 13.1725C23.2779 12.8509 23.4336 12.4332 23.4336 12ZM16.0425 12.2692C16.0425 14.3509 14.4755 16.0385 12.5425 16.0385C10.6095 16.0385 9.04248 14.3509 9.04248 12.2692C9.04248 10.1875 10.6095 8.5 12.5425 8.5C14.4755 8.5 16.0425 10.1875 16.0425 12.2692Z" fill="#5B94EA" />
</svg>