<svg
    width="80"
    height="80"
    viewBox="0 0 80 80"
    fill="none"
    xmlns="http://www.w3.org/2000/svg">
    <rect
    x="2"
    y="2"
    width="76"
    height="76"
    rx="38"
    stroke="#4360F8"
    stroke-width="4"
    />
    <path
    d="M60.3906 28.8888C60.3906 28.3201 60.18 27.7514 59.7589 27.3174C59.338 26.8838 58.7865 26.6669 58.2349 26.6666H58.2326C57.681 26.6669 57.1295 26.8838 56.7086 27.3174L36.6651 47.9683L27.406 38.4285C26.5636 37.5607 25.198 37.5607 24.3557 38.4285C23.5134 39.2964 23.5134 40.7034 24.3557 41.5712L35.14 52.6824C35.9823 53.5502 37.348 53.5502 38.1903 52.6824L59.7589 30.4601C60.18 30.0262 60.3906 29.4575 60.3906 28.8888Z"
    fill="#4360F8"
    />
    </svg>