<svg width="1440" height="100%" viewBox="0 0 1440 645" preserveAspectRatio="none" fill="none" xmlns="http://www.w3.org/2000/svg" >
<path d="M1441 646H-0.702515V1C-0.702515 1 -21.4996 40.0328 103.42 40.0328C248.281 40.0328 545.253 1 690.113 1C894.208 1 875.979 106.589 1080.07 106.589C1169.22 106.589 1441 1 1441 1V646Z" fill="url(#paint0_linear_803_5505)"/>
<path fill-rule="evenodd" clip-rule="evenodd" d="M1079.82 374.105C1102.18 374.105 1135.94 367.487 1173.97 357.582C1212.01 347.674 1254.36 334.464 1293.92 321.257C1333.47 308.049 1370.24 294.841 1397.13 284.936C1410.57 279.983 1421.54 275.855 1429.14 272.966C1432.95 271.521 1435.91 270.386 1437.93 269.612C1438.93 269.225 1439.7 268.929 1440.22 268.729C1440.48 268.629 1440.67 268.553 1440.8 268.502L1440.95 268.444L1440.99 268.43L1441 268.426C1441 268.426 1441 268.425 1440.82 267.959C1440.64 267.493 1440.64 267.493 1440.64 267.494L1440.63 267.498L1440.59 267.512L1440.44 267.569C1440.31 267.62 1440.12 267.696 1439.86 267.796C1439.34 267.996 1438.57 268.292 1437.57 268.679C1435.55 269.452 1432.59 270.587 1428.79 272.031C1421.18 274.919 1410.22 279.046 1396.78 283.997C1369.91 293.9 1333.14 307.104 1293.6 320.308C1254.05 333.512 1211.72 346.714 1173.72 356.614C1135.69 366.518 1102.04 373.105 1079.82 373.105C1028.83 373.105 991.749 366.509 961.619 356.623C931.486 346.736 908.287 333.554 885.048 320.348L885.035 320.34C861.803 307.138 838.528 293.911 808.293 283.991C778.049 274.068 740.86 267.459 689.78 267.459C617.313 267.459 506.817 277.224 396.355 286.986L396.33 286.988C285.839 296.753 175.385 306.513 102.967 306.513C71.7535 306.513 49.6677 304.074 34.0975 300.424C18.5232 296.774 9.50342 291.921 4.38257 287.121C-0.722656 282.337 -1.97278 277.588 -1.97485 274.061C-1.97583 272.289 -1.66174 270.813 -1.34827 269.783C-1.19165 269.268 -1.03564 268.865 -0.919922 268.594C-0.887695 268.518 -0.858643 268.452 -0.833618 268.398C-0.813721 268.354 -0.796509 268.318 -0.782104 268.288C-0.765991 268.254 -0.75354 268.229 -0.745605 268.214L-0.737061 268.197L-0.735352 268.194L-0.818115 268.15L-1.17688 267.959C-1.61816 267.724 -1.61853 267.725 -1.61902 267.726L-1.62024 267.728L-1.62427 267.736L-1.63745 267.761C-1.64844 267.783 -1.66394 267.814 -1.68335 267.854C-1.69861 267.886 -1.71631 267.924 -1.73621 267.967C-1.76636 268.033 -1.80127 268.111 -1.83997 268.202C-1.96802 268.502 -2.13684 268.939 -2.30505 269.492C-2.64111 270.597 -2.97595 272.172 -2.97485 274.062C-2.97253 277.857 -1.61389 282.872 3.69873 287.851C8.99585 292.815 18.203 297.726 33.8694 301.398C49.5399 305.071 71.7085 307.513 102.967 307.513C175.434 307.513 285.93 297.748 396.392 287.986L396.418 287.984C506.909 278.22 617.363 268.459 689.78 268.459C740.769 268.459 777.852 275.056 807.982 284.941C838.115 294.828 861.314 308.01 884.553 321.217L884.567 321.225L884.568 321.225C907.799 334.427 931.074 347.654 961.308 357.573C991.552 367.496 1028.74 374.105 1079.82 374.105ZM1173.97 338.055C1135.94 347.959 1102.18 354.578 1079.82 354.578C1028.74 354.578 991.552 347.969 961.308 338.046C931.073 328.126 907.799 314.9 884.567 301.698L884.567 301.697L884.553 301.69C861.314 288.483 838.115 275.301 807.982 265.414C777.852 255.528 740.769 248.932 689.78 248.932C617.363 248.932 506.909 258.692 396.418 268.457L396.392 268.459C285.93 278.221 175.434 287.986 102.967 287.986C71.7085 287.986 49.5399 285.544 33.8694 281.87C18.203 278.198 8.99585 273.288 3.69873 268.324C-1.61389 263.345 -2.97253 258.33 -2.97485 254.534C-2.97595 252.645 -2.64111 251.07 -2.30505 249.964C-2.13684 249.411 -1.96802 248.975 -1.83997 248.674C-1.80127 248.584 -1.76636 248.505 -1.73621 248.44L-1.7124 248.389L-1.68335 248.327L-1.6615 248.282L-1.63745 248.234L-1.62427 248.208L-1.62024 248.201L-1.61902 248.198C-1.61877 248.198 -1.61865 248.198 -1.59363 248.211C-1.55347 248.232 -1.44897 248.287 -1.17688 248.432C-0.735596 248.667 -0.735352 248.666 -0.735352 248.666L-0.737061 248.67L-0.745605 248.686C-0.75354 248.702 -0.765991 248.727 -0.782104 248.761C-0.814575 248.828 -0.862183 248.931 -0.919922 249.066C-1.03564 249.338 -1.19165 249.74 -1.34827 250.255C-1.66174 251.286 -1.97583 252.762 -1.97485 254.534C-1.97278 258.061 -0.722656 262.809 4.38257 267.594C9.50342 272.393 18.5232 277.246 34.0975 280.897C49.6677 284.546 71.7535 286.986 102.967 286.986C175.385 286.986 285.839 277.225 396.33 267.461L396.355 267.459C506.817 257.697 617.313 247.932 689.78 247.932C740.86 247.932 778.049 254.541 808.293 264.464C838.528 274.384 861.803 287.61 885.035 300.813L885.048 300.82C908.287 314.027 931.486 327.209 961.619 337.096C991.749 346.981 1028.83 353.578 1079.82 353.578C1102.04 353.578 1135.69 346.991 1173.72 337.087C1211.72 327.187 1254.05 313.985 1293.6 300.781C1333.14 287.577 1369.91 274.373 1396.78 264.47C1410.22 259.518 1421.18 255.392 1428.79 252.504C1432.59 251.06 1435.55 249.925 1437.57 249.152C1438.57 248.765 1439.34 248.468 1439.86 248.268C1440.12 248.169 1440.31 248.093 1440.44 248.042L1440.59 247.985L1440.63 247.97L1440.64 247.967C1440.64 247.966 1440.64 247.966 1440.82 248.432C1441 248.898 1441 248.898 1441 248.899L1440.99 248.903L1440.95 248.917L1440.8 248.975C1440.67 249.025 1440.48 249.101 1440.22 249.201C1439.7 249.401 1438.93 249.698 1437.93 250.085C1435.91 250.859 1432.95 251.994 1429.14 253.439C1421.54 256.328 1410.57 260.455 1397.13 265.408C1370.24 275.314 1333.47 288.521 1293.92 301.729C1254.36 314.937 1212.01 328.146 1173.97 338.055ZM1079.82 335.051C1102.18 335.051 1135.94 328.432 1173.97 318.527C1212.01 308.619 1254.36 295.409 1293.92 282.202C1333.47 268.994 1370.24 255.786 1397.13 245.881C1410.57 240.928 1421.54 236.801 1429.14 233.911C1432.95 232.467 1435.91 231.332 1437.93 230.558C1438.93 230.171 1439.7 229.874 1440.22 229.674C1440.48 229.574 1440.67 229.498 1440.8 229.447L1440.95 229.39L1440.99 229.375L1441 229.372C1441 229.371 1441 229.37 1440.82 228.904C1440.64 228.438 1440.64 228.439 1440.64 228.44L1440.63 228.443L1440.59 228.458L1440.44 228.515C1440.31 228.566 1440.12 228.641 1439.86 228.741C1439.34 228.941 1438.57 229.237 1437.57 229.624C1435.55 230.398 1432.59 231.532 1428.79 232.976C1421.18 235.865 1410.22 239.991 1396.78 244.943C1369.91 254.846 1333.14 268.05 1293.6 281.253C1254.05 294.457 1211.72 307.659 1173.72 317.56C1135.69 327.464 1102.04 334.051 1079.82 334.051C1028.83 334.051 991.749 327.454 961.619 317.568C931.486 307.682 908.287 294.5 885.048 281.293L885.035 281.286C861.803 268.083 838.528 254.857 808.293 244.937C778.049 235.013 740.86 228.404 689.78 228.404C617.313 228.404 506.817 238.169 396.355 247.931L396.33 247.933C285.839 257.698 175.385 267.459 102.967 267.459C71.7535 267.459 49.6677 265.019 34.0975 261.37C18.5232 257.719 9.50342 252.866 4.38257 248.067C-0.722656 243.282 -1.97278 238.534 -1.97485 235.006C-1.97583 233.234 -1.66174 231.759 -1.34827 230.728C-1.19165 230.213 -1.03564 229.81 -0.919922 229.539C-0.862183 229.403 -0.814575 229.301 -0.782104 229.233C-0.765991 229.199 -0.75354 229.175 -0.745605 229.159L-0.737061 229.142L-0.735352 229.139L-0.77832 229.116L-1.17688 228.904C-1.61816 228.669 -1.61853 228.67 -1.61902 228.671L-1.62024 228.673L-1.62427 228.681L-1.63745 228.707C-1.64844 228.728 -1.66394 228.76 -1.68335 228.8C-1.69861 228.832 -1.71631 228.869 -1.73621 228.912C-1.76636 228.978 -1.80127 229.056 -1.83997 229.147C-1.96802 229.448 -2.13684 229.884 -2.30505 230.437C-2.64111 231.542 -2.97595 233.117 -2.97485 235.007C-2.97253 238.802 -1.61389 243.817 3.69873 248.796C8.99585 253.761 18.203 258.671 33.8694 262.343C49.5399 266.016 71.7085 268.459 102.967 268.459C175.434 268.459 285.93 258.694 396.392 248.932L396.418 248.93C506.909 239.165 617.363 229.404 689.78 229.404C740.769 229.404 777.852 236.001 807.982 245.887C838.115 255.774 861.314 268.956 884.553 282.162L884.567 282.17L884.567 282.17C907.799 295.372 931.073 308.599 961.308 318.519C991.552 328.442 1028.74 335.051 1079.82 335.051ZM1173.97 299C1135.94 308.905 1102.18 315.523 1079.82 315.523C1028.74 315.523 991.552 308.914 961.308 298.991C931.073 289.071 907.799 275.845 884.567 262.643L884.567 262.643L884.553 262.635C861.314 249.428 838.115 236.246 807.982 226.359C777.852 216.474 740.769 209.877 689.78 209.877C617.363 209.877 506.909 219.638 396.418 229.402L396.392 229.404C285.93 239.166 175.434 248.931 102.967 248.931C71.7085 248.931 49.5399 246.489 33.8694 242.816C18.203 239.144 8.99585 234.233 3.69873 229.269C-1.61389 224.29 -2.97253 219.275 -2.97485 215.48C-2.97595 213.59 -2.64111 212.015 -2.30505 210.91C-2.13684 210.357 -1.96802 209.92 -1.83997 209.62C-1.8241 209.583 -1.80896 209.548 -1.79443 209.515C-1.77356 209.467 -1.75403 209.424 -1.73621 209.385L-1.71411 209.337L-1.68335 209.272L-1.65417 209.213L-1.63745 209.179L-1.62427 209.154L-1.62024 209.146L-1.61902 209.144C-1.61853 209.143 -1.61816 209.142 -1.17688 209.377C-0.735596 209.612 -0.735352 209.612 -0.735352 209.612L-0.737061 209.615L-0.745605 209.632L-0.758057 209.657L-0.782104 209.706C-0.802246 209.748 -0.828369 209.803 -0.859009 209.872C-0.877686 209.914 -0.898071 209.96 -0.919922 210.012C-1.03564 210.283 -1.19165 210.686 -1.34827 211.201C-1.66174 212.231 -1.97583 213.707 -1.97485 215.479C-1.97278 219.006 -0.722656 223.755 4.38257 228.539C9.50342 233.339 18.5232 238.192 34.0975 241.842C49.6677 245.492 71.7535 247.931 102.967 247.931C175.385 247.931 285.839 238.171 396.33 228.406L396.355 228.404C506.817 218.642 617.313 208.877 689.78 208.877C740.86 208.877 778.049 215.486 808.293 225.409C838.528 235.329 861.803 248.556 885.035 261.758L885.048 261.766C908.287 274.972 931.486 288.154 961.619 298.041C991.749 307.927 1028.83 314.523 1079.82 314.523C1102.04 314.523 1135.69 307.936 1173.72 298.032C1211.72 288.132 1254.05 274.93 1293.6 261.726C1333.14 248.522 1369.91 235.318 1396.78 225.415C1410.22 220.464 1421.18 216.337 1428.79 213.449C1432.59 212.005 1435.55 210.87 1437.57 210.097C1438.57 209.71 1439.34 209.414 1439.86 209.214C1440.12 209.114 1440.31 209.038 1440.44 208.987L1440.59 208.93L1440.63 208.916L1440.64 208.912C1440.64 208.911 1440.64 208.911 1440.82 209.377C1441 209.843 1441 209.844 1441 209.844L1440.99 209.848L1440.95 209.862L1440.8 209.92C1440.67 209.971 1440.48 210.046 1440.22 210.146C1439.7 210.346 1438.93 210.643 1437.93 211.03C1435.91 211.804 1432.95 212.939 1429.14 214.384C1421.54 217.273 1410.57 221.401 1397.13 226.353C1370.24 236.259 1333.47 249.467 1293.92 262.675C1254.36 275.882 1212.01 289.092 1173.97 299ZM1079.82 295.996C1102.18 295.996 1135.94 289.377 1173.97 279.473C1212.01 269.564 1254.36 256.355 1293.92 243.147C1333.47 229.939 1370.24 216.732 1397.13 206.826C1410.57 201.873 1421.54 197.746 1429.14 194.857C1432.95 193.412 1435.91 192.277 1437.93 191.503C1438.93 191.116 1439.7 190.819 1440.22 190.619C1440.48 190.519 1440.67 190.443 1440.8 190.392L1440.95 190.335L1440.99 190.321L1441 190.317C1441 190.316 1441 190.316 1440.82 189.85C1440.64 189.384 1440.64 189.384 1440.64 189.385L1440.63 189.388L1440.59 189.403L1440.44 189.46C1440.31 189.511 1440.12 189.587 1439.86 189.686C1439.34 189.886 1438.57 190.183 1437.57 190.569C1435.55 191.343 1432.59 192.478 1428.79 193.922C1421.18 196.81 1410.22 200.936 1396.78 205.888C1369.91 215.791 1333.14 228.995 1293.6 242.199C1254.05 255.403 1211.72 268.605 1173.72 278.505C1135.69 288.409 1102.04 294.996 1079.82 294.996C1028.83 294.996 991.749 288.399 961.619 278.514C931.486 268.627 908.287 255.445 885.048 242.238L885.035 242.231C861.803 229.028 838.528 215.802 808.293 205.882C778.049 195.959 740.86 189.35 689.78 189.35C617.313 189.35 506.817 199.115 396.355 208.877L396.33 208.879C285.839 218.643 175.385 228.404 102.967 228.404C71.7535 228.404 49.6677 225.964 34.0975 222.315C18.5232 218.664 9.50342 213.811 4.38257 209.012C-0.722656 204.227 -1.97278 199.479 -1.97485 195.952C-1.97583 194.18 -1.66174 192.704 -1.34827 191.673C-1.19165 191.158 -1.03564 190.756 -0.919922 190.484L-0.896851 190.431L-0.878052 190.388C-0.861572 190.35 -0.846313 190.316 -0.832275 190.285C-0.812988 190.243 -0.796143 190.208 -0.782104 190.178C-0.765991 190.145 -0.75354 190.12 -0.745605 190.104L-0.737061 190.088L-0.735352 190.084C-0.735352 190.084 -0.735596 190.085 -1.17688 189.85C-1.61816 189.615 -1.61853 189.615 -1.61902 189.616L-1.62024 189.619L-1.62427 189.626L-1.63745 189.652C-1.64844 189.674 -1.66394 189.705 -1.68335 189.745C-1.69861 189.777 -1.71631 189.815 -1.73621 189.858C-1.76636 189.923 -1.80127 190.002 -1.83997 190.092C-1.96802 190.393 -2.13684 190.829 -2.30505 191.382C-2.64111 192.488 -2.97595 194.063 -2.97485 195.952C-2.97253 199.748 -1.61389 204.763 3.69873 209.742C8.99585 214.706 18.203 219.616 33.8694 223.288C49.5399 226.962 71.7085 229.404 102.967 229.404C175.434 229.404 285.93 219.639 396.392 209.877L396.418 209.875C506.909 200.11 617.363 190.35 689.78 190.35C740.769 190.35 777.852 196.946 807.982 206.832C838.115 216.719 861.314 229.901 884.553 243.108L884.567 243.115L884.567 243.116C907.799 256.318 931.073 269.544 961.308 279.464C991.552 289.387 1028.74 295.996 1079.82 295.996ZM1173.97 258.445C1135.94 268.35 1102.18 274.969 1079.82 274.969C1028.74 274.969 991.552 268.36 961.308 258.437C931.073 248.517 907.799 235.29 884.567 222.088L884.567 222.088L884.553 222.08C861.314 208.874 838.115 195.692 807.982 185.805C777.852 175.919 740.769 169.322 689.78 169.322C617.363 169.322 506.909 179.083 396.418 188.848L396.392 188.85C285.93 198.612 175.434 208.376 102.967 208.376C71.7085 208.376 49.5399 205.934 33.8694 202.261C18.203 198.589 8.99585 193.679 3.69873 188.714C-1.61389 183.735 -2.97253 178.72 -2.97485 174.925C-2.97595 173.035 -2.64111 171.46 -2.30505 170.355C-2.13684 169.802 -1.96802 169.366 -1.83997 169.065C-1.80127 168.974 -1.76636 168.896 -1.73621 168.83C-1.71631 168.787 -1.69861 168.75 -1.68335 168.718L-1.66296 168.676L-1.63745 168.625L-1.62427 168.599L-1.62024 168.591L-1.61902 168.589C-1.61853 168.588 -1.61816 168.587 -1.17688 168.822C-0.735596 169.057 -0.735352 169.057 -0.735352 169.057L-0.737061 169.06L-0.745605 169.077L-0.754395 169.094L-0.782104 169.151C-0.797241 169.182 -0.815552 169.221 -0.83667 169.268C-0.860962 169.321 -0.889038 169.384 -0.919922 169.457C-1.03564 169.728 -1.19165 170.131 -1.34827 170.646C-1.66174 171.677 -1.97583 173.152 -1.97485 174.924C-1.97278 178.452 -0.722656 183.2 4.38257 187.985C9.50342 192.784 18.5232 197.637 34.0975 201.287C49.6677 204.937 71.7535 207.376 102.967 207.376C175.385 207.376 285.839 197.616 396.33 187.851L396.355 187.849C506.817 178.087 617.313 168.322 689.78 168.322C740.86 168.322 778.049 174.931 808.293 184.855C838.528 194.775 861.803 208.001 885.035 221.204L885.048 221.211C908.287 234.418 931.486 247.6 961.619 257.486C991.749 267.372 1028.83 273.969 1079.82 273.969C1102.04 273.969 1135.69 267.382 1173.72 257.478C1211.72 247.577 1254.05 234.375 1293.6 221.171C1333.14 207.968 1369.91 194.764 1396.78 184.86C1410.22 179.909 1421.18 175.783 1428.79 172.894C1432.59 171.45 1435.55 170.316 1437.57 169.542C1438.57 169.155 1439.34 168.859 1439.86 168.659C1440.12 168.559 1440.31 168.483 1440.44 168.433L1440.59 168.376L1440.63 168.361L1440.64 168.358C1440.64 168.357 1440.64 168.356 1440.82 168.822C1441 169.288 1441 169.289 1441 169.29L1440.99 169.293L1440.95 169.308L1440.8 169.365C1440.67 169.416 1440.48 169.492 1440.22 169.592C1439.7 169.792 1438.93 170.089 1437.93 170.476C1435.91 171.25 1432.95 172.385 1429.14 173.829C1421.54 176.719 1410.57 180.846 1397.13 185.799C1370.24 195.704 1333.47 208.912 1293.92 222.12C1254.36 235.327 1212.01 248.537 1173.97 258.445ZM1079.82 253.938C1102.18 253.938 1135.94 247.319 1173.97 237.414C1212.01 227.506 1254.36 214.296 1293.92 201.089C1333.47 187.881 1370.24 174.673 1397.13 164.768C1410.57 159.815 1421.54 155.687 1429.14 152.798C1432.95 151.353 1435.91 150.218 1437.93 149.444C1438.93 149.057 1439.7 148.761 1440.22 148.561C1440.48 148.461 1440.67 148.385 1440.8 148.334L1440.95 148.276L1440.99 148.262L1441 148.258C1441 148.258 1441 148.257 1440.82 147.791C1440.64 147.325 1440.64 147.325 1440.64 147.326L1440.63 147.33L1440.59 147.344L1440.44 147.402C1440.31 147.452 1440.12 147.528 1439.86 147.628C1439.34 147.828 1438.57 148.124 1437.57 148.511C1435.55 149.284 1432.59 150.419 1428.79 151.863C1421.18 154.751 1410.22 158.878 1396.78 163.829C1369.91 173.732 1333.14 186.936 1293.6 200.14C1254.05 213.344 1211.72 226.546 1173.72 236.446C1135.69 246.351 1102.04 252.938 1079.82 252.938C1028.83 252.938 991.749 246.341 961.619 236.455C931.486 226.568 908.287 213.386 885.048 200.18L885.035 200.172C861.803 186.97 838.528 173.743 808.293 163.823C778.049 153.9 740.86 147.291 689.78 147.291C617.313 147.291 506.817 157.056 396.355 166.818L396.33 166.82C285.839 176.585 175.385 186.345 102.967 186.345C71.7535 186.345 49.6677 183.906 34.0975 180.256C18.5232 176.606 9.50342 171.753 4.38257 166.953C-0.722656 162.169 -1.97278 157.42 -1.97485 153.893C-1.97583 152.121 -1.66174 150.645 -1.34827 149.615C-1.19165 149.1 -1.03564 148.697 -0.919922 148.426C-0.862183 148.29 -0.814575 148.187 -0.782104 148.12C-0.765991 148.086 -0.75354 148.061 -0.745605 148.046L-0.737061 148.029L-0.735352 148.026C-0.735352 148.026 -0.735596 148.026 -1.17688 147.791C-1.42603 147.658 -1.53467 147.601 -1.58203 147.576C-1.61865 147.557 -1.61877 147.557 -1.61902 147.558L-1.62024 147.56L-1.62427 147.568L-1.63745 147.593C-1.64844 147.615 -1.66394 147.646 -1.68335 147.686L-1.70593 147.734L-1.73621 147.799C-1.76636 147.865 -1.80127 147.943 -1.83997 148.034C-1.96802 148.334 -2.13684 148.771 -2.30505 149.324C-2.64111 150.429 -2.97595 152.004 -2.97485 153.894C-2.97253 157.689 -1.61389 162.704 3.69873 167.683C8.99585 172.647 18.203 177.558 33.8694 181.23C49.5399 184.903 71.7085 187.345 102.967 187.345C175.434 187.345 285.93 177.58 396.392 167.819L396.418 167.816C506.909 158.052 617.363 148.291 689.78 148.291C740.769 148.291 777.852 154.888 807.982 164.773C838.115 174.66 861.314 187.842 884.553 201.049L884.567 201.057L884.567 201.057C907.799 214.259 931.073 227.486 961.308 237.405C991.552 247.328 1028.74 253.938 1079.82 253.938ZM1173.97 216.387C1135.94 226.291 1102.18 232.91 1079.82 232.91C1028.74 232.91 991.552 226.301 961.308 216.378C931.073 206.458 907.799 193.232 884.567 180.03L884.567 180.029L884.553 180.022C861.314 166.815 838.115 153.633 807.982 143.746C777.852 133.861 740.769 127.264 689.78 127.264C617.363 127.264 506.909 137.024 396.418 146.789L396.392 146.791C285.93 156.553 175.434 166.318 102.967 166.318C71.7085 166.318 49.5399 163.876 33.8694 160.202C18.203 156.53 8.99585 151.62 3.69873 146.656C-1.61389 141.677 -2.97253 136.662 -2.97485 132.866C-2.97595 130.977 -2.64111 129.402 -2.30505 128.296C-2.13684 127.744 -1.96802 127.307 -1.83997 127.006L-1.80786 126.932L-1.77991 126.869L-1.76294 126.83L-1.73621 126.772L-1.71631 126.729L-1.68335 126.659C-1.66394 126.619 -1.64844 126.588 -1.63745 126.566L-1.62427 126.54L-1.62024 126.533L-1.61902 126.53C-1.61853 126.529 -1.61816 126.529 -1.17688 126.764C-0.735596 126.999 -0.735352 126.998 -0.735352 126.998L-0.737061 127.002L-0.745605 127.018L-0.753784 127.035C-0.76123 127.049 -0.770752 127.069 -0.782104 127.093C-0.814575 127.16 -0.862183 127.263 -0.919922 127.398C-1.03564 127.67 -1.19165 128.072 -1.34827 128.587C-1.66174 129.618 -1.97583 131.094 -1.97485 132.866C-1.97278 136.393 -0.722656 141.141 4.38257 145.926C9.50342 150.725 18.5232 155.578 34.0975 159.229C49.6677 162.878 71.7535 165.318 102.967 165.318C175.385 165.318 285.839 155.557 396.33 145.793L396.355 145.791C506.817 136.029 617.313 126.264 689.78 126.264C740.86 126.264 778.049 132.873 808.293 142.796C838.528 152.716 861.803 165.943 885.035 179.145L885.048 179.152C908.287 192.359 931.486 205.541 961.619 215.428C991.749 225.313 1028.83 231.91 1079.82 231.91C1102.04 231.91 1135.69 225.323 1173.72 215.419C1211.72 205.519 1254.05 192.317 1293.6 179.113C1333.14 165.909 1369.91 152.705 1396.78 142.802C1410.22 137.85 1421.18 133.724 1428.79 130.836C1432.59 129.392 1435.55 128.257 1437.57 127.484C1438.57 127.097 1439.34 126.8 1439.86 126.6C1440.12 126.501 1440.31 126.425 1440.44 126.374L1440.59 126.317L1440.63 126.303L1440.64 126.299C1440.64 126.298 1440.64 126.298 1440.82 126.764C1441 127.23 1441 127.23 1441 127.231L1440.99 127.235L1440.95 127.249L1440.8 127.307C1440.67 127.357 1440.48 127.433 1440.22 127.533C1439.7 127.733 1438.93 128.03 1437.93 128.417C1435.91 129.191 1432.95 130.326 1429.14 131.771C1421.54 134.66 1410.57 138.787 1397.13 143.74C1370.24 153.646 1333.47 166.853 1293.92 180.061C1254.36 193.269 1212.01 206.478 1173.97 216.387ZM1079.82 211.879C1102.18 211.879 1135.94 205.26 1173.97 195.356C1212.01 185.447 1254.36 172.238 1293.92 159.03C1333.47 145.822 1370.24 132.614 1397.13 122.709C1410.57 117.756 1421.54 113.629 1429.14 110.739C1432.95 109.295 1435.91 108.16 1437.93 107.386C1438.93 106.999 1439.7 106.702 1440.22 106.502C1440.48 106.402 1440.67 106.326 1440.8 106.275L1440.95 106.218L1440.99 106.203L1441 106.2C1441 106.199 1441 106.199 1440.82 105.733C1440.64 105.266 1440.64 105.267 1440.64 105.268L1440.63 105.271L1440.59 105.286L1440.44 105.343C1440.31 105.394 1440.12 105.469 1439.86 105.569C1439.34 105.769 1438.57 106.066 1437.57 106.452C1435.55 107.226 1432.59 108.36 1428.79 109.805C1421.18 112.693 1410.22 116.819 1396.78 121.771C1369.91 131.674 1333.14 144.878 1293.6 158.081C1254.05 171.286 1211.72 184.487 1173.72 194.388C1135.69 204.292 1102.04 210.879 1079.82 210.879C1028.83 210.879 991.749 204.282 961.619 194.397C931.486 184.51 908.287 171.328 885.048 158.121L885.035 158.114C861.803 144.911 838.528 131.685 808.293 121.765C778.049 111.842 740.86 105.233 689.78 105.233C617.313 105.233 506.817 114.997 396.355 124.759L396.33 124.762C285.839 134.526 175.385 144.287 102.967 144.287C71.7535 144.287 49.6677 141.847 34.0975 138.198C18.5232 134.547 9.50342 129.694 4.38257 124.895C-0.722656 120.11 -1.97278 115.362 -1.97485 111.834C-1.97583 110.063 -1.66174 108.587 -1.34827 107.556C-1.19165 107.041 -1.03564 106.638 -0.919922 106.367C-0.895996 106.311 -0.873779 106.26 -0.853638 106.216C-0.839722 106.185 -0.826782 106.156 -0.814941 106.131C-0.802734 106.105 -0.791748 106.081 -0.782104 106.061C-0.770752 106.038 -0.76123 106.018 -0.753784 106.003L-0.745605 105.987L-0.737061 105.97L-0.735352 105.967C-0.735352 105.967 -0.735596 105.968 -1.17688 105.733C-1.61816 105.497 -1.61853 105.498 -1.61902 105.499L-1.62024 105.501L-1.62427 105.509L-1.63745 105.535L-1.65454 105.569L-1.68335 105.628C-1.69861 105.66 -1.71631 105.697 -1.73621 105.741C-1.76636 105.806 -1.80127 105.884 -1.83997 105.975C-1.96802 106.276 -2.13684 106.712 -2.30505 107.265C-2.64111 108.37 -2.97595 109.946 -2.97485 111.835C-2.97253 115.63 -1.61389 120.645 3.69873 125.624C8.99585 130.589 18.203 135.499 33.8694 139.171C49.5399 142.844 71.7085 145.287 102.967 145.287C175.434 145.287 285.93 135.522 396.392 125.76L396.418 125.758C506.909 115.993 617.363 106.233 689.78 106.233C740.769 106.233 777.852 112.829 807.982 122.715C838.115 132.602 861.314 145.784 884.553 158.99L884.567 158.998L884.567 158.998C907.799 172.201 931.073 185.427 961.308 195.347C991.552 205.27 1028.74 211.879 1079.82 211.879ZM1173.97 174.328C1135.94 184.233 1102.18 190.852 1079.82 190.852C1028.74 190.852 991.552 184.242 961.308 174.319C931.074 164.4 907.799 151.173 884.568 137.971L884.567 137.971L884.553 137.963C861.314 124.756 838.115 111.574 807.982 101.688C777.852 91.8019 740.769 85.2052 689.78 85.2052C617.363 85.2052 506.909 94.9659 396.418 104.73L396.392 104.733C285.93 114.494 175.434 124.259 102.967 124.259C71.7085 124.259 49.5399 121.817 33.8694 118.144C18.203 114.472 8.99585 109.561 3.69873 104.597C-1.61389 99.6181 -2.97253 94.6031 -2.97485 90.8077C-2.97595 88.9182 -2.64111 87.343 -2.30505 86.2378C-2.13684 85.6849 -1.96802 85.2485 -1.83997 84.9478C-1.80127 84.8571 -1.76636 84.7787 -1.73621 84.7132L-1.72192 84.6824L-1.69666 84.6287L-1.68335 84.6005C-1.66394 84.5603 -1.64844 84.5291 -1.63745 84.5073L-1.62427 84.4816L-1.62024 84.4741L-1.61902 84.4717C-1.61853 84.4708 -1.61816 84.4702 -1.17688 84.7052C-0.735596 84.9402 -0.735352 84.9398 -0.735352 84.9399L-0.737061 84.943L-0.745605 84.9597L-0.762451 84.9934L-0.782104 85.034C-0.803955 85.0794 -0.832764 85.141 -0.866943 85.2179C-0.883423 85.2549 -0.901123 85.2956 -0.919922 85.3398C-1.03564 85.6111 -1.19165 86.0138 -1.34827 86.5288C-1.66174 87.5594 -1.97583 89.0353 -1.97485 90.8071C-1.97278 94.3343 -0.722656 99.0828 4.38257 103.867C9.50342 108.667 18.5232 113.52 34.0975 117.17C49.6677 120.82 71.7535 123.259 102.967 123.259C175.385 123.259 285.839 113.499 396.33 103.734L396.355 103.732C506.817 93.9701 617.313 84.2052 689.78 84.2052C740.86 84.2052 778.049 90.8143 808.293 100.737C838.528 110.657 861.803 123.884 885.035 137.086L885.048 137.094C908.287 150.3 931.486 163.482 961.619 173.369C991.749 183.255 1028.83 189.852 1079.82 189.852C1102.04 189.852 1135.69 183.265 1173.72 173.36C1211.72 163.46 1254.05 150.258 1293.6 137.054C1333.14 123.85 1369.91 110.646 1396.78 100.743C1410.22 95.7917 1421.18 91.6655 1428.79 88.7773C1432.59 87.3331 1435.55 86.1985 1437.57 85.425C1438.57 85.0382 1439.34 84.7417 1439.86 84.5419C1440.12 84.442 1440.31 84.3663 1440.44 84.3156L1440.59 84.2583L1440.63 84.2439L1440.64 84.2404C1440.64 84.2396 1440.64 84.2391 1440.82 84.7052C1441 85.1712 1441 85.1716 1441 85.1725L1440.99 85.1761L1440.95 85.1906L1440.8 85.248C1440.67 85.2988 1440.48 85.3746 1440.22 85.4746C1439.7 85.6746 1438.93 85.9713 1437.93 86.3583C1435.91 87.1324 1432.95 88.2675 1429.14 89.7121C1421.54 92.6014 1410.57 96.7288 1397.13 101.682C1370.24 111.587 1333.47 124.795 1293.92 138.003C1254.36 151.21 1212.01 164.42 1173.97 174.328ZM1079.82 169.824C1102.18 169.824 1135.94 163.205 1173.97 153.301C1212.01 143.393 1254.36 130.183 1293.92 116.975C1333.47 103.767 1370.24 90.5598 1397.13 80.6542C1410.57 75.7014 1421.54 71.574 1429.14 68.6848C1432.95 67.2401 1435.91 66.105 1437.93 65.331C1438.93 64.944 1439.7 64.6473 1440.22 64.4473C1440.48 64.3473 1440.67 64.2715 1440.8 64.2206L1440.95 64.1632L1440.99 64.1487L1441 64.1451C1441 64.1443 1441 64.1439 1440.82 63.6779C1440.64 63.2118 1440.64 63.2122 1440.64 63.213L1440.63 63.2166L1440.59 63.231L1440.44 63.2882C1440.31 63.3389 1440.12 63.4147 1439.86 63.5146C1439.34 63.7143 1438.57 64.0108 1437.57 64.3976C1435.55 65.1711 1432.59 66.3058 1428.79 67.7499C1421.18 70.6382 1410.22 74.7644 1396.78 79.7159C1369.91 89.6191 1333.14 102.823 1293.6 116.027C1254.05 129.231 1211.72 142.433 1173.72 152.333C1135.69 162.237 1102.04 168.824 1079.82 168.824C1028.83 168.824 991.749 162.228 961.619 152.342C931.486 142.455 908.287 129.273 885.048 116.066L885.035 116.059C861.803 102.857 838.528 89.63 808.293 79.71C778.049 69.7869 740.86 63.1779 689.78 63.1779C617.313 63.1779 506.817 72.9427 396.355 82.7047L396.33 82.7068C285.839 92.4713 175.385 102.232 102.967 102.232C71.7535 102.232 49.6677 99.7925 34.0975 96.1429C18.5232 92.4924 9.50342 87.6393 4.38257 82.8401C-0.722656 78.0555 -1.97278 73.307 -1.97485 69.7798C-1.97583 68.0079 -1.66174 66.532 -1.34827 65.5014C-1.19165 64.9865 -1.03564 64.5838 -0.919922 64.3124C-0.862183 64.1768 -0.814575 64.074 -0.782104 64.0066L-0.761963 63.9653L-0.745605 63.9323L-0.737061 63.9156L-0.735352 63.9125C-0.735352 63.9125 -0.735596 63.9129 -1.17688 63.6779C-1.61816 63.4428 -1.61853 63.4435 -1.61902 63.4443L-1.62024 63.4467L-1.62427 63.4543L-1.63745 63.48L-1.65454 63.5143L-1.68335 63.5732L-1.71021 63.6298L-1.73621 63.6859C-1.76636 63.7514 -1.80127 63.8298 -1.83997 63.9205C-1.96802 64.2212 -2.13684 64.6576 -2.30505 65.2105C-2.64111 66.3156 -2.97595 67.8909 -2.97485 69.7803C-2.97253 73.5758 -1.61389 78.5908 3.69873 83.5697C8.99585 88.5341 18.203 93.4445 33.8694 97.1166C49.5399 100.79 71.7085 103.232 102.967 103.232C175.434 103.232 285.93 93.4671 396.392 83.7052L396.418 83.703C506.909 73.9385 617.363 64.1779 689.78 64.1779C740.769 64.1779 777.852 70.7746 807.982 80.6602C838.115 90.5471 861.314 103.729 884.553 116.936L884.567 116.943L884.567 116.944C907.799 130.146 931.073 143.372 961.308 153.292C991.552 163.215 1028.74 169.824 1079.82 169.824ZM1173.97 132.27C1135.94 142.174 1102.18 148.793 1079.82 148.793C1028.74 148.793 991.552 142.184 961.308 132.261C931.073 122.341 907.799 109.114 884.567 95.9121L884.553 95.9045C861.314 82.6977 838.115 69.5158 807.982 59.6289C777.852 49.7433 740.769 43.1466 689.78 43.1466C617.363 43.1466 506.909 52.9073 396.418 62.6717L396.392 62.674C285.93 72.4359 175.434 82.2007 102.967 82.2007C71.7085 82.2007 49.5399 79.7584 33.8694 76.0853C18.203 72.4132 8.99585 67.5028 3.69873 62.5385C-1.61389 57.5595 -2.97253 52.5445 -2.97485 48.7491C-2.97595 46.8596 -2.64111 45.2844 -2.30505 44.1792C-2.13684 43.6263 -1.96802 43.1899 -1.83997 42.8893C-1.82263 42.8487 -1.80603 42.8106 -1.79041 42.775C-1.771 42.731 -1.75293 42.6908 -1.73621 42.6546L-1.70947 42.5971L-1.68335 42.5419L-1.65967 42.4933L-1.63745 42.4487L-1.62427 42.423L-1.62024 42.4155L-1.61902 42.4131C-1.6189 42.4129 -1.61877 42.4127 -1.61206 42.416L-1.58801 42.4284C-1.54395 42.4514 -1.43701 42.5081 -1.17688 42.6466L-0.79187 42.8515L-0.735352 42.8813L-0.737061 42.8844L-0.745605 42.9011C-0.75354 42.9168 -0.765991 42.9417 -0.782104 42.9754C-0.814575 43.0428 -0.862183 43.1455 -0.919922 43.2812C-1.03564 43.5526 -1.19165 43.9552 -1.34827 44.4702C-1.66174 45.5008 -1.97583 46.9767 -1.97485 48.7485C-1.97278 52.2757 -0.722656 57.0242 4.38257 61.8088C9.50342 66.608 18.5232 71.4612 34.0975 75.1117C49.6677 78.7613 71.7535 81.2007 102.967 81.2007C175.385 81.2007 285.839 71.44 396.33 61.6756L396.355 61.6734C506.817 51.9115 617.313 42.1466 689.78 42.1466C740.86 42.1466 778.049 48.7557 808.293 58.6788C838.528 68.5988 861.803 81.8253 885.035 95.0277L885.048 95.0351C908.287 108.242 931.486 121.424 961.619 131.311C991.749 141.196 1028.83 147.793 1079.82 147.793C1102.04 147.793 1135.69 141.206 1173.72 131.302C1211.72 121.402 1254.05 108.2 1293.6 94.9955C1333.14 81.7918 1369.91 68.5879 1396.78 58.6847C1410.22 53.7332 1421.18 49.6069 1428.79 46.7187C1432.59 45.2745 1435.55 44.1399 1437.57 43.3664C1438.57 42.9796 1439.34 42.6831 1439.86 42.4833C1440.12 42.3834 1440.31 42.3077 1440.44 42.257L1440.59 42.1997L1440.63 42.1853L1440.64 42.1818C1440.64 42.181 1440.64 42.1805 1440.82 42.6466C1441 43.1126 1441 43.113 1441 43.1139L1440.99 43.1175L1440.95 43.132L1440.8 43.1894C1440.67 43.2402 1440.48 43.316 1440.22 43.416C1439.7 43.616 1438.93 43.9128 1437.93 44.2997C1435.91 45.0738 1432.95 46.2089 1429.14 47.6535C1421.54 50.5428 1410.57 54.6702 1397.13 59.623C1370.24 69.5285 1333.47 82.7361 1293.92 95.944C1254.36 109.152 1212.01 122.361 1173.97 132.27ZM1079.82 127.766C1102.18 127.766 1135.94 121.147 1173.97 111.242C1212.01 101.334 1254.36 88.1242 1293.92 74.9167C1333.47 61.7088 1370.24 48.5012 1397.13 38.5956C1410.57 33.6429 1421.54 29.5154 1429.14 26.6262C1432.95 25.1815 1435.91 24.0464 1437.93 23.2724C1438.93 22.8854 1439.7 22.5887 1440.22 22.3887C1440.48 22.2887 1440.67 22.2129 1440.8 22.162L1440.95 22.1046L1440.99 22.0901L1441 22.0865C1441 22.0857 1441 22.0853 1440.82 21.6193C1440.64 21.1532 1440.64 21.1536 1440.64 21.1544L1440.63 21.158L1440.59 21.1724L1440.44 21.2296C1440.31 21.2803 1440.12 21.3561 1439.86 21.456C1439.34 21.6557 1438.57 21.9522 1437.57 22.339C1435.55 23.1125 1432.59 24.2472 1428.79 25.6913C1421.18 28.5796 1410.22 32.7058 1396.78 37.6573C1369.91 47.5605 1333.14 60.7645 1293.6 73.9682C1254.05 87.1722 1211.72 100.374 1173.72 110.275C1135.69 120.179 1102.04 126.766 1079.82 126.766C1028.83 126.766 991.749 120.169 961.619 110.283C931.486 100.396 908.287 87.2145 885.048 74.0077L885.035 74.0004C861.803 60.798 838.528 47.5714 808.293 37.6514C778.049 27.7283 740.86 21.1193 689.78 21.1193C617.313 21.1193 506.817 30.8842 396.355 40.6461L396.33 40.6483C285.839 50.4127 175.385 60.1734 102.967 60.1734C71.7535 60.1734 49.6677 57.7339 34.0975 54.0844C18.5232 50.4338 9.50342 45.5807 4.38257 40.7815C-0.722656 35.9969 -1.97278 31.2484 -1.97485 27.7212C-1.97583 25.9493 -1.66174 24.4734 -1.34827 23.4428C-1.19165 22.9279 -1.03564 22.5252 -0.919922 22.2538C-0.862183 22.1182 -0.814575 22.0154 -0.782104 21.948L-0.758057 21.8986L-0.745605 21.8737L-0.737061 21.8571L-0.735352 21.8539L-0.794678 21.8226L-1.17688 21.6193C-1.35083 21.5266 -1.4563 21.4706 -1.52026 21.4368C-1.61853 21.3848 -1.61877 21.3852 -1.61902 21.3857L-1.62024 21.3882L-1.62427 21.3957L-1.63745 21.4214C-1.64844 21.4432 -1.66394 21.4744 -1.68335 21.5146L-1.7041 21.5582L-1.72485 21.6025L-1.73621 21.6273C-1.76636 21.6928 -1.80127 21.7712 -1.83997 21.8619C-1.96802 22.1626 -2.13684 22.599 -2.30505 23.1519C-2.64111 24.257 -2.97595 25.8323 -2.97485 27.7217C-2.97253 31.5172 -1.61389 36.5322 3.69873 41.5111C8.99585 46.4755 18.203 51.3859 33.8694 55.058C49.5399 58.731 71.7085 61.1734 102.967 61.1734C175.434 61.1734 285.93 51.4085 396.392 41.6466L396.418 41.6444C506.909 31.8799 617.363 22.1193 689.78 22.1193C740.769 22.1193 777.852 28.716 807.982 38.6016C838.115 48.4885 861.314 61.6704 884.553 74.8771L884.567 74.8848L884.567 74.8851C907.799 88.0873 931.073 101.314 961.308 111.233C991.552 121.157 1028.74 127.766 1079.82 127.766ZM1079.82 106.734C1102.18 106.734 1135.94 100.116 1173.97 90.211C1212.01 80.3026 1254.36 67.093 1293.92 53.8854C1333.47 40.6776 1370.24 27.4699 1397.13 17.5644C1410.57 12.6116 1421.54 8.48419 1429.14 5.59494C1432.95 4.1503 1435.91 3.01517 1437.93 2.24115C1438.93 1.85416 1439.7 1.55743 1440.22 1.35742C1440.48 1.25745 1440.67 1.18161 1440.8 1.13077L1440.95 1.07336L1440.99 1.0589L1441 1.05527C1441 1.05444 1441 1.05405 1440.82 0.588013C1440.64 0.121948 1440.64 0.122375 1440.64 0.123169L1440.63 0.12674L1440.59 0.141113L1440.44 0.198364C1440.31 0.249084 1440.12 0.324829 1439.86 0.424713C1439.34 0.624481 1438.57 0.92099 1437.57 1.30777C1435.55 2.0813 1432.59 3.21594 1428.79 4.66006C1421.18 7.54834 1410.22 11.6746 1396.78 16.6261C1369.91 26.5293 1333.14 39.7332 1293.6 52.9369C1254.05 66.141 1211.72 79.3429 1173.72 89.2433C1135.69 99.1474 1102.04 105.734 1079.82 105.734C1028.83 105.734 991.749 99.1377 961.619 89.252C931.486 79.3652 908.287 66.1832 885.048 52.9765L885.035 52.9691C861.803 39.7667 838.528 26.5402 808.293 16.6202C778.049 6.69708 740.86 0.0880127 689.78 0.0880127C617.313 0.0880127 506.817 9.85291 396.355 19.6148L396.33 19.617C285.839 29.3814 175.385 39.1421 102.967 39.1421C71.7535 39.1421 49.6677 36.7027 34.0975 33.0531C18.5232 29.4026 9.50342 24.5494 4.38257 19.7502C-0.722656 14.9656 -1.97278 10.2171 -1.97485 6.68991C-1.97583 4.91809 -1.66174 3.4422 -1.34827 2.41159C-1.19165 1.89661 -1.03564 1.49396 -0.919922 1.22256C-0.862183 1.08691 -0.814575 0.984192 -0.782104 0.916779C-0.765991 0.883087 -0.75354 0.858215 -0.745605 0.842499L-0.737061 0.825806L-0.735352 0.822693C-0.735352 0.822662 -0.735596 0.823059 -1.17688 0.588013C-1.61816 0.352966 -1.61853 0.353638 -1.61902 0.354492L-1.62024 0.356903L-1.62427 0.364441L-1.63745 0.390137L-1.66333 0.442047L-1.68335 0.483307C-1.69861 0.515198 -1.71631 0.552826 -1.73621 0.596008C-1.76636 0.66156 -1.80127 0.73996 -1.83997 0.830658C-1.96802 1.13135 -2.13684 1.56775 -2.30505 2.12064C-2.64111 3.2258 -2.97595 4.80103 -2.97485 6.69049C-2.97253 10.4859 -1.61389 15.5009 3.69873 20.4799C8.99585 25.4442 18.203 30.3546 33.8694 34.0267C49.5399 37.6998 71.7085 40.1421 102.967 40.1421C175.434 40.1421 285.93 30.3773 396.392 20.6154L396.418 20.6131C506.909 10.8487 617.363 1.08801 689.78 1.08801C740.769 1.08801 777.852 7.68472 807.982 17.5703C838.115 27.4572 861.314 40.6391 884.553 53.8459L884.567 53.8535L884.567 53.8538C907.799 67.056 931.073 80.2824 961.308 90.2022C991.552 100.125 1028.74 106.734 1079.82 106.734Z" fill="url(#paint1_linear_803_5505)"/>
<defs>
<linearGradient id="paint0_linear_803_5505" x1="1001.98" y1="646" x2="718.001" y2="-30.5808" gradientUnits="userSpaceOnUse">
<stop stop-color="#DAEBFF"/>
<stop offset="1" stop-color="#EDF5FF"/>
</linearGradient>
<linearGradient id="paint1_linear_803_5505" x1="684.5" y1="131.999" x2="685.024" y2="-0.0467562" gradientUnits="userSpaceOnUse">
<stop stop-color="#1F3891" stop-opacity="0"/>
<stop offset="1" stop-color="#1F3891"/>
</linearGradient>
</defs>
</svg>
