<svg width="71" height="31" viewBox="0 0 71 31" fill="none" xmlns="http://www.w3.org/2000/svg">
<mask id="mask0_580_15291" style="mask-type:luminance" maskUnits="userSpaceOnUse" x="0" y="0" width="71" height="31">
<path d="M70.55 0.39975H0V30.9998H70.55V0.39975Z" fill="white"/>
</mask>
<g mask="url(#mask0_580_15291)">
<path d="M25.76 9.1783C22.3788 10.0468 3.80164 14.7499 8.15247 21.0564C10.5129 24.4634 14.7489 26.3473 19.0488 27.6434L24.6372 24.3032C25.4282 23.8354 25.9131 22.967 25.9131 22.0183L25.9642 9.41879C25.9642 9.32526 25.9642 9.21838 25.9514 9.12485C25.8876 9.13821 25.8238 9.16493 25.76 9.1783Z" fill="url(#paint0_linear_580_15291)"/>
<path d="M4.0829 22.606C-1.14832 13.6541 11.8149 7.34764 20.0191 4.24786L14.3029 0.760602C13.5246 0.2796 12.5677 0.2796 11.7766 0.74724L1.32694 7.00026C0.535881 7.46788 0.0510363 8.33637 0.0510363 9.285L0 21.8846C0 22.8332 0.472086 23.7017 1.25039 24.1826L11.649 30.5425C12.4273 31.0235 13.397 31.0235 14.1753 30.556L15.5533 29.7276C10.8197 28.4716 6.03504 25.9598 4.0829 22.606Z" fill="url(#paint1_linear_580_15291)"/>
<path d="M24.1007 1.48153C17.5425 3.64603 -2.17015 10.5805 4.08179 21.2693C7.3226 26.8143 18.2955 30.0609 23.9859 29.0991L26.6526 28.2572C20.7579 26.7608 11.9669 25.251 8.15193 19.7195C3.80109 13.413 22.3782 8.70991 25.7595 7.84143C27.4309 7.36044 28.426 5.55668 27.9668 3.80636C27.5074 2.05606 25.7849 1.01389 24.1007 1.48153Z" fill="#85371F"/>
<path d="M37.5631 11.7575C37.9331 12.145 37.7418 12.0114 38.1882 12.2519C41.1739 13.8953 42.6923 15.1646 44.4785 18.0908C49.3524 26.1075 36.4785 30.2761 34.4882 22.8474C34.2329 21.8853 34.5392 18.0506 35.4196 17.4226L35.3429 17.4895C36.5424 16.7813 36.9379 15.2715 36.2233 14.0958C35.5088 12.92 33.9522 12.5325 32.7529 13.2406C28.9635 16.1266 28.8615 22.7537 31.3111 26.3613C38.1373 36.3954 54.2392 26.6418 46.4688 16.7813C44.772 14.6302 40.5104 10.8757 37.5631 11.7575Z" fill="#85371F"/>
<path d="M67.9042 11.49C66.5646 10.9422 55.3493 12.2516 52.7975 11.8909C51.7641 11.3431 50.4371 11.5568 49.6461 12.4788C48.7529 13.5343 48.8931 15.0975 49.965 15.966C51.3429 16.8478 53.7416 16.7009 56.102 16.2332C56.4976 20.4152 57.5949 29.0866 60.5296 29.4207C60.6826 28.9664 60.6698 29.1668 60.6316 28.766C60.1978 23.8759 60.5678 19.7605 60.976 14.9506C61.244 14.8704 61.4865 14.7902 61.7161 14.7234C62.3795 14.5364 68.5039 12.6658 67.9042 11.49ZM52.3764 11.784C52.5168 11.7973 52.6316 11.8374 52.7464 11.8909C52.5805 11.8641 52.4657 11.824 52.3764 11.784Z" fill="#85371F"/>
<path d="M34.0469 3.37738H32.5477V5.61252H31.4785V2.51419H34.0469V3.37738ZM36.9623 2.46274C37.2413 2.46274 37.4941 2.52944 37.7204 2.66282C37.9505 2.79239 38.1315 2.97912 38.2635 3.22303C38.3992 3.46312 38.4671 3.74323 38.4671 4.06335C38.4671 4.38348 38.3992 4.66548 38.2635 4.90939C38.1315 5.14949 37.9505 5.33623 37.7204 5.46961C37.4941 5.59919 37.2413 5.66397 36.9623 5.66397C36.604 5.66397 36.3192 5.55536 36.108 5.33813V6.72152H35.0331V2.51419H36.0571V2.82288C36.2569 2.58278 36.5588 2.46274 36.9623 2.46274ZM36.736 4.80078C36.9245 4.80078 37.0793 4.736 37.1999 4.60642C37.3205 4.47304 37.3809 4.29201 37.3809 4.06335C37.3809 3.83469 37.3205 3.65558 37.1999 3.526C37.0793 3.39263 36.9245 3.32593 36.736 3.32593C36.5475 3.32593 36.3927 3.39263 36.2721 3.526C36.1515 3.65558 36.0911 3.83469 36.0911 4.06335C36.0911 4.29201 36.1515 4.47304 36.2721 4.60642C36.3927 4.736 36.5475 4.80078 36.736 4.80078ZM40.733 2.46274C41.2422 2.46274 41.6306 2.58088 41.8985 2.81716C42.1662 3.04964 42.3001 3.40786 42.3001 3.89186V5.61252H41.2988V5.21237C41.144 5.51344 40.8424 5.66397 40.3936 5.66397C40.156 5.66397 39.9503 5.62205 39.777 5.53821C39.6034 5.45436 39.4715 5.34195 39.3809 5.20093C39.2941 5.05612 39.2508 4.89224 39.2508 4.70932C39.2508 4.41588 39.362 4.18912 39.5846 4.02905C39.8071 3.86518 40.1503 3.78325 40.6142 3.78325H41.2252C41.2063 3.45551 40.9895 3.29163 40.5746 3.29163C40.4276 3.29163 40.2785 3.31639 40.1277 3.36594C39.9768 3.41167 39.8485 3.47646 39.743 3.5603L39.3809 2.82288C39.5507 2.70855 39.7562 2.6209 39.9976 2.55992C40.2427 2.49514 40.4878 2.46274 40.733 2.46274ZM40.6934 4.97799C40.8179 4.97799 40.9272 4.94751 41.0216 4.88653C41.1157 4.82555 41.1836 4.736 41.2252 4.61785V4.34918H40.7613C40.4482 4.34918 40.2918 4.45397 40.2918 4.66358C40.2918 4.75886 40.3276 4.83508 40.3993 4.89224C40.4708 4.94941 40.569 4.97799 40.6934 4.97799ZM43.5124 2.51419H44.5817V3.6632H45.6849V2.51419H46.7597V5.61252H45.6849V4.52639H44.5817V5.61252H43.5124V2.51419ZM50.7886 3.37738H49.8042V5.61252H48.735V3.37738H47.745V2.51419H50.7886V3.37738ZM53.5246 3.47456C53.9281 3.47837 54.2317 3.56984 54.4354 3.74895C54.639 3.92806 54.7409 4.1834 54.7409 4.51496C54.7409 4.86176 54.6221 5.13234 54.3845 5.3267C54.1507 5.52106 53.8187 5.61634 53.3888 5.61252H51.7708V2.51419H52.84V3.47456H53.5246ZM55.0011 2.51419H56.0704V5.61252H55.0011V2.51419ZM53.2813 4.86938C53.5529 4.86938 53.6886 4.74552 53.6886 4.49781C53.6886 4.37586 53.6547 4.2863 53.5868 4.22913C53.5189 4.17197 53.4171 4.14148 53.2813 4.13767H52.84V4.86366L53.2813 4.86938Z" fill="#85371F"/>
<path d="M59.9513 5.22452V5.50429H57.8272V5.28135L59.0861 4.03549C59.2447 3.87812 59.3515 3.7426 59.4062 3.62895C59.464 3.51238 59.4928 3.3958 59.4928 3.27923C59.4928 3.09854 59.4307 2.95865 59.3067 2.85957C59.1856 2.75757 59.0111 2.70657 58.7833 2.70657C58.4285 2.70657 58.1531 2.82023 57.957 3.04755L57.7363 2.8552C57.8546 2.71532 58.0046 2.60749 58.1863 2.53172C58.3708 2.45594 58.5784 2.41806 58.8092 2.41806C59.1179 2.41806 59.3615 2.49237 59.5403 2.641C59.722 2.78672 59.8129 2.98781 59.8129 3.24426C59.8129 3.40163 59.7783 3.55317 59.7091 3.69889C59.6398 3.84461 59.5086 4.01217 59.3154 4.2016L58.2858 5.22452H59.9513ZM61.5324 5.53052C61.2988 5.53052 61.0896 5.46785 60.9051 5.34255C60.7234 5.21724 60.5806 5.03801 60.4768 4.80486C60.3758 4.5688 60.3254 4.29194 60.3254 3.97429C60.3254 3.65664 60.3758 3.38124 60.4768 3.14809C60.5806 2.91203 60.7234 2.73134 60.9051 2.60603C61.0896 2.48072 61.2988 2.41806 61.5324 2.41806C61.766 2.41806 61.9737 2.48072 62.1554 2.60603C62.3399 2.73134 62.4841 2.91203 62.588 3.14809C62.6918 3.38124 62.7437 3.65664 62.7437 3.97429C62.7437 4.29194 62.6918 4.5688 62.588 4.80486C62.4841 5.03801 62.3399 5.21724 62.1554 5.34255C61.9737 5.46785 61.766 5.53052 61.5324 5.53052ZM61.5324 5.242C61.7083 5.242 61.8625 5.19246 61.9953 5.09337C62.1307 4.99429 62.2361 4.85004 62.3111 4.6606C62.386 4.47117 62.4236 4.24241 62.4236 3.97429C62.4236 3.70617 62.386 3.47741 62.3111 3.28797C62.2361 3.09854 62.1307 2.95428 61.9953 2.8552C61.8625 2.75612 61.7083 2.70657 61.5324 2.70657C61.3563 2.70657 61.2006 2.75612 61.0652 2.8552C60.9324 2.95428 60.8285 3.09854 60.7537 3.28797C60.6786 3.47741 60.6412 3.70617 60.6412 3.97429C60.6412 4.24241 60.6786 4.47117 60.7537 4.6606C60.8285 4.85004 60.9324 4.99429 61.0652 5.09337C61.2006 5.19246 61.3563 5.242 61.5324 5.242ZM65.2492 5.22452V5.50429H63.1251V5.28135L64.384 4.03549C64.5426 3.87812 64.6494 3.7426 64.7041 3.62895C64.7619 3.51238 64.7907 3.3958 64.7907 3.27923C64.7907 3.09854 64.7286 2.95865 64.6046 2.85957C64.4835 2.75757 64.309 2.70657 64.0812 2.70657C63.7264 2.70657 63.451 2.82023 63.2549 3.04755L63.0342 2.8552C63.1524 2.71532 63.3025 2.60749 63.4842 2.53172C63.6687 2.45594 63.8763 2.41806 64.1071 2.41806C64.4156 2.41806 64.6594 2.49237 64.8383 2.641C65.02 2.78672 65.1108 2.98781 65.1108 3.24426C65.1108 3.40163 65.0762 3.55317 65.007 3.69889C64.9378 3.84461 64.8065 4.01217 64.6133 4.2016L63.5837 5.22452H65.2492ZM66.6697 3.75572C66.987 3.7732 67.2278 3.86063 67.3922 4.018C67.5596 4.17247 67.6431 4.375 67.6431 4.62563C67.6431 4.80049 67.6013 4.9564 67.5177 5.09337C67.4341 5.22743 67.31 5.3338 67.1456 5.41249C66.9812 5.49117 66.7807 5.53052 66.5443 5.53052C66.3251 5.53052 66.1175 5.49555 65.9213 5.4256C65.7281 5.35275 65.5724 5.25658 65.4541 5.13709L65.6055 4.88792C65.7065 4.99283 65.8406 5.0788 66.0078 5.14583C66.1752 5.20994 66.3539 5.242 66.5443 5.242C66.7924 5.242 66.984 5.18808 67.1196 5.08026C67.2553 4.96951 67.323 4.81797 67.323 4.62563C67.323 4.4362 67.2553 4.28757 67.1196 4.17975C66.984 4.07192 66.7794 4.018 66.5053 4.018H66.289V3.78632L67.1283 2.72406H65.5795V2.44429H67.5263V2.66723L66.6697 3.75572Z" fill="#85371F"/>
</g>
<defs>
<linearGradient id="paint0_linear_580_15291" x1="22.8455" y1="7.15814" x2="14.4833" y2="23.7766" gradientUnits="userSpaceOnUse">
<stop stop-color="#FFC500"/>
<stop offset="1" stop-color="#FB6902"/>
</linearGradient>
<linearGradient id="paint1_linear_580_15291" x1="16.1129" y1="1.10823" x2="4.60836" y2="23.9712" gradientUnits="userSpaceOnUse">
<stop stop-color="#FFC500"/>
<stop offset="1" stop-color="#FB6902"/>
</linearGradient>
</defs>
</svg>



