<svg width="24" height="24" viewBox="0 0 24 24" fill="none" xmlns="http://www.w3.org/2000/svg">
<g clip-path="url(#clip0_553_5400)">
<path fill-rule="evenodd" clip-rule="evenodd" d="M10.7435 0C5.06573 0.65273 0.587644 5.24872 0.117188 10.98H6.35735C6.64451 6.9538 8.17779 3.11573 10.7435 0ZM6.35735 12.98H0.117188C0.587644 18.7113 5.06573 23.3073 10.7435 23.9601C8.17779 20.8443 6.64451 17.0063 6.35735 12.98ZM13.5282 23.9601C19.206 23.3073 23.6841 18.7113 24.1545 12.98H17.9144C17.6272 17.0063 16.0939 20.8443 13.5282 23.9601ZM15.9087 12.98C15.6318 16.4604 14.3169 19.7779 12.1359 22.5021C9.95487 19.7779 8.63988 16.4604 8.36302 12.98H15.9087ZM15.9087 10.98H8.36302C8.63988 7.49963 9.95487 4.18219 12.1359 1.45801C14.3169 4.18219 15.6318 7.49963 15.9087 10.98ZM17.9144 10.98H24.1545C23.6841 5.24872 19.206 0.652731 13.5282 1.84221e-07C16.0939 3.11573 17.6272 6.9538 17.9144 10.98Z" fill="url(#paint0_linear_553_5400)"/>
</g>
<defs>
<linearGradient id="paint0_linear_553_5400" x1="7.88684" y1="1.09574e-06" x2="24.2925" y2="11.7113" gradientUnits="userSpaceOnUse">
<stop stop-color="#F84343"/>
<stop offset="1" stop-color="#4360F8"/>
</linearGradient>
<clipPath id="clip0_553_5400">
<rect width="24" height="24" fill="white"/>
</clipPath>
</defs>
</svg>

