<svg width="107" height="24" viewBox="0 0 107 24" fill="none" xmlns="http://www.w3.org/2000/svg">
<g clip-path="url(#clip0_1177_837)">
<path fill-rule="evenodd" clip-rule="evenodd" d="M28.1511 5.68301L23.7031 8.68321C23.5884 8.76059 23.5197 8.88986 23.5197 9.02813V14.4759C23.5197 14.7056 23.7059 14.892 23.9357 14.892C24.0186 14.892 24.0996 14.8672 24.1684 14.8208L28.6164 11.8206C28.731 11.7432 28.7997 11.614 28.7997 11.4757V6.02794C28.7997 5.79812 28.6135 5.61194 28.3837 5.61194C28.3008 5.61194 28.2198 5.63668 28.1511 5.68301ZM15.1997 4.38746V23.584C15.1997 23.8138 15.3859 24 15.6157 24C15.6986 24 15.7796 23.9752 15.8483 23.9289L21.7363 19.9574C21.8509 19.88 21.9197 19.7508 21.9197 19.6125V0.415974C21.9197 0.186209 21.7334 -3.05176e-05 21.5037 -3.05176e-05C21.4208 -3.05176e-05 21.3397 0.024735 21.271 0.0711405L15.383 4.0426C15.2684 4.11995 15.1997 4.24915 15.1997 4.38746ZM6.87964 4.38746V23.584C6.87964 23.8138 7.06588 24 7.29565 24C7.37856 24 7.45955 23.9752 7.52829 23.9289L13.4163 19.9574C13.5309 19.88 13.5996 19.7508 13.5996 19.6125V0.415974C13.5996 0.186209 13.4134 -3.05176e-05 13.1836 -3.05176e-05C13.1008 -3.05176e-05 13.0197 0.024735 12.951 0.0711405L7.06303 4.0426C6.94841 4.11995 6.87964 4.24915 6.87964 4.38746ZM4.63103 5.68301L0.182993 8.68321C0.0683999 8.76059 -0.000366211 8.88986 -0.000366211 9.02813V14.4759C-0.000366211 14.7056 0.185874 14.892 0.415639 14.892C0.498548 14.892 0.57954 14.8672 0.648275 14.8208L5.09628 11.8206C5.2109 11.7432 5.27964 11.614 5.27964 11.4757V6.02794C5.27964 5.79812 5.0934 5.61194 4.86363 5.61194C4.78076 5.61194 4.69976 5.63668 4.63103 5.68301Z" fill="#A0B1ED"/>
<path d="M105.989 17.2638H98.8044L97.7927 16.2521V14.1993H99.8455V15.211H104.963V13.1729H101.884V11.1202H104.963V9.05274H99.8455V10.0791H97.7927V8.04102L98.8044 6.99997H105.989L107.001 8.04102V11.1202L105.989 12.1465L107.001 13.1729V16.2521L105.989 17.2638Z" fill="#A0B1ED"/>
<path d="M90.4696 15.211H94.5751V9.05274H90.4696V15.211ZM86.3787 17.2638H84.3259V6.99997H86.3787V11.1202H88.4168V8.04102L89.4432 6.99997H95.5868L96.6132 8.04102V16.2521L95.5868 17.2638H89.4432L88.4168 16.2521V13.1729H86.3787V17.2638Z" fill="#A0B1ED"/>
<path d="M75.7107 15.211H80.828V9.05274H75.7107V15.211ZM81.8544 17.2638H74.6697L73.658 16.2521V8.04102L74.6697 6.99997H81.8544L82.8661 8.04102V16.2521L81.8544 17.2638Z" fill="#A0B1ED"/>
<path d="M71.329 17.2638H64.1443L63.1326 16.2521V8.04102L64.1443 6.99997H71.329L72.3407 8.04102V10.0791H70.3026V9.05274H65.1853V15.211H70.3026V14.1993H72.3407V16.2521L71.329 17.2638Z" fill="#A0B1ED"/>
<path d="M52.6742 17.2638H50.6214V9.05274H47.0291V6.99997H56.2372V9.05274H52.6742V17.2638Z" fill="#A0B1ED"/>
<path d="M38.8533 17.2638H36.8005V6.99997H38.8533V13.8327L43.9706 6.99997H46.0087V17.2638H43.9706V10.4164L38.8533 17.2638Z" fill="#A0B1ED"/>
</g>
<defs>
<clipPath id="clip0_1177_837">
<rect width="107" height="24" fill="white" transform="translate(-0.000244141 -3.05176e-05)"/>
</clipPath>
</defs>
</svg>




