<svg width="82" height="13" viewBox="0 0 82 13" fill="none" xmlns="http://www.w3.org/2000/svg">
<path d="M0.147605 12.5V0.863636H4.60215C5.44306 0.863636 6.14192 0.996212 6.69874 1.26136C7.25935 1.52273 7.67791 1.88068 7.95442 2.33523C8.23473 2.78977 8.37488 3.30492 8.37488 3.88068C8.37488 4.35417 8.28397 4.75947 8.10215 5.09659C7.92033 5.42992 7.67601 5.70076 7.3692 5.90909C7.06238 6.11742 6.71958 6.26705 6.34079 6.35795V6.47159C6.75367 6.49432 7.1495 6.62121 7.52829 6.85227C7.91086 7.07955 8.22336 7.40151 8.46579 7.81818C8.70821 8.23485 8.82942 8.73864 8.82942 9.32955C8.82942 9.93182 8.68359 10.4735 8.39192 10.9545C8.10026 11.4318 7.66086 11.8087 7.07374 12.0852C6.48662 12.3617 5.74798 12.5 4.85783 12.5H0.147605ZM2.25556 10.7386H4.52261C5.28776 10.7386 5.83889 10.5928 6.17601 10.3011C6.51692 10.0057 6.68738 9.62689 6.68738 9.16477C6.68738 8.82008 6.60215 8.50947 6.4317 8.23295C6.26124 7.95265 6.01882 7.73295 5.70442 7.57386C5.39003 7.41098 5.01503 7.32955 4.57942 7.32955H2.25556V10.7386ZM2.25556 5.8125H4.34079C4.70442 5.8125 5.03208 5.74621 5.32374 5.61364C5.61541 5.47727 5.84458 5.28598 6.01124 5.03977C6.1817 4.78977 6.26692 4.49432 6.26692 4.15341C6.26692 3.70265 6.10783 3.33144 5.78965 3.03977C5.47526 2.74811 5.00745 2.60227 4.38624 2.60227H2.25556V5.8125ZM10.5723 12.5V3.77273H12.6291V12.5H10.5723ZM11.6064 2.53409C11.2807 2.53409 11.0004 2.42614 10.7655 2.21023C10.5307 1.99053 10.4132 1.72727 10.4132 1.42045C10.4132 1.10985 10.5307 0.84659 10.7655 0.630681C11.0004 0.410984 11.2807 0.301136 11.6064 0.301136C11.936 0.301136 12.2163 0.410984 12.4473 0.630681C12.6822 0.84659 12.7996 1.10985 12.7996 1.42045C12.7996 1.72727 12.6822 1.99053 12.4473 2.21023C12.2163 2.42614 11.936 2.53409 11.6064 2.53409ZM19.1022 3.77273V5.36364H14.0851V3.77273H19.1022ZM15.3237 1.68182H17.3806V9.875C17.3806 10.1515 17.4222 10.3636 17.5056 10.5114C17.5927 10.6553 17.7063 10.7538 17.8465 10.8068C17.9866 10.8598 18.1419 10.8864 18.3124 10.8864C18.4412 10.8864 18.5586 10.8769 18.6647 10.858C18.7745 10.839 18.8578 10.822 18.9147 10.8068L19.2612 12.4148C19.1514 12.4527 18.9942 12.4943 18.7897 12.5398C18.5889 12.5852 18.3427 12.6117 18.051 12.6193C17.5359 12.6345 17.0718 12.5568 16.659 12.3864C16.2461 12.2121 15.9184 11.9432 15.676 11.5795C15.4374 11.2159 15.32 10.7614 15.3237 10.2159V1.68182ZM23.2683 12.5L19.9843 0.863636H22.2513L24.3479 9.41477H24.4558L26.6945 0.863636H28.757L31.0013 9.42045H31.1036L33.2002 0.863636H35.4672L32.1831 12.5H30.1036L27.774 4.33523H27.6831L25.3479 12.5H23.2683ZM36.8379 12.5V3.77273H38.8948V12.5H36.8379ZM37.872 2.53409C37.5463 2.53409 37.266 2.42614 37.0311 2.21023C36.7963 1.99053 36.6789 1.72727 36.6789 1.42045C36.6789 1.10985 36.7963 0.84659 37.0311 0.630681C37.266 0.410984 37.5463 0.301136 37.872 0.301136C38.2016 0.301136 38.4819 0.410984 38.7129 0.630681C38.9478 0.84659 39.0652 1.10985 39.0652 1.42045C39.0652 1.72727 38.9478 1.99053 38.7129 2.21023C38.4819 2.42614 38.2016 2.53409 37.872 2.53409ZM40.8962 12.5V11.1932L45.3962 5.55114V5.47727H41.0439V3.77273H47.9132V5.17614L43.6291 10.7216V10.7955H48.061V12.5H40.8962ZM51.5794 12.5H49.3294L53.426 0.863636H56.0283L60.1306 12.5H57.8806L54.7726 3.25H54.6817L51.5794 12.5ZM51.6533 7.9375H57.7897V9.63068H51.6533V7.9375ZM61.5723 12.5V3.77273H63.5666V5.22727H63.6575C63.8166 4.72348 64.0894 4.33523 64.4757 4.0625C64.8659 3.78598 65.311 3.64773 65.811 3.64773C65.9246 3.64773 66.0515 3.65341 66.1916 3.66477C66.3356 3.67235 66.4549 3.68561 66.5496 3.70455V5.59659C66.4625 5.56629 66.3242 5.53977 66.1348 5.51705C65.9492 5.49053 65.7693 5.47727 65.595 5.47727C65.22 5.47727 64.8829 5.55871 64.5837 5.72159C64.2882 5.88068 64.0553 6.10227 63.8848 6.38636C63.7144 6.67045 63.6291 6.99811 63.6291 7.36932V12.5H61.5723ZM72.7428 3.77273V5.36364H67.7257V3.77273H72.7428ZM68.9644 1.68182H71.0212V9.875C71.0212 10.1515 71.0629 10.3636 71.1462 10.5114C71.2333 10.6553 71.3469 10.7538 71.4871 10.8068C71.6272 10.8598 71.7825 10.8864 71.953 10.8864C72.0818 10.8864 72.1992 10.8769 72.3053 10.858C72.4151 10.839 72.4985 10.822 72.5553 10.8068L72.9019 12.4148C72.792 12.4527 72.6348 12.4943 72.4303 12.5398C72.2295 12.5852 71.9833 12.6117 71.6916 12.6193C71.1765 12.6345 70.7125 12.5568 70.2996 12.3864C69.8867 12.2121 69.5591 11.9432 69.3166 11.5795C69.078 11.2159 68.9606 10.7614 68.9644 10.2159V1.68182ZM81.2357 6.07955L79.3607 6.28409C79.3076 6.0947 79.2148 5.91667 79.0823 5.75C78.9535 5.58333 78.7792 5.44886 78.5595 5.34659C78.3398 5.24432 78.0709 5.19318 77.7527 5.19318C77.3247 5.19318 76.9648 5.28598 76.6732 5.47159C76.3853 5.6572 76.2432 5.89773 76.247 6.19318C76.2432 6.44697 76.3361 6.65341 76.5254 6.8125C76.7186 6.97159 77.0368 7.10227 77.48 7.20455L78.9686 7.52273C79.7944 7.70076 80.408 7.98295 80.8095 8.36932C81.2148 8.75568 81.4194 9.26136 81.4232 9.88636C81.4194 10.4356 81.2584 10.9205 80.9402 11.3409C80.6258 11.7576 80.1883 12.0833 79.6277 12.3182C79.0671 12.553 78.4232 12.6705 77.6959 12.6705C76.6277 12.6705 75.7679 12.447 75.1164 12C74.4648 11.5492 74.0766 10.9223 73.9516 10.1193L75.9573 9.92614C76.0482 10.3201 76.2414 10.6174 76.5368 10.8182C76.8323 11.0189 77.2167 11.1193 77.6902 11.1193C78.1789 11.1193 78.5709 11.0189 78.8664 10.8182C79.1656 10.6174 79.3152 10.3693 79.3152 10.0739C79.3152 9.82386 79.2186 9.61742 79.0254 9.45455C78.8361 9.29167 78.5406 9.16667 78.1391 9.07955L76.6504 8.76705C75.8133 8.5928 75.194 8.29924 74.7925 7.88636C74.391 7.4697 74.1921 6.94318 74.1959 6.30682C74.1921 5.76894 74.3379 5.30303 74.6334 4.90909C74.9326 4.51136 75.3474 4.20455 75.8777 3.98864C76.4118 3.76894 77.0273 3.65909 77.7243 3.65909C78.747 3.65909 79.552 3.87689 80.1391 4.3125C80.73 4.74811 81.0955 5.33712 81.2357 6.07955Z" fill="#A0B1ED"/>
</svg>




