<svg width="24" height="19" viewBox="0 0 24 19" fill="none" xmlns="http://www.w3.org/2000/svg">
<path d="M14.0057 12.6797C13.4086 13.0778 12.7151 13.2882 12 13.2882C11.285 13.2882 10.5914 13.0778 9.99431 12.6797L0.159797 6.12317C0.105234 6.0868 0.0520781 6.04887 0 6.00987V16.7535C0 17.9853 0.999609 18.9628 2.20936 18.9628H21.7906C23.0224 18.9628 24 17.9632 24 16.7535V6.00983C23.9478 6.04892 23.8945 6.08694 23.8398 6.12336L14.0057 12.6797Z" fill="url(#paint0_linear_1110_85)"/>
<path d="M0.939844 4.95359L10.7744 11.5102C11.1466 11.7584 11.5733 11.8825 12 11.8825C12.4267 11.8825 12.8534 11.7583 13.2256 11.5102L23.0602 4.95359C23.6487 4.56148 24 3.90523 24 3.19695C24 1.97909 23.0092 0.988342 21.7914 0.988342H2.20861C0.990797 0.988389 0 1.97914 0 3.19812C0 3.90523 0.351375 4.56148 0.939844 4.95359Z" fill="url(#paint1_linear_1110_85)"/>
<defs>
<linearGradient id="paint0_linear_1110_85" x1="7.75756" y1="6.00983" x2="9.02044" y2="19.2471" gradientUnits="userSpaceOnUse">
<stop stop-color="#F12424"/>
<stop offset="1" stop-color="#1E4DF1"/>
</linearGradient>
<linearGradient id="paint1_linear_1110_85" x1="7.75758" y1="0.988342" x2="8.65325" y2="12.151" gradientUnits="userSpaceOnUse">
<stop stop-color="#F12424"/>
<stop offset="1" stop-color="#1E4DF1"/>
</linearGradient>
</defs>
</svg>


