<svg 
    width="24" 
    height="24" 
    viewBox="0 0 24 24" 
    fill="none" 
    xmlns="http://www.w3.org/2000/svg">
    <path d="M11.5 24H12.5C17.94 24 20.65 24 22.33 22.32C24 20.64 24 17.92 24 12.5V11.48C24 6.08 24 3.36 22.33 1.68C20.65 0 17.93 0 12.5 0H11.5C6.06 0 3.35 0 1.67 1.68C0 3.36 0 6.08 0 11.5V12.52C0 17.92 0 20.64 1.68 22.32C3.36 24 6.08 24 11.5 24Z" fill="url(#paint0_linear_1110_2253)"/>
    <path d="M12.77 17.2898C7.30005 17.2898 4.18005 13.5398 4.05005 7.2998H6.79005C6.88005 11.8798 8.90005 13.8198 10.5 14.2198V7.2998H13.08V11.2498C14.66 11.0798 16.32 9.2798 16.88 7.2998H19.46C19.249 8.32669 18.8284 9.29898 18.2244 10.1559C17.6205 11.0128 16.8462 11.7358 15.95 12.2798C16.9504 12.7769 17.8339 13.4804 18.5424 14.344C19.2508 15.2076 19.7681 16.2116 20.06 17.2898H17.22C16.958 16.3533 16.4253 15.515 15.6889 14.8799C14.9524 14.2449 14.0449 13.8413 13.08 13.7198V17.2898H12.77Z" fill="white"/>
    <defs>
        <linearGradient 
            id="paint0_linear_1110_2253" 
            x1="7.75758" 
            y1="1.4539e-07" 
            x2="12" 
            y2="24" 
            gradientUnits="userSpaceOnUse"
        >
            <stop 
                stop-color="#F12424"
            />
            <stop 
                offset="1" 
                stop-color="#1E4DF1"
            />
        </linearGradient>
    </defs>
</svg>
