<svg width="1440" height="248" viewBox="0 0 1440 248" fill="none"
    xmlns="http://www.w3.org/2000/svg">
    <g clip-path="url(#clip0_1344_9939)">
        <rect width="1440" height="248" fill="white"/>
        <path d="M1441 598H-0.702571V0.933594C-0.702571 0.933594 -21.4997 37.0657 103.42 37.0657C248.281 37.0657 545.253 0.933594 690.113 0.933594C894.208 0.933594 875.979 98.6754 1080.07 98.6754C1169.22 98.6754 1441 0.933594 1441 0.933594V598Z" fill="url(#paint0_linear_1344_9939)"/>
        <path d="M1079.82 346.347C1102.18 346.347 1135.94 340.221 1173.96 331.053C1212 321.881 1254.35 309.653 1293.9 297.427C1333.46 285.201 1370.23 272.975 1397.11 263.806C1410.56 259.221 1421.52 255.4 1429.13 252.726C1432.94 251.388 1435.9 250.338 1437.91 249.621C1438.92 249.263 1439.69 248.988 1440.21 248.803C1440.47 248.711 1440.66 248.64 1440.79 248.593L1440.99 248.523C1440.99 248.523 1440.99 248.522 1440.82 248.052C1440.65 247.581 1440.65 247.582 1440.65 247.582L1440.45 247.652C1440.32 247.699 1440.13 247.769 1439.87 247.862C1439.35 248.047 1438.58 248.321 1437.58 248.679C1435.57 249.395 1432.6 250.445 1428.8 251.782C1421.19 254.456 1410.23 258.275 1396.79 262.859C1369.92 272.026 1333.16 284.249 1293.61 296.472C1254.06 308.695 1211.73 320.916 1173.73 330.08C1135.7 339.248 1102.05 345.347 1079.82 345.347C1028.83 345.347 991.742 339.24 961.609 330.088C931.473 320.935 908.273 308.732 885.033 296.507L885.021 296.501C861.789 284.279 838.515 272.036 808.283 262.854C778.042 253.669 740.856 247.552 689.78 247.552C617.315 247.552 506.82 256.591 396.357 265.627L396.333 265.629C285.843 274.668 175.387 283.704 102.967 283.704C71.7518 283.704 49.663 281.445 34.0895 278.066C18.5104 274.686 9.48853 270.192 4.36829 265.75C-0.733396 261.324 -1.97278 256.942 -1.97485 253.7C-1.97583 252.069 -1.66345 250.71 -1.35168 249.761C-1.1958 249.287 -1.04065 248.916 -0.925779 248.667C-0.898191 248.607 -0.872922 248.554 -0.850583 248.508L-0.820676 248.448C-0.808957 248.425 -0.798337 248.404 -0.78906 248.386L-0.767576 248.345L-0.753049 248.318L-0.744626 248.303L-0.743161 248.301C-0.743161 248.301 -0.743406 248.301 -0.864743 248.231L-1.17688 248.052C-1.61023 247.802 -1.61108 247.804 -1.61108 247.804L-1.61242 247.806L-1.61657 247.814L-1.63 247.838C-1.64123 247.858 -1.65686 247.887 -1.67639 247.925C-1.70288 247.976 -1.7362 248.042 -1.77502 248.123C-1.79358 248.162 -1.81335 248.204 -1.83423 248.249C-1.96301 248.529 -2.13269 248.935 -2.30163 249.449C-2.6394 250.477 -2.97595 251.943 -2.97485 253.701C-2.97253 257.238 -1.60315 261.893 3.71302 266.505C9.01075 271.101 18.2158 275.645 33.8774 279.043C49.5447 282.443 71.7102 284.704 102.967 284.704C175.433 284.704 285.927 275.664 396.391 266.628L396.415 266.626C506.905 257.587 617.361 248.552 689.78 248.552C740.773 248.552 777.859 254.659 807.992 263.811C838.129 272.964 861.329 285.167 884.568 297.392L884.58 297.398C907.812 309.62 931.086 321.863 961.318 331.045C991.559 340.229 1028.74 346.347 1079.82 346.347Z" fill="url(#paint1_linear_1344_9939)"/>
        <path d="M1173.96 312.976C1135.94 322.145 1102.18 328.271 1079.82 328.271C1028.74 328.271 991.559 322.153 961.318 312.969C931.086 303.787 907.812 291.544 884.58 279.322L884.568 279.316C861.329 267.091 838.129 254.887 807.992 245.735C777.859 236.583 740.773 230.476 689.78 230.476C617.361 230.476 506.905 239.511 396.415 248.55L396.391 248.552C285.927 257.588 175.433 266.627 102.967 266.627C71.7102 266.627 49.5447 264.367 33.8774 260.967C18.2158 257.569 9.01075 253.025 3.71302 248.429C-1.60315 243.817 -2.97253 239.162 -2.97485 235.625C-2.97595 233.866 -2.6394 232.401 -2.30163 231.373C-2.13269 230.859 -1.96301 230.453 -1.83423 230.173C-1.76977 230.033 -1.71545 229.924 -1.67639 229.849C-1.65686 229.811 -1.64123 229.782 -1.63 229.762L-1.61657 229.737L-1.61242 229.73L-1.61108 229.728C-1.61108 229.728 -1.61035 229.727 -1.34546 229.879L-0.864743 230.155C-0.743406 230.225 -0.743161 230.224 -0.743161 230.224L-0.744626 230.227L-0.753049 230.242L-0.755491 230.247C-0.763181 230.261 -0.774656 230.282 -0.78906 230.31L-0.807615 230.346C-0.82031 230.371 -0.834714 230.4 -0.850583 230.432C-0.872922 230.478 -0.898191 230.531 -0.925779 230.591C-1.04065 230.84 -1.1958 231.211 -1.35168 231.685C-1.66345 232.634 -1.97583 233.993 -1.97485 235.624C-1.97278 238.866 -0.733396 243.248 4.36829 247.674C9.48853 252.116 18.5104 256.61 34.0895 259.99C49.663 263.369 71.7518 265.627 102.967 265.627C175.387 265.627 285.843 256.592 396.333 247.553L396.357 247.551C506.82 238.515 617.315 229.476 689.78 229.476C740.856 229.476 778.042 235.593 808.283 244.778C838.515 253.96 861.789 266.203 885.021 278.424L885.033 278.431C908.273 290.656 931.473 302.859 961.609 312.012C991.742 321.164 1028.83 327.271 1079.82 327.271C1102.05 327.271 1135.7 321.172 1173.73 312.004C1211.73 302.839 1254.06 290.618 1293.61 278.396C1333.16 266.173 1369.92 253.95 1396.79 244.783C1410.23 240.199 1421.19 236.38 1428.8 233.706C1432.6 232.369 1435.57 231.319 1437.58 230.603C1438.58 230.245 1439.35 229.97 1439.87 229.785C1440.13 229.693 1440.32 229.623 1440.45 229.576L1440.65 229.506C1440.65 229.506 1440.65 229.505 1440.82 229.976C1440.99 230.446 1440.99 230.447 1440.99 230.447L1440.79 230.517C1440.66 230.564 1440.47 230.634 1440.21 230.727C1439.69 230.912 1438.92 231.187 1437.91 231.545C1435.9 232.261 1432.94 233.312 1429.13 234.65C1421.52 237.324 1410.56 241.145 1397.11 245.729C1370.23 254.899 1333.46 267.125 1293.9 279.351C1254.35 291.577 1212 303.805 1173.96 312.976Z" fill="url(#paint2_linear_1344_9939)"/>
        <path d="M1079.82 310.195C1102.18 310.195 1135.94 304.069 1173.96 294.9C1212 285.728 1254.35 273.501 1293.9 261.275C1333.46 249.049 1370.23 236.823 1397.11 227.653C1410.56 223.069 1421.52 219.248 1429.13 216.573C1432.94 215.236 1435.9 214.185 1437.91 213.469C1438.92 213.111 1439.69 212.836 1440.21 212.651C1440.47 212.558 1440.66 212.488 1440.79 212.441L1440.99 212.371C1440.99 212.37 1440.99 212.37 1440.82 211.9C1440.65 211.429 1440.65 211.429 1440.65 211.43L1440.64 211.433L1440.45 211.5C1440.32 211.547 1440.13 211.617 1439.87 211.709C1439.35 211.894 1438.58 212.169 1437.58 212.527C1435.57 213.243 1432.6 214.293 1428.8 215.63C1421.19 218.304 1410.23 222.123 1396.79 226.707C1369.92 235.874 1333.16 248.097 1293.61 260.319C1254.06 272.542 1211.73 284.763 1173.73 293.928C1135.7 303.096 1102.05 309.195 1079.82 309.195C1028.83 309.195 991.742 303.088 961.609 293.936C931.473 284.783 908.273 272.58 885.033 260.355L885.021 260.348C861.789 248.127 838.515 235.884 808.283 226.702C778.042 217.517 740.856 211.4 689.78 211.4C617.315 211.4 506.82 220.439 396.357 229.475L396.333 229.477C285.843 238.516 175.387 247.551 102.967 247.551C71.7518 247.551 49.663 245.293 34.0895 241.914C18.5104 238.534 9.48853 234.04 4.36829 229.598C-0.733396 225.172 -1.97278 220.789 -1.97485 217.548C-1.97583 215.917 -1.66345 214.558 -1.35168 213.609C-1.1958 213.135 -1.04065 212.764 -0.925779 212.515C-0.898191 212.455 -0.872922 212.402 -0.850583 212.356C-0.826413 212.307 -0.805661 212.266 -0.78906 212.234C-0.774656 212.206 -0.763181 212.185 -0.755491 212.17L-0.753049 212.166L-0.744626 212.151L-0.743161 212.148L-0.758176 212.14L-0.864743 212.079L-1.17688 211.9C-1.61023 211.65 -1.61108 211.652 -1.61108 211.652L-1.61242 211.654L-1.61657 211.661L-1.63 211.685L-1.65393 211.73L-1.67639 211.773C-1.71545 211.848 -1.76977 211.956 -1.83423 212.097C-1.96301 212.377 -2.13269 212.783 -2.30163 213.297C-2.6394 214.325 -2.97595 215.79 -2.97485 217.549C-2.97253 221.085 -1.60315 225.741 3.71302 230.353C9.01075 234.949 18.2158 239.493 33.8774 242.891C49.5447 246.291 71.7102 248.551 102.967 248.551C175.433 248.551 285.927 239.512 396.391 230.476L396.415 230.474C506.905 221.435 617.361 212.4 689.78 212.4C740.773 212.4 777.859 218.506 807.992 227.658C838.129 236.811 861.329 249.015 884.568 261.24L884.58 261.246C907.812 273.467 931.086 285.71 961.318 294.893C991.559 304.077 1028.74 310.195 1079.82 310.195Z" fill="url(#paint3_linear_1344_9939)"/>
        <path d="M1173.96 276.824C1135.94 285.993 1102.18 292.118 1079.82 292.118C1028.74 292.118 991.559 286.001 961.318 276.816C931.086 267.634 907.812 255.391 884.58 243.17L884.568 243.163C861.329 230.938 838.129 218.735 807.992 209.582C777.859 200.43 740.773 194.323 689.78 194.323C617.361 194.323 506.905 203.359 396.415 212.398L396.391 212.4C285.927 221.436 175.433 230.475 102.967 230.475C71.7102 230.475 49.5447 228.214 33.8774 224.815C18.2158 221.417 9.01075 216.873 3.71302 212.277C-1.60315 207.665 -2.97253 203.009 -2.97485 199.472C-2.97595 197.714 -2.6394 196.249 -2.30163 195.221C-2.13269 194.706 -1.96301 194.3 -1.83423 194.02C-1.76977 193.88 -1.71545 193.772 -1.67639 193.697L-1.64868 193.644L-1.63 193.609L-1.61657 193.585L-1.61242 193.578L-1.61108 193.576C-1.61108 193.576 -1.61023 193.574 -1.17688 193.823L-0.864743 194.003C-0.743406 194.072 -0.743161 194.072 -0.743161 194.072L-0.744626 194.075L-0.753049 194.09L-0.755491 194.094L-0.758909 194.101L-0.763303 194.109L-0.78906 194.158C-0.805661 194.19 -0.826413 194.23 -0.850583 194.28C-0.872922 194.325 -0.898191 194.378 -0.925779 194.438C-1.04065 194.688 -1.1958 195.059 -1.35168 195.533C-1.66345 196.482 -1.97583 197.841 -1.97485 199.472C-1.97278 202.713 -0.733396 207.096 4.36829 211.522C9.48853 215.964 18.5104 220.458 34.0895 223.838C49.663 227.217 71.7518 229.475 102.967 229.475C175.387 229.475 285.843 220.44 396.333 211.401L396.357 211.399C506.82 202.363 617.315 193.323 689.78 193.323C740.856 193.323 778.042 199.441 808.283 208.625C838.515 217.808 861.789 230.051 885.021 242.272L885.033 242.278C908.273 254.504 931.473 266.707 961.609 275.86C991.742 285.012 1028.83 291.118 1079.82 291.118C1102.05 291.118 1135.7 285.02 1173.73 275.852C1211.73 266.687 1254.06 254.466 1293.61 242.243C1333.16 230.021 1369.92 217.798 1396.79 208.631C1410.23 204.047 1421.19 200.227 1428.8 197.554C1432.6 196.217 1435.57 195.167 1437.58 194.451C1438.58 194.093 1439.35 193.818 1439.87 193.633C1440.13 193.541 1440.32 193.471 1440.45 193.424L1440.64 193.357L1440.65 193.354C1440.65 193.353 1440.65 193.353 1440.82 193.823C1440.99 194.294 1440.99 194.294 1440.99 194.295L1440.79 194.365C1440.66 194.412 1440.47 194.482 1440.21 194.575C1439.69 194.76 1438.92 195.035 1437.91 195.393C1435.9 196.109 1432.94 197.16 1429.13 198.497C1421.52 201.172 1410.56 204.992 1397.11 209.577C1370.23 218.746 1333.46 230.972 1293.9 243.199C1254.35 255.425 1212 267.652 1173.96 276.824Z" fill="url(#paint4_linear_1344_9939)"/>
        <path d="M1079.82 274.042C1102.18 274.042 1135.94 267.916 1173.96 258.748C1212 249.576 1254.35 237.348 1293.9 225.122C1333.46 212.896 1370.23 200.67 1397.11 191.501C1410.56 186.916 1421.52 183.096 1429.13 180.421C1432.94 179.084 1435.9 178.033 1437.91 177.317C1438.92 176.958 1439.69 176.684 1440.21 176.499L1440.99 176.219C1440.99 176.218 1440.99 176.218 1440.82 175.747C1440.65 175.277 1440.65 175.277 1440.65 175.278L1440.45 175.348C1440.32 175.394 1440.13 175.465 1439.87 175.557C1439.35 175.742 1438.58 176.016 1437.58 176.374C1435.57 177.091 1432.6 178.141 1428.8 179.478C1421.19 182.151 1410.23 185.971 1396.79 190.555C1369.92 199.722 1333.16 211.945 1293.61 224.167C1254.06 236.39 1211.73 248.611 1173.73 257.776C1135.7 266.944 1102.05 273.042 1079.82 273.042C1028.83 273.042 991.742 266.935 961.609 257.783C931.473 248.631 908.273 236.427 885.033 224.202L885.021 224.196C861.789 211.974 838.515 199.731 808.283 190.549C778.042 181.365 740.856 175.247 689.78 175.247C617.315 175.247 506.82 184.286 396.357 193.323L396.333 193.325C285.843 202.363 175.387 211.399 102.967 211.399C71.7518 211.399 49.663 209.141 34.0895 205.762C18.5104 202.381 9.48853 197.887 4.36829 193.445C-0.733396 189.019 -1.97278 184.637 -1.97485 181.396C-1.97583 179.765 -1.66345 178.406 -1.35168 177.457C-1.1958 176.982 -1.04065 176.612 -0.925779 176.362C-0.898191 176.302 -0.872922 176.249 -0.850583 176.204C-0.826413 176.154 -0.805661 176.114 -0.78906 176.082C-0.773069 176.051 -0.76074 176.028 -0.753049 176.014L-0.744626 175.999L-0.743161 175.996C-0.743161 175.996 -0.743406 175.996 -0.864743 175.927L-1.17688 175.747C-1.61023 175.498 -1.61108 175.499 -1.61108 175.499L-1.61242 175.502L-1.61657 175.509L-1.63 175.533C-1.64123 175.554 -1.65686 175.583 -1.67639 175.62C-1.71545 175.695 -1.76977 175.804 -1.83423 175.944C-1.96301 176.224 -2.13269 176.63 -2.30163 177.145C-2.6394 178.173 -2.97595 179.638 -2.97485 181.396C-2.97253 184.933 -1.60315 189.589 3.71302 194.201C9.01075 198.797 18.2158 203.341 33.8774 206.739C49.5447 210.138 71.7102 212.399 102.967 212.399C175.433 212.399 285.927 203.36 396.391 194.323L396.415 194.321C506.905 185.283 617.361 176.247 689.78 176.247C740.773 176.247 777.859 182.354 807.992 191.506C838.129 200.659 861.329 212.862 884.568 225.087L884.58 225.094C907.812 237.315 931.086 249.558 961.318 258.74C991.559 267.925 1028.74 274.042 1079.82 274.042Z" fill="url(#paint5_linear_1344_9939)"/>
        <path d="M1173.96 239.283C1135.94 248.452 1102.18 254.578 1079.82 254.578C1028.74 254.578 991.559 248.46 961.318 239.276C931.086 230.094 907.812 217.851 884.58 205.629L884.568 205.623C861.329 193.398 838.129 181.194 807.992 172.041C777.859 162.89 740.773 156.783 689.78 156.783C617.361 156.783 506.905 165.818 396.415 174.857L396.391 174.859L396.39 174.859C285.927 183.895 175.432 192.934 102.967 192.934C71.7102 192.934 49.5447 190.674 33.8774 187.274C18.2158 183.876 9.01075 179.332 3.71302 174.736C-1.60315 170.124 -2.97253 165.469 -2.97485 161.932C-2.97595 160.173 -2.6394 158.708 -2.30163 157.68C-2.13269 157.166 -1.96301 156.76 -1.83423 156.48C-1.76977 156.34 -1.71545 156.231 -1.67639 156.156C-1.65686 156.118 -1.64123 156.089 -1.63 156.069L-1.61657 156.044L-1.61242 156.037L-1.61108 156.035C-1.61108 156.035 -1.61023 156.033 -1.17688 156.283L-0.864743 156.462C-0.743406 156.532 -0.743161 156.531 -0.743161 156.531L-0.744626 156.534L-0.753049 156.549L-0.755491 156.553L-0.758909 156.56C-0.766355 156.574 -0.776609 156.593 -0.78906 156.617C-0.805661 156.649 -0.826413 156.69 -0.850583 156.739C-0.872922 156.785 -0.898191 156.838 -0.925779 156.898C-1.04065 157.147 -1.1958 157.518 -1.35168 157.992C-1.66345 158.941 -1.97583 160.3 -1.97485 161.931C-1.97278 165.173 -0.733396 169.555 4.36829 173.981C9.48853 178.423 18.5104 182.917 34.0895 186.297C49.663 189.676 71.7518 191.934 102.967 191.934C175.387 191.934 285.843 182.899 396.333 173.86L396.357 173.858C506.82 164.822 617.315 155.783 689.78 155.783C740.856 155.783 778.042 161.9 808.283 171.085C838.515 180.267 861.789 192.51 885.021 204.731L885.033 204.738C908.273 216.963 931.473 229.166 961.609 238.319C991.742 247.471 1028.83 253.578 1079.82 253.578C1102.05 253.578 1135.7 247.479 1173.73 238.311C1211.73 229.146 1254.06 216.925 1293.61 204.702C1333.16 192.48 1369.92 180.257 1396.79 171.09C1410.23 166.506 1421.19 162.687 1428.8 160.013C1432.6 158.676 1435.57 157.626 1437.58 156.91C1438.58 156.552 1439.35 156.277 1439.87 156.092C1440.13 156 1440.32 155.93 1440.45 155.883L1440.65 155.813C1440.65 155.812 1440.65 155.812 1440.82 156.283C1440.99 156.753 1440.99 156.753 1440.99 156.754L1440.98 156.758L1440.79 156.824C1440.66 156.871 1440.47 156.941 1440.21 157.034C1439.69 157.219 1438.92 157.494 1437.91 157.852C1435.9 158.568 1432.94 159.619 1429.13 160.956C1421.52 163.631 1410.56 167.452 1397.11 172.036C1370.23 181.206 1333.46 193.432 1293.9 205.658C1254.35 217.884 1212 230.112 1173.96 239.283Z" fill="url(#paint6_linear_1344_9939)"/>
        <path d="M1079.82 235.109C1102.18 235.109 1135.94 228.984 1173.96 219.815C1212 210.643 1254.35 198.415 1293.9 186.19C1333.46 173.963 1370.23 161.737 1397.11 152.568C1410.56 147.983 1421.52 144.163 1429.13 141.488C1432.94 140.151 1435.9 139.1 1437.91 138.384C1438.92 138.025 1439.69 137.751 1440.21 137.566L1440.99 137.286C1440.99 137.285 1440.99 137.285 1440.82 136.814C1440.65 136.344 1440.65 136.344 1440.65 136.345L1440.64 136.348L1440.45 136.415C1440.32 136.462 1440.13 136.532 1439.87 136.624C1439.35 136.809 1438.58 137.083 1437.58 137.442C1435.57 138.158 1432.6 139.208 1428.8 140.545C1421.19 143.218 1410.23 147.038 1396.79 151.622C1369.92 160.789 1333.16 173.012 1293.61 185.234C1254.06 197.457 1211.73 209.678 1173.73 218.843C1135.7 228.011 1102.05 234.109 1079.82 234.109C1028.83 234.109 991.742 228.002 961.609 218.85C931.473 209.698 908.273 197.494 885.033 185.269L885.021 185.263C861.789 173.041 838.515 160.798 808.283 151.616C778.042 142.432 740.856 136.314 689.78 136.314C617.315 136.314 506.82 145.353 396.357 154.39L396.333 154.392C285.843 163.431 175.387 172.466 102.967 172.466C71.7518 172.466 49.663 170.208 34.0895 166.829C18.5104 163.448 9.48853 158.954 4.36829 154.512C-0.733396 150.087 -1.97278 145.704 -1.97485 142.463C-1.97583 140.832 -1.66345 139.473 -1.35168 138.524C-1.1958 138.05 -1.04065 137.679 -0.925779 137.429C-0.898191 137.369 -0.872922 137.316 -0.850583 137.271C-0.826413 137.221 -0.805661 137.181 -0.78906 137.149L-0.771238 137.115L-0.755613 137.086L-0.753049 137.081L-0.744626 137.066L-0.743161 137.063C-0.743161 137.063 -0.743406 137.063 -0.864743 136.994L-1.17688 136.814C-1.42383 136.672 -1.53015 136.611 -1.57605 136.585C-1.61072 136.566 -1.61108 136.566 -1.61108 136.566L-1.61242 136.569L-1.61657 136.576L-1.63 136.6C-1.64123 136.621 -1.65686 136.65 -1.67639 136.687C-1.71545 136.763 -1.76977 136.871 -1.83423 137.011C-1.96301 137.291 -2.13269 137.697 -2.30163 138.212C-2.6394 139.24 -2.97595 140.705 -2.97485 142.463C-2.97253 146 -1.60315 150.656 3.71302 155.268C9.01075 159.864 18.2158 164.408 33.8774 167.806C49.5447 171.205 71.7102 173.466 102.967 173.466C175.433 173.466 285.927 164.427 396.391 155.39L396.415 155.389C506.905 146.35 617.361 137.314 689.78 137.314C740.773 137.314 777.859 143.421 807.992 152.573C838.129 161.726 861.329 173.929 884.568 186.154L884.58 186.161C907.812 198.382 931.086 210.625 961.318 219.807C991.559 228.992 1028.74 235.109 1079.82 235.109Z" fill="url(#paint7_linear_1344_9939)"/>
        <path d="M1173.96 200.35C1135.94 209.519 1102.18 215.645 1079.82 215.645C1028.74 215.645 991.559 209.527 961.318 200.343C931.086 191.161 907.812 178.918 884.58 166.696L884.568 166.69C861.329 154.465 838.129 142.261 807.992 133.109C777.859 123.957 740.773 117.85 689.78 117.85C617.361 117.85 506.905 126.885 396.415 135.924L396.391 135.926L396.39 135.926C285.927 144.962 175.432 154.001 102.967 154.001C71.7102 154.001 49.5447 151.741 33.8774 148.341C18.2158 144.943 9.01075 140.399 3.71302 135.803C-1.60315 131.191 -2.97253 126.536 -2.97485 122.999C-2.97595 121.24 -2.6394 119.775 -2.30163 118.747C-2.13269 118.233 -1.96301 117.827 -1.83423 117.547L-1.80871 117.492L-1.77502 117.421C-1.7362 117.34 -1.70276 117.274 -1.67639 117.223C-1.65686 117.185 -1.64123 117.156 -1.63 117.136L-1.61657 117.111L-1.61242 117.104L-1.61108 117.102C-1.61108 117.102 -1.61023 117.1 -1.17688 117.35L-0.864743 117.529C-0.743406 117.599 -0.743161 117.598 -0.743161 117.598L-0.744626 117.601L-0.753049 117.616C-0.76074 117.63 -0.773069 117.653 -0.78906 117.684L-0.808591 117.722L-0.822751 117.75L-0.850583 117.806C-0.872922 117.852 -0.898191 117.905 -0.925779 117.965C-1.04065 118.214 -1.1958 118.585 -1.35168 119.059C-1.66345 120.008 -1.97583 121.367 -1.97485 122.998C-1.97278 126.24 -0.733396 130.622 4.36829 135.048C9.48853 139.49 18.5104 143.984 34.0895 147.364C49.663 150.743 71.7518 153.001 102.967 153.001C175.387 153.001 285.843 143.966 396.333 134.927L396.357 134.925C506.82 125.889 617.315 116.85 689.78 116.85C740.856 116.85 778.042 122.967 808.283 132.152C838.515 141.334 861.789 153.577 885.021 165.798L885.033 165.805C908.273 178.03 931.473 190.233 961.609 199.386C991.742 208.538 1028.83 214.645 1079.82 214.645C1102.05 214.645 1135.7 208.546 1173.73 199.378C1211.73 190.213 1254.06 177.992 1293.61 165.769C1333.16 153.547 1369.92 141.324 1396.79 132.157C1410.23 127.573 1421.19 123.754 1428.8 121.08C1432.6 119.743 1435.57 118.693 1437.58 117.977C1438.58 117.619 1439.35 117.344 1439.87 117.159C1440.13 117.067 1440.32 116.997 1440.45 116.95L1440.65 116.88C1440.65 116.88 1440.65 116.879 1440.82 117.35C1440.99 117.82 1440.99 117.82 1440.99 117.821L1440.98 117.825L1440.79 117.891C1440.66 117.938 1440.47 118.008 1440.21 118.101C1439.69 118.286 1438.92 118.561 1437.91 118.919C1435.9 119.635 1432.94 120.686 1429.13 122.023C1421.52 124.698 1410.56 128.519 1397.11 133.103C1370.23 142.273 1333.46 154.499 1293.9 166.725C1254.35 178.951 1212 191.179 1173.96 200.35Z" fill="url(#paint8_linear_1344_9939)"/>
        <path d="M1079.82 196.176C1102.18 196.176 1135.94 190.051 1173.96 180.882C1212 171.71 1254.35 159.483 1293.9 147.257C1333.46 135.03 1370.23 122.804 1397.11 113.635C1410.56 109.05 1421.52 105.23 1429.13 102.555C1432.94 101.218 1435.9 100.167 1437.91 99.4507C1438.92 99.0924 1439.69 98.8178 1440.21 98.6326C1440.47 98.5401 1440.66 98.4699 1440.79 98.4228L1440.98 98.3563L1440.99 98.353C1440.99 98.3522 1440.99 98.3518 1440.82 97.8813C1440.65 97.4109 1440.65 97.4112 1440.65 97.412L1440.45 97.4816C1440.32 97.5285 1440.13 97.5986 1439.87 97.6911C1439.35 97.8761 1438.58 98.1505 1437.58 98.5085C1435.57 99.2246 1432.6 100.275 1428.8 101.612C1421.19 104.285 1410.23 108.105 1396.79 112.689C1369.92 121.856 1333.16 134.079 1293.61 146.301C1254.06 158.524 1211.73 170.745 1173.73 179.91C1135.7 189.078 1102.05 195.176 1079.82 195.176C1028.83 195.176 991.742 189.069 961.609 179.918C931.473 170.765 908.273 158.561 885.033 146.336L885.021 146.33C861.789 134.108 838.515 121.866 808.283 112.683C778.042 103.499 740.856 97.3813 689.78 97.3813C617.315 97.3813 506.82 106.42 396.357 115.457L396.333 115.459C285.843 124.498 175.387 133.533 102.967 133.533C71.7518 133.533 49.663 131.275 34.0895 127.896C18.5104 124.515 9.48853 120.021 4.36829 115.58C-0.733396 111.154 -1.97278 106.771 -1.97485 103.53C-1.97583 101.899 -1.66345 100.54 -1.35168 99.5908C-1.1958 99.1165 -1.04065 98.7459 -0.925779 98.4964C-0.898191 98.4363 -0.872922 98.3833 -0.850583 98.3376C-0.826413 98.2884 -0.805661 98.2476 -0.78906 98.2156C-0.773069 98.1847 -0.76074 98.162 -0.753049 98.1478L-0.744626 98.1328L-0.743161 98.1301C-0.743161 98.1301 -0.743406 98.1304 -0.864743 98.0607L-1.37878 97.7653L-1.5592 97.662C-1.61072 97.6327 -1.61108 97.6335 -1.61108 97.6335L-1.61242 97.6358L-1.61657 97.643L-1.63 97.6673C-1.64123 97.6878 -1.65686 97.7169 -1.67639 97.7545C-1.71545 97.8296 -1.76977 97.9383 -1.83423 98.0783C-1.96301 98.3583 -2.13269 98.7644 -2.30163 99.2787C-2.6394 100.307 -2.97595 101.772 -2.97485 103.53C-2.97253 107.067 -1.60315 111.723 3.71302 116.335C9.01075 120.931 18.2158 125.475 33.8774 128.873C49.5447 132.272 71.7102 134.533 102.967 134.533C175.432 134.533 285.927 125.494 396.39 116.458L396.391 116.457L396.415 116.456C506.905 107.417 617.361 98.3813 689.78 98.3813C740.773 98.3813 777.859 104.488 807.992 113.64C838.129 122.793 861.329 134.996 884.568 147.221L884.58 147.228C907.812 159.449 931.086 171.692 961.318 180.874C991.559 190.059 1028.74 196.176 1079.82 196.176Z" fill="url(#paint9_linear_1344_9939)"/>
        <path d="M1173.96 161.417C1135.94 170.586 1102.18 176.712 1079.82 176.712C1028.74 176.712 991.559 170.594 961.318 161.41C931.086 152.228 907.812 139.985 884.58 127.763L884.568 127.757C861.329 115.532 838.129 103.328 807.992 94.1756C777.859 85.0236 740.773 78.9167 689.78 78.9167C617.361 78.9167 506.905 87.9522 396.415 96.9909L396.391 96.9928L396.39 96.9929C285.927 106.029 175.432 115.068 102.967 115.068C71.7102 115.068 49.5447 112.808 33.8774 109.408C18.2158 106.01 9.01075 101.466 3.71302 96.8702C-1.60315 92.2582 -2.97253 87.6026 -2.97485 84.0657C-2.97595 82.3075 -2.6394 80.8419 -2.30163 79.814C-2.13269 79.2997 -1.96301 78.8937 -1.83423 78.6136C-1.76977 78.4736 -1.71545 78.3649 -1.67639 78.2898C-1.65686 78.2523 -1.64123 78.2231 -1.63 78.2026L-1.61657 78.1784L-1.61242 78.1712L-1.61108 78.1688C-1.61108 78.1688 -1.61023 78.1673 -1.17688 78.4167L-0.864743 78.5961C-0.743406 78.6658 -0.743161 78.6655 -0.743161 78.6655L-0.744626 78.6682L-0.753049 78.6831L-0.755246 78.6873C-0.763059 78.7016 -0.774534 78.7229 -0.78906 78.7509C-0.805661 78.7829 -0.826413 78.8237 -0.850583 78.873C-0.872922 78.9187 -0.898191 78.9716 -0.925779 79.0317C-1.04065 79.2812 -1.1958 79.6519 -1.35168 80.1261C-1.66345 81.0753 -1.97583 82.4341 -1.97485 84.0651C-1.97278 87.3066 -0.733396 91.6889 4.36829 96.1149C9.48853 100.557 18.5104 105.051 34.0895 108.431C49.663 111.81 71.7518 114.068 102.967 114.068C175.387 114.068 285.843 105.033 396.333 95.9942L396.357 95.9923C506.82 86.9558 617.315 77.9167 689.78 77.9167C740.856 77.9167 778.042 84.0341 808.283 93.2187C838.515 102.401 861.789 114.644 885.021 126.865L885.033 126.872C908.273 139.097 931.473 151.3 961.609 160.453C991.742 169.605 1028.83 175.712 1079.82 175.712C1102.05 175.712 1135.7 169.613 1173.73 160.445C1211.73 151.28 1254.06 139.059 1293.61 126.837C1333.16 114.614 1369.92 102.391 1396.79 93.2239C1410.23 88.6404 1421.19 84.8207 1428.8 82.1471C1432.6 80.8103 1435.57 79.7599 1437.58 79.0439C1438.58 78.6859 1439.35 78.4114 1439.87 78.2264C1440.13 78.134 1440.32 78.0639 1440.45 78.0169L1440.65 77.9473C1440.65 77.9466 1440.65 77.9462 1440.82 78.4167C1440.99 78.8871 1440.99 78.8875 1440.99 78.8883L1440.79 78.9582C1440.66 79.0052 1440.47 79.0754 1440.21 79.168C1439.69 79.3531 1438.92 79.6278 1437.91 79.986C1435.9 80.7025 1432.94 81.7532 1429.13 83.0905C1421.52 85.765 1410.56 89.5857 1397.11 94.1704C1370.23 103.34 1333.46 115.566 1293.9 127.792C1254.35 140.018 1212 152.246 1173.96 161.417Z" fill="url(#paint10_linear_1344_9939)"/>
        <path d="M1079.82 157.247C1102.18 157.247 1135.94 151.121 1173.96 141.953C1212 132.781 1254.35 120.553 1293.9 108.327C1333.46 96.101 1370.23 83.875 1397.11 74.7057C1410.56 70.121 1421.52 66.3004 1429.13 63.6258C1432.94 62.2886 1435.9 61.2378 1437.91 60.5213C1438.92 60.1631 1439.69 59.8884 1440.21 59.7033L1440.99 59.4236C1440.99 59.4229 1440.99 59.4225 1440.82 58.952C1440.65 58.4815 1440.65 58.4819 1440.65 58.4826L1440.64 58.486L1440.45 58.5522C1440.32 58.5992 1440.13 58.6693 1439.87 58.7618C1439.35 58.9467 1438.58 59.2212 1437.58 59.5792C1435.57 60.2953 1432.6 61.3456 1428.8 62.6824C1421.19 65.3561 1410.23 69.1757 1396.79 73.7592C1369.92 82.9265 1333.16 95.1493 1293.61 107.372C1254.06 119.595 1211.73 131.816 1173.73 140.981C1135.7 150.149 1102.05 156.247 1079.82 156.247C1028.83 156.247 991.742 150.14 961.609 140.988C931.473 131.835 908.273 119.632 885.033 107.407L885.021 107.401C861.789 95.1791 838.515 82.9362 808.283 73.7541C778.042 64.5695 740.856 58.452 689.78 58.452C617.315 58.452 506.82 67.4911 396.357 76.5276L396.333 76.5295C285.843 85.5682 175.387 94.6037 102.967 94.6037C71.7518 94.6037 49.663 92.3455 34.0895 88.9664C18.5104 85.5861 9.48853 81.0921 4.36829 76.6502C-0.733396 72.2242 -1.97278 67.8419 -1.97485 64.6004C-1.97583 62.9694 -1.66345 61.6106 -1.35168 60.6614C-1.1958 60.1872 -1.04065 59.8166 -0.925779 59.567C-0.898191 59.507 -0.872922 59.454 -0.850583 59.4083C-0.826413 59.359 -0.805661 59.3183 -0.78906 59.2863L-0.771116 59.252L-0.753049 59.2185L-0.744626 59.2035L-0.743161 59.2008C-0.743161 59.2008 -0.743406 59.2009 -0.767331 59.1873L-1.17688 58.952C-1.61023 58.7026 -1.61108 58.7042 -1.61108 58.7042L-1.61242 58.7065L-1.61657 58.7137L-1.63 58.7379L-1.656 58.7863L-1.67639 58.8251C-1.71545 58.9002 -1.76977 59.0089 -1.83423 59.149C-1.96301 59.429 -2.13269 59.8351 -2.30163 60.3493C-2.6394 61.3773 -2.97595 62.8428 -2.97485 64.601C-2.97253 68.1379 -1.60315 72.7936 3.71302 77.4055C9.01075 82.0016 18.2158 86.5455 33.8774 89.9437C49.5447 93.343 71.7102 95.6037 102.967 95.6037C175.433 95.6037 285.927 86.5647 396.391 77.5281L396.415 77.5262C506.905 68.4875 617.361 59.452 689.78 59.452C740.773 59.452 777.859 65.5589 807.992 74.7109C838.129 83.8638 861.329 96.067 884.568 108.292L884.58 108.298C907.812 120.52 931.086 132.763 961.318 141.945C991.559 151.13 1028.74 157.247 1079.82 157.247Z" fill="url(#paint11_linear_1344_9939)"/>
        <path d="M1173.96 122.484C1135.94 131.653 1102.18 137.779 1079.82 137.779C1028.74 137.779 991.559 131.661 961.318 122.477C931.086 113.295 907.812 101.052 884.58 88.83L884.568 88.8238C861.329 76.5987 838.129 64.3955 807.992 55.2426C777.859 46.0907 740.773 39.9837 689.78 39.9837C617.361 39.9837 506.905 49.0192 396.415 58.0579L396.391 58.0599L396.39 58.06C285.927 67.0964 175.432 76.1355 102.967 76.1355C71.7102 76.1355 49.5447 73.8748 33.8774 70.4754C18.2158 67.0772 9.01075 62.5333 3.71302 57.9373C-1.60315 53.3253 -2.97253 48.6696 -2.97485 45.1328C-2.97595 43.3745 -2.6394 41.909 -2.30163 40.881C-2.13269 40.3668 -1.96301 39.9607 -1.83423 39.6807C-1.76977 39.5406 -1.71545 39.4319 -1.67639 39.3569C-1.65686 39.3193 -1.64123 39.2902 -1.63 39.2697L-1.61657 39.2454L-1.61242 39.2382L-1.61108 39.2359C-1.61108 39.2359 -1.61023 39.2344 -1.17688 39.4837L-0.864743 39.6631C-0.743406 39.7328 -0.743161 39.7325 -0.743161 39.7325L-0.744626 39.7352L-0.753049 39.7502L-0.755491 39.7549L-0.775266 39.7917L-0.78906 39.818C-0.805661 39.85 -0.826413 39.8907 -0.850583 39.94C-0.864866 39.9692 -0.880246 40.0013 -0.896726 40.0363L-0.925779 40.0988C-1.04065 40.3483 -1.1958 40.7189 -1.35168 41.1932C-1.66345 42.1423 -1.97583 43.5011 -1.97485 45.1321C-1.97278 48.3737 -0.733396 52.756 4.36829 57.1819C9.48853 61.6238 18.5104 66.1179 34.0895 69.4981C49.663 72.8772 71.7518 75.1355 102.967 75.1355C175.387 75.1355 285.843 66.1 396.333 57.0612L396.357 57.0594C506.82 48.0228 617.315 38.9837 689.78 38.9837C740.856 38.9837 778.042 45.1012 808.283 54.2858C838.515 63.4679 861.789 75.7108 885.021 87.9325L885.033 87.9388C908.273 100.164 931.473 112.367 961.609 121.52C991.742 130.672 1028.83 136.779 1079.82 136.779C1102.05 136.779 1135.7 130.68 1173.73 121.512C1211.73 112.347 1254.06 100.126 1293.61 87.9036C1333.16 75.681 1369.92 63.4583 1396.79 54.291C1410.23 49.7074 1421.19 45.8878 1428.8 43.2141C1432.6 41.8773 1435.57 40.827 1437.58 40.1109C1438.58 39.7529 1439.35 39.4785 1439.87 39.2935C1440.13 39.201 1440.32 39.1309 1440.45 39.084L1440.65 39.0143C1440.65 39.0136 1440.65 39.0132 1440.82 39.4837C1440.99 39.9542 1440.99 39.9546 1440.99 39.9553L1440.98 39.9587L1440.79 40.0252C1440.66 40.0723 1440.47 40.1425 1440.21 40.235C1439.69 40.4202 1438.92 40.6948 1437.91 41.0531C1435.9 41.7695 1432.94 42.8203 1429.13 44.1576C1421.52 46.8321 1410.56 50.6527 1397.11 55.2374C1370.23 64.4067 1333.46 76.6328 1293.9 88.859C1254.35 101.085 1212 113.313 1173.96 122.484Z" fill="url(#paint12_linear_1344_9939)"/>
        <path d="M1079.82 118.314C1102.18 118.314 1135.94 112.188 1173.96 103.02C1212 93.848 1254.35 81.6202 1293.9 69.3943C1333.46 57.1681 1370.23 44.9421 1397.11 35.7728C1410.56 31.188 1421.52 27.3674 1429.13 24.6929C1432.94 23.3556 1435.9 22.3049 1437.91 21.5884C1438.92 21.2302 1439.69 20.9555 1440.21 20.7704C1440.47 20.6778 1440.66 20.6076 1440.79 20.5605L1440.99 20.4907C1440.99 20.4899 1440.99 20.4895 1440.82 20.019C1440.65 19.5486 1440.65 19.5489 1440.65 19.5497L1440.45 19.6193C1440.32 19.6663 1440.13 19.7364 1439.87 19.8288C1439.35 20.0138 1438.58 20.2882 1437.58 20.6463C1435.57 21.3623 1432.6 22.4127 1428.8 23.7495C1421.19 26.4231 1410.23 30.2427 1396.79 34.8263C1369.92 43.9936 1333.16 56.2163 1293.61 68.4389C1254.06 80.6617 1211.73 92.8828 1173.73 102.048C1135.7 111.216 1102.05 117.314 1079.82 117.314C1028.83 117.314 991.742 111.207 961.609 102.055C931.473 92.9023 908.273 80.6992 885.033 68.4741L885.021 68.4678C861.789 56.2462 838.515 44.0032 808.283 34.8211C778.042 25.6365 740.856 19.519 689.78 19.519C617.315 19.519 506.821 28.558 396.358 37.5945L396.357 37.5947L396.333 37.5966C285.843 46.6353 175.387 55.6708 102.967 55.6708C71.7518 55.6708 49.663 53.4125 34.0895 50.0334C18.5104 46.6532 9.48853 42.1592 4.36829 37.7172C-0.733396 33.2913 -1.97278 28.909 -1.97485 25.6674C-1.97583 24.0364 -1.66345 22.6776 -1.35168 21.7285C-1.1958 21.2543 -1.04065 20.8836 -0.925779 20.6341L-0.890378 20.5581L-0.875852 20.5275L-0.850583 20.4753C-0.826413 20.4261 -0.805661 20.3853 -0.78906 20.3533C-0.773069 20.3224 -0.76074 20.2998 -0.753049 20.2855L-0.744626 20.2705L-0.743161 20.2678C-0.743161 20.2678 -0.743406 20.2681 -0.864743 20.1985L-1.17688 20.019C-1.61023 19.7697 -1.61108 19.7712 -1.61108 19.7712L-1.61242 19.7736L-1.61657 19.7807L-1.63 19.805C-1.64123 19.8255 -1.65686 19.8546 -1.67639 19.8922C-1.71545 19.9673 -1.76977 20.076 -1.83423 20.216C-1.96301 20.496 -2.13269 20.9021 -2.30163 21.4164C-2.6394 22.4443 -2.97595 23.9098 -2.97485 25.6681C-2.97253 29.205 -1.60315 33.8606 3.71302 38.4726C9.01075 43.0686 18.2158 47.6125 33.8774 51.0107C49.5447 54.4101 71.7102 56.6708 102.967 56.6708C175.433 56.6708 285.927 47.6317 396.391 38.5952L396.415 38.5933C506.905 29.5545 617.361 20.519 689.78 20.519C740.773 20.519 777.859 26.626 807.992 35.778C838.129 44.9308 861.329 57.134 884.568 69.3591L884.58 69.3654C907.812 81.587 931.086 93.83 961.318 103.012C991.559 112.197 1028.74 118.314 1079.82 118.314Z" fill="url(#paint13_linear_1344_9939)"/>
        <path d="M1079.82 98.8459C1102.18 98.8459 1135.94 92.72 1173.96 83.5515C1212 74.3797 1254.35 62.1519 1293.9 49.926C1333.46 37.6998 1370.23 25.4738 1397.11 16.3045C1410.56 11.7198 1421.52 7.89914 1429.13 5.22461C1432.94 3.88733 1435.9 2.83658 1437.91 2.12012C1438.92 1.76187 1439.69 1.48721 1440.21 1.30206C1440.47 1.2095 1440.66 1.13931 1440.79 1.09229L1440.99 1.0224C1440.99 1.02164 1440.99 1.02124 1440.82 0.550781C1440.65 0.0802917 1440.65 0.080658 1440.65 0.0813904L1440.45 0.151031C1440.32 0.197998 1440.13 0.268066 1439.87 0.360535C1439.35 0.545471 1438.58 0.819946 1437.58 1.17798C1435.57 1.89404 1432.6 2.94437 1428.8 4.28119C1421.19 6.95483 1410.23 10.7744 1396.79 15.358C1369.92 24.5253 1333.16 36.7481 1293.61 48.9706C1254.06 61.1935 1211.73 73.4145 1173.73 82.5793C1135.7 91.7473 1102.05 97.8459 1079.82 97.8459C1028.83 97.8459 991.742 91.7389 961.609 82.587C931.473 73.4341 908.273 61.2309 885.033 49.0058L885.021 48.9995C861.789 36.7779 838.515 24.5349 808.283 15.3528C778.042 6.16821 740.856 0.0507812 689.78 0.0507812C617.315 0.0507812 506.82 9.08987 396.357 18.1264L396.333 18.1283C285.843 27.167 175.387 36.2025 102.967 36.2025C71.7518 36.2025 49.663 33.9442 34.0895 30.5652C18.5104 27.1849 9.48853 22.6909 4.36829 18.249C-0.733396 13.823 -1.97278 9.44073 -1.97485 6.19916C-1.97583 4.56818 -1.66345 3.20935 -1.35168 2.26022C-1.1958 1.78598 -1.04065 1.41534 -0.925779 1.16577C-0.898191 1.10574 -0.872922 1.05276 -0.850583 1.00705C-0.826413 0.957825 -0.805661 0.917023 -0.78906 0.88501C-0.773069 0.854187 -0.76074 0.831482 -0.753049 0.81723L-0.744626 0.802246L-0.743161 0.799561C-0.743161 0.799561 -0.743406 0.799866 -0.864743 0.730164L-1.17688 0.550781C-1.42932 0.405487 -1.53491 0.345062 -1.5791 0.320129C-1.61072 0.302246 -1.61108 0.302917 -1.61108 0.302917L-1.61242 0.305267L-1.61657 0.312469L-1.63 0.3367C-1.64123 0.357208 -1.65686 0.386353 -1.67639 0.42392C-1.69665 0.462891 -1.72107 0.510895 -1.74878 0.567627L-1.77356 0.618744C-1.7926 0.658234 -1.81286 0.701263 -1.83423 0.747742C-1.96301 1.02777 -2.13269 1.43381 -2.30163 1.94812C-2.6394 2.97601 -2.97595 4.44156 -2.97485 6.1998C-2.97253 9.73669 -1.60315 14.3923 3.71302 19.0043C9.01075 23.6003 18.2158 28.1443 33.8774 31.5424C49.5447 34.9418 71.7102 37.2025 102.967 37.2025C175.432 37.2025 285.927 28.1635 396.39 19.127L396.391 19.1269L396.415 19.125C506.905 10.0863 617.361 1.05078 689.78 1.05078C740.773 1.05078 777.859 7.15771 807.992 16.3097C838.129 25.4626 861.329 37.6658 884.568 49.8908L884.58 49.8971C907.812 62.1187 931.086 74.3617 961.318 83.5438C991.559 92.7284 1028.74 98.8459 1079.82 98.8459Z" fill="url(#paint14_linear_1344_9939)"/>
    </g>
    <defs>
        <linearGradient id="paint0_linear_1344_9939" x1="437.018" y1="0.933591" x2="685.689" y2="640.953" gradientUnits="userSpaceOnUse">
            <stop stop-color="#DAEBFF"/>
            <stop offset="1" stop-color="#EDF5FF"/>
        </linearGradient>
        <linearGradient id="paint1_linear_1344_9939" x1="684.495" y1="122.186" x2="684.944" y2="-0.0735393" gradientUnits="userSpaceOnUse">
            <stop stop-color="#1F3891" stop-opacity="0"/>
            <stop offset="1" stop-color="#1F3891"/>
        </linearGradient>
        <linearGradient id="paint2_linear_1344_9939" x1="684.495" y1="122.186" x2="684.944" y2="-0.0735393" gradientUnits="userSpaceOnUse">
            <stop stop-color="#1F3891" stop-opacity="0"/>
            <stop offset="1" stop-color="#1F3891"/>
        </linearGradient>
        <linearGradient id="paint3_linear_1344_9939" x1="684.495" y1="122.186" x2="684.944" y2="-0.0735393" gradientUnits="userSpaceOnUse">
            <stop stop-color="#1F3891" stop-opacity="0"/>
            <stop offset="1" stop-color="#1F3891"/>
        </linearGradient>
        <linearGradient id="paint4_linear_1344_9939" x1="684.495" y1="122.186" x2="684.944" y2="-0.0735393" gradientUnits="userSpaceOnUse">
            <stop stop-color="#1F3891" stop-opacity="0"/>
            <stop offset="1" stop-color="#1F3891"/>
        </linearGradient>
        <linearGradient id="paint5_linear_1344_9939" x1="684.495" y1="122.186" x2="684.944" y2="-0.0735393" gradientUnits="userSpaceOnUse">
            <stop stop-color="#1F3891" stop-opacity="0"/>
            <stop offset="1" stop-color="#1F3891"/>
        </linearGradient>
        <linearGradient id="paint6_linear_1344_9939" x1="684.495" y1="122.186" x2="684.944" y2="-0.0735393" gradientUnits="userSpaceOnUse">
            <stop stop-color="#1F3891" stop-opacity="0"/>
            <stop offset="1" stop-color="#1F3891"/>
        </linearGradient>
        <linearGradient id="paint7_linear_1344_9939" x1="684.495" y1="122.186" x2="684.944" y2="-0.0735393" gradientUnits="userSpaceOnUse">
            <stop stop-color="#1F3891" stop-opacity="0"/>
            <stop offset="1" stop-color="#1F3891"/>
        </linearGradient>
        <linearGradient id="paint8_linear_1344_9939" x1="684.495" y1="122.186" x2="684.944" y2="-0.0735393" gradientUnits="userSpaceOnUse">
            <stop stop-color="#1F3891" stop-opacity="0"/>
            <stop offset="1" stop-color="#1F3891"/>
        </linearGradient>
        <linearGradient id="paint9_linear_1344_9939" x1="684.495" y1="122.186" x2="684.944" y2="-0.0735393" gradientUnits="userSpaceOnUse">
            <stop stop-color="#1F3891" stop-opacity="0"/>
            <stop offset="1" stop-color="#1F3891"/>
        </linearGradient>
        <linearGradient id="paint10_linear_1344_9939" x1="684.495" y1="122.186" x2="684.944" y2="-0.0735393" gradientUnits="userSpaceOnUse">
            <stop stop-color="#1F3891" stop-opacity="0"/>
            <stop offset="1" stop-color="#1F3891"/>
        </linearGradient>
        <linearGradient id="paint11_linear_1344_9939" x1="684.495" y1="122.186" x2="684.944" y2="-0.0735393" gradientUnits="userSpaceOnUse">
            <stop stop-color="#1F3891" stop-opacity="0"/>
            <stop offset="1" stop-color="#1F3891"/>
        </linearGradient>
        <linearGradient id="paint12_linear_1344_9939" x1="684.495" y1="122.186" x2="684.944" y2="-0.0735393" gradientUnits="userSpaceOnUse">
            <stop stop-color="#1F3891" stop-opacity="0"/>
            <stop offset="1" stop-color="#1F3891"/>
        </linearGradient>
        <linearGradient id="paint13_linear_1344_9939" x1="684.495" y1="122.186" x2="684.944" y2="-0.0735393" gradientUnits="userSpaceOnUse">
            <stop stop-color="#1F3891" stop-opacity="0"/>
            <stop offset="1" stop-color="#1F3891"/>
        </linearGradient>
        <linearGradient id="paint14_linear_1344_9939" x1="684.495" y1="122.186" x2="684.944" y2="-0.0735393" gradientUnits="userSpaceOnUse">
            <stop stop-color="#1F3891" stop-opacity="0"/>
            <stop offset="1" stop-color="#1F3891"/>
        </linearGradient>
        <clipPath id="clip0_1344_9939">
            <rect width="1440" height="248" fill="white"/>
        </clipPath>
    </defs>
</svg>
