<svg
                                        width="24"
                                        height="24"
                                        viewBox="0 0 24 24"
                                        fill="none"
                                        xmlns="http://www.w3.org/2000/svg"
                                    >
                                        <path
                                            d="M14.0057 14.6797C13.4086 15.0777 12.7151 15.2881 12 15.2881C11.285 15.2881 10.5914 15.0777 9.99431 14.6797L0.159797 8.12311C0.105234 8.08674 0.0520781 8.04881 0 8.00981V18.7534C0 19.9852 0.999609 20.9628 2.20936 20.9628H21.7906C23.0224 20.9628 24 19.9632 24 18.7534V8.00977C23.9478 8.04886 23.8945 8.08688 23.8398 8.1233L14.0057 14.6797Z"
                                            fill="#4360f8"
                                        />
                                        <path
                                            d="M0.939844 6.95353L10.7744 13.5101C11.1466 13.7583 11.5733 13.8824 12 13.8824C12.4267 13.8824 12.8534 13.7583 13.2256 13.5101L23.0602 6.95353C23.6487 6.56142 24 5.90517 24 5.19689C24 3.97903 23.0092 2.98828 21.7914 2.98828H2.20861C0.990797 2.98833 0 3.97908 0 5.19806C0 5.90517 0.351375 6.56142 0.939844 6.95353Z"
                                            fill="#4360f8"
                                        />
                                    </svg>