<svg width="24" height="24" viewBox="0 0 24 24" fill="none"
  xmlns="http://www.w3.org/2000/svg">
  <path d="M12.7874 17.5809C12.8923 17.6854 12.9755 17.8096 13.0323 17.9463C13.0891 18.0831 13.1183 18.2297 13.1183 18.3777C13.1183 18.5258 13.0891 18.6724 13.0323 18.8092C12.9755 18.9459 12.8923 19.0701 12.7874 19.1746L12.2306 19.7315C11.1753 20.7867 9.74412 21.3795 8.2518 21.3795C6.75948 21.3795 5.32828 20.7867 4.27305 19.7315C3.21782 18.6762 2.625 17.245 2.625 15.7527C2.625 14.2604 3.21782 12.8292 4.27305 11.774L6.5343 9.51367C7.54819 8.49727 8.91234 7.907 10.3473 7.86378C11.7823 7.82055 13.1795 8.32764 14.2527 9.28117C14.3635 9.37966 14.4539 9.49901 14.5185 9.63241C14.5832 9.7658 14.621 9.91063 14.6297 10.0586C14.6384 10.2066 14.6179 10.3549 14.5693 10.4949C14.5207 10.635 14.445 10.7641 14.3465 10.8749C14.248 10.9857 14.1286 11.076 13.9953 11.1407C13.8619 11.2054 13.717 11.2432 13.569 11.2519C13.421 11.2606 13.2728 11.24 13.1327 11.1915C12.9927 11.1429 12.8635 11.0672 12.7527 10.9687C12.1092 10.3971 11.2715 10.093 10.4112 10.1186C9.5508 10.1443 8.73273 10.4976 8.1243 11.1065L5.86493 13.364C5.23189 13.997 4.87625 14.8556 4.87625 15.7509C4.87625 16.6461 5.23189 17.5047 5.86493 18.1377C6.49797 18.7708 7.35655 19.1264 8.2518 19.1264C9.14705 19.1264 10.0056 18.7708 10.6387 18.1377L11.1956 17.5809C11.3 17.4763 11.4241 17.3933 11.5607 17.3367C11.6973 17.28 11.8436 17.2509 11.9915 17.2509C12.1393 17.2509 12.2857 17.28 12.4223 17.3367C12.5589 17.3933 12.6829 17.4763 12.7874 17.5809ZM19.7324 4.26836C18.6763 3.21475 17.2455 2.62305 15.7537 2.62305C14.2619 2.62305 12.831 3.21475 11.7749 4.26836L11.2181 4.82523C11.0067 5.03658 10.888 5.32322 10.888 5.62211C10.888 5.92099 11.0067 6.20764 11.2181 6.41898C11.4294 6.63033 11.716 6.74906 12.0149 6.74906C12.3138 6.74906 12.6005 6.63033 12.8118 6.41898L13.3687 5.86211C14.0017 5.22907 14.8603 4.87343 15.7556 4.87343C16.6508 4.87343 17.5094 5.22907 18.1424 5.86211C18.7755 6.49514 19.1311 7.35373 19.1311 8.24898C19.1311 9.14423 18.7755 10.0028 18.1424 10.6359L15.8821 12.8971C15.2732 13.5057 14.4546 13.8586 13.5941 13.8835C12.7335 13.9084 11.8959 13.6035 11.2527 13.0312C11.1419 12.9327 11.0128 12.857 10.8728 12.8084C10.7327 12.7598 10.5844 12.7393 10.4364 12.748C10.2885 12.7567 10.1436 12.7944 10.0102 12.8591C9.87683 12.9238 9.75748 13.0141 9.65899 13.1249C9.5605 13.2357 9.4848 13.3648 9.4362 13.5049C9.38761 13.645 9.36708 13.7932 9.37579 13.9412C9.38449 14.0892 9.42226 14.234 9.48694 14.3674C9.55162 14.5008 9.64194 14.6202 9.75274 14.7187C10.8252 15.672 12.2215 16.1794 13.6558 16.137C15.0901 16.0947 16.454 15.5058 17.4684 14.4909L19.7296 12.2305C20.7845 11.1747 21.3772 9.74344 21.3777 8.25097C21.3783 6.7585 20.7865 5.32681 19.7324 4.27023V4.26836Z" fill="#F84343" />
</svg>