<svg width="416" height="68" viewBox="0 0 416 68" fill="none" xmlns="http://www.w3.org/2000/svg">
  <path fill-rule="evenodd" clip-rule="evenodd" d="M103.722 0.233398C97.2591 0.233398 87.5012 2.14364 76.5116 5.00219C65.5179 7.86183 53.278 11.6743 41.8453 15.4861C30.4123 19.298 19.785 23.1098 12.0159 25.9687C8.13138 27.3981 4.96133 28.5893 2.76235 29.4232C1.66287 29.8401 0.80614 30.1677 0.224249 30.3911C-0.0666961 30.5028 -0.288933 30.5884 -0.438454 30.6461L-0.607695 30.7115L-0.650473 30.7281L-0.661237 30.7323L-0.663942 30.7333C-0.664548 30.7336 -0.664855 30.7337 -0.612573 30.8684C-0.56029 31.0031 -0.559998 31.003 -0.559407 31.0028L-0.556731 31.0017L-0.546026 30.9976L-0.503367 30.9811L-0.334368 30.9158C-0.185012 30.8581 0.0370567 30.7725 0.327829 30.6609C0.909373 30.4376 1.76573 30.1102 2.86483 29.6934C5.06303 28.8598 8.23219 27.6689 12.1157 26.2399C19.8829 23.3817 30.5074 19.571 41.9367 15.7602C53.3664 11.9494 65.5995 8.13923 76.5844 5.2819C87.5734 2.42348 97.2996 0.522408 103.722 0.522408C118.458 0.522408 129.176 2.42628 137.884 5.27937C146.593 8.13281 153.297 11.9372 160.014 15.7488L160.018 15.751C166.732 19.5613 173.459 23.3786 182.197 26.2416C190.938 29.1055 201.686 31.0129 216.449 31.0129C237.393 31.0129 269.328 28.1947 301.253 25.3773L301.26 25.3767C333.194 22.5586 365.117 19.7415 386.047 19.7415C395.068 19.7415 401.451 20.4456 405.951 21.4989C410.452 22.5525 413.059 23.9531 414.539 25.3382C416.014 26.7191 416.376 28.0895 416.376 29.1073C416.377 29.6187 416.286 30.0446 416.195 30.342C416.15 30.4906 416.105 30.6068 416.072 30.6851C416.055 30.7243 416.041 30.7539 416.032 30.7734C416.029 30.779 416.027 30.7837 416.025 30.7876L416.021 30.7948L416.019 30.7996L416.018 30.8005L416.034 30.8089L416.146 30.8684C416.273 30.9364 416.273 30.9362 416.273 30.936L416.274 30.9353L416.275 30.9331L416.279 30.9257C416.282 30.9194 416.286 30.9104 416.292 30.8988C416.303 30.8756 416.319 30.8419 416.337 30.7985C416.374 30.7117 416.423 30.5858 416.472 30.4262C416.569 30.1072 416.666 29.6525 416.665 29.1072C416.665 28.0117 416.272 26.5642 414.737 25.1272C413.206 23.6945 410.545 22.2773 406.017 21.2175C401.488 20.1574 395.081 19.4525 386.047 19.4525C365.102 19.4525 333.167 22.2708 301.242 25.0882L301.235 25.0888C269.302 27.9069 237.379 30.7239 216.449 30.7239C201.713 30.7239 190.995 28.82 182.287 25.9669C173.578 23.1135 166.873 19.3091 160.157 15.4975L160.153 15.4953C153.439 11.685 146.712 7.8677 137.974 5.00472C129.233 2.14084 118.484 0.233398 103.722 0.233398ZM76.5116 11.0712C87.5012 8.21263 97.2591 6.30239 103.722 6.30239C118.484 6.30239 129.233 8.20983 137.974 11.0737C146.712 13.9367 153.439 17.754 160.153 21.5643L160.157 21.5665C166.873 25.3781 173.578 29.1825 182.287 32.0359C190.995 34.889 201.713 36.7929 216.449 36.7929C237.379 36.7929 269.302 33.9759 301.235 31.1578L301.242 31.1571C333.167 28.3398 365.102 25.5215 386.047 25.5215C395.081 25.5215 401.488 26.2264 406.017 27.2865C410.545 28.3463 413.206 29.7635 414.737 31.1962C416.272 32.6332 416.665 34.0806 416.665 35.1762C416.666 35.7215 416.569 36.1762 416.472 36.4952C416.423 36.6548 416.374 36.7807 416.337 36.8675C416.319 36.9109 416.303 36.9446 416.292 36.9678L416.284 36.9833L416.279 36.9947L416.275 37.0021L416.274 37.0043L416.273 37.005C416.273 37.0051 416.273 37.0052 416.247 36.991C416.228 36.9814 416.197 36.965 416.146 36.9374C416.018 36.8694 416.018 36.8695 416.018 36.8695L416.019 36.8686L416.021 36.8638C416.023 36.8593 416.027 36.8521 416.032 36.8424C416.037 36.8303 416.045 36.8144 416.054 36.7947C416.059 36.7826 416.065 36.769 416.072 36.7541C416.105 36.6758 416.15 36.5596 416.195 36.411C416.286 36.1136 416.377 35.6877 416.376 35.1763C416.376 34.1585 416.014 32.7881 414.539 31.4072C413.059 30.0221 410.452 28.6215 405.951 27.5679C401.451 26.5146 395.068 25.8105 386.047 25.8105C365.117 25.8105 333.194 28.6276 301.26 31.4457L301.253 31.4463C269.328 34.2637 237.393 37.0819 216.449 37.0819C201.686 37.0819 190.938 35.1745 182.197 32.3106C173.459 29.4476 166.732 25.6303 160.018 21.82L160.014 21.8178C153.297 18.0062 146.593 14.2018 137.884 11.3484C129.176 8.49527 118.458 6.5914 103.722 6.5914C97.2996 6.5914 87.5734 8.49247 76.5844 11.3509C65.5995 14.2082 53.3664 18.0184 41.9367 21.8292C30.5074 25.6399 19.8829 29.4507 12.1157 32.3089C8.23219 33.7379 5.06303 34.9288 2.86483 35.7624C1.76573 36.1792 0.909373 36.5066 0.327829 36.7299C0.0370567 36.8415 -0.185012 36.9271 -0.334368 36.9847L-0.503367 37.0501L-0.546026 37.0666L-0.556731 37.0707L-0.559407 37.0718C-0.559998 37.072 -0.56029 37.0721 -0.612573 36.9374C-0.664855 36.8027 -0.664548 36.8026 -0.663942 36.8023L-0.661237 36.8013L-0.650473 36.7971L-0.607695 36.7805L-0.438454 36.7151C-0.288933 36.6574 -0.0666961 36.5718 0.224249 36.4601C0.80614 36.2367 1.66287 35.9091 2.76235 35.4921C4.96133 34.6583 8.13138 33.4671 12.0159 32.0376C19.785 29.1788 30.4123 25.367 41.8453 21.5551C53.278 17.7432 65.5179 13.9308 76.5116 11.0712ZM103.722 12.3718C97.2591 12.3718 87.5012 14.2821 76.5116 17.1406C65.5179 20.0002 53.278 23.8127 41.8453 27.6245C30.4123 31.4364 19.785 35.2482 12.0159 38.1071C8.13138 39.5365 4.96133 40.7277 2.76235 41.5616C1.66287 41.9785 0.80614 42.3061 0.224249 42.5295C-0.0666961 42.6412 -0.288933 42.7268 -0.438454 42.7845L-0.607695 42.85L-0.650473 42.8665L-0.661237 42.8707L-0.663942 42.8717C-0.664548 42.872 -0.664855 42.8721 -0.612573 43.0068C-0.56029 43.1415 -0.559998 43.1414 -0.559407 43.1412L-0.556731 43.1402L-0.546026 43.136L-0.503367 43.1195L-0.334368 43.0542C-0.185012 42.9965 0.0370567 42.9109 0.327829 42.7993C0.909373 42.576 1.76573 42.2486 2.86483 41.8318C5.06303 40.9982 8.23219 39.8074 12.1157 38.3783C19.8829 35.5201 30.5074 31.7094 41.9367 27.8987C53.3664 24.0878 65.5995 20.2776 76.5844 17.4203C87.5734 14.5619 97.2996 12.6608 103.722 12.6608C118.458 12.6608 129.176 14.5647 137.884 17.4178C146.593 20.2712 153.297 24.0757 160.014 27.8872L160.018 27.8894C166.732 31.6997 173.459 35.517 182.197 38.38C190.938 41.2439 201.686 43.1513 216.449 43.1513C237.393 43.1513 269.328 40.3331 301.253 37.5157L301.26 37.5151C333.194 34.697 365.117 31.88 386.047 31.88C395.068 31.88 401.451 32.584 405.951 33.6373C410.452 34.6909 413.059 36.0915 414.539 37.4766C416.014 38.8575 416.376 40.2279 416.376 41.2458C416.377 41.7571 416.286 42.183 416.195 42.4804C416.15 42.629 416.105 42.7452 416.072 42.8235C416.055 42.8627 416.041 42.8923 416.032 42.9118C416.027 42.9215 416.023 42.9287 416.021 42.9332L416.019 42.938L416.018 42.9389C416.018 42.9389 416.018 42.9388 416.146 43.0068C416.273 43.0748 416.273 43.0746 416.273 43.0744L416.274 43.0737L416.275 43.0715L416.279 43.0641C416.282 43.0578 416.286 43.0488 416.292 43.0372C416.303 43.014 416.319 42.9803 416.337 42.9369C416.374 42.8501 416.423 42.7242 416.472 42.5646C416.569 42.2456 416.666 41.791 416.665 41.2456C416.665 40.1501 416.272 38.7026 414.737 37.2656C413.206 35.8329 410.545 34.4157 406.017 33.3559C401.488 32.2958 395.081 31.5909 386.047 31.5909C365.102 31.5909 333.167 34.4092 301.242 37.2266L301.235 37.2272C269.302 40.0453 237.379 42.8623 216.449 42.8623C201.713 42.8623 190.995 40.9584 182.287 38.1054C173.578 35.2519 166.873 31.4475 160.157 27.6359L160.153 27.6337C153.439 23.8234 146.712 20.0061 137.974 17.1431C129.233 14.2792 118.484 12.3718 103.722 12.3718ZM76.5116 23.2096C87.5012 20.351 97.2591 18.4408 103.722 18.4408C118.484 18.4408 129.233 20.3482 137.974 23.2121C146.712 26.0751 153.439 29.8924 160.153 33.7027L160.157 33.7049C166.873 37.5165 173.578 41.3209 182.287 44.1743C190.995 47.0274 201.713 48.9313 216.449 48.9313C237.379 48.9313 269.302 46.1143 301.235 43.2962L301.242 43.2956C333.167 40.4782 365.102 37.6599 386.047 37.6599C395.081 37.6599 401.488 38.3648 406.017 39.4249C410.545 40.4847 413.206 41.9019 414.737 43.3346C416.272 44.7716 416.665 46.2191 416.665 47.3146C416.666 47.8599 416.569 48.3146 416.472 48.6336C416.423 48.7932 416.374 48.9191 416.337 49.0059C416.319 49.0493 416.303 49.083 416.292 49.1062C416.286 49.1178 416.282 49.1268 416.279 49.1331L416.275 49.1405L416.274 49.1427L416.273 49.1434C416.273 49.1436 416.273 49.1438 416.146 49.0758C416.018 49.0078 416.018 49.0079 416.018 49.0079L416.019 49.007L416.021 49.0022L416.026 48.9922L416.032 48.9808C416.037 48.9693 416.044 48.9542 416.053 48.9358C416.058 48.923 416.065 48.9085 416.072 48.8925C416.105 48.8142 416.15 48.698 416.195 48.5494C416.286 48.252 416.377 47.8261 416.376 47.3147C416.376 46.2969 416.014 44.9265 414.539 43.5456C413.059 42.1605 410.452 40.7599 405.951 39.7063C401.451 38.653 395.068 37.9489 386.047 37.9489C365.117 37.9489 333.194 40.766 301.26 43.5841L301.253 43.5847C269.328 46.4021 237.393 49.2203 216.449 49.2203C201.686 49.2203 190.938 47.3129 182.197 44.449C173.459 41.586 166.732 37.7687 160.018 33.9584L160.014 33.9562C153.297 30.1446 146.593 26.3402 137.884 23.4868C129.176 20.6337 118.458 18.7298 103.722 18.7298C97.2996 18.7298 87.5734 20.6309 76.5844 23.4893C65.5995 26.3466 53.3664 30.1568 41.9367 33.9676C30.5074 37.7784 19.8829 41.5891 12.1157 44.4473C8.23219 45.8763 5.06303 47.0672 2.86483 47.9008C1.76573 48.3176 0.909373 48.645 0.327829 48.8683C0.0370567 48.9799 -0.185012 49.0655 -0.334368 49.1232L-0.503367 49.1885L-0.546026 49.205L-0.556731 49.2091L-0.559407 49.2102C-0.559998 49.2104 -0.56029 49.2105 -0.612573 49.0758C-0.664855 48.9411 -0.664548 48.941 -0.663942 48.9407L-0.661237 48.9397L-0.650473 48.9355L-0.607695 48.919L-0.438454 48.8535C-0.288933 48.7958 -0.0666961 48.7102 0.224249 48.5985C0.80614 48.3751 1.66287 48.0475 2.76235 47.6306C4.96133 46.7967 8.13138 45.6055 12.0159 44.1761C19.785 41.3172 30.4123 37.5054 41.8453 33.6935C53.278 29.8817 65.5179 26.0692 76.5116 23.2096ZM103.722 24.51C97.2591 24.51 87.5012 26.4203 76.5116 29.2788C65.5179 32.1384 53.278 35.9509 41.8453 39.7627C30.4123 43.5746 19.785 47.3864 12.0159 50.2453C8.13138 51.6747 4.96133 52.8659 2.76235 53.6998C1.66287 54.1167 0.80614 54.4443 0.224249 54.6677C-0.0666961 54.7794 -0.288933 54.865 -0.438454 54.9227L-0.607695 54.9882L-0.650473 55.0047L-0.661237 55.0089L-0.663942 55.0099C-0.664548 55.0102 -0.664855 55.0103 -0.612573 55.145C-0.56029 55.2797 -0.559998 55.2796 -0.559407 55.2794L-0.556731 55.2784L-0.546026 55.2742L-0.503367 55.2577L-0.334368 55.1924C-0.185012 55.1347 0.0370567 55.0491 0.327829 54.9375C0.909373 54.7142 1.76573 54.3868 2.86483 53.97C5.06303 53.1364 8.23219 51.9455 12.1157 50.5165C19.8829 47.6583 30.5074 43.8476 41.9367 40.0368C53.3664 36.226 65.5995 32.4158 76.5844 29.5585C87.5734 26.7001 97.2996 24.799 103.722 24.799C118.458 24.799 129.176 26.7029 137.884 29.556C146.593 32.4094 153.297 36.2139 160.014 40.0254L160.018 40.0276C166.732 43.8379 173.459 47.6552 182.197 50.5182C190.938 53.3821 201.686 55.2895 216.449 55.2895C237.393 55.2895 269.328 52.4713 301.253 49.6539L301.26 49.6533C333.194 46.8352 365.117 44.0182 386.047 44.0182C395.068 44.0182 401.451 44.7222 405.951 45.7755C410.452 46.8291 413.059 48.2298 414.539 49.6148C416.014 50.9957 416.376 52.3661 416.376 53.384C416.377 53.8953 416.286 54.3212 416.195 54.6186C416.15 54.7672 416.105 54.8834 416.072 54.9617C416.065 54.9777 416.058 54.992 416.053 55.0048C416.044 55.0233 416.037 55.0384 416.032 55.05L416.027 55.0603L416.021 55.0714L416.019 55.0762L416.018 55.0771C416.018 55.0771 416.018 55.077 416.146 55.145C416.273 55.213 416.273 55.2128 416.273 55.2126L416.274 55.2119L416.275 55.2097L416.279 55.2023C416.282 55.196 416.286 55.187 416.292 55.1754C416.303 55.1522 416.319 55.1185 416.337 55.0751C416.374 54.9883 416.423 54.8624 416.472 54.7028C416.569 54.3838 416.666 53.9292 416.665 53.3838C416.665 52.2883 416.272 50.8408 414.737 49.4038C413.206 47.9711 410.545 46.5539 406.017 45.4941C401.488 44.434 395.081 43.7291 386.047 43.7291C365.102 43.7291 333.167 46.5474 301.242 49.3648L301.235 49.3654C269.302 52.1835 237.379 55.0005 216.449 55.0005C201.713 55.0005 190.995 53.0966 182.287 50.2436C173.578 47.3901 166.873 43.5857 160.157 39.7741L160.153 39.7719C153.439 35.9616 146.712 32.1443 137.974 29.2813C129.233 26.4174 118.484 24.51 103.722 24.51ZM76.5116 35.3482C87.5012 32.4897 97.2591 30.5794 103.722 30.5794C118.484 30.5794 129.233 32.4869 137.974 35.3507C146.712 38.2137 153.439 42.031 160.153 45.8413L160.157 45.8435C166.873 49.6551 173.578 53.4595 182.287 56.313C190.995 59.1661 201.713 61.0699 216.449 61.0699C237.379 61.0699 269.302 58.2529 301.235 55.4348L301.242 55.4342L301.243 55.4341C333.168 52.6168 365.103 49.7986 386.047 49.7986C395.081 49.7986 401.488 50.5034 406.017 51.5635C410.545 52.6233 413.206 54.0405 414.737 55.4732C416.272 56.9102 416.665 58.3577 416.665 59.4532C416.666 59.9986 416.569 60.4532 416.472 60.7722C416.423 60.9318 416.374 61.0578 416.337 61.1446C416.319 61.188 416.303 61.2216 416.292 61.2448C416.286 61.2564 416.282 61.2654 416.279 61.2717L416.275 61.2791L416.274 61.2813L416.273 61.282C416.273 61.2822 416.273 61.2824 416.146 61.2144L416.03 61.1531L416.018 61.1465L416.019 61.1456L416.021 61.1408C416.023 61.1363 416.027 61.1291 416.032 61.1194C416.041 61.0999 416.055 61.0703 416.072 61.0312C416.105 60.9528 416.15 60.8366 416.195 60.688C416.286 60.3906 416.377 59.9647 416.376 59.4534C416.376 58.4355 416.014 57.0651 414.539 55.6843C413.059 54.2992 410.452 52.8985 405.951 51.8449C401.451 50.7916 395.068 50.0876 386.047 50.0876C365.117 50.0876 333.194 52.9046 301.26 55.7227L301.253 55.7233L301.253 55.7234C269.328 58.5407 237.393 61.3589 216.449 61.3589C201.686 61.3589 190.938 59.4515 182.197 56.5876C173.459 53.7246 166.732 49.9073 160.018 46.097L160.014 46.0949C153.297 42.2833 146.593 38.4788 137.884 35.6254C129.176 32.7723 118.458 30.8684 103.722 30.8684C97.2996 30.8684 87.5734 32.7695 76.5844 35.6279C65.5995 38.4853 53.3664 42.2955 41.9367 46.1063C30.5074 49.917 19.8829 53.7278 12.1157 56.5859C8.23219 58.015 5.06303 59.2058 2.86483 60.0394C1.76573 60.4562 0.909373 60.7837 0.327829 61.0069C0.0370567 61.1185 -0.185012 61.2041 -0.334368 61.2618L-0.503367 61.3271L-0.546026 61.3436L-0.556731 61.3478L-0.559407 61.3488C-0.559998 61.349 -0.56029 61.3492 -0.612573 61.2144C-0.664855 61.0797 -0.664548 61.0796 -0.663942 61.0794L-0.661237 61.0783L-0.650473 61.0741L-0.607695 61.0576L-0.438454 60.9922C-0.288933 60.9344 -0.0666961 60.8488 0.224249 60.7371C0.80614 60.5137 1.66287 60.1861 2.76235 59.7692C4.96133 58.9353 8.13138 57.7441 12.0159 56.3147C19.785 53.4559 30.4123 49.644 41.8453 45.8321C53.278 42.0203 65.5179 38.2079 76.5116 35.3482ZM76.5116 41.4172C87.5012 38.5587 97.2591 36.6484 103.722 36.6484C118.484 36.6484 129.233 38.5559 137.974 41.4197C146.712 44.2827 153.439 48.1 160.153 51.9103L160.157 51.9125C166.873 55.7241 173.578 59.5285 182.287 62.382C190.995 65.235 201.713 67.1389 216.449 67.1389C237.379 67.1389 269.302 64.3219 301.235 61.5038L301.242 61.5032C333.167 58.6858 365.102 55.8676 386.047 55.8676C395.081 55.8676 401.488 56.5724 406.017 57.6325C410.545 58.6923 413.206 60.1095 414.737 61.5422C416.272 62.9792 416.665 64.4267 416.665 65.5222C416.666 66.0676 416.569 66.5222 416.472 66.8412C416.423 67.0008 416.374 67.1268 416.337 67.2135C416.319 67.257 416.303 67.2906 416.292 67.3138C416.286 67.3254 416.282 67.3344 416.279 67.3407L416.275 67.3481L416.274 67.3503L416.273 67.351C416.273 67.3512 416.273 67.3514 416.146 67.2834C416.018 67.2154 416.018 67.2155 416.018 67.2155L416.019 67.2146L416.021 67.2098C416.023 67.2053 416.027 67.1981 416.032 67.1884C416.041 67.1689 416.055 67.1393 416.072 67.1001C416.105 67.0218 416.15 66.9056 416.195 66.757C416.286 66.4596 416.377 66.0337 416.376 65.5224C416.376 64.5045 416.014 63.1341 414.539 61.7533C413.059 60.3682 410.452 58.9675 405.951 57.9139C401.451 56.8606 395.068 56.1566 386.047 56.1566C365.117 56.1566 333.194 58.9736 301.26 61.7917L301.253 61.7923C269.328 64.6097 237.393 67.4279 216.449 67.4279C201.686 67.4279 190.938 65.5205 182.197 62.6566C173.459 59.7936 166.732 55.9763 160.018 52.166L160.014 52.1639C153.297 48.3523 146.593 44.5478 137.884 41.6944C129.176 38.8413 118.458 36.9374 103.722 36.9374C97.2996 36.9374 87.5734 38.8385 76.5844 41.6969C65.5995 44.5543 53.3664 48.3645 41.9367 52.1753C30.5074 55.986 19.8829 59.7968 12.1157 62.6549C8.23219 64.084 5.06303 65.2748 2.86483 66.1084C1.76573 66.5252 0.909373 66.8527 0.327829 67.0759C0.0370567 67.1875 -0.185012 67.2731 -0.334368 67.3308L-0.503367 67.3961L-0.546026 67.4126L-0.556731 67.4168L-0.559407 67.4178C-0.559998 67.418 -0.56029 67.4181 -0.612573 67.2834C-0.664855 67.1487 -0.664548 67.1486 -0.663942 67.1484L-0.661237 67.1473L-0.650473 67.1431L-0.607695 67.1266L-0.438454 67.0612C-0.288933 67.0034 -0.0666961 66.9178 0.224249 66.8061C0.80614 66.5827 1.66287 66.2551 2.76235 65.8382C4.96133 65.0043 8.13138 63.8131 12.0159 62.3837C19.785 59.5248 30.4123 55.713 41.8453 51.9011C53.278 48.0893 65.5179 44.2768 76.5116 41.4172Z" fill="url(#paint0_linear_323_55616)" />
  <defs>
    <linearGradient id="paint0_linear_323_55616" x1="227.486" y1="32.8129" x2="228.104" y2="67.0651" gradientUnits="userSpaceOnUse">
      <stop stop-color="#1F3891" stop-opacity="0" />
      <stop offset="1" stop-color="#1F3891" />
    </linearGradient>
  </defs>
</svg>