<svg width="416" height="60" viewBox="0 0 416 60" fill="none" xmlns="http://www.w3.org/2000/svg">
  <path fill-rule="evenodd" clip-rule="evenodd" d="M312.278 67.8281C318.741 67.8281 328.499 65.9179 339.488 63.0593C350.482 60.1997 362.722 56.3873 374.155 52.5755C385.588 48.7635 396.215 44.9517 403.984 42.0929C407.869 40.6634 411.039 39.4722 413.238 38.6384C414.337 38.2214 415.194 37.8938 415.776 37.6704C416.067 37.5587 416.289 37.4731 416.438 37.4154L416.608 37.35L416.65 37.3334L416.661 37.3292L416.664 37.3282C416.665 37.3279 416.665 37.3278 416.613 37.1931C416.56 37.0584 416.56 37.0585 416.559 37.0587L416.557 37.0598L416.546 37.0639L416.503 37.0805L416.334 37.1458C416.185 37.2034 415.963 37.289 415.672 37.4006C415.091 37.6239 414.234 37.9513 413.135 38.3681C410.937 39.2017 407.768 40.3926 403.884 41.8216C396.117 44.6798 385.493 48.4906 374.063 52.3013C362.634 56.1121 350.4 59.9223 339.416 62.7796C328.427 65.638 318.7 67.5391 312.278 67.5391C297.542 67.5391 286.824 65.6352 278.116 62.7822C269.407 59.9287 262.703 56.1243 255.986 52.3127L255.982 52.3105C249.268 48.5002 242.541 44.6829 233.803 41.8199C225.062 38.956 214.314 37.0486 199.551 37.0486C178.607 37.0486 146.672 39.8669 114.747 42.6842L114.74 42.6849C82.806 45.503 50.8832 48.32 29.9535 48.32C20.9322 48.32 14.5491 47.6159 10.0491 46.5626C5.5478 45.509 2.94096 44.1084 1.46095 42.7233C-0.0145126 41.3424 -0.375749 39.972 -0.376359 38.9542C-0.376665 38.4429 -0.285875 38.0169 -0.195299 37.7195C-0.150041 37.5709 -0.104936 37.4547 -0.0715194 37.3764C-0.0548263 37.3373 -0.0410629 37.3076 -0.031694 37.2882C-0.0270248 37.2784 -0.0234237 37.2713 -0.0211349 37.2667L-0.018663 37.2619L-0.0181747 37.261L-0.0340133 37.2526L-0.145738 37.1931C-0.273241 37.1251 -0.273332 37.1253 -0.273485 37.1255L-0.273851 37.1262L-0.27498 37.1284L-0.278795 37.1358C-0.281999 37.1421 -0.286485 37.1511 -0.29207 37.1627C-0.303239 37.1859 -0.318834 37.2196 -0.337358 37.263C-0.374376 37.3498 -0.423173 37.4758 -0.471757 37.6353C-0.568925 37.9543 -0.665697 38.409 -0.665361 38.9544C-0.66472 40.0499 -0.271989 41.4973 1.26347 42.9343C2.79439 44.3671 5.4554 45.7842 9.98317 46.844C14.5122 47.9041 20.9192 48.609 29.9535 48.609C50.8975 48.609 82.8326 45.7907 114.758 42.9734L114.765 42.9727C146.698 40.1546 178.621 37.3376 199.551 37.3376C214.287 37.3376 225.005 39.2415 233.713 42.0946C242.422 44.948 249.127 48.7525 255.843 52.564L255.847 52.5662C262.561 56.3765 269.288 60.1938 278.026 63.0568C286.767 65.9207 297.516 67.8281 312.278 67.8281ZM339.488 56.9903C328.499 59.8489 318.741 61.7591 312.278 61.7591C297.516 61.7591 286.767 59.8517 278.026 56.9878C269.288 54.1248 262.561 50.3075 255.847 46.4972L255.843 46.4951C249.127 42.6835 242.422 38.879 233.713 36.0256C225.005 33.1725 214.287 31.2686 199.551 31.2686C178.621 31.2686 146.698 34.0856 114.765 36.9038L114.758 36.9044C82.8326 39.7218 50.8975 42.54 29.9535 42.54C20.9192 42.54 14.5122 41.8351 9.98317 40.775C5.4554 39.7152 2.79439 38.2981 1.26347 36.8653C-0.271989 35.4283 -0.66472 33.9809 -0.665361 32.8854C-0.665697 32.34 -0.568925 31.8853 -0.471757 31.5663C-0.423173 31.4068 -0.374376 31.2808 -0.337358 31.194C-0.318834 31.1506 -0.303239 31.1169 -0.29207 31.0937L-0.284502 31.0783L-0.278795 31.0668L-0.27498 31.0594L-0.273851 31.0573L-0.273485 31.0566C-0.273393 31.0564 -0.273332 31.0563 -0.243822 31.0719C-0.225236 31.0817 -0.194994 31.0978 -0.145738 31.1241C-0.0182357 31.1921 -0.0181747 31.192 -0.0181747 31.192L-0.018663 31.1929L-0.0211349 31.1977C-0.0234237 31.2023 -0.0270248 31.2094 -0.031694 31.2192C-0.0410629 31.2386 -0.0548263 31.2683 -0.0715194 31.3074C-0.104936 31.3857 -0.150041 31.5019 -0.195299 31.6505C-0.285875 31.9479 -0.376665 32.3739 -0.376359 32.8852C-0.375749 33.9031 -0.0145126 35.2734 1.46095 36.6543C2.94096 38.0394 5.5478 39.44 10.0491 40.4936C14.5491 41.5469 20.9322 42.251 29.9535 42.251C50.8832 42.251 82.806 39.434 114.74 36.6159L114.747 36.6152C146.672 33.7979 178.607 30.9796 199.551 30.9796C214.314 30.9796 225.062 32.8871 233.803 35.7509C242.541 38.6139 249.268 42.4312 255.982 46.2415L255.986 46.2437C262.703 50.0553 269.407 53.8597 278.116 56.7132C286.824 59.5662 297.542 61.4701 312.278 61.4701C318.7 61.4701 328.427 59.5691 339.416 56.7106C350.4 53.8533 362.634 50.0431 374.063 46.2323C385.493 42.4216 396.117 38.6108 403.884 35.7526C407.768 34.3236 410.937 33.1327 413.135 32.2991C414.234 31.8824 415.091 31.5549 415.672 31.3316C415.963 31.22 416.185 31.1344 416.334 31.0768L416.503 31.0115L416.546 30.9949L416.557 30.9908L416.559 30.9897C416.56 30.9895 416.56 30.9894 416.613 31.1241C416.665 31.2588 416.665 31.259 416.664 31.2592L416.661 31.2602L416.65 31.2644L416.608 31.281L416.438 31.3464C416.289 31.4041 416.067 31.4898 415.776 31.6014C415.194 31.8248 414.337 32.1524 413.238 32.5694C411.039 33.4032 407.869 34.5944 403.984 36.0239C396.215 38.8827 385.588 42.6945 374.155 46.5065C362.722 50.3183 350.482 54.1307 339.488 56.9903ZM312.278 55.6897C318.741 55.6897 328.499 53.7795 339.488 50.9209C350.482 48.0613 362.722 44.2489 374.155 40.437C385.588 36.6251 396.215 32.8133 403.984 29.9545C407.869 28.525 411.039 27.3338 413.238 26.5C414.337 26.083 415.194 25.7554 415.776 25.532C416.067 25.4203 416.289 25.3347 416.438 25.277L416.608 25.2116L416.65 25.195L416.661 25.1908L416.664 25.1898C416.665 25.1895 416.665 25.1894 416.613 25.0547C416.56 24.92 416.56 24.9201 416.559 24.9203L416.557 24.9214L416.546 24.9255L416.503 24.942L416.334 25.0074C416.185 25.065 415.963 25.1506 415.672 25.2622C415.091 25.4855 414.234 25.8129 413.135 26.2297C410.937 27.0633 407.768 28.2542 403.884 29.6832C396.117 32.5414 385.493 36.3522 374.063 40.1629C362.634 43.9737 350.4 47.7839 339.416 50.6412C328.427 53.4996 318.7 55.4007 312.278 55.4007C297.542 55.4007 286.824 53.4968 278.116 50.6437C269.407 47.7903 262.703 43.9859 255.986 40.1743L255.982 40.1721C249.268 36.3618 242.541 32.5445 233.803 29.6815C225.062 26.8176 214.314 24.9102 199.551 24.9102C178.607 24.9102 146.672 27.7284 114.747 30.5458L114.74 30.5464C82.806 33.3645 50.8832 36.1816 29.9535 36.1816C20.9322 36.1816 14.5491 35.4775 10.0491 34.4242C5.5478 33.3706 2.94096 31.97 1.46095 30.5849C-0.0145126 29.204 -0.375749 27.8336 -0.376359 26.8158C-0.376665 26.3044 -0.285875 25.8785 -0.195299 25.5811C-0.150041 25.4325 -0.104936 25.3163 -0.0715194 25.238C-0.0548263 25.1988 -0.0410629 25.1692 -0.031694 25.1497C-0.0270248 25.14 -0.0234237 25.1328 -0.0211349 25.1283L-0.018663 25.1235L-0.0181747 25.1226C-0.0181747 25.1226 -0.0182357 25.1227 -0.145738 25.0547C-0.273241 24.9867 -0.273332 24.9869 -0.273485 24.9871L-0.273851 24.9878L-0.27498 24.99L-0.278795 24.9974L-0.282487 25.0048L-0.29207 25.0243C-0.303239 25.0475 -0.318834 25.0812 -0.337358 25.1246C-0.374376 25.2114 -0.423173 25.3373 -0.471757 25.4969C-0.568925 25.8159 -0.665697 26.2706 -0.665361 26.8159C-0.66472 27.9115 -0.271989 29.3589 1.26347 30.7959C2.79439 32.2286 5.4554 33.6458 9.98317 34.7056C14.5122 35.7657 20.9192 36.4706 29.9535 36.4706C50.8975 36.4706 82.8326 33.6523 114.758 30.835L114.765 30.8343C146.698 28.0162 178.621 25.1992 199.551 25.1992C214.287 25.1992 225.005 27.1031 233.713 29.9562C242.422 32.8096 249.127 36.614 255.843 40.4256L255.847 40.4278C262.561 44.2381 269.288 48.0554 278.026 50.9184C286.767 53.7823 297.516 55.6897 312.278 55.6897ZM339.488 44.8519C328.499 47.7105 318.741 49.6207 312.278 49.6207C297.516 49.6207 286.767 47.7133 278.026 44.8494C269.288 41.9864 262.561 38.1691 255.847 34.3588L255.843 34.3566C249.127 30.545 242.422 26.7406 233.713 23.8872C225.005 21.0341 214.287 19.1302 199.551 19.1302C178.621 19.1302 146.698 21.9472 114.765 24.7653L114.758 24.766C82.8326 27.5833 50.8975 30.4016 29.9535 30.4016C20.9192 30.4016 14.5122 29.6967 9.98317 28.6366C5.4554 27.5768 2.79439 26.1596 1.26347 24.7269C-0.271989 23.2899 -0.66472 21.8425 -0.665361 20.7469C-0.665697 20.2016 -0.568925 19.7469 -0.471757 19.4279C-0.423173 19.2683 -0.374376 19.1424 -0.337358 19.0556C-0.318834 19.0122 -0.303239 18.9785 -0.29207 18.9553C-0.286485 18.9437 -0.281999 18.9347 -0.278795 18.9284L-0.27498 18.921L-0.273851 18.9188L-0.273485 18.9181C-0.273332 18.9179 -0.273241 18.9177 -0.145738 18.9857C-0.0182357 19.0537 -0.0181747 19.0536 -0.0181747 19.0536L-0.018663 19.0545L-0.0211349 19.0593L-0.0261398 19.0693L-0.031694 19.0808C-0.0372177 19.0922 -0.0442977 19.1073 -0.0525985 19.1258C-0.0583358 19.1386 -0.0646835 19.153 -0.0715194 19.169C-0.104936 19.2473 -0.150041 19.3635 -0.195299 19.5121C-0.285875 19.8095 -0.376665 20.2355 -0.376359 20.7468C-0.375749 21.7646 -0.0145126 23.135 1.46095 24.5159C2.94096 25.901 5.5478 27.3016 10.0491 28.3552C14.5491 29.4085 20.9322 30.1126 29.9535 30.1126C50.8832 30.1126 82.806 27.2956 114.74 24.4774L114.747 24.4768C146.672 21.6594 178.607 18.8412 199.551 18.8412C214.314 18.8412 225.062 20.7486 233.803 23.6125C242.541 26.4755 249.268 30.2928 255.982 34.1031L255.986 34.1053C262.703 37.9169 269.407 41.7213 278.116 44.5747C286.824 47.4278 297.542 49.3317 312.278 49.3317C318.7 49.3317 328.427 47.4306 339.416 44.5722C350.4 41.7149 362.634 37.9047 374.063 34.0939C385.493 30.2832 396.117 26.4724 403.884 23.6142C407.768 22.1852 410.937 20.9943 413.135 20.1607C414.234 19.7439 415.091 19.4165 415.672 19.1932C415.963 19.0816 416.185 18.996 416.334 18.9384L416.503 18.873L416.546 18.8565L416.557 18.8524L416.559 18.8513C416.56 18.8511 416.56 18.851 416.613 18.9857C416.665 19.1204 416.665 19.1205 416.664 19.1208L416.661 19.1218L416.65 19.126L416.608 19.1426L416.438 19.208C416.289 19.2657 416.067 19.3513 415.776 19.463C415.194 19.6864 414.337 20.014 413.238 20.431C411.039 21.2648 407.869 22.456 403.984 23.8855C396.215 26.7443 385.588 30.5561 374.155 34.368C362.722 38.1799 350.482 41.9923 339.488 44.8519ZM312.278 43.5515C318.741 43.5515 328.499 41.6413 339.488 38.7827C350.482 35.9231 362.722 32.1107 374.155 28.2989C385.588 24.4869 396.215 20.6751 403.984 17.8163C407.869 16.3868 411.039 15.1956 413.238 14.3618C414.337 13.9448 415.194 13.6172 415.776 13.3938C416.067 13.2821 416.289 13.1965 416.438 13.1388L416.608 13.0734L416.65 13.0568L416.661 13.0526L416.664 13.0516C416.665 13.0514 416.665 13.0512 416.613 12.9165C416.56 12.7818 416.56 12.7819 416.559 12.7821L416.557 12.7832L416.546 12.7873L416.503 12.8039L416.334 12.8692C416.185 12.9268 415.963 13.0124 415.672 13.124C415.091 13.3473 414.234 13.6747 413.135 14.0915C410.937 14.9251 407.768 16.116 403.884 17.545C396.117 20.4032 385.493 24.214 374.063 28.0247C362.634 31.8355 350.4 35.6457 339.416 38.503C328.427 41.3614 318.7 43.2625 312.278 43.2625C297.542 43.2625 286.824 41.3586 278.116 38.5056C269.407 35.6521 262.703 31.8477 255.986 28.0361L255.982 28.0339C249.268 24.2236 242.541 20.4063 233.803 17.5433C225.062 14.6794 214.314 12.772 199.551 12.772C178.607 12.772 146.672 15.5903 114.747 18.4076L114.74 18.4083C82.806 21.2264 50.8832 24.0434 29.9535 24.0434C20.9322 24.0434 14.5491 23.3393 10.0491 22.286C5.5478 21.2324 2.94096 19.8318 1.46095 18.4467C-0.0145126 17.0658 -0.375749 15.6954 -0.376359 14.6776C-0.376665 14.1663 -0.285875 13.7403 -0.195299 13.4429C-0.150041 13.2943 -0.104936 13.1781 -0.0715194 13.0998C-0.0627914 13.0794 -0.0548568 13.0615 -0.0479598 13.0463L-0.0399337 13.029L-0.031694 13.0116C-0.0270248 13.0018 -0.0234237 12.9947 -0.0211349 12.9901L-0.018663 12.9853L-0.0181747 12.9844C-0.0181747 12.9844 -0.0182357 12.9845 -0.145738 12.9165C-0.273241 12.8485 -0.273332 12.8487 -0.273485 12.849L-0.273851 12.8496L-0.27498 12.8518L-0.278795 12.8592C-0.281999 12.8655 -0.286485 12.8745 -0.29207 12.8861C-0.303239 12.9093 -0.318834 12.943 -0.337358 12.9864C-0.374376 13.0732 -0.423173 13.1992 -0.471757 13.3587C-0.568925 13.6777 -0.665697 14.1324 -0.665361 14.6778C-0.66472 15.7733 -0.271989 17.2207 1.26347 18.6577C2.79439 20.0905 5.4554 21.5076 9.98317 22.5674C14.5122 23.6275 20.9192 24.3324 29.9535 24.3324C50.8975 24.3324 82.8326 21.5141 114.758 18.6968L114.765 18.6961C146.698 15.878 178.621 13.061 199.551 13.061C214.287 13.061 225.005 14.9649 233.713 17.818C242.422 20.6714 249.127 24.4759 255.843 28.2874L255.847 28.2896C262.561 32.0999 269.288 35.9172 278.026 38.7802C286.767 41.6441 297.516 43.5515 312.278 43.5515ZM339.488 32.7133C328.499 35.5719 318.741 37.4821 312.278 37.4821C297.516 37.4821 286.767 35.5747 278.026 32.7108C269.288 29.8478 262.561 26.0305 255.847 22.2202L255.843 22.218C249.127 18.4064 242.422 14.602 233.713 11.7486C225.005 8.89548 214.287 6.9916 199.551 6.9916C178.621 6.9916 146.698 9.80862 114.765 12.6267L114.758 12.6274C82.8326 15.4447 50.8975 18.263 29.9535 18.263C20.9192 18.263 14.5122 17.5581 9.98317 16.498C5.4554 15.4382 2.79439 14.021 1.26347 12.5883C-0.271989 11.1513 -0.66472 9.70385 -0.665361 8.60833C-0.665697 8.06296 -0.568925 7.6083 -0.471757 7.28932C-0.423173 7.12973 -0.374376 7.00377 -0.337358 6.91698C-0.318834 6.87357 -0.303239 6.83992 -0.29207 6.81672C-0.286485 6.80512 -0.281999 6.79612 -0.278795 6.78982L-0.27498 6.78241L-0.273851 6.78023L-0.273485 6.77953C-0.273332 6.77929 -0.273241 6.77909 -0.145738 6.8471L-0.0293136 6.9091L-0.0181747 6.91499L-0.018663 6.9159L-0.0211349 6.92071L-0.0247665 6.92797L-0.031694 6.94214C-0.0410629 6.96159 -0.0548263 6.99123 -0.0715194 7.03038C-0.104936 7.1087 -0.150041 7.2249 -0.195299 7.37351C-0.285875 7.67093 -0.376665 8.09684 -0.376359 8.60817C-0.375749 9.62603 -0.0145126 10.9964 1.46095 12.3773C2.94096 13.7624 5.5478 15.163 10.0491 16.2166C14.5491 17.2699 20.9322 17.974 29.9535 17.974C50.8832 17.974 82.806 15.1569 114.74 12.3388L114.747 12.3382C146.672 9.52084 178.607 6.7026 199.551 6.7026C214.314 6.7026 225.062 8.61003 233.803 11.4739C242.541 14.3369 249.268 18.1542 255.982 21.9645L255.986 21.9667C262.703 25.7783 269.407 29.5827 278.116 32.4361C286.824 35.2892 297.542 37.1931 312.278 37.1931C318.7 37.1931 328.427 35.292 339.416 32.4336C350.4 29.5763 362.634 25.7661 374.063 21.9553C385.493 18.1446 396.117 14.3338 403.884 11.4756C407.768 10.0466 410.937 8.8557 413.135 8.02212C414.234 7.60533 415.091 7.27787 415.672 7.05462C415.963 6.94299 416.185 6.85742 416.334 6.79976L416.503 6.73444L416.546 6.71792L416.557 6.71376L416.559 6.71273C416.56 6.7125 416.56 6.71238 416.613 6.8471C416.665 6.98182 416.665 6.98193 416.664 6.98217L416.661 6.98322L416.65 6.98739L416.608 7.00396L416.438 7.06937C416.289 7.12709 416.067 7.21273 415.776 7.32443C415.194 7.54781 414.337 7.87542 413.238 8.29236C411.039 9.12623 407.869 10.3174 403.984 11.7469C396.215 14.6057 385.588 18.4175 374.155 22.2294C362.722 26.0413 350.482 29.8537 339.488 32.7133ZM339.488 26.6443C328.499 29.5029 318.741 31.4131 312.278 31.4131C297.516 31.4131 286.767 29.5057 278.026 26.6418C269.288 23.7788 262.561 19.9615 255.847 16.1512L255.843 16.149C249.127 12.3374 242.422 8.53301 233.713 5.67957C225.005 2.82648 214.287 0.922604 199.551 0.922604C178.621 0.922604 146.698 3.73963 114.765 6.55773L114.758 6.55836C82.8326 9.37573 50.8975 12.194 29.9535 12.194C20.9192 12.194 14.5122 11.4891 9.98317 10.429C5.4554 9.36923 2.79439 7.95205 1.26347 6.5193C-0.271989 5.08231 -0.66472 3.63485 -0.665361 2.53933C-0.665697 1.99397 -0.568925 1.53931 -0.471757 1.22032C-0.423173 1.06074 -0.374376 0.934781 -0.337358 0.847989C-0.318834 0.804577 -0.303239 0.770924 -0.29207 0.747723C-0.286485 0.736119 -0.281999 0.727124 -0.278795 0.72083L-0.27498 0.713406L-0.273851 0.711239L-0.273485 0.710538C-0.273332 0.710293 -0.273241 0.710095 -0.145738 0.778103C-0.0182357 0.846112 -0.0181747 0.845997 -0.0181747 0.845997L-0.018663 0.846898L-0.0211349 0.851712C-0.0234237 0.856251 -0.0270248 0.863423 -0.031694 0.87315C-0.0410629 0.892598 -0.0548263 0.922238 -0.0715194 0.961384C-0.104936 1.0397 -0.150041 1.1559 -0.195299 1.30452C-0.285875 1.60193 -0.376665 2.02784 -0.376359 2.53917C-0.375749 3.55703 -0.0145126 4.92743 1.46095 6.30828C2.94096 7.69337 5.5478 9.09403 10.0491 10.1476C14.5491 11.2009 20.9322 11.905 29.9535 11.905C50.8832 11.905 82.806 9.08795 114.74 6.26984L114.747 6.26921C146.672 3.45184 178.607 0.633595 199.551 0.633595C214.314 0.633595 225.062 2.54104 233.803 5.40492C242.541 8.2679 249.268 12.0852 255.982 15.8955L255.986 15.8977C262.703 19.7093 269.407 23.5137 278.116 26.3671C286.824 29.2202 297.542 31.1241 312.278 31.1241C318.7 31.1241 328.427 29.223 339.416 26.3646C350.4 23.5073 362.634 19.6971 374.063 15.8863C385.493 12.0756 396.117 8.26477 403.884 5.40663C407.768 3.97757 410.937 2.7867 413.135 1.95312C414.234 1.53634 415.091 1.20887 415.672 0.985623C415.963 0.87399 416.185 0.788418 416.334 0.730763L416.503 0.66544L416.546 0.648915L416.557 0.644765L416.559 0.643727C416.56 0.643498 416.56 0.643384 416.613 0.778103C416.665 0.912816 416.665 0.912938 416.664 0.913174L416.661 0.914219L416.65 0.918393L416.608 0.934964L416.438 1.00038C416.289 1.0581 416.067 1.14373 415.776 1.25543C415.194 1.47882 414.337 1.80642 413.238 2.22335C411.039 3.05722 407.869 4.24843 403.984 5.67786C396.215 8.53668 385.588 12.3485 374.155 16.1604C362.722 19.9723 350.482 23.7847 339.488 26.6443Z" fill="url(#paint0_linear_323_55529)" />
  <defs>
    <linearGradient id="paint0_linear_323_55529" x1="188.514" y1="35.2487" x2="187.896" y2="0.996433" gradientUnits="userSpaceOnUse">
      <stop stop-color="#1F3891" stop-opacity="0" />
      <stop offset="1" stop-color="#1F3891" />
    </linearGradient>
  </defs>
</svg>