<svg width="50" height="13" viewBox="0 0 50 13" fill="none" xmlns="http://www.w3.org/2000/svg">
  <path fill-rule="evenodd" clip-rule="evenodd" d="M0 1.95246C0 2.57045 0.502594 3.07143 1.12258 3.07143C1.74256 3.07143 2.24515 2.57045 2.24515 1.95246C2.24515 1.33447 1.74256 0.833496 1.12258 0.833496C0.502595 0.833496 0 1.33447 0 1.95246ZM0.387095 1.95246C0.387095 2.35735 0.716381 2.68558 1.12258 2.68558C1.52877 2.68558 1.85806 2.35735 1.85806 1.95246C1.85806 1.54757 1.52877 1.21935 1.12258 1.21935C0.716381 1.21935 0.387095 1.54757 0.387095 1.95246Z" fill="url(#paint0_linear_323_55484)" />
  <path d="M8.93662 9.68844L8.93662 2.64691L9.32371 2.64691V9.92472C9.20985 9.82569 9.07922 9.74533 8.93662 9.68844Z" fill="url(#paint1_linear_323_55484)" />
  <path d="M7.93017 9.68844C7.78757 9.74533 7.65694 9.82569 7.54308 9.92472V2.64691H3.20761V2.26106L12.9945 2.26105V2.64691L7.93017 2.64691V9.68844Z" fill="url(#paint2_linear_323_55484)" />
  <path d="M8.43339 9.59221C8.49911 9.59221 8.56373 9.59688 8.62694 9.60589V2.64691H8.23985V9.60589C8.30306 9.59687 8.36768 9.59221 8.43339 9.59221Z" fill="url(#paint3_linear_323_55484)" />
  <path fill-rule="evenodd" clip-rule="evenodd" d="M8.43339 9.86223C7.81341 9.86223 7.31082 10.3632 7.31082 10.9812C7.31082 11.5992 7.81341 12.1002 8.43339 12.1002C9.05338 12.1002 9.55597 11.5992 9.55597 10.9812C9.55597 10.3632 9.05338 9.86223 8.43339 9.86223ZM8.43339 10.2481C8.0272 10.2481 7.69791 10.5763 7.69791 10.9812C7.69791 11.3861 8.0272 11.7143 8.43339 11.7143C8.83959 11.7143 9.16888 11.3861 9.16888 10.9812C9.16888 10.5763 8.83959 10.2481 8.43339 10.2481Z" fill="url(#paint4_linear_323_55484)" />
  <path d="M1.6258 3.24522C1.7684 3.18833 1.89903 3.10797 2.0129 3.00894L2.01289 11.4763H1.6258L1.6258 3.24522Z" fill="url(#paint5_linear_323_55484)" />
  <path d="M0.232257 3.00894C0.346122 3.10797 0.476756 3.18833 0.619353 3.24522L0.619352 12.0617H0.232257L0.232257 3.00894Z" fill="url(#paint6_linear_323_55484)" />
  <path d="M1.31612 3.32777C1.25291 3.33678 1.18829 3.34145 1.12257 3.34145C1.05686 3.34145 0.992242 3.33678 0.929029 3.32777L0.929029 10.891H1.31612L1.31612 3.32777Z" fill="url(#paint7_linear_323_55484)" />
  <path d="M3.79483 0.871992L3.79483 1.25784L13.5818 1.25784V0.871992L3.79483 0.871992Z" fill="url(#paint8_linear_323_55484)" />
  <path d="M4.38204 1.56652V1.95237L12.4073 1.95237V1.56652L4.38204 1.56652Z" fill="url(#paint9_linear_323_55484)" />
  <path fill-rule="evenodd" clip-rule="evenodd" d="M19.3205 8.07643C19.6148 8.2439 19.9751 8.32764 20.4014 8.32764C20.8276 8.32764 21.1862 8.2439 21.4771 8.07643C21.7681 7.90896 21.988 7.68402 22.1368 7.40161C22.2891 7.11921 22.3652 6.80396 22.3652 6.45588C22.3652 6.19975 22.3212 5.96003 22.2332 5.73673C22.1453 5.51015 22.0167 5.31148 21.8476 5.14073C21.6784 4.96997 21.4721 4.83534 21.2285 4.73682C20.9883 4.63831 20.7126 4.58905 20.4014 4.58905C20.0935 4.58905 19.8178 4.63831 19.5742 4.73682C19.3306 4.83534 19.1243 4.96997 18.9551 5.14073C18.786 5.31148 18.6574 5.51015 18.5695 5.73673C18.4815 5.96003 18.4375 6.19975 18.4375 6.45588C18.4375 6.80396 18.512 7.11921 18.6608 7.40161C18.8097 7.68402 19.0296 7.90896 19.3205 8.07643ZM19.8685 5.52C20.0309 5.43791 20.2085 5.39686 20.4014 5.39686C20.5942 5.39686 20.7701 5.43791 20.9291 5.52C21.0915 5.6021 21.22 5.72196 21.3148 5.87958C21.4095 6.0372 21.4568 6.23094 21.4568 6.46081C21.4568 6.79904 21.3587 7.0601 21.1625 7.24399C20.9663 7.42788 20.7126 7.51983 20.4014 7.51983C20.0935 7.51983 19.8398 7.42788 19.6402 7.24399C19.444 7.0601 19.3459 6.79904 19.3459 6.46081C19.3459 6.23094 19.3932 6.0372 19.488 5.87958C19.5827 5.72196 19.7095 5.6021 19.8685 5.52Z" fill="url(#paint10_linear_323_55484)" />
  <path fill-rule="evenodd" clip-rule="evenodd" d="M28.508 8.07643C28.8023 8.2439 29.1626 8.32764 29.5889 8.32764C30.0151 8.32764 30.3737 8.2439 30.6647 8.07643C30.9556 7.90896 31.1755 7.68402 31.3244 7.40161C31.4766 7.11921 31.5527 6.80396 31.5527 6.45588C31.5527 6.19975 31.5087 5.96003 31.4208 5.73673C31.3328 5.51015 31.2043 5.31148 31.0351 5.14073C30.866 4.96997 30.6596 4.83534 30.416 4.73682C30.1758 4.63831 29.9001 4.58905 29.5889 4.58905C29.281 4.58905 29.0053 4.63831 28.7618 4.73682C28.5182 4.83534 28.3118 4.96997 28.1427 5.14073C27.9735 5.31148 27.845 5.51015 27.757 5.73673C27.6691 5.96003 27.6251 6.19975 27.6251 6.45588C27.6251 6.80396 27.6995 7.11921 27.8484 7.40161C27.9972 7.68402 28.2171 7.90896 28.508 8.07643ZM29.0561 5.52C29.2185 5.43791 29.3961 5.39686 29.5889 5.39686C29.7817 5.39686 29.9576 5.43791 30.1166 5.52C30.279 5.6021 30.4076 5.72196 30.5023 5.87958C30.597 6.0372 30.6444 6.23094 30.6444 6.46081C30.6444 6.79904 30.5463 7.0601 30.3501 7.24399C30.1538 7.42788 29.9001 7.51983 29.5889 7.51983C29.281 7.51983 29.0273 7.42788 28.8277 7.24399C28.6315 7.0601 28.5334 6.79904 28.5334 6.46081C28.5334 6.23094 28.5808 6.0372 28.6755 5.87958C28.7702 5.72196 28.8971 5.6021 29.0561 5.52Z" fill="url(#paint11_linear_323_55484)" />
  <path fill-rule="evenodd" clip-rule="evenodd" d="M43.6973 8.32764C43.271 8.32764 42.9107 8.2439 42.6164 8.07643C42.3255 7.90896 42.1056 7.68402 41.9567 7.40161C41.8079 7.11921 41.7334 6.80396 41.7334 6.45588C41.7334 6.19975 41.7774 5.96003 41.8654 5.73673C41.9533 5.51015 42.0819 5.31148 42.251 5.14073C42.4202 4.96997 42.6265 4.83534 42.8701 4.73682C43.1137 4.63831 43.3894 4.58905 43.6973 4.58905C44.0085 4.58905 44.2842 4.63831 44.5244 4.73682C44.768 4.83534 44.9743 4.96997 45.1435 5.14073C45.3126 5.31148 45.4412 5.51015 45.5291 5.73673C45.6171 5.96003 45.6611 6.19975 45.6611 6.45588C45.6611 6.80396 45.585 7.11921 45.4327 7.40161C45.2839 7.68402 45.064 7.90896 44.773 8.07643C44.4821 8.2439 44.1235 8.32764 43.6973 8.32764ZM43.6973 5.39686C43.5044 5.39686 43.3268 5.43791 43.1644 5.52C43.0054 5.6021 42.8786 5.72196 42.7839 5.87958C42.6891 6.0372 42.6418 6.23094 42.6418 6.46081C42.6418 6.79904 42.7399 7.0601 42.9361 7.24399C43.1357 7.42788 43.3894 7.51983 43.6973 7.51983C44.0085 7.51983 44.2622 7.42788 44.4584 7.24399C44.6546 7.0601 44.7527 6.79904 44.7527 6.46081C44.7527 6.23094 44.7054 6.0372 44.6106 5.87958C44.5159 5.72196 44.3874 5.6021 44.225 5.52C44.066 5.43791 43.8901 5.39686 43.6973 5.39686Z" fill="url(#paint12_linear_323_55484)" />
  <path d="M46.2452 8.26362H47.0825V5.35255H47.3768C47.4885 5.35255 47.5866 5.35419 47.6712 5.35747C48.0568 5.36404 48.2496 5.51345 48.2496 5.80571C48.2496 5.95676 48.2057 6.07498 48.1177 6.16036C48.0331 6.24574 47.9063 6.29171 47.7371 6.29828C47.6525 6.30156 47.5832 6.3032 47.5291 6.3032C47.4749 6.29992 47.409 6.29664 47.3312 6.29335L47.5088 7.04205C47.546 7.04534 47.5798 7.04698 47.6103 7.04698H47.7219C48.0906 7.04698 48.3799 6.99116 48.5896 6.87951C48.8028 6.76786 48.955 6.61845 49.0463 6.43127C49.1377 6.2441 49.1833 6.03558 49.1833 5.80571C49.1833 5.57256 49.1191 5.37061 48.9905 5.19985C48.8653 5.0291 48.6928 4.8961 48.4729 4.80087C48.253 4.70564 48.0044 4.65639 47.727 4.6531C47.2263 4.64654 46.7324 4.64654 46.2452 4.6531V8.26362Z" fill="url(#paint13_linear_323_55484)" />
  <path d="M41.3318 5.41164V4.65309H38.2973V5.41164H39.3477V8.26361H40.2814V5.41164H41.3318Z" fill="url(#paint14_linear_323_55484)" />
  <path fill-rule="evenodd" clip-rule="evenodd" d="M36.0864 4.65309L34.833 8.26361H35.7362L35.924 7.70208H37.2636L37.4514 8.26361H38.3547L37.1013 4.65309H36.0864ZM36.6547 5.88943L37.0607 7.06174H36.127L36.5329 5.88943L36.5938 5.653L36.6547 5.88943Z" fill="url(#paint15_linear_323_55484)" />
  <path d="M32.1268 8.26361H33.03V5.39194H34.5016V4.65309H32.1268V8.26361Z" fill="url(#paint16_linear_323_55484)" />
  <path d="M22.9646 4.65309H23.9947L24.8117 6.7859L24.9944 7.41639L25.1771 6.7859L25.9941 4.65309H27.0242V8.26361H26.1514L26.1463 7.1307L26.2021 6.19482L25.4917 8.26361H24.4971L23.7867 6.19482L23.8425 7.1307V8.26361H22.9697L22.9646 4.65309Z" fill="url(#paint17_linear_323_55484)" />
  <path d="M14.7676 8.26361H15.6201V5.36731H17.0105V8.26361H17.863V4.65309H14.7676V8.26361Z" fill="url(#paint18_linear_323_55484)" />
  <defs>
    <linearGradient id="paint0_linear_323_55484" x1="15.8976" y1="0.833496" x2="16.3673" y2="12.4332" gradientUnits="userSpaceOnUse">
      <stop stop-color="#F12424" />
      <stop offset="1" stop-color="#1E4DF1" />
    </linearGradient>
    <linearGradient id="paint1_linear_323_55484" x1="15.8976" y1="0.833496" x2="16.3673" y2="12.4332" gradientUnits="userSpaceOnUse">
      <stop stop-color="#F12424" />
      <stop offset="1" stop-color="#1E4DF1" />
    </linearGradient>
    <linearGradient id="paint2_linear_323_55484" x1="15.8976" y1="0.833496" x2="16.3673" y2="12.4332" gradientUnits="userSpaceOnUse">
      <stop stop-color="#F12424" />
      <stop offset="1" stop-color="#1E4DF1" />
    </linearGradient>
    <linearGradient id="paint3_linear_323_55484" x1="15.8976" y1="0.833496" x2="16.3673" y2="12.4332" gradientUnits="userSpaceOnUse">
      <stop stop-color="#F12424" />
      <stop offset="1" stop-color="#1E4DF1" />
    </linearGradient>
    <linearGradient id="paint4_linear_323_55484" x1="15.8976" y1="0.833496" x2="16.3673" y2="12.4332" gradientUnits="userSpaceOnUse">
      <stop stop-color="#F12424" />
      <stop offset="1" stop-color="#1E4DF1" />
    </linearGradient>
    <linearGradient id="paint5_linear_323_55484" x1="15.8976" y1="0.833496" x2="16.3673" y2="12.4332" gradientUnits="userSpaceOnUse">
      <stop stop-color="#F12424" />
      <stop offset="1" stop-color="#1E4DF1" />
    </linearGradient>
    <linearGradient id="paint6_linear_323_55484" x1="15.8976" y1="0.833496" x2="16.3673" y2="12.4332" gradientUnits="userSpaceOnUse">
      <stop stop-color="#F12424" />
      <stop offset="1" stop-color="#1E4DF1" />
    </linearGradient>
    <linearGradient id="paint7_linear_323_55484" x1="15.8976" y1="0.833496" x2="16.3673" y2="12.4332" gradientUnits="userSpaceOnUse">
      <stop stop-color="#F12424" />
      <stop offset="1" stop-color="#1E4DF1" />
    </linearGradient>
    <linearGradient id="paint8_linear_323_55484" x1="15.8976" y1="0.833496" x2="16.3673" y2="12.4332" gradientUnits="userSpaceOnUse">
      <stop stop-color="#F12424" />
      <stop offset="1" stop-color="#1E4DF1" />
    </linearGradient>
    <linearGradient id="paint9_linear_323_55484" x1="15.8976" y1="0.833496" x2="16.3673" y2="12.4332" gradientUnits="userSpaceOnUse">
      <stop stop-color="#F12424" />
      <stop offset="1" stop-color="#1E4DF1" />
    </linearGradient>
    <linearGradient id="paint10_linear_323_55484" x1="15.8976" y1="0.833496" x2="16.3673" y2="12.4332" gradientUnits="userSpaceOnUse">
      <stop stop-color="#F12424" />
      <stop offset="1" stop-color="#1E4DF1" />
    </linearGradient>
    <linearGradient id="paint11_linear_323_55484" x1="15.8976" y1="0.833496" x2="16.3673" y2="12.4332" gradientUnits="userSpaceOnUse">
      <stop stop-color="#F12424" />
      <stop offset="1" stop-color="#1E4DF1" />
    </linearGradient>
    <linearGradient id="paint12_linear_323_55484" x1="15.8976" y1="0.833496" x2="16.3673" y2="12.4332" gradientUnits="userSpaceOnUse">
      <stop stop-color="#F12424" />
      <stop offset="1" stop-color="#1E4DF1" />
    </linearGradient>
    <linearGradient id="paint13_linear_323_55484" x1="15.8976" y1="0.833496" x2="16.3673" y2="12.4332" gradientUnits="userSpaceOnUse">
      <stop stop-color="#F12424" />
      <stop offset="1" stop-color="#1E4DF1" />
    </linearGradient>
    <linearGradient id="paint14_linear_323_55484" x1="15.8976" y1="0.833496" x2="16.3673" y2="12.4332" gradientUnits="userSpaceOnUse">
      <stop stop-color="#F12424" />
      <stop offset="1" stop-color="#1E4DF1" />
    </linearGradient>
    <linearGradient id="paint15_linear_323_55484" x1="15.8976" y1="0.833496" x2="16.3673" y2="12.4332" gradientUnits="userSpaceOnUse">
      <stop stop-color="#F12424" />
      <stop offset="1" stop-color="#1E4DF1" />
    </linearGradient>
    <linearGradient id="paint16_linear_323_55484" x1="15.8976" y1="0.833496" x2="16.3673" y2="12.4332" gradientUnits="userSpaceOnUse">
      <stop stop-color="#F12424" />
      <stop offset="1" stop-color="#1E4DF1" />
    </linearGradient>
    <linearGradient id="paint17_linear_323_55484" x1="15.8976" y1="0.833496" x2="16.3673" y2="12.4332" gradientUnits="userSpaceOnUse">
      <stop stop-color="#F12424" />
      <stop offset="1" stop-color="#1E4DF1" />
    </linearGradient>
    <linearGradient id="paint18_linear_323_55484" x1="15.8976" y1="0.833496" x2="16.3673" y2="12.4332" gradientUnits="userSpaceOnUse">
      <stop stop-color="#F12424" />
      <stop offset="1" stop-color="#1E4DF1" />
    </linearGradient>
  </defs>
</svg>