<svg width="24" height="24" viewBox="0 0 24 24" fill="none"
    xmlns="http://www.w3.org/2000/svg">
    <g clip-path="url(#clip0_319_4089)">
        <path d="M12 24C18.6274 24 24 18.6274 24 12C24 5.37258 18.6274 0 12 0C5.37258 0 0 5.37258 0 12C0 18.6274 5.37258 24 12 24Z" fill="#4360F8"/>
        <path fill-rule="evenodd" clip-rule="evenodd" d="M4.98762 11.948C8.67754 10.4611 11.1381 9.48079 12.3692 9.00716C15.8843 7.65486 16.6147 7.41995 17.0908 7.41219C17.1955 7.41049 17.4296 7.43449 17.5813 7.54831C17.7093 7.64441 17.7446 7.77424 17.7614 7.86535C17.7783 7.95647 17.7993 8.16404 17.7826 8.32623C17.5921 10.1774 16.7679 14.6698 16.3486 16.7432C16.1711 17.6205 15.8192 17.8083 15.481 17.8371C14.7459 17.8996 14.1903 17.4942 13.4784 17.0625C12.3644 16.3871 11.6906 16.0754 10.6093 15.4163C9.35957 14.6546 10.4592 14.2984 11.1714 13.6142C11.3578 13.4352 14.5423 10.5721 14.5286 10.486C14.5236 10.4547 14.4291 10.146 14.3551 10.0851C14.2811 10.0243 14.1719 10.0451 14.093 10.0616C13.9813 10.0851 12.2016 11.1731 8.75402 13.3256C8.24886 13.6465 7.79131 13.8028 7.38136 13.7946C6.92942 13.7856 6.06007 13.5582 5.4138 13.3639C4.62112 13.1256 4.32852 13.0134 4.38338 12.6086C4.41195 12.3978 4.61336 12.1776 4.98762 11.948Z" fill="white"/>
    </g>
    <defs>
        <clipPath id="clip0_319_4089">
            <rect width="24" height="24" fill="white"/>
        </clipPath>
    </defs>
</svg>
